<svg xmlns="http://www.w3.org/2000/svg" width="180" height="180.01537" viewBox="0 0 180 180.01537">
  <defs>
    <style>
      .ea3caee0-06c3-4206-ab1c-1ad458b5665e {
        fill: #fff;
      }

      .a6efb599-f2cd-42eb-af77-183280cb0c48 {
        fill: #242f4b;
      }

      .e6972f21-fba7-4e07-b523-8f4af5b7c4fc {
        fill: #d5926e;
      }

      .a0d54d90-3f0c-4a9e-a942-8261b148da1f {
        fill: #d6772b;
      }

      .b41097ed-03f2-4aca-9e3e-ee53fff7c967 {
        fill: #ea975d;
      }

      .adeaf239-b177-408d-bab0-c9019c9e131b {
        fill: #f1b78a;
      }

      .a2450d5f-ea39-461b-8261-6dd1b4a9e02d {
        fill: #aab1c7;
      }

      .a4b56aa4-44a6-4772-8242-d858ea750e3c {
        fill: #6d7b9b;
      }
    </style>
  </defs>
  <title>Asset 1</title>
  <g id="a896ea7f-ebde-479c-80ca-9bdb7f5d40c2" data-name="Layer 2">
    <g id="e922b9b7-45ea-4641-ae35-c6108cee2451" data-name="Layer 7">
      <g>
        <rect class="ea3caee0-06c3-4206-ab1c-1ad458b5665e" y="0.00768" width="180" height="180" rx="12.13537" transform="translate(180 180.01537) rotate(180)"/>
        <g>
          <path class="a6efb599-f2cd-42eb-af77-183280cb0c48" d="M167.91842.01537H83.40574l60.50748,9.54811,4.09459,13.51734a2.46268,2.46268,0,0,0,3.26732,1.57281l16.15651-6.43507L157.56146,32.538a2.46167,2.46167,0,0,0,.807,3.53468l12.13566,6.92492L180,120.876V12.097A12.09519,12.09519,0,0,0,167.91842.01537Z"/>
          <path class="e6972f21-fba7-4e07-b523-8f4af5b7c4fc" d="M144.7786,53.1136a2.45982,2.45982,0,0,0-3.62564,0l-9.02508,9.82654L69.41823,149.848l10.57146-.716c.28948-.02028.6687-.01045,1.10816.00246a9.12255,9.12255,0,0,0,2.14072-.08666,8.02395,8.02395,0,0,1,.4161-.85186c.12845-.27167.24523-.50952.34418-.673l2.63734-4.35274q.72924-1.20219,1.46709-2.4007c.98954-1.61277,1.96433-3.20217,2.8881-4.783,2.63795-4.51807,5.20091-8.947,7.54753-13.45832,1.93728-3.72644,3.73259-7.63911,5.46766-11.44177l-.00062-.00061,1.394-3.04974c1.1309-2.464,1.93421-4.35028,2.60476-6.11608a11.16506,11.16506,0,0,0,.48924-2.4972,9.252,9.252,0,0,1,1.236-4.25256c1.12107-1.66193,3.306-3.15607,5.06139-4.35581.39336-.26859.70251-.48125.98339-.67977a15.40593,15.40593,0,0,0,2.815-2.77624,25.57945,25.57945,0,0,1,2.01288-2.17882c1.09648-1.02457,3.389-2.29745,5.2089-1.60477a3.03046,3.03046,0,0,1,1.87029,2.81188c.142,1.53286-.74123,3.11121-1.783,4.47935a18.97369,18.97369,0,0,0,2.38411-.79347,15.74235,15.74235,0,0,1,3.21077-.97848c.56545-.0842,1.19421-.14013,1.80207-.19422a18.84052,18.84052,0,0,0,2.41361-.31161,5.5929,5.5929,0,0,0,1.50029-.83957,12.87623,12.87623,0,0,1,1.3706-.85125c.992-.50768.992-.50768,1.46218-1.65271l.209-.50584c.145-.343.252-.55991.3319-.72033a1.38227,1.38227,0,0,0,.00614-.57528,3.66529,3.66529,0,0,0-.14443-.66318,4.63438,4.63438,0,0,1-.217-1.75843,5.50583,5.50583,0,0,1,1.775-3.53775,2.43884,2.43884,0,0,1,1.93421-.5132,2.73276,2.73276,0,0,1,2.07,2.10937,4.20367,4.20367,0,0,1,2.11183-1.46279,3.19629,3.19629,0,0,1,1.75966.02458L153.379,62.47733Z"/>
          <path class="a0d54d90-3f0c-4a9e-a942-8261b148da1f" d="M156.12448,45.90349l.00062-.00061a2.46107,2.46107,0,0,0-2.26058,2.834l2,12.83326.18623.20159-4.169,18.05507a4.062,4.062,0,0,1,.14935,1.15733l-.01475.15919a12.09557,12.09557,0,0,0-.25076,2.50335,16.01366,16.01366,0,0,1-.217,2.52977,29.45136,29.45136,0,0,1-1.35032,5.04726c-.09527.25015-.18623.52365-.28027.80638a8.43469,8.43469,0,0,1-1.58387,3.1616L128.753,180.01537h39.16542A12.09506,12.09506,0,0,0,180,167.9344V141.00606L168.29334,45.05347Z"/>
          <path class="b41097ed-03f2-4aca-9e3e-ee53fff7c967" d="M143.30351,97.333c-.26367.0633-.496.11923-.705.17394a13.91348,13.91348,0,0,1-2.01349.31714,7.51817,7.51817,0,0,0-2.2913.47326c-.69206.32144-1.40257.73447-2.08971,1.13336-.64351.3743-1.36384.79408-2.10323,1.15179a51.408,51.408,0,0,0-8.491,5.2341c-4.13147,3.078-5.39821,7.65141-6.73931,12.49277-.18991.68653-.37922,1.37183-.57774,2.05836-1.61645,5.58566-3.42036,11.31945-5.5156,17.529-1.81743,5.38653-4.01531,10.5856-6.29616,15.88116-1.53163,3.55558-2.81988,6.41909-4.05526,9.01156l-.209.4456c-.89182,1.89241-2.11184,4.48426-4.05834,5.62623a14.78964,14.78964,0,0,1-4.18,1.38289c-.65457.14874-1.22678.27842-1.73015.42962L61.1854,180.01537h65.06l19.221-83.2607C144.72882,96.98638,143.963,97.17261,143.30351,97.333Z"/>
          <path class="adeaf239-b177-408d-bab0-c9019c9e131b" d="M129.80769,45.90411,116.865,45,22.862,101.37354c.118.19852.23048.39336.338.587.19115.34234.43208.72033.68776,1.12107a12.44582,12.44582,0,0,1,1.641,3.21876,9.57912,9.57912,0,0,1,.23417,2.41546,5.60244,5.60244,0,0,0,.29071,2.196c.8451,1.98522,3.57832,3.28146,5.77435,4.32262l.68531.3276c.28825.1389.66071.27166,1.05407.413,1.26919.45789,2.70494.976,3.43388,2.129.98708,1.55868.279,3.08539-.18992,4.09583a6.66991,6.66991,0,0,0-.38106.92869c-.024.08666-.04794.16472-.07068.2354.04855.07191.10264.15242.161.24462a5.88678,5.88678,0,0,0,.62015.74184,10.32374,10.32374,0,0,1,.67485.78241c.456.6054,1.77072,2.35338,1.12414,4.3466,1.40625,1.19912.89058,2.80635.60233,3.70431a6.43073,6.43073,0,0,0-.23233.84879c-.07744.469.17271.93176.587,1.64841a6.17922,6.17922,0,0,1,.94344,2.38472c.48555,4.01163-1.11983,6.96057-5.20644,9.561a71.60794,71.60794,0,0,1-9.30227,4.77191l-.22557.10141a16.971,16.971,0,0,0-3.99994,2.31527c-1.32266,1.09279-1.52426,1.25936-1.47939,2.37182a121.25585,121.25585,0,0,0,15.899-4.12164,44.94626,44.94626,0,0,1,11.5272-1.772l18.19766-1.2317,63.80429-88.41366,2.01288-12.91071a2.45959,2.45959,0,0,0-2.26-2.83339Z"/>
          <path class="a2450d5f-ea39-461b-8261-6dd1b4a9e02d" d="M116.27008,42.5071l.01536.00123,11.27766-6.43568a2.46216,2.46216,0,0,0,.80761-3.53468l-7.14864-10.37048L0,40.3547V86.86114a23.02859,23.02859,0,0,1,9.14063,2.24643A32.51279,32.51279,0,0,1,21.53136,99.32194Z"/>
          <path class="a4b56aa4-44a6-4772-8242-d858ea750e3c" d="M122.59083,19.8473,134.657,24.65424a2.46266,2.46266,0,0,0,3.26671-1.57342l3.46645-11.443L67.63337,0,12.08158.01537A12.09519,12.09519,0,0,0,0,12.097v25.787l122.36772-18.3593Z"/>
        </g>
      </g>
    </g>
  </g>
</svg>
