<svg xmlns="http://www.w3.org/2000/svg" width="423.97656" height="155.12256" viewBox="0 0 423.97656 155.12256">
  <defs>
    <style>
      .a0ef5214-0add-45fb-8cc9-e11072f2654e {
        fill: #242f4b;
      }

      .a3efa064-861d-4a61-b9b3-3e33aab342ae {
        fill: #d5926e;
      }

      .e2796ad0-fef6-4b2d-b0bf-a1a3bd6ad47d {
        fill: #d6772b;
      }

      .f313fd44-139e-42cd-b7bb-02d046b04040 {
        fill: #ea975d;
      }

      .a311b1e6-c673-44bb-9157-d971b59f3e2b {
        fill: #f1b78a;
      }

      .b4f3afde-e3eb-47c9-81a4-bc5fd40a772f {
        fill: #aab1c7;
      }

      .a21e8613-2103-4dbf-bbee-1f550a99d81e {
        fill: #6d7b9b;
      }

      .afbf60e0-fb85-48a1-842a-488ffbb2100a {
        fill: #0d2043;
      }
    </style>
  </defs>
  <title>STAR_DRIVE-logo_horizontal</title>
  <g id="f86d1e1a-92ab-43d9-9c7a-7d3356093761" data-name="Layer 7">
    <g>
      <g>
        <path class="a0ef5214-0add-45fb-8cc9-e11072f2654e" d="M86.09555,28.097H42.764l31.02354,4.89554,2.09939,6.93064a1.26268,1.26268,0,0,0,1.67523.80641l8.28381-3.2994L80.7853,44.77209a1.26215,1.26215,0,0,0,.41377,1.81231L87.4213,50.135,92.29,90.065V34.29152A6.20148,6.20148,0,0,0,86.09555,28.097Z"/>
        <path class="a3efa064-861d-4a61-b9b3-3e33aab342ae" d="M74.23124,55.32168a1.26123,1.26123,0,0,0-1.85895,0L67.74493,60.36l-32.15264,44.5596,5.42022-.36712c.14843-.0104.34286-.00536.56818.00126a4.67748,4.67748,0,0,0,1.09759-.04443,4.1133,4.1133,0,0,1,.21335-.43677c.06586-.13929.12573-.26125.17647-.34507l1.35222-2.23175q.37391-.61639.75221-1.23089c.50736-.8269,1.00716-1.64183,1.4808-2.45234,1.35253-2.31651,2.66662-4.58734,3.86978-6.90039.99329-1.91063,1.91379-3.91674,2.8034-5.86644l-.00032-.00032.71471-1.56367c.57984-1.26336.99172-2.23049,1.33552-3.13585a5.72521,5.72521,0,0,0,.25085-1.28037A4.74356,4.74356,0,0,1,56.261,76.885a10.04377,10.04377,0,0,1,2.59509-2.23333c.20168-.13771.36019-.24674.50421-.34853a7.89926,7.89926,0,0,0,1.44329-1.42344,13.11415,13.11415,0,0,1,1.03205-1.11713,2.91507,2.91507,0,0,1,2.67072-.82281,1.55381,1.55381,0,0,1,.95894,1.44172,3.52771,3.52771,0,0,1-.91419,2.29666,9.72664,9.72664,0,0,0,1.22239-.40683,8.0718,8.0718,0,0,1,1.64623-.50168c.28992-.04318.6123-.07185.924-.09958a9.66036,9.66036,0,0,0,1.23751-.15978,2.867,2.867,0,0,0,.76923-.43046,6.60411,6.60411,0,0,1,.70274-.43646c.50862-.26029.50862-.26029.7497-.84738l.10714-.25935c.07437-.17584.1292-.28708.17017-.36933a.70861.70861,0,0,0,.00315-.295,1.87964,1.87964,0,0,0-.074-.34,2.37622,2.37622,0,0,1-.11125-.90158,2.82305,2.82305,0,0,1,.9101-1.81389,1.25044,1.25044,0,0,1,.99171-.26313,1.40115,1.40115,0,0,1,1.06136,1.08152,2.15535,2.15535,0,0,1,1.08278-.75,1.63873,1.63873,0,0,1,.90222.0126l1.79466-7.77519Z"/>
        <path class="e2796ad0-fef6-4b2d-b0bf-a1a3bd6ad47d" d="M80.04853,51.6249l.00032-.00032a1.26184,1.26184,0,0,0-1.15905,1.45306l1.02543,6.5799.09548.10337-2.13752,9.25724a2.08287,2.08287,0,0,1,.07658.59338l-.00756.08162a6.201,6.201,0,0,0-.12858,1.28352,8.21023,8.21023,0,0,1-.11124,1.29708,15.099,15.099,0,0,1-.69234,2.58784c-.04884.12826-.09548.26849-.1437.41345a4.3246,4.3246,0,0,1-.81208,1.621l-10.03971,43.491h20.081a6.20141,6.20141,0,0,0,6.1945-6.19418V100.38612L86.28778,51.18907Z"/>
        <path class="f313fd44-139e-42cd-b7bb-02d046b04040" d="M73.47493,77.994c-.13519.03245-.25431.06113-.36145.08918a7.1337,7.1337,0,0,1-1.03237.1626,3.85508,3.85508,0,0,0-1.1748.24265c-.35483.16482-.71912.37658-1.07144.5811-.32994.19192-.69927.40715-1.07837.59055A26.35731,26.35731,0,0,0,64.403,82.34371c-2.1183,1.57816-2.76778,3.923-3.4554,6.40532-.09737.352-.19443.70336-.29622,1.05536-.82879,2.8639-1.75369,5.80374-2.828,8.98749-.93184,2.7618-2.05874,5.42748-3.22818,8.14263-.78531,1.823-1.44582,3.29121-2.07923,4.62043l-.10714.22847a6.47863,6.47863,0,0,1-2.0808,2.88469,7.58268,7.58268,0,0,1-2.14319.709c-.33562.07626-.629.14275-.88709.22028l-15.92664,4.78965h33.3577l9.855-42.68963C74.20572,77.81624,73.81307,77.91173,73.47493,77.994Z"/>
        <path class="a311b1e6-c673-44bb-9157-d971b59f3e2b" d="M66.55532,51.62521l-6.636-.46355-48.19746,28.904c.0605.10178.11817.20168.17332.30094.098.17553.22153.36934.35263.5748a6.38108,6.38108,0,0,1,.84139,1.65033,4.91119,4.91119,0,0,1,.12007,1.23846,2.87252,2.87252,0,0,0,.14905,1.126c.43331,1.01787,1.83469,1.68247,2.96064,2.2163l.35137.168c.1478.07122.33877.13928.54045.21176a3.27016,3.27016,0,0,1,1.76063,1.09161,2.0709,2.0709,0,0,1-.09738,2.1,3.42122,3.42122,0,0,0-.19538.47616c-.01229.04444-.02458.08446-.03624.1207.0249.03687.05263.07815.08257.12542a3.01827,3.01827,0,0,0,.318.38036,5.29083,5.29083,0,0,1,.346.40116,2.50162,2.50162,0,0,1,.57638,2.2286,1.62272,1.62272,0,0,1,.30882,1.89928,3.29883,3.29883,0,0,0-.11912.43519c-.0397.24045.08856.47774.301.84518a3.16833,3.16833,0,0,1,.48373,1.2227c.24895,2.05685-.57417,3.56884-2.66946,4.90216a36.71443,36.71443,0,0,1-4.76949,2.44666l-.11565.052a8.70152,8.70152,0,0,0-2.05086,1.18709c-.67816.5603-.78152.6457-.75852,1.21608a62.17071,62.17071,0,0,0,8.15177-2.11325,23.0447,23.0447,0,0,1,5.91025-.90852l9.33035-.63152L66.682,59.69756l1.032-6.6196a1.26107,1.26107,0,0,0-1.15873-1.45275Z"/>
        <path class="b4f3afde-e3eb-47c9-81a4-bc5fd40a772f" d="M59.61428,49.88349l.00788.00063,5.78231-3.29972a1.2624,1.2624,0,0,0,.41408-1.81231l-3.66527-5.31718L0,48.77991V72.6248a11.80738,11.80738,0,0,1,4.6866,1.1518,16.67006,16.67006,0,0,1,6.353,5.23713Z"/>
        <path class="a21e8613-2103-4dbf-bbee-1f550a99d81e" d="M62.85507,38.2653l6.18662,2.46463a1.26267,1.26267,0,0,0,1.67491-.80673l1.77733-5.86708-37.81678-5.967L6.1945,28.097A6.20148,6.20148,0,0,0,0,34.29152V47.51309l62.74068-9.41323Z"/>
      </g>
      <g>
        <g>
          <path class="afbf60e0-fb85-48a1-842a-488ffbb2100a" d="M177.37891,46.26025a5.9192,5.9192,0,0,1-1.89063,2.02491,4.88428,4.88428,0,0,1-2.51953.585,7.92529,7.92529,0,0,1-3.46484-.89991q-1.8457-.89868-4.27539-2.0249a39.23674,39.23674,0,0,0-5.53516-2.02539,26.54556,26.54556,0,0,0-7.334-.8999q-6.57129,0-10.34961,2.79a8.65361,8.65361,0,0,0-3.78125,7.29,6.94954,6.94954,0,0,0,1.93554,4.99511,17.36889,17.36889,0,0,0,5.13086,3.55469,50.06961,50.06961,0,0,0,7.24414,2.74512q4.04883,1.21509,8.2793,2.65527,4.23046,1.44067,8.28125,3.28467a28.90459,28.90459,0,0,1,7.24414,4.68018,20.59521,20.59521,0,0,1,7.06445,16.335,30.62253,30.62253,0,0,1-2.42968,12.28515,26.99511,26.99511,0,0,1-7.10938,9.71973,33.30932,33.30932,0,0,1-11.56445,6.39014,53.832,53.832,0,0,1-25.11133,1.43994,54.98694,54.98694,0,0,1-8.72852-2.38477,48.12484,48.12484,0,0,1-7.74023-3.60009,37.52248,37.52248,0,0,1-6.25586-4.5l5.13086-8.46a7.23974,7.23974,0,0,1,2.33984-2.34033,6.5573,6.5573,0,0,1,3.41993-.80957,7.19559,7.19559,0,0,1,3.91406,1.16992q1.84571,1.17042,4.27539,2.52a38.13294,38.13294,0,0,0,5.71484,2.52,25.13946,25.13946,0,0,0,8.32617,1.16992,21.59409,21.59409,0,0,0,6.79493-.94531,14.3821,14.3821,0,0,0,4.67968-2.47461,9.30323,9.30323,0,0,0,2.69922-3.55517,10.65357,10.65357,0,0,0,.85547-4.18506A7.47131,7.47131,0,0,0,160.68359,90a16.98526,16.98526,0,0,0-5.1289-3.6001,49.63931,49.63931,0,0,0-7.291-2.74463Q144.168,82.44018,139.89453,81a76.9427,76.9427,0,0,1-8.37109-3.375,28.48292,28.48292,0,0,1-7.28906-4.90479,22.17571,22.17571,0,0,1-5.13086-7.29,25.42074,25.42074,0,0,1-1.9336-10.43995,26.567,26.567,0,0,1,2.25-10.80029,25.31412,25.31412,0,0,1,6.61328-8.95508,32.84811,32.84811,0,0,1,10.89063-6.11963,45.35434,45.35434,0,0,1,15.07422-2.29492,46.16654,46.16654,0,0,1,17.37109,3.1499A39.24347,39.24347,0,0,1,182.41992,38.25Z"/>
          <path class="afbf60e0-fb85-48a1-842a-488ffbb2100a" d="M231.55859,122.04q-11.9707,0-18.45117-6.79492-6.47754-6.79469-6.47851-18.76514V44.91016h-9.36133A4.265,4.265,0,0,1,192.85742,40.23V31.41016L207.709,28.98l4.67969-25.19971a4.45,4.45,0,0,1,1.66406-2.79A5.2806,5.2806,0,0,1,217.33789,0h11.51953V29.07031H253.1582V44.91016H228.85742v50.04a9.81179,9.81179,0,0,0,2.16016,6.75,7.32666,7.32666,0,0,0,5.75976,2.42968,10.45328,10.45328,0,0,0,3.46485-.49463,19.09741,19.09741,0,0,0,2.43164-1.03515c.6875-.35987,1.30469-.70459,1.84375-1.03516a3.0957,3.0957,0,0,1,1.62109-.49463,2.54983,2.54983,0,0,1,1.61914.49463,7.55466,7.55466,0,0,1,1.34961,1.48535l6.66016,10.79981a33.6583,33.6583,0,0,1-11.16016,6.12011A41.54463,41.54463,0,0,1,231.55859,122.04Z"/>
          <path class="afbf60e0-fb85-48a1-842a-488ffbb2100a" d="M343.24805,120.6001h-9.99024a10.76585,10.76585,0,0,1-4.95117-.94483,6.07451,6.07451,0,0,1-2.69922-3.82519l-1.98047-6.56983a75.91667,75.91667,0,0,1-6.88476,5.53467,41.81273,41.81273,0,0,1-6.97461,4.00537,35.62655,35.62655,0,0,1-7.65039,2.42969,46.02327,46.02327,0,0,1-9,.81006,35.40688,35.40688,0,0,1-10.80078-1.5791,23.25786,23.25786,0,0,1-8.50391-4.74073,21.49306,21.49306,0,0,1-5.53516-7.85644A27.945,27.945,0,0,1,266.29688,96.937,21.5894,21.5894,0,0,1,269.043,86.59717a25.85845,25.85845,0,0,1,9.13476-9.21q6.38966-4.10889,17.00977-6.81739,10.61718-2.70849,26.36914-2.71V62.41943q0-9.34057-3.91406-13.83056-3.91407-4.489-11.38477-4.48877a27.56451,27.56451,0,0,0-9,1.25976,34.93931,34.93931,0,0,0-6.25586,2.83545q-2.6543,1.57545-4.90429,2.835A9.95168,9.95168,0,0,1,281.14648,52.29a6.42806,6.42806,0,0,1-3.86914-1.16992,9.176,9.176,0,0,1-2.60937-2.87989l-4.05078-7.11035q15.93163-14.57958,38.42969-14.57959a37.14932,37.14932,0,0,1,14.44531,2.65479A30.72573,30.72573,0,0,1,334.24805,36.585a31.64671,31.64671,0,0,1,6.70507,11.29492,43.42654,43.42654,0,0,1,2.29493,14.40039Zm-43.20117-13.85987a29.99379,29.99379,0,0,0,6.30078-.62011,24.13618,24.13618,0,0,0,5.44531-1.86084,29.0167,29.0167,0,0,0,4.94922-3.05567,44.65025,44.65025,0,0,0,4.81445-4.29736V81.4502a90.27944,90.27944,0,0,0-16.24414,1.22314,42.92281,42.92281,0,0,0-10.48438,3.12793,13.47973,13.47973,0,0,0-5.625,4.44189,9.86828,9.86828,0,0,0-1.666,5.52832q0,5.89308,3.46484,8.43018A14.9271,14.9271,0,0,0,300.04688,106.74023Z"/>
          <path class="afbf60e0-fb85-48a1-842a-488ffbb2100a" d="M365.11719,120.6001V28.26025H378.166q3.42188,0,4.77148,1.25977a7.26639,7.26639,0,0,1,1.79883,4.32031L386.08594,45a43.88477,43.88477,0,0,1,11.61133-13.5,24.43218,24.43218,0,0,1,14.93945-4.94971,19.31434,19.31434,0,0,1,11.33984,3.14991l-2.8789,16.6499a3.4532,3.4532,0,0,1-1.16993,2.29492,3.96729,3.96729,0,0,1-2.43164.67529,15.15257,15.15257,0,0,1-3.68945-.63037,24.75111,24.75111,0,0,0-6.209-.62988,18.85112,18.85112,0,0,0-11.88086,3.82519,29.44528,29.44528,0,0,0-8.36914,11.20508V120.6001Z"/>
        </g>
        <g>
          <path class="afbf60e0-fb85-48a1-842a-488ffbb2100a" d="M121.69727,142.53076a.64106.64106,0,0,1-.15235.17969.33592.33592,0,0,1-.207.06006.54816.54816,0,0,1-.31641-.13574,4.97794,4.97794,0,0,0-.457-.3003,3.69539,3.69539,0,0,0-.66406-.2998,2.84093,2.84093,0,0,0-.93945-.13623,2.78864,2.78864,0,0,0-.91992.14013,1.94261,1.94261,0,0,0-.668.37989,1.58836,1.58836,0,0,0-.4043.564,1.80724,1.80724,0,0,0-.13477.7002,1.29955,1.29955,0,0,0,.23438.7959,2.02586,2.02586,0,0,0,.625.54,4.73706,4.73706,0,0,0,.87891.38819q.49218.16405,1.00976.33984.51563.17578,1.00781.396a3.52657,3.52657,0,0,1,.87891.55615,2.53579,2.53579,0,0,1,.625.82373,2.76,2.76,0,0,1,.23633,1.2002,3.84606,3.84606,0,0,1-.25781,1.41211,3.24265,3.24265,0,0,1-.74805,1.14794,3.49208,3.49208,0,0,1-1.207.76807,4.44333,4.44333,0,0,1-1.62891.27979,4.97879,4.97879,0,0,1-2.02734-.40381,4.76756,4.76756,0,0,1-1.56446-1.09229l.44922-.73584a.57885.57885,0,0,1,.15625-.148.36172.36172,0,0,1,.20313-.06006.64082.64082,0,0,1,.38476.18018,6.41621,6.41621,0,0,0,.53907.396,4.10727,4.10727,0,0,0,.78515.396,3.09424,3.09424,0,0,0,1.123.17969,2.95955,2.95955,0,0,0,.98437-.15186,2.10578,2.10578,0,0,0,.73243-.42822,1.86771,1.86771,0,0,0,.459-.65967,2.19174,2.19174,0,0,0,.16016-.856,1.4302,1.4302,0,0,0-.23633-.852,1.94616,1.94616,0,0,0-.61914-.55616,4.33256,4.33256,0,0,0-.877-.37988q-.49218-.156-1.00781-.31982a10.20009,10.20009,0,0,1-1.00781-.38037,3.264,3.264,0,0,1-.875-.56006,2.55658,2.55658,0,0,1-.62109-.85987,3.29369,3.29369,0,0,1,0-2.45214,3.04353,3.04353,0,0,1,.68359-1.00782,3.31158,3.31158,0,0,1,1.10938-.7041,4.06044,4.06044,0,0,1,1.51562-.26367,4.863,4.863,0,0,1,1.75195.30371,4.0371,4.0371,0,0,1,1.38282.87988Z"/>
          <path class="afbf60e0-fb85-48a1-842a-488ffbb2100a" d="M125.3125,144.09863v5.168a2.147,2.147,0,0,0,.42383,1.42383,1.577,1.577,0,0,0,1.27929.50439,2.45743,2.45743,0,0,0,1.17774-.29638,3.68215,3.68215,0,0,0,1.01562-.82373v-5.97608h1.42383v8.104h-.84765a.36311.36311,0,0,1-.38477-.2959l-.11133-.87207a4.48035,4.48035,0,0,1-1.18359.93994,3.10568,3.10568,0,0,1-1.50391.356,2.94031,2.94031,0,0,1-1.17383-.21973,2.34242,2.34242,0,0,1-.85156-.62012,2.65173,2.65173,0,0,1-.51562-.96826,4.2985,4.2985,0,0,1-.17188-1.25586v-5.168Z"/>
          <path class="afbf60e0-fb85-48a1-842a-488ffbb2100a" d="M132.97656,154.94678V144.09863h.84766a.36311.36311,0,0,1,.38476.2959l.11914.96a4.35064,4.35064,0,0,1,1.18946-1.01562,3.03091,3.03091,0,0,1,1.53906-.38428,2.92128,2.92128,0,0,1,1.26367.26807,2.61617,2.61617,0,0,1,.96875.792,3.75428,3.75428,0,0,1,.61524,1.2998,6.65248,6.65248,0,0,1,.21679,1.78418,5.587,5.587,0,0,1-.24023,1.668,4.06066,4.06066,0,0,1-.6875,1.33594,3.18251,3.18251,0,0,1-2.56836,1.21191,3.00918,3.00918,0,0,1-1.2832-.248,2.90418,2.90418,0,0,1-.94141-.70362v3.584Zm3.60938-9.84033a2.29471,2.29471,0,0,0-1.22071.32031,3.51289,3.51289,0,0,0-.96484.90381v3.91992a2.29255,2.29255,0,0,0,.86133.74414,2.45578,2.45578,0,0,0,1.043.21582,2.04456,2.04456,0,0,0,1.73633-.80762,3.76871,3.76871,0,0,0,.60742-2.3042,5.8355,5.8355,0,0,0-.13867-1.35986,2.67008,2.67008,0,0,0-.4043-.93213,1.57549,1.57549,0,0,0-.64844-.53223A2.15736,2.15736,0,0,0,136.58594,145.10645Z"/>
          <path class="afbf60e0-fb85-48a1-842a-488ffbb2100a" d="M141.80859,154.94678V144.09863h.84766a.36312.36312,0,0,1,.38477.2959l.11914.96a4.35046,4.35046,0,0,1,1.18945-1.01562,3.03091,3.03091,0,0,1,1.53906-.38428,2.92125,2.92125,0,0,1,1.26367.26807,2.61609,2.61609,0,0,1,.96875.792,3.75428,3.75428,0,0,1,.61524,1.2998,6.65248,6.65248,0,0,1,.21679,1.78418,5.587,5.587,0,0,1-.24023,1.668,4.06066,4.06066,0,0,1-.6875,1.33594,3.18251,3.18251,0,0,1-2.56836,1.21191,3.00918,3.00918,0,0,1-1.2832-.248,2.90418,2.90418,0,0,1-.94141-.70362v3.584Zm3.60938-9.84033a2.29468,2.29468,0,0,0-1.2207.32031,3.51292,3.51292,0,0,0-.96485.90381v3.91992a2.29255,2.29255,0,0,0,.86133.74414,2.45578,2.45578,0,0,0,1.043.21582,2.04456,2.04456,0,0,0,1.73633-.80762,3.76871,3.76871,0,0,0,.60742-2.3042,5.8355,5.8355,0,0,0-.13867-1.35986,2.67008,2.67008,0,0,0-.4043-.93213,1.57549,1.57549,0,0,0-.64844-.53223A2.15736,2.15736,0,0,0,145.418,145.10645Z"/>
          <path class="afbf60e0-fb85-48a1-842a-488ffbb2100a" d="M153.92188,143.9707a4.16631,4.16631,0,0,1,1.60351.2959,3.37631,3.37631,0,0,1,1.21484.83985,3.73017,3.73017,0,0,1,.76954,1.3164,5.69959,5.69959,0,0,1,0,3.45166,3.72783,3.72783,0,0,1-.76954,1.312,3.32525,3.32525,0,0,1-1.21484.83594,4.55434,4.55434,0,0,1-3.209,0,3.37306,3.37306,0,0,1-1.21875-.83594,3.74326,3.74326,0,0,1-.77735-1.312,5.62138,5.62138,0,0,1,0-3.45166,3.74538,3.74538,0,0,1,.77735-1.3164,3.42543,3.42543,0,0,1,1.21875-.83985A4.17635,4.17635,0,0,1,153.92188,143.9707Zm0,7.23194a2.07961,2.07961,0,0,0,1.791-.8042,3.72187,3.72187,0,0,0,.5918-2.24365,3.75967,3.75967,0,0,0-.5918-2.25635,2.07567,2.07567,0,0,0-1.791-.80762,2.48756,2.48756,0,0,0-1.05665.208,1.96956,1.96956,0,0,0-.748.59961,2.66514,2.66514,0,0,0-.44727.96435,5.67985,5.67985,0,0,0,0,2.58008,2.61776,2.61776,0,0,0,.44727.95557,1.98423,1.98423,0,0,0,.748.59619A2.48756,2.48756,0,0,0,153.92188,151.20264Z"/>
          <path class="afbf60e0-fb85-48a1-842a-488ffbb2100a" d="M159.53711,152.20264v-8.104h.81641a.44657.44657,0,0,1,.31836.08789.54315.54315,0,0,1,.12109.3042l.0957,1.26367a3.70629,3.70629,0,0,1,1.02735-1.32373,2.42252,2.42252,0,0,1,2.04492-.3999,2.105,2.105,0,0,1,.5039.21192l-.18359,1.064a.24134.24134,0,0,1-.24805.2002,1.22724,1.22724,0,0,1-.34375-.07618,2.17541,2.17541,0,0,0-.64843-.07617,1.83647,1.83647,0,0,0-1.24414.43213,3.24255,3.24255,0,0,0-.83594,1.25586v5.16016Z"/>
          <path class="afbf60e0-fb85-48a1-842a-488ffbb2100a" d="M168.44141,152.33057a1.95335,1.95335,0,0,1-1.47657-.53614,2.13854,2.13854,0,0,1-.51562-1.54394v-4.96h-.97656a.314.314,0,0,1-.21485-.07569.29059.29059,0,0,1-.08984-.23632v-.56788l1.32812-.168.32813-2.50391a.31034.31034,0,0,1,.10547-.19629.3299.3299,0,0,1,.22265-.07568h.72071v2.792h2.32031v1.03174h-2.32031v4.86426a1.03079,1.03079,0,0,0,.248.75976.86733.86733,0,0,0,.64063.24805,1.12484,1.12484,0,0,0,.38672-.06006,1.69543,1.69543,0,0,0,.28515-.13184c.08008-.04785.14649-.09228.20313-.13183a.26889.26889,0,0,1,.14844-.06006.245.245,0,0,1,.19922.13574l.416.68018a2.64536,2.64536,0,0,1-.88672.54A3.0304,3.0304,0,0,1,168.44141,152.33057Z"/>
          <path class="afbf60e0-fb85-48a1-842a-488ffbb2100a" d="M173.85742,141.55469a.92717.92717,0,0,1-.084.38818,1.12706,1.12706,0,0,1-.22461.31983,1.04052,1.04052,0,0,1-.32422.21972.97025.97025,0,0,1-.39258.08008.92965.92965,0,0,1-.38672-.08008,1.06878,1.06878,0,0,1-.541-.53955.95542.95542,0,0,1-.08008-.38818,1.02477,1.02477,0,0,1,.30078-.72412,1.04624,1.04624,0,0,1,.32031-.21973.93742.93742,0,0,1,.38672-.08008.97849.97849,0,0,1,.39258.08008,1.04038,1.04038,0,0,1,.32422.21973,1.08842,1.08842,0,0,1,.22461.32812A.982.982,0,0,1,173.85742,141.55469Zm-.32031,2.54394v8.104h-1.42383v-8.104Z"/>
          <path class="afbf60e0-fb85-48a1-842a-488ffbb2100a" d="M176.04883,152.20264v-8.104h.84765a.36442.36442,0,0,1,.38477.2959l.11133.87988a4.53915,4.53915,0,0,1,1.17969-.94384,3.07419,3.07419,0,0,1,1.50781-.35987,2.92385,2.92385,0,0,1,1.17187.21973,2.26254,2.26254,0,0,1,.84766.624,2.79433,2.79433,0,0,1,.51758.97217,4.23578,4.23578,0,0,1,.17578,1.25586v5.16016h-1.42383v-5.16016a2.18486,2.18486,0,0,0-.41992-1.42773,1.57355,1.57355,0,0,0-1.28516-.5083,2.39129,2.39129,0,0,0-1.17968.30419,3.87449,3.87449,0,0,0-1.01172.82422v5.96778Z"/>
          <path class="afbf60e0-fb85-48a1-842a-488ffbb2100a" d="M187.67188,143.9624a4.04417,4.04417,0,0,1,.98828.11621,3.12152,3.12152,0,0,1,.83593.33985h2.19922v.52832c0,.17578-.11133.28808-.33593.33593l-.91993.12793a2.46078,2.46078,0,0,1,.27149,1.16016,2.48569,2.48569,0,0,1-.22656,1.07568,2.44145,2.44145,0,0,1-.63282.82813,2.84348,2.84348,0,0,1-.959.52783,3.85635,3.85635,0,0,1-1.2207.18408,4.09356,4.09356,0,0,1-1.07227-.13574,1.39359,1.39359,0,0,0-.38867.35547.653.653,0,0,0-.13086.37207.50288.50288,0,0,0,.23242.45117,1.62185,1.62185,0,0,0,.61523.21924,5.19431,5.19431,0,0,0,.87305.06592h.99414a5.50109,5.50109,0,0,1,.9961.08935,3.01621,3.01621,0,0,1,.873.291,1.62859,1.62859,0,0,1,.61524.55908,1.66778,1.66778,0,0,1,.23242.92334,2.1575,2.1575,0,0,1-.25977,1.02,2.74979,2.74979,0,0,1-.748.87891,3.86223,3.86223,0,0,1-1.19141.61572,5.12094,5.12094,0,0,1-1.5918.23047,6.12213,6.12213,0,0,1-1.55664-.17627,3.62979,3.62979,0,0,1-1.10742-.47217,2.04092,2.04092,0,0,1-.66016-.68506,1.62793,1.62793,0,0,1-.2207-.8125,1.4647,1.4647,0,0,1,.38086-1.021,2.58824,2.58824,0,0,1,1.043-.66895,1.42479,1.42479,0,0,1-.54688-.42724,1.14482,1.14482,0,0,1-.20507-.71485,1.11484,1.11484,0,0,1,.06445-.36328,1.4345,1.4345,0,0,1,.19531-.37158,2.09963,2.09963,0,0,1,.77149-.647,2.533,2.533,0,0,1-.93946-.89209,2.443,2.443,0,0,1-.33984-1.29981,2.48871,2.48871,0,0,1,.22851-1.07617,2.372,2.372,0,0,1,.63672-.82422,2.91586,2.91586,0,0,1,.97071-.52393A3.97929,3.97929,0,0,1,187.67188,143.9624Zm2.52734,8.65137a.71187.71187,0,0,0-.168-.49756,1.07789,1.07789,0,0,0-.45508-.28955,3.23759,3.23759,0,0,0-.66406-.15088,6.15168,6.15168,0,0,0-.793-.04932h-.84766a3.08626,3.08626,0,0,1-.82421-.10791,2.3652,2.3652,0,0,0-.74024.52881,1.069,1.069,0,0,0-.2832.74512.97829.97829,0,0,0,.14062.50879,1.18357,1.18357,0,0,0,.42774.40869,2.50289,2.50289,0,0,0,.72461.27246,4.61444,4.61444,0,0,0,1.02734.1001,4.55918,4.55918,0,0,0,1.03125-.106,2.57269,2.57269,0,0,0,.77344-.30176,1.47165,1.47165,0,0,0,.48242-.46533A1.09207,1.09207,0,0,0,190.19922,152.61377Zm-2.52734-4.37109a2.23862,2.23862,0,0,0,.76367-.12012,1.56243,1.56243,0,0,0,.55664-.33594,1.379,1.379,0,0,0,.33593-.51611,1.88164,1.88164,0,0,0,.11133-.65967,1.57814,1.57814,0,0,0-.45117-1.18408,2.17779,2.17779,0,0,0-2.625,0,1.57814,1.57814,0,0,0-.45117,1.18408,1.83844,1.83844,0,0,0,.11523.65967,1.43726,1.43726,0,0,0,.33985.51611,1.56234,1.56234,0,0,0,.55273.33594A2.17718,2.17718,0,0,0,187.67188,148.24268Z"/>
          <path class="afbf60e0-fb85-48a1-842a-488ffbb2100a" d="M204.24023,140.73877v1.30371h-3.70507v10.16016h-1.55078V142.04248h-3.72071v-1.30371Z"/>
          <path class="afbf60e0-fb85-48a1-842a-488ffbb2100a" d="M204.36719,152.20264v-8.104h.8164a.45221.45221,0,0,1,.32032.08789.5435.5435,0,0,1,.11914.3042l.0957,1.26367a3.71,3.71,0,0,1,1.0293-1.32373,2.271,2.271,0,0,1,1.43554-.47607,2.24758,2.24758,0,0,1,.60743.07617,2.10522,2.10522,0,0,1,.5039.21192l-.18359,1.064a.24.24,0,0,1-.24805.2002,1.24119,1.24119,0,0,1-.34375-.07618,2.16661,2.16661,0,0,0-.64844-.07617,1.83651,1.83651,0,0,0-1.24414.43213,3.26413,3.26413,0,0,0-.83593,1.25586v5.16016Z"/>
          <path class="afbf60e0-fb85-48a1-842a-488ffbb2100a" d="M216.46484,152.20264H215.832a.75843.75843,0,0,1-.33594-.064.35377.35377,0,0,1-.168-.272l-.16015-.752c-.21289.19189-.42188.36377-.62305.51611a3.57885,3.57885,0,0,1-.64062.38379,3.31742,3.31742,0,0,1-.7168.23584,4.09364,4.09364,0,0,1-.84375.08008,2.85743,2.85743,0,0,1-.88281-.13233,2.01378,2.01378,0,0,1-.7168-.39746,1.89993,1.89993,0,0,1-.48437-.67041,2.36174,2.36174,0,0,1-.17969-.959,1.79486,1.79486,0,0,1,.26367-.92725,2.33054,2.33054,0,0,1,.85156-.79053,5.54969,5.54969,0,0,1,1.541-.5664,10.48914,10.48914,0,0,1,2.32812-.22071v-.63574a2.20392,2.20392,0,0,0-.40429-1.437,1.46441,1.46441,0,0,0-1.19532-.4873,2.54314,2.54314,0,0,0-.877.13232,3.28356,3.28356,0,0,0-.61523.2959c-.17383.10937-.32227.208-.44922.2959a.64247.64247,0,0,1-.3711.13183.42679.42679,0,0,1-.252-.07568.57951.57951,0,0,1-.17187-.188l-.25586-.45605a4.61318,4.61318,0,0,1,1.44726-.96827,4.48515,4.48515,0,0,1,1.7207-.31982,3.06188,3.06188,0,0,1,1.207.22412,2.47074,2.47074,0,0,1,.88867.624,2.616,2.616,0,0,1,.543.96778,4.02218,4.02218,0,0,1,.18554,1.248Zm-3.69726-.87207a2.91106,2.91106,0,0,0,.68945-.07618,2.74649,2.74649,0,0,0,.58789-.21582,3.12215,3.12215,0,0,0,.52735-.33984,4.56808,4.56808,0,0,0,.49218-.45605V148.5708a9.56447,9.56447,0,0,0-1.67187.12451,4.698,4.698,0,0,0-1.1211.32617,1.5597,1.5597,0,0,0-.62695.47461,1.02553,1.02553,0,0,0-.19726.61133,1.33775,1.33775,0,0,0,.10546.55518,1.03881,1.03881,0,0,0,.2793.38232,1.1,1.1,0,0,0,.416.21729A1.88251,1.88251,0,0,0,212.76758,151.33057Z"/>
          <path class="afbf60e0-fb85-48a1-842a-488ffbb2100a" d="M218.62305,152.20264v-8.104h.84765a.36312.36312,0,0,1,.38477.2959l.11133.87988a4.58014,4.58014,0,0,1,1.18164-.94384,3.06361,3.06361,0,0,1,1.50781-.35987,2.93714,2.93714,0,0,1,1.17187.21973,2.27808,2.27808,0,0,1,.84766.624,2.75922,2.75922,0,0,1,.51563.97217,4.23611,4.23611,0,0,1,.17578,1.25586v5.16016h-1.42383v-5.16016a2.18492,2.18492,0,0,0-.41992-1.42773,1.56677,1.56677,0,0,0-1.28321-.5083,2.40406,2.40406,0,0,0-1.18164.30419,3.90661,3.90661,0,0,0-1.01171.82422v5.96778Z"/>
          <path class="afbf60e0-fb85-48a1-842a-488ffbb2100a" d="M232.16016,145.43457a.31557.31557,0,0,1-.29688.17627.55239.55239,0,0,1-.27148-.08838c-.10157-.05859-.22461-.124-.3711-.1958a3.479,3.479,0,0,0-.52539-.2002,2.4944,2.4944,0,0,0-.71875-.09179,2.13352,2.13352,0,0,0-.64844.09179,1.58009,1.58009,0,0,0-.49218.252,1.11587,1.11587,0,0,0-.3125.37207.9964.9964,0,0,0-.10742.46.77047.77047,0,0,0,.17968.52,1.57779,1.57779,0,0,0,.47657.36035,4.17771,4.17771,0,0,0,.67187.26758c.25.07764.50781.16015.77148.24805.26368.08837.52149.18554.77149.292a2.82978,2.82978,0,0,1,.67383.40039,1.81205,1.81205,0,0,1,.47461.58789,1.78624,1.78624,0,0,1,.17968.83594,2.65664,2.65664,0,0,1-.19921,1.03613,2.24788,2.24788,0,0,1-.5918.82373,2.86191,2.86191,0,0,1-.96094.54834,3.94944,3.94944,0,0,1-1.31055.19971,4.09406,4.09406,0,0,1-1.53711-.27588,3.89161,3.89161,0,0,1-1.168-.708l.33593-.54395a.496.496,0,0,1,.15235-.16015.4309.4309,0,0,1,.23242-.05615.53062.53062,0,0,1,.30273.1123c.10743.07471.23633.15723.38868.248a2.97222,2.97222,0,0,0,.55273.248,2.50987,2.50987,0,0,0,.8125.11182,2.22686,2.22686,0,0,0,.72656-.10791,1.52365,1.52365,0,0,0,.51953-.292,1.15377,1.15377,0,0,0,.3086-.42432,1.32039,1.32039,0,0,0,.09961-.51172.84388.84388,0,0,0-.17969-.55615,1.50647,1.50647,0,0,0-.47461-.376,3.96685,3.96685,0,0,0-.67773-.272c-.252-.07715-.51172-.15869-.77539-.24414-.26368-.085-.52344-.18262-.7754-.292a2.70959,2.70959,0,0,1-.67578-.41162,1.86067,1.86067,0,0,1-.47656-.61231,1.98984,1.98984,0,0,1-.17969-.88379,2.172,2.172,0,0,1,.752-1.644,2.73971,2.73971,0,0,1,.90429-.51611,3.61053,3.61053,0,0,1,1.22266-.1919,3.88723,3.88723,0,0,1,1.4375.252,3.41669,3.41669,0,0,1,1.09961.69189Z"/>
          <path class="afbf60e0-fb85-48a1-842a-488ffbb2100a" d="M234.7832,152.20264v-6.88819l-.89648-.104a.7097.7097,0,0,1-.27539-.124.28856.28856,0,0,1-.10742-.24366v-.584h1.27929v-.78418a3.65281,3.65281,0,0,1,.19532-1.23584,2.51379,2.51379,0,0,1,.56054-.91211,2.36773,2.36773,0,0,1,.877-.564,3.25544,3.25544,0,0,1,1.15234-.1919,3.08838,3.08838,0,0,1,1.00781.15967l-.0332.7124a.18291.18291,0,0,1-.13477.1919,1.57707,1.57707,0,0,1-.36132.03173h-.248a2.19622,2.19622,0,0,0-.668.0962,1.26849,1.26849,0,0,0-.51563.312,1.41727,1.41727,0,0,0-.332.56787,2.79759,2.79759,0,0,0-.11523.87207v.74414h2.34375v1.03174h-2.29688v6.91211Z"/>
          <path class="afbf60e0-fb85-48a1-842a-488ffbb2100a" d="M243.13672,143.9707a4.16627,4.16627,0,0,1,1.60351.2959,3.37626,3.37626,0,0,1,1.21485.83985,3.7303,3.7303,0,0,1,.76953,1.3164,5.69939,5.69939,0,0,1,0,3.45166,3.728,3.728,0,0,1-.76953,1.312,3.3252,3.3252,0,0,1-1.21485.83594,4.55434,4.55434,0,0,1-3.209,0,3.37323,3.37323,0,0,1-1.21875-.83594,3.74324,3.74324,0,0,1-.77734-1.312,5.62119,5.62119,0,0,1,0-3.45166,3.74536,3.74536,0,0,1,.77734-1.3164,3.4256,3.4256,0,0,1,1.21875-.83985A4.17639,4.17639,0,0,1,243.13672,143.9707Zm0,7.23194a2.07959,2.07959,0,0,0,1.791-.8042,3.72181,3.72181,0,0,0,.5918-2.24365,3.7596,3.7596,0,0,0-.5918-2.25635,2.07566,2.07566,0,0,0-1.791-.80762,2.48754,2.48754,0,0,0-1.05664.208,1.96952,1.96952,0,0,0-.74805.59961,2.665,2.665,0,0,0-.44726.96435,5.67985,5.67985,0,0,0,0,2.58008,2.61759,2.61759,0,0,0,.44726.95557,1.98418,1.98418,0,0,0,.74805.59619A2.48754,2.48754,0,0,0,243.13672,151.20264Z"/>
          <path class="afbf60e0-fb85-48a1-842a-488ffbb2100a" d="M248.752,152.20264v-8.104h.81641a.44655.44655,0,0,1,.31836.08789.54308.54308,0,0,1,.12109.3042l.09571,1.26367a3.70627,3.70627,0,0,1,1.02734-1.32373,2.42252,2.42252,0,0,1,2.04492-.3999,2.10529,2.10529,0,0,1,.50391.21192l-.1836,1.064a.24133.24133,0,0,1-.248.2002,1.22717,1.22717,0,0,1-.34375-.07618,2.17549,2.17549,0,0,0-.64844-.07617,1.83649,1.83649,0,0,0-1.24414.43213,3.24255,3.24255,0,0,0-.83594,1.25586v5.16016Z"/>
          <path class="afbf60e0-fb85-48a1-842a-488ffbb2100a" d="M255.19922,152.20264v-8.104h.84766a.36311.36311,0,0,1,.38476.2959l.10352.832a4.18851,4.18851,0,0,1,1.0039-.90381,2.36725,2.36725,0,0,1,1.293-.35205,1.92054,1.92054,0,0,1,1.332.45606,2.57947,2.57947,0,0,1,.73242,1.23193,2.52975,2.52975,0,0,1,.44336-.76025,2.59277,2.59277,0,0,1,.61914-.52783,2.66733,2.66733,0,0,1,.73243-.3042,3.2798,3.2798,0,0,1,.78906-.09571,2.98389,2.98389,0,0,1,1.13867.2041,2.23642,2.23642,0,0,1,.84766.59571,2.66083,2.66083,0,0,1,.5332.96435,4.257,4.257,0,0,1,.18359,1.30762v5.16016h-1.42382v-5.16016a2.1847,2.1847,0,0,0-.416-1.44385,1.49352,1.49352,0,0,0-1.209-.49218,1.81716,1.81716,0,0,0-.668.124,1.625,1.625,0,0,0-.55469.36426,1.70848,1.70848,0,0,0-.38086.604,2.33385,2.33385,0,0,0-.13867.84375v5.16016H259.9668v-5.16016a2.26971,2.26971,0,0,0-.39063-1.45605,1.3924,1.3924,0,0,0-1.14453-.48,1.81293,1.81293,0,0,0-.98047.28417,3.24278,3.24278,0,0,0-.82812.772v6.04Z"/>
          <path class="afbf60e0-fb85-48a1-842a-488ffbb2100a" d="M274.28711,152.20264h-.63086a.75264.75264,0,0,1-.33594-.064.3488.3488,0,0,1-.168-.272l-.16015-.752c-.21485.19189-.42188.36377-.625.51611a3.57928,3.57928,0,0,1-.64063.38379,3.26589,3.26589,0,0,1-.71484.23584,4.12086,4.12086,0,0,1-.84375.08008,2.879,2.879,0,0,1-.88477-.13233,1.98843,1.98843,0,0,1-.71484-.39746,1.87609,1.87609,0,0,1-.48438-.67041,2.32972,2.32972,0,0,1-.17968-.959,1.79486,1.79486,0,0,1,.26367-.92725,2.31493,2.31493,0,0,1,.85156-.79053,5.53461,5.53461,0,0,1,1.53906-.5664,10.50151,10.50151,0,0,1,2.32813-.22071v-.63574a2.21536,2.21536,0,0,0-.40234-1.437,1.4659,1.4659,0,0,0-1.19727-.4873,2.53137,2.53137,0,0,0-.875.13232,3.30508,3.30508,0,0,0-.61719.2959c-.17187.10937-.32226.208-.44726.2959a.648.648,0,0,1-.37305.13183.42676.42676,0,0,1-.25195-.07568.60208.60208,0,0,1-.17188-.188l-.25586-.45605a4.64325,4.64325,0,0,1,1.44922-.96827,4.46809,4.46809,0,0,1,1.71875-.31982,3.07174,3.07174,0,0,1,1.209.22412,2.46307,2.46307,0,0,1,.88671.624,2.647,2.647,0,0,1,.54493.96778,4.02288,4.02288,0,0,1,.18359,1.248Zm-3.69531-.87207a2.89425,2.89425,0,0,0,.6875-.07618,2.67179,2.67179,0,0,0,.58789-.21582,3.12247,3.12247,0,0,0,.52734-.33984,4.39194,4.39194,0,0,0,.49219-.45605V148.5708a9.58027,9.58027,0,0,0-1.67188.12451,4.65218,4.65218,0,0,0-1.11914.32617,1.55365,1.55365,0,0,0-.6289.47461,1.02369,1.02369,0,0,0-.19532.61133,1.37056,1.37056,0,0,0,.10352.55518,1.06533,1.06533,0,0,0,.28125.38232,1.1,1.1,0,0,0,.416.21729A1.87255,1.87255,0,0,0,270.5918,151.33057Z"/>
          <path class="afbf60e0-fb85-48a1-842a-488ffbb2100a" d="M278.9043,152.33057a1.95335,1.95335,0,0,1-1.47657-.53614,2.13854,2.13854,0,0,1-.51562-1.54394v-4.96h-.97656a.314.314,0,0,1-.21485-.07569.29059.29059,0,0,1-.08984-.23632v-.56788l1.32812-.168.32813-2.50391a.31034.31034,0,0,1,.10547-.19629.3299.3299,0,0,1,.22265-.07568h.72071v2.792h2.32031v1.03174h-2.32031v4.86426a1.03079,1.03079,0,0,0,.248.75976.86733.86733,0,0,0,.64063.24805,1.12484,1.12484,0,0,0,.38672-.06006,1.69543,1.69543,0,0,0,.28515-.13184c.08008-.04785.14649-.09228.20313-.13183a.26889.26889,0,0,1,.14844-.06006.245.245,0,0,1,.19922.13574l.416.68018a2.64536,2.64536,0,0,1-.88672.54A3.0304,3.0304,0,0,1,278.9043,152.33057Z"/>
          <path class="afbf60e0-fb85-48a1-842a-488ffbb2100a" d="M284.32031,141.55469a.927.927,0,0,1-.084.38818,1.12706,1.12706,0,0,1-.22461.31983,1.04052,1.04052,0,0,1-.32422.21972.97025.97025,0,0,1-.39258.08008.92965.92965,0,0,1-.38672-.08008,1.06878,1.06878,0,0,1-.541-.53955.95542.95542,0,0,1-.08008-.38818,1.02477,1.02477,0,0,1,.30078-.72412,1.04624,1.04624,0,0,1,.32031-.21973.93742.93742,0,0,1,.38672-.08008.97849.97849,0,0,1,.39258.08008,1.04038,1.04038,0,0,1,.32422.21973,1.08842,1.08842,0,0,1,.22461.32812A.98188.98188,0,0,1,284.32031,141.55469ZM284,144.09863v8.104h-1.42383v-8.104Z"/>
          <path class="afbf60e0-fb85-48a1-842a-488ffbb2100a" d="M285.48633,144.09863h1.168a.44.44,0,0,1,.28125.08789.51524.51524,0,0,1,.16015.208l2.05469,5.21631a3.8185,3.8185,0,0,1,.17773.57568c.041.1919.082.38135.11915.56787.043-.18652.08789-.376.13671-.56787a4.67685,4.67685,0,0,1,.1836-.57568l2.08008-5.21631a.47048.47048,0,0,1,.15625-.21191.42016.42016,0,0,1,.26757-.084h1.11133l-3.30273,8.104H288.791Z"/>
          <path class="afbf60e0-fb85-48a1-842a-488ffbb2100a" d="M297.70312,143.9707a3.61218,3.61218,0,0,1,1.34376.24414,3.00579,3.00579,0,0,1,1.06445.70362,3.214,3.214,0,0,1,.70117,1.13623,4.38909,4.38909,0,0,1,.252,1.54.94061.94061,0,0,1-.07226.44775.30112.30112,0,0,1-.27344.11231h-5.39063a4.48255,4.48255,0,0,0,.207,1.33593,2.73129,2.73129,0,0,0,.52929.94776,2.10867,2.10867,0,0,0,.79883.56836,2.76082,2.76082,0,0,0,1.041.188,3.059,3.059,0,0,0,.92382-.124,4.53613,4.53613,0,0,0,.668-.26807,5.24582,5.24582,0,0,0,.4668-.26806.62978.62978,0,0,1,.32422-.124.3164.3164,0,0,1,.27344.13624l.39843.51953a2.71555,2.71555,0,0,1-.63086.55615,3.94912,3.94912,0,0,1-.78906.38818,5.00871,5.00871,0,0,1-.86718.228,5.35366,5.35366,0,0,1-.88868.07568,4.12223,4.12223,0,0,1-1.54687-.28369,3.39483,3.39483,0,0,1-1.22461-.832,3.84139,3.84139,0,0,1-.80469-1.356,5.52853,5.52853,0,0,1-.28711-1.856,4.70934,4.70934,0,0,1,.25977-1.584,3.73271,3.73271,0,0,1,.748-1.27637,3.43382,3.43382,0,0,1,1.19141-.84765A3.916,3.916,0,0,1,297.70312,143.9707Zm.03321,1.04785a2.18565,2.18565,0,0,0-1.625.5962,2.80421,2.80421,0,0,0-.73633,1.65185h4.4082a2.91062,2.91062,0,0,0-.13476-.9082,2.049,2.049,0,0,0-.40039-.71192,1.78922,1.78922,0,0,0-.64453-.46386A2.17293,2.17293,0,0,0,297.73633,145.01855Z"/>
          <path class="afbf60e0-fb85-48a1-842a-488ffbb2100a" d="M315.62305,152.20264h-1.19922a.51354.51354,0,0,1-.33594-.104.63854.63854,0,0,1-.19336-.26416l-1.07031-2.76806h-5.14453l-1.07227,2.76806a.62879.62879,0,0,1-.1914.25635.51365.51365,0,0,1-.33594.11182h-1.20117l4.584-11.46387h1.57617Zm-7.51172-4.25586h4.27929l-1.79882-4.66407a8.631,8.631,0,0,1-.34375-1.08007c-.0586.21875-.11719.41992-.17188.604q-.085.27612-.16406.48389Z"/>
          <path class="afbf60e0-fb85-48a1-842a-488ffbb2100a" d="M318.08008,144.09863v5.168a2.147,2.147,0,0,0,.42383,1.42383,1.57438,1.57438,0,0,0,1.27929.50439,2.4443,2.4443,0,0,0,1.17578-.29638,3.62634,3.62634,0,0,0,1.01563-.82373v-5.97608h1.42383v8.104h-.84766a.3611.3611,0,0,1-.38281-.2959l-.11328-.87207a4.44957,4.44957,0,0,1-1.1836.93994,3.10567,3.10567,0,0,1-1.5039.356,2.9239,2.9239,0,0,1-1.17188-.21973,2.3261,2.3261,0,0,1-.85156-.62012,2.59479,2.59479,0,0,1-.51563-.96826,4.29736,4.29736,0,0,1-.17382-1.25586v-5.168Z"/>
          <path class="afbf60e0-fb85-48a1-842a-488ffbb2100a" d="M328.19922,152.33057a1.95333,1.95333,0,0,1-1.47656-.53614,2.13854,2.13854,0,0,1-.51563-1.54394v-4.96h-.97656a.314.314,0,0,1-.21485-.07569.29059.29059,0,0,1-.08984-.23632v-.56788l1.32813-.168.32812-2.50391a.31038.31038,0,0,1,.10547-.19629.32991.32991,0,0,1,.22266-.07568h.7207v2.792h2.32031v1.03174h-2.32031v4.86426a1.03075,1.03075,0,0,0,.24805.75976.86729.86729,0,0,0,.64062.24805,1.1248,1.1248,0,0,0,.38672-.06006,1.69593,1.69593,0,0,0,.28516-.13184c.08007-.04785.14648-.09228.20312-.13183a.26889.26889,0,0,1,.14844-.06006.245.245,0,0,1,.19922.13574l.416.68018a2.64536,2.64536,0,0,1-.88672.54A3.03036,3.03036,0,0,1,328.19922,152.33057Z"/>
          <path class="afbf60e0-fb85-48a1-842a-488ffbb2100a" d="M333.61523,141.55469a.927.927,0,0,1-.084.38818,1.12706,1.12706,0,0,1-.22461.31983,1.04052,1.04052,0,0,1-.32422.21972.97018.97018,0,0,1-.39258.08008.92968.92968,0,0,1-.38672-.08008,1.06878,1.06878,0,0,1-.541-.53955.95559.95559,0,0,1-.08008-.38818,1.02477,1.02477,0,0,1,.30078-.72412,1.04624,1.04624,0,0,1,.32031-.21973.93745.93745,0,0,1,.38672-.08008.97842.97842,0,0,1,.39258.08008,1.04038,1.04038,0,0,1,.32422.21973,1.08842,1.08842,0,0,1,.22461.32812A.98188.98188,0,0,1,333.61523,141.55469Zm-.32031,2.54394v8.104h-1.42383v-8.104Z"/>
          <path class="afbf60e0-fb85-48a1-842a-488ffbb2100a" d="M340.44727,145.43457a.31557.31557,0,0,1-.29688.17627.55239.55239,0,0,1-.27148-.08838c-.10157-.05859-.22461-.124-.3711-.1958a3.479,3.479,0,0,0-.52539-.2002,2.4944,2.4944,0,0,0-.71875-.09179,2.13352,2.13352,0,0,0-.64844.09179,1.58009,1.58009,0,0,0-.49218.252,1.11587,1.11587,0,0,0-.3125.37207.99641.99641,0,0,0-.10743.46.77047.77047,0,0,0,.17969.52,1.57779,1.57779,0,0,0,.47657.36035,4.17771,4.17771,0,0,0,.67187.26758c.25.07764.50781.16015.77148.24805.26368.08837.52149.18554.77149.292a2.82978,2.82978,0,0,1,.67383.40039,1.81205,1.81205,0,0,1,.47461.58789,1.78624,1.78624,0,0,1,.17968.83594,2.65646,2.65646,0,0,1-.19922,1.03613,2.24774,2.24774,0,0,1-.59179.82373,2.86191,2.86191,0,0,1-.96094.54834,3.94948,3.94948,0,0,1-1.31055.19971,4.09406,4.09406,0,0,1-1.53711-.27588,3.89161,3.89161,0,0,1-1.168-.708l.33593-.54395a.496.496,0,0,1,.15235-.16015.4309.4309,0,0,1,.23242-.05615.53062.53062,0,0,1,.30273.1123c.10742.07471.23633.15723.38868.248a2.97222,2.97222,0,0,0,.55273.248,2.50987,2.50987,0,0,0,.8125.11182,2.22686,2.22686,0,0,0,.72656-.10791,1.52365,1.52365,0,0,0,.51953-.292,1.15377,1.15377,0,0,0,.3086-.42432,1.32039,1.32039,0,0,0,.09961-.51172.84388.84388,0,0,0-.17969-.55615,1.50647,1.50647,0,0,0-.47461-.376,3.96685,3.96685,0,0,0-.67773-.272c-.252-.07715-.51172-.15869-.7754-.24414-.26367-.085-.52343-.18262-.77539-.292a2.70959,2.70959,0,0,1-.67578-.41162,1.86067,1.86067,0,0,1-.47656-.61231,1.98984,1.98984,0,0,1-.17969-.88379,2.172,2.172,0,0,1,.752-1.644,2.73971,2.73971,0,0,1,.90429-.51611,3.61049,3.61049,0,0,1,1.22266-.1919,3.88723,3.88723,0,0,1,1.4375.252,3.41669,3.41669,0,0,1,1.09961.69189Z"/>
          <path class="afbf60e0-fb85-48a1-842a-488ffbb2100a" d="M342.75,152.20264v-8.104h.84766a.36311.36311,0,0,1,.38476.2959l.10352.832a4.1887,4.1887,0,0,1,1.0039-.90381,2.36725,2.36725,0,0,1,1.293-.35205,1.92054,1.92054,0,0,1,1.332.45606,2.57949,2.57949,0,0,1,.73243,1.23193,2.52952,2.52952,0,0,1,.44335-.76025,2.59262,2.59262,0,0,1,.61915-.52783,2.66727,2.66727,0,0,1,.73242-.3042,3.2798,3.2798,0,0,1,.78906-.09571,2.98389,2.98389,0,0,1,1.13867.2041,2.23634,2.23634,0,0,1,.84766.59571,2.66083,2.66083,0,0,1,.5332.96435,4.257,4.257,0,0,1,.1836,1.30762v5.16016h-1.42383v-5.16016a2.18464,2.18464,0,0,0-.416-1.44385,1.49352,1.49352,0,0,0-1.209-.49218,1.8172,1.8172,0,0,0-.668.124,1.625,1.625,0,0,0-.55469.36426,1.70848,1.70848,0,0,0-.38086.604,2.33385,2.33385,0,0,0-.13867.84375v5.16016h-1.42578v-5.16016a2.26971,2.26971,0,0,0-.39063-1.45605,1.39238,1.39238,0,0,0-1.14453-.48,1.81293,1.81293,0,0,0-.98047.28417,3.24278,3.24278,0,0,0-.82812.772v6.04Z"/>
          <path class="afbf60e0-fb85-48a1-842a-488ffbb2100a" d="M360.90234,147.41846v4.78418h-1.54492V140.73877h3.24024a7.09469,7.09469,0,0,1,1.88086.21973,3.61457,3.61457,0,0,1,1.30859.63623,2.55352,2.55352,0,0,1,.76367,1.0039,3.37828,3.37828,0,0,1,.24805,1.31592,3.27984,3.27984,0,0,1-.19336,1.13623,2.9821,2.9821,0,0,1-.55469.94776,3.34294,3.34294,0,0,1-.88867.7163,4.40541,4.40541,0,0,1-1.1875.44776,1.65421,1.65421,0,0,1,.51172.48828l3.34375,4.55176h-1.375a.679.679,0,0,1-.625-.32813l-2.97656-4.0957a.87128.87128,0,0,0-.29493-.27637,1.07788,1.07788,0,0,0-.48047-.084Zm0-1.12793h1.62305a3.96062,3.96062,0,0,0,1.19727-.16407,2.42554,2.42554,0,0,0,.86328-.46386,1.91791,1.91791,0,0,0,.52344-.71582,2.34114,2.34114,0,0,0,.17773-.91992,1.82842,1.82842,0,0,0-.67773-1.54444,3.2666,3.2666,0,0,0-2.01172-.52h-1.69532Z"/>
          <path class="afbf60e0-fb85-48a1-842a-488ffbb2100a" d="M372.48633,143.9707a3.61948,3.61948,0,0,1,1.34375.24414,3.02324,3.02324,0,0,1,1.06445.70362,3.21026,3.21026,0,0,1,.69922,1.13623,4.38909,4.38909,0,0,1,.252,1.54.91635.91635,0,0,1-.07226.44775.29736.29736,0,0,1-.27149.11231h-5.39257a4.479,4.479,0,0,0,.209,1.33593,2.69742,2.69742,0,0,0,.52734.94776,2.11536,2.11536,0,0,0,.80078.56836,2.75057,2.75057,0,0,0,1.03907.188,3.05015,3.05015,0,0,0,.92383-.124,4.36727,4.36727,0,0,0,.668-.26807,5.04,5.04,0,0,0,.46875-.26806.61811.61811,0,0,1,.32422-.124.313.313,0,0,1,.27149.13624l.40039.51953a2.6866,2.6866,0,0,1-.63281.55615,3.9336,3.9336,0,0,1-.78711.38818,5.077,5.077,0,0,1-.86915.228,5.33027,5.33027,0,0,1-.88671.07568,4.13245,4.13245,0,0,1-1.54883-.28369,3.4116,3.4116,0,0,1-1.22461-.832,3.80929,3.80929,0,0,1-.80274-1.356,5.52721,5.52721,0,0,1-.28906-1.856,4.75846,4.75846,0,0,1,.25977-1.584,3.76427,3.76427,0,0,1,.748-1.27637,3.44164,3.44164,0,0,1,1.19336-.84765A3.90285,3.90285,0,0,1,372.48633,143.9707Zm.03125,1.04785a2.184,2.184,0,0,0-1.62305.5962,2.80427,2.80427,0,0,0-.73633,1.65185h4.40821a2.90987,2.90987,0,0,0-.13672-.9082,2.01841,2.01841,0,0,0-.40039-.71192,1.79885,1.79885,0,0,0-.64258-.46386A2.176,2.176,0,0,0,372.51758,145.01855Z"/>
          <path class="afbf60e0-fb85-48a1-842a-488ffbb2100a" d="M382.30273,145.43457a.31556.31556,0,0,1-.29687.17627.55239.55239,0,0,1-.27148-.08838c-.10157-.05859-.22461-.124-.3711-.1958a3.479,3.479,0,0,0-.52539-.2002,2.49445,2.49445,0,0,0-.71875-.09179,2.13352,2.13352,0,0,0-.64844.09179,1.58,1.58,0,0,0-.49218.252,1.11587,1.11587,0,0,0-.3125.37207.99641.99641,0,0,0-.10743.46.77047.77047,0,0,0,.17969.52,1.57787,1.57787,0,0,0,.47656.36035,4.17821,4.17821,0,0,0,.67188.26758c.25.07764.50781.16015.77148.24805.26368.08837.52149.18554.77149.292a2.82978,2.82978,0,0,1,.67383.40039,1.812,1.812,0,0,1,.4746.58789,1.78612,1.78612,0,0,1,.17969.83594,2.65646,2.65646,0,0,1-.19922,1.03613,2.24774,2.24774,0,0,1-.59179.82373,2.86191,2.86191,0,0,1-.96094.54834,3.94948,3.94948,0,0,1-1.31055.19971,4.09406,4.09406,0,0,1-1.53711-.27588,3.89179,3.89179,0,0,1-1.168-.708l.33594-.54395a.496.496,0,0,1,.15235-.16015.43087.43087,0,0,1,.23242-.05615.53062.53062,0,0,1,.30273.1123c.10742.07471.23633.15723.38867.248a2.97264,2.97264,0,0,0,.55274.248,2.50987,2.50987,0,0,0,.8125.11182,2.22686,2.22686,0,0,0,.72656-.10791,1.52375,1.52375,0,0,0,.51953-.292,1.15388,1.15388,0,0,0,.3086-.42432,1.32039,1.32039,0,0,0,.09961-.51172.84388.84388,0,0,0-.17969-.55615,1.50658,1.50658,0,0,0-.47461-.376,3.96664,3.96664,0,0,0-.67774-.272c-.25195-.07715-.51172-.15869-.77539-.24414-.26367-.085-.52343-.18262-.77539-.292a2.70959,2.70959,0,0,1-.67578-.41162,1.86067,1.86067,0,0,1-.47656-.61231,1.98984,1.98984,0,0,1-.17969-.88379,2.172,2.172,0,0,1,.752-1.644,2.73976,2.73976,0,0,1,.9043-.51611,3.61049,3.61049,0,0,1,1.22266-.1919,3.88723,3.88723,0,0,1,1.4375.252,3.41669,3.41669,0,0,1,1.09961.69189Z"/>
          <path class="afbf60e0-fb85-48a1-842a-488ffbb2100a" d="M387.81445,143.9707a3.61941,3.61941,0,0,1,1.34375.24414,3.02319,3.02319,0,0,1,1.06446.70362,3.2104,3.2104,0,0,1,.69922,1.13623,4.38932,4.38932,0,0,1,.252,1.54.91632.91632,0,0,1-.07227.44775.29734.29734,0,0,1-.27148.11231H385.4375a4.47969,4.47969,0,0,0,.209,1.33593,2.6976,2.6976,0,0,0,.52735.94776,2.11528,2.11528,0,0,0,.80078.56836,2.75052,2.75052,0,0,0,1.03906.188,3.05011,3.05011,0,0,0,.92383-.124,4.36742,4.36742,0,0,0,.668-.26807,5.04,5.04,0,0,0,.46875-.26806.61808.61808,0,0,1,.32422-.124.313.313,0,0,1,.27148.13624l.40039.51953a2.6866,2.6866,0,0,1-.63281.55615,3.93307,3.93307,0,0,1-.78711.38818,5.07693,5.07693,0,0,1-.86914.228,5.33048,5.33048,0,0,1-.88672.07568,4.13249,4.13249,0,0,1-1.54883-.28369,3.41177,3.41177,0,0,1-1.22461-.832,3.80927,3.80927,0,0,1-.80273-1.356,5.527,5.527,0,0,1-.28906-1.856,4.75871,4.75871,0,0,1,.25976-1.584,3.76413,3.76413,0,0,1,.748-1.27637,3.44155,3.44155,0,0,1,1.19336-.84765A3.9028,3.9028,0,0,1,387.81445,143.9707Zm.03125,1.04785a2.184,2.184,0,0,0-1.623.5962,2.80415,2.80415,0,0,0-.73633,1.65185h4.4082a2.90958,2.90958,0,0,0-.13672-.9082,2.01826,2.01826,0,0,0-.40039-.71192,1.79876,1.79876,0,0,0-.64258-.46386A2.17589,2.17589,0,0,0,387.8457,145.01855Z"/>
          <path class="afbf60e0-fb85-48a1-842a-488ffbb2100a" d="M398.94141,152.20264h-.63086a.75261.75261,0,0,1-.33594-.064.34877.34877,0,0,1-.168-.272l-.16016-.752c-.21484.19189-.42187.36377-.625.51611a3.57885,3.57885,0,0,1-.64062.38379,3.26607,3.26607,0,0,1-.71484.23584,4.12086,4.12086,0,0,1-.84375.08008,2.879,2.879,0,0,1-.88477-.13233,1.98843,1.98843,0,0,1-.71484-.39746,1.87609,1.87609,0,0,1-.48438-.67041,2.32972,2.32972,0,0,1-.17969-.959,1.79478,1.79478,0,0,1,.26368-.92725,2.31493,2.31493,0,0,1,.85156-.79053,5.53448,5.53448,0,0,1,1.53906-.5664,10.50151,10.50151,0,0,1,2.32813-.22071v-.63574a2.2153,2.2153,0,0,0-.40235-1.437,1.46588,1.46588,0,0,0-1.19726-.4873,2.53129,2.53129,0,0,0-.875.13232,3.30477,3.30477,0,0,0-.61719.2959c-.17188.10937-.32227.208-.44727.2959a.648.648,0,0,1-.373.13183.4268.4268,0,0,1-.252-.07568.60217.60217,0,0,1-.17187-.188l-.25586-.45605a4.64325,4.64325,0,0,1,1.44922-.96827,4.46805,4.46805,0,0,1,1.71875-.31982,3.07169,3.07169,0,0,1,1.209.22412,2.46311,2.46311,0,0,1,.88672.624,2.647,2.647,0,0,1,.54492.96778,4.02258,4.02258,0,0,1,.1836,1.248Zm-3.69532-.87207a2.89425,2.89425,0,0,0,.6875-.07618,2.67142,2.67142,0,0,0,.58789-.21582,3.12215,3.12215,0,0,0,.52735-.33984,4.39194,4.39194,0,0,0,.49219-.45605V148.5708a9.58019,9.58019,0,0,0-1.67188.12451,4.65218,4.65218,0,0,0-1.11914.32617,1.55369,1.55369,0,0,0-.62891.47461,1.02368,1.02368,0,0,0-.19531.61133,1.37056,1.37056,0,0,0,.10352.55518,1.06533,1.06533,0,0,0,.28125.38232,1.1,1.1,0,0,0,.416.21729A1.8726,1.8726,0,0,0,395.24609,151.33057Z"/>
          <path class="afbf60e0-fb85-48a1-842a-488ffbb2100a" d="M401.10156,152.20264v-8.104h.81641a.45216.45216,0,0,1,.32031.08789.54336.54336,0,0,1,.11914.3042l.0957,1.26367a3.71018,3.71018,0,0,1,1.0293-1.32373,2.271,2.271,0,0,1,1.43555-.47607,2.2475,2.2475,0,0,1,.60742.07617,2.10529,2.10529,0,0,1,.50391.21192l-.1836,1.064a.24.24,0,0,1-.248.2002,1.24112,1.24112,0,0,1-.34375-.07618,2.16666,2.16666,0,0,0-.64844-.07617,1.83649,1.83649,0,0,0-1.24414.43213,3.26425,3.26425,0,0,0-.83594,1.25586v5.16016Z"/>
          <path class="afbf60e0-fb85-48a1-842a-488ffbb2100a" d="M413.07812,145.53857a.64606.64606,0,0,1-.1289.13623.30349.30349,0,0,1-.1836.04786.451.451,0,0,1-.25976-.1001,3.79075,3.79075,0,0,0-.35742-.21973,2.9463,2.9463,0,0,0-.52344-.22021,2.77571,2.77571,0,0,0-1.80273.11181,2.03446,2.03446,0,0,0-.76563.61231,2.76464,2.76464,0,0,0-.46289.96777,4.82388,4.82388,0,0,0-.15625,1.272,4.67244,4.67244,0,0,0,.168,1.30811,2.8108,2.8108,0,0,0,.47265.96,2.01111,2.01111,0,0,0,.73829.59229,2.29623,2.29623,0,0,0,.98047.20361,2.50423,2.50423,0,0,0,.85742-.124,2.58778,2.58778,0,0,0,.55859-.27588,4.20878,4.20878,0,0,0,.36914-.27588.44213.44213,0,0,1,.28711-.124.29957.29957,0,0,1,.27148.13624l.4004.51953a3.07056,3.07056,0,0,1-1.32032.94824,4.66778,4.66778,0,0,1-1.67187.2998,3.549,3.549,0,0,1-1.41211-.27978,3.22826,3.22826,0,0,1-1.13086-.812,3.83734,3.83734,0,0,1-.75586-1.30811,5.2171,5.2171,0,0,1-.27734-1.76807,5.33632,5.33632,0,0,1,.25195-1.67187,3.791,3.791,0,0,1,.73633-1.32373,3.31615,3.31615,0,0,1,1.19726-.86817,4.0253,4.0253,0,0,1,1.63086-.312,3.84451,3.84451,0,0,1,1.50391.27588,3.593,3.593,0,0,1,1.16015.78028Z"/>
          <path class="afbf60e0-fb85-48a1-842a-488ffbb2100a" d="M415.02148,152.20264V140.41846h1.42383v4.76806a4.38506,4.38506,0,0,1,1.15235-.88379,3.08845,3.08845,0,0,1,1.457-.332,2.93718,2.93718,0,0,1,1.17187.21973,2.27816,2.27816,0,0,1,.84766.624,2.759,2.759,0,0,1,.51562.97217,4.23578,4.23578,0,0,1,.17578,1.25586v5.16016H420.3418v-5.16016a2.18492,2.18492,0,0,0-.41992-1.42773,1.56678,1.56678,0,0,0-1.28321-.5083,2.40406,2.40406,0,0,0-1.18164.30419,3.90681,3.90681,0,0,0-1.01172.82422v5.96778Z"/>
        </g>
      </g>
    </g>
  </g>
</svg>
