<svg xmlns="http://www.w3.org/2000/svg" viewBox="0 0 671.59 166.71">
  <style>
    .st1, .st2 { fill: #f47b42; }
    .st2, .st3 { fill-rule: evenodd; clip-rule: evenodd; }
    .st3, .st4 { fill: #22375d; }
  </style>
  <path fill="none" stroke="#22375d" stroke-miterlimit="10" stroke-width="1.05" d="M308.7 23.39v122.8"></path>
  <path d="M64.72 81.11h4.52v21.54h-4.52zM40.3 81.11h4.38v21.54H40.3zM46.19 81.11h4.67v21.54h-4.67zM52.37 81.11h4.67v21.54h-4.67zM58.54 81.11h4.67v21.54h-4.67zM67.3 79.59H42.14l12.92-7.95zM28.47 71.56v8.03h10.78l13.04-8.03zM57.72 71.56h23.21v8.03H70.09zM77.61 70.04H31.79c4.49-8.09 13.06-13.56 22.91-13.56 9.84 0 18.42 5.47 22.91 13.56" class="st1"></path>
  <path d="M32 96.51l-.39 1.21 1.03-.74 1.03.74-.39-1.21 1.02-.74h-1.27l-.39-1.21-.39 1.21h-1.27l1.02.74zm-3.54-6.85l1.03.75-.39 1.21 1.03-.75 1.03.75-.39-1.21 1.03-.75h-1.27l-.39-1.21-.39 1.21h-1.29zm10.33 12.99H37.4l-.39-1.2 1.03-.75h-1.27l-.39-1.21-.39 1.21h-1.27l1.03.75-.39 1.2h-6.89l-.01-12.99.01-4.68.96-.7 1.03.74-.39-1.21 1.03-.75h-1.27l-.39-1.21-.18.55-.25.66h-.54V81.1h10.32v21.55zm-1.39 0h-2.03l1.01-.74 1.02.74zm-8.93-17.82v-1.25l.3.22-.22.67-.08.36z" class="st2"></path>
  <path d="M28.47 104.17h10.32v5.72H28.47z" class="st1"></path>
  <path d="M70.75 104.17h10.18v5.72H70.75zM61.78 108.21l1.03-.74h-1.27l-.39-1.21-.39 1.21h-1.27l1.03.74-.39 1.21 1.03-.74 1.03.74-.41-1.21zm-7.67.8l-.29.88H40.3v-5.72h1.67l-.29.89h-1.27l1.03.75-.4 1.21 1.03-.75 1.02.75-.39-1.21 1.03-.75h-1.27l-.29-.89H67.3l-.29.89h-1.27l1.03.75-.39 1.21 1.03-.75 1.03.75-.39-1.21 1.03-.75h-1.27l-.29-.89h1.74v5.72h-13.6l-.29-.88 1.03-.75h-1.27l-.39-1.21-.39 1.21h-1.27l1.03.75zm-6.6-.8l-.4 1.21 1.03-.74 1.03.74-.39-1.21 1.03-.74h-1.27l-.39-1.21-.39 1.21h-1.27l1.02.74zm7.82 1.68h-1.16l.58-.42.58.42zM77.47 96.51l1.03-.75h-1.27l-.39-1.21-.39 1.21h-1.27l1.03.75-.39 1.21 1.03-.75 1.03.75-.41-1.21zm-3.36 6.14l-.39-1.2 1.03-.75h-1.27l-.39-1.21-.39 1.21h-1.27l1.03.75-.39 1.2 1.02-.74 1.02.74zm6.82 0H70.75V81.11h10.18v1.96h-.5l-.39-1.21-.39 1.21h-1.27l1.03.75-.39 1.21 1.03-.75.89.65v4.73h-1.19l-.39-1.21-.39 1.21H77.7l1.03.74-.39 1.21 1.03-.74 1.03.74-.39-1.21.95-.69v12.94zm0-19.02v.99l-.26-.8.26-.19z" class="st2"></path>
  <path d="M101.72 85.7c3.69 0 6.29-.98 7.99-2.55 2.38-2.04 3.31-4.72 3.57-8.2.13-1.66.21-9.09.21-9.69 0-.59 0-6.63.08-7.05.13-.51.25-1.7 1.83-1.7h1.74c.21 0 .25-.17.25-.43v-.93c0-.13-.04-.3-.42-.3s-1.74.13-4.67.13c-2.85 0-4.8-.13-5.23-.13-.25 0-.3.08-.3.3v1.02c0 .21.04.34.3.34h1.87c1.1 0 1.78.76 1.91 1.87.13 1.06.21 3.52.21 6.75v9.09c0 3.14-.55 5.69-2.21 7.48-1.49 1.53-3.95 2.34-6.37 2.34-2.47 0-5.18-.76-6.76-3.06-.98-1.44-1.32-3.44-1.36-5.4-.04-1.36-.21-6.75-.21-9.01v-2.8c0-2.17.04-5.14.08-5.52.08-.93.81-1.74 2.04-1.74h2.12c.3 0 .34-.08.34-.3v-1.1c0-.17-.04-.26-.38-.26-.47 0-2.51.13-5.82.13-3.31 0-5.4-.13-5.82-.13-.34 0-.38.08-.38.34v.94c0 .3.04.38.3.38h2c1.32 0 1.61.68 1.61 2.17v10.11c0 5.57.17 8.41.68 10.32.68 2.68 2.17 4.55 5.06 5.69 1.41.6 3.53.9 5.74.9" class="st3"></path>
  <path d="M136.6 71.05c0-1.89-.09-4.8.14-6.92.09-.65.32-.97 1.48-.97h.46c.18 0 .28-.14.28-.32v-.97c0-.28-.09-.37-.32-.37-.32 0-1.94.14-2.91.14-1.48 0-3.46-.14-3.79-.14-.23 0-.32.09-.32.23v1.11c0 .23.09.32.32.32h.79c.78 0 1.48.28 1.71.83.23.55.37 3.23.37 4.34.09 1.48.14 2.91.14 5.54v3.05h-.18c-.55-.6-4.85-6-5.68-6.97-.97-1.15-6.28-7.85-6.42-8.03-.18-.28-.46-.37-1.11-.37-.55 0-1.52.09-2.26.09-.51 0-1.25-.05-1.85-.09-.6 0-1.11-.05-1.2-.05-.18 0-.28.14-.28.28v1.11c0 .18.09.28.28.28h.42c1.29 0 2.45.78 2.45 2.45v4.85c0 5.22-.09 8.49-.14 9.05-.14 1.06-.88 1.38-1.34 1.38h-1.06c-.14 0-.18.05-.18.14v1.2c0 .23.05.32.14.32.37 0 2.45-.14 3.09-.14 1.34 0 3.18.14 3.51.14.23 0 .23-.09.23-.28v-1.11c0-.18 0-.28-.23-.28h-.97c-.46 0-.97-.51-1.11-1.57-.09-.42-.28-5.03-.28-7.8V65.2h.09c.74.83 4.48 5.82 5.59 7.11.51.6 2.49 2.95 4.61 5.49 1.89 2.26 3.46 4.15 3.78 4.48.19.14.65.46 1.06.46.55 0 .69-.46.69-.88V71.05zM147.56 70.59c0-.32.05-5.82.05-6.28.05-.97.46-1.15 1.71-1.15h.79c.23 0 .28-.14.28-.32v-1.11c0-.14-.09-.23-.28-.23-.37 0-2.72.14-4.06.14-2.17.05-5.03-.14-5.31-.14-.18 0-.28.09-.28.28v1.06c0 .18.05.32.28.32h.83c1.94 0 2.35.46 2.35.97 0 .65.09 5.26.09 6v2.03c0 1.57-.05 7.43-.09 7.85-.09.83-.83.88-1.99.88h-1.01c-.18 0-.28.14-.28.28v1.02c0 .23.09.37.28.37.28 0 2.95-.14 4.52-.14 2.08 0 4.48.14 4.85.14.23 0 .28-.14.28-.32v-1.11c0-.14-.05-.23-.28-.23h-.69c-1.34 0-1.89-.65-1.98-1.71-.05-.69-.05-6-.05-6.28v-2.32zM194.35 71.88c-.05 2.82 0 5.54-.05 7.8 0 1.02-.55 1.2-1.66 1.2h-.56c-.18 0-.28.09-.28.23v1.06c0 .23.09.37.28.37.32 0 2.68-.14 3.83-.14 1.52 0 4.02.14 4.34.14.28 0 .37-.09.37-.32v-1.11c0-.14-.09-.23-.28-.23h-1.2c-.92 0-1.2-.51-1.29-1.15V73.63c.32-.09.74-.09 1.2-.09 1.94 0 2.63 1.02 4.29 3.88.41.69 2.45 4.43 3.32 5.08.79-.05 1.89-.09 2.95-.09.46 0 1.01.05 1.43.05.46.05.83.09.92.09.18 0 .28-.14.28-.32v-.92c0-.28-.05-.42-.23-.42-.83 0-1.43-.05-2.08-.51-.88-.65-1.94-2.03-2.58-2.95-1.89-2.68-2.82-4.11-3.88-4.34V73c3.64-1.29 5.45-3.14 5.45-6.32 0-1.06-.6-2.4-1.62-3.37-1.15-1.02-3.23-1.8-6-1.8-.6 0-4.62.14-5.17.14-.83 0-3.69-.14-3.92-.14-.18 0-.28.09-.28.23v1.11c0 .19.05.32.18.32h.46c1.29 0 1.71.51 1.75 1.43V71.88zm3.51-7.89c0-.83.69-1.01 1.38-1.01 1.85 0 3.14.42 4.38 1.2.83.55 1.52 1.8 1.52 3.18 0 1.2-.79 4.8-5.91 4.8-.6 0-1.06-.05-1.38-.09v-8.08zM220.08 82.96c4.2 0 6.41-2.95 6.41-6.41 0-2.31-.55-3.46-1.48-4.43-1.15-1.2-2.86-1.71-4.99-2.49-.88-.32-2.54-1.01-3.23-1.89-.51-.6-.74-1.57-.74-2.26 0-.83.74-2.82 3.28-2.82 1.34 0 2.35.46 3.05 1.25.97 1.11 1.34 2.72 1.61 3.28.05.14.14.23.28.18l.83-.18c.14-.05.18-.14.18-.28-.05-.65-.46-3.65-.46-5.17 0-.23-.05-.42-.42-.42s-.51 0-.6.14l-.18.32c-.09.23-.32.18-.79-.09-.55-.28-1.52-.6-3.28-.6-1.66 0-3.14.42-4.34 1.38-1.02.88-1.98 2.31-1.98 3.88 0 2.26.55 3.74 1.62 4.75 1.38 1.25 3.6 2.08 4.52 2.4 2.45.92 4.25 2.08 4.25 4.71 0 1.99-2.21 3.14-3.69 3.14-1.71 0-3.23-.92-3.92-2.31-.83-1.52-.83-2.49-.83-3.14 0-.18-.18-.28-.37-.32l-.83-.09c-.18 0-.28.14-.32.32-.05.74-.37 4.43-.51 5.72-.05.23.09.42.37.51.37.09.6 0 .69-.23l.14-.37c.09-.37.37-.32.69-.09 1.07.82 2.68 1.61 5.04 1.61M234.31 70.59c0-.32.05-5.82.05-6.28.05-.97.46-1.15 1.71-1.15h.79c.23 0 .28-.14.28-.32v-1.11c0-.14-.09-.23-.28-.23-.37 0-2.72.14-4.06.14-2.17.05-5.03-.14-5.31-.14-.19 0-.28.09-.28.28v1.06c0 .18.05.32.28.32h.83c1.94 0 2.35.46 2.35.97 0 .65.09 5.26.09 6v2.03c0 1.57-.05 7.43-.09 7.85-.09.83-.83.88-1.98.88h-1.01c-.18 0-.28.14-.28.28v1.02c0 .23.09.37.28.37.28 0 2.95-.14 4.52-.14 2.08 0 4.48.14 4.85.14.23 0 .28-.14.28-.32v-1.11c0-.14-.05-.23-.28-.23h-.69c-1.34 0-1.89-.65-1.99-1.71-.05-.69-.05-6-.05-6.28v-2.32zM110.56 97.2c4.24 0 6.78-5.81 6.78-9.02 0-1.99-1.17-3.42-3.12-3.42-3.89 0-6.66 4.99-6.66 8.67-.01 2.22 1.4 3.77 3 3.77m-.44-1.41c-.7 0-1.34-.55-1.34-1.49 0-1.37.7-3.15 1.69-4.73 1.46-2.37 3.01-3.48 4.24-3.48.96 0 1.49.73 1.46 1.64 0 1.93-3.01 8.06-6.05 8.06M158.68 97.94c0-.32.05-5.82.05-6.28.05-.97.46-1.15 1.71-1.15h.78c.23 0 .28-.14.28-.32v-1.11c0-.14-.09-.23-.28-.23-.37 0-2.72.14-4.06.14-2.17.05-5.03-.14-5.31-.14-.18 0-.28.09-.28.28v1.06c0 .18.05.32.28.32h.83c1.94 0 2.35.46 2.35.97 0 .65.09 5.26.09 6v2.03c0 1.57-.05 7.43-.09 7.85-.09.83-.83.88-1.99.88h-1.01c-.19 0-.28.14-.28.28v1.01c0 .23.09.37.28.37.28 0 2.95-.14 4.52-.14 2.08 0 4.48.14 4.85.14.23 0 .28-.14.28-.32v-1.11c0-.14-.05-.23-.28-.23h-.69c-1.34 0-1.89-.65-1.98-1.71-.05-.69-.05-6-.05-6.28v-2.31zM165.39 99.23c-.05 2.82 0 5.54-.05 7.8 0 1.02-.56 1.2-1.66 1.2h-.55c-.18 0-.28.09-.28.23v1.06c0 .23.09.37.28.37.32 0 2.68-.14 3.83-.14 1.52 0 4.02.14 4.34.14.28 0 .37-.09.37-.32v-1.11c0-.14-.09-.23-.28-.23h-1.2c-.92 0-1.2-.51-1.29-1.15V100.99c.32-.09.74-.09 1.2-.09 1.94 0 2.63 1.01 4.29 3.88.42.69 2.45 4.43 3.32 5.08.79-.05 1.89-.09 2.95-.09.46 0 1.01.05 1.43.05.46.05.83.09.92.09.19 0 .28-.14.28-.32v-.92c0-.28-.05-.42-.23-.42-.83 0-1.43-.05-2.08-.51-.88-.65-1.94-2.03-2.58-2.95-1.89-2.68-2.82-4.11-3.88-4.34v-.09c3.65-1.29 5.45-3.14 5.45-6.32 0-1.06-.6-2.4-1.62-3.37-1.15-1.02-3.23-1.8-6-1.8-.6 0-4.62.14-5.17.14-.83 0-3.69-.14-3.92-.14-.18 0-.28.09-.28.23v1.11c0 .18.05.32.18.32h.46c1.29 0 1.71.51 1.75 1.43v7.27zm3.77-7.89c0-.83.69-1.02 1.38-1.02 1.85 0 3.14.42 4.38 1.2.83.55 1.52 1.8 1.52 3.18 0 1.2-.79 4.8-5.91 4.8-.6 0-1.06-.05-1.38-.09v-8.07z" class="st3"></path>
  <path d="M200.58 103.47c0-.78.88-.97 1.34-.97h.78c.14 0 .23-.14.23-.28v-1.11c0-.14-.09-.23-.28-.23-.18 0-2.26.09-3.97.09-2.49 0-4.75-.09-5.03-.09-.19 0-.23.09-.23.23v1.11c0 .14.05.23.23.23h1.11c1.2 0 2.26.32 2.26 1.39v1.71c0 .92-.09 1.52-.69 1.98-.74.6-2.21 1.02-3.83 1.02-1.29 0-3.14-.69-4.43-2.08-1.8-1.89-2.82-4.52-2.82-8.08 0-2.08 1.02-4.52 2.4-6.05 1.71-1.85 3.51-2.35 4.94-2.35 2.12 0 3.42.92 4.66 2.22 1.11 1.11 1.89 2.54 2.22 3.28.14.37.23.42.37.37l.88-.28c.14-.04.18-.14.18-.37-.09-.83-.69-5.12-.69-5.36 0-.32-.09-.51-.51-.51-.37 0-.51.14-.6.32l-.23.42c-.09.14-.28.14-.65-.19-.88-.65-3.05-1.48-5.26-1.48-3.28 0-6.09.97-8.26 2.82-2.22 1.94-3.42 4.75-3.42 7.57 0 3.6.92 6.09 2.77 8.12 2.17 2.4 5.86 3.37 8.26 3.37 2.95 0 5.45-.65 7.89-1.85.32-.14.51-.28.51-.51 0-.23-.14-.51-.14-.92v-3.54z" class="st3"></path>
  <path d="M209.04 97.94c0-.32.05-5.82.05-6.28.05-.97.46-1.15 1.71-1.15h.79c.23 0 .28-.14.28-.32v-1.11c0-.14-.09-.23-.28-.23-.37 0-2.72.14-4.06.14-2.17.05-5.03-.14-5.31-.14-.18 0-.28.09-.28.28v1.06c0 .18.05.32.28.32h.83c1.94 0 2.35.46 2.35.97 0 .65.09 5.26.09 6v2.03c0 1.57-.05 7.43-.09 7.85-.09.83-.83.88-1.99.88h-1.02c-.18 0-.28.14-.28.28v1.01c0 .23.09.37.28.37.28 0 2.96-.14 4.52-.14 2.08 0 4.48.14 4.84.14.23 0 .28-.14.28-.32v-1.11c0-.14-.05-.23-.28-.23h-.69c-1.34 0-1.89-.65-1.99-1.71-.05-.69-.05-6-.05-6.28v-2.31zM233.99 98.4c0-1.89-.09-4.8.14-6.92.09-.65.32-.97 1.48-.97h.46c.18 0 .28-.14.28-.32v-.97c0-.28-.09-.37-.32-.37-.32 0-1.94.14-2.91.14-1.48 0-3.46-.14-3.78-.14-.23 0-.32.09-.32.23v1.11c0 .23.09.32.32.32h.78c.79 0 1.48.28 1.71.83.23.55.37 3.23.37 4.34.09 1.48.14 2.91.14 5.54v3.05h-.18c-.55-.6-4.85-6-5.68-6.97-.97-1.15-6.28-7.85-6.42-8.03-.18-.28-.46-.37-1.11-.37-.55 0-1.52.09-2.26.09-.51 0-1.25-.05-1.85-.09-.6 0-1.11-.05-1.2-.05-.18 0-.28.14-.28.28v1.11c0 .19.09.28.28.28h.41c1.29 0 2.45.79 2.45 2.45v4.85c0 5.22-.09 8.49-.14 9.05-.14 1.06-.88 1.38-1.34 1.38h-1.06c-.14 0-.18.05-.18.14v1.2c0 .23.05.32.14.32.37 0 2.44-.14 3.09-.14 1.34 0 3.18.14 3.51.14.23 0 .23-.09.23-.28v-1.11c0-.18 0-.28-.23-.28h-.97c-.46 0-.97-.51-1.11-1.57-.09-.42-.28-5.03-.28-7.8v-6.32h.09c.74.83 4.48 5.82 5.59 7.11.51.6 2.49 2.95 4.62 5.49 1.89 2.26 3.46 4.15 3.79 4.48.18.14.65.46 1.06.46.55 0 .69-.46.69-.88V98.4z" class="st3"></path>
  <path d="M120.6 86.33H118c-.15 0-.22-.14-.16-.35l.12-.5c.06-.2.26-.67.49-.67h2.54c.88-2.51 1.73-4.56 3.27-6.28.82-.93 2.42-1.99 4.32-1.99 1.69 0 2.63 1.02 2.63 1.72 0 .9-.58 1.34-1.17 1.34-.93 0-1.2-.53-1.28-1.17-.03-.29-.32-.85-1.2-.85-2.72 0-3.3 3.86-4.27 7.13 0 0 4.06.11 7.37.11 3.57 0 5.48-.13 5.86-.13s.43.13.43.3v.98c0 .21-.04.38-.34.38h-2.04c-1.19 0-1.78.38-1.78 1.11 0 .34.04.85.17 1.44.26 1.53 1.83 6.58 2.59 8.96.51 1.61 2.97 8.92 3.95 11.51.98-2 4.29-10.75 4.63-11.72.43-1.15 2.04-6.03 2.68-7.9.34-1.06.6-1.83.6-2.42 0-.51-.3-.98-1.36-.98h-1.1c-.17 0-.21-.13-.21-.38v-.98c0-.21.04-.3.25-.3.38 0 2.34.13 5.01.13 3.1 0 4.16-.13 4.54-.13.26 0 .3.08.3.3v1.06c0 .17-.04.3-.3.3h-1.15c-1.4 0-2.21.68-3.02 1.66-1.1 1.36-4.5 10.07-5.22 11.85-.51 1.4-5.99 14.91-6.2 15.33-.17.34-.38.55-.59.55-.34 0-.51-.43-.72-.98-1.36-3.91-4.8-13.59-5.35-15.12l-.43-1.44c-1.02-3.02-3.02-9.18-3.57-10.45-.42-.98-.85-1.4-1.74-1.4l-3.95-.04c-.76 2.37-2.1 7.36-3.56 11.1-1.78 4.56-3.85 7.8-6.98 7.8-1.17 0-2.1-.79-2.1-1.72 0-.67.5-1.26 1.26-1.26.85 0 1.28.82 1.37 1.31.06.29.26.5.5.5 1.4 0 2.98-2.45 4.56-7.86l2.95-9.85zM239.4 61.43c.06-.04.04-.04.18-.03.72.08 3.34.33 8.41.33h1.85c1.51 0 3.13-.06 4.89-.14.88-.02 6.31.04 7.41.04 1.01 0 4.15-.14 4.48-.14.19 0 .32.09.32.32v1.02c0 .18-.05.32-.32.32h-.69c-.83 0-.88.51-.69.78.28.42 4.11 6.55 4.85 7.66.69-1.15 4.52-6.74 4.71-7.11.37-.74.41-1.34-.6-1.34h-.74c-.23 0-.32-.14-.32-.32V61.8c0-.18.09-.32.32-.32.28 0 2.59.14 3.97.14.83 0 2.45-.14 2.72-.14.23 0 .32.09.32.37v.97c0 .23-.09.32-.28.32h-.46c-.74 0-1.25.14-1.66.37-.69.37-6.05 7.89-7.11 9.51v3.88c.05 1.15 0 2.4.09 2.95.09.97.83 1.01 1.66 1.01h.6c.23 0 .33.09.33.23v1.11c0 .19-.09.32-.37.32s-2.86-.14-4.38-.14c-1.02 0-3.69.14-3.97.14-.23 0-.32-.09-.32-.37v-1.01c0-.14.09-.28.28-.28h.69c1.48 0 1.76-.28 1.8-.92.05-.42.05-2.08.05-4.8v-1.66c-.42-.83-6.05-9.09-6.79-9.78-.39-.39-1.05-.52-1.46-.55.27 1.25.65 2.89.79 3.68.05.18-.05.28-.23.37l-.79.23c-.28.09-.41.05-.51-.18-.55-1.15-1.34-2.68-2.31-3.55-1.15-.42-4.53-.46-5.36-.46V71c0 4.85 0 8.31.05 8.68.09.74.32 1.2 1.06 1.2h1.75c.23 0 .32.14.32.42v.97c0 .14-.09.28-.32.28-.32 0-3.18-.14-4.71-.14-1.29 0-4.29.14-4.66.14-.28 0-.37-.14-.37-.42v-.93c0-.23.09-.32.28-.32H246c.69 0 1.01-.37 1.06-.74.14-1.75.14-4.2.14-6.97v-9.92c-.88 0-3.47-.05-5.18.42-1.15.88-2.12 2.35-2.72 3.55-.09.19-.23.32-.42.23l-.83-.32c-.23-.09-.23-.28-.18-.46.27-.84 1.07-3.68 1.44-5.08.03-.08.03-.12.09-.16M254.53 100.29h6.28c-.18-.65-2.36-7.57-2.45-7.94-.09-.28-.14-.46-.28-.46s-.23.14-.37.51c-.14.37-2.95 7.43-3.18 7.89m-9.58-2.35v2.31c0 .28 0 5.58.05 6.28.09 1.06.65 1.71 1.98 1.71h.53c.78 0 1.52-.46 1.89-.97.32-.37 2.68-5.91 3.78-8.22.32-.65 3.05-6.92 3.32-7.71.09-.28.37-.78.05-.92-.09-.09-.23-.32-.18-.46-.05-.09.05-.23.46-.32.88-.14 2.17-.97 2.58-1.34.09-.18.28-.32.55-.32.28 0 .37.18.46.51.65 1.85 3 8.45 3.6 10.29.69 2.31 2.68 7.75 3 8.22.6.83 1.38 1.25 2.17 1.25h.88c.19 0 .23.14.23.28v.97c0 .14-.05.42-.32.42-.55 0-3-.14-4.06-.14-.88 0-3.6.14-4.2.14-.32 0-.37-.23-.37-.42v-.97c0-.14.05-.28.23-.28h.74c.55 0 .74-.41.74-.78-.18-.92-1.43-4.62-1.8-5.68h-7.43c-.18.55-1.66 4.39-1.85 4.94-.28.92-.14 1.52.83 1.52h1.15c.28 0 .32.14.32.32v1.01c0 .18-.05.32-.28.32-.37 0-2.82-.14-3.55-.14h-7.64c-1.57 0-4.25.14-4.52.14-.18 0-.28-.14-.28-.37v-1.01c0-.14.09-.28.28-.28h1.02c1.15 0 1.89-.05 1.98-.88.05-.42.09-6.28.09-7.85v-2.03c0-.74-.09-5.35-.09-6 0-.51-.42-.97-2.35-.97h-.83c-.23 0-.28-.14-.28-.32v-1.06c0-.18.09-.28.28-.28.28 0 3.14.18 5.31.14 1.34 0 3.69-.14 4.06-.14.18 0 .28.09.28.23v1.11c0 .18-.05.32-.28.32h-.79c-1.25 0-1.66.19-1.71 1.15.01.46-.03 5.95-.03 6.28M160.69 61.82v1.06c0 .18-.14.28-.32.28h-1.06c-.6 0-1.29.09-1.29.69 0 1.06.78 2.86 2.03 6.74.37 1.15 2.08 6.51 2.35 7.25h.14c.28-.97 2.54-6.69 2.77-7.39 1.75-5.12 2.35-6.37 2.35-6.83 0-.23-.18-.46-.97-.46h-.51c-.18 0-.28-.09-.28-.32v-1.06c0-.14.09-.28.28-.28.28 0 2.68.14 3.74.14h7.06l10.34-.05c.46 0 1.06-.09 1.25-.09.09 0 .19.09.28.65.09.42 1.38 4.38 1.48 4.71.04.18.04.28-.05.32l-.74.32c-.09.05-.28.05-.42-.18-.09-.14-2.31-2.72-3.09-3.46-.55-.51-1.29-.69-1.75-.69l-4.89-.09v7.85c.28 0 3-.14 3.37-.23 1.2-.32 1.66-.97 1.66-2.4 0-.19.05-.23.23-.23l1.01.05c.18 0 .32.09.28.28-.09.42-.09 2.86-.09 3.28 0 1.02.14 2.45.19 3.05 0 .18-.09.23-.23.23l-.97.09c-.14 0-.23 0-.28-.18-.23-1.15-.51-1.89-1.71-2.17-1.38-.32-3-.32-3.46-.32v1.57c0 1.61.09 4.29.09 4.89 0 2.17 1.34 2.31 3.32 2.31 2.03 0 3.32-.05 4.89-1.29.37-.28 1.98-2.35 2.45-3.09.23-.32.46-.37.6-.28l.74.42c.09.05.18.18.14.32l-1.66 4.89c-.09.23-.32.46-.51.46-.32 0-2.77-.14-12.46-.14-.83 0-3.37.14-3.92.14-.23 0-.28-.14-.28-.32V81.2c0-.19.09-.28.32-.28h.42c2.17 0 2.31-.18 2.31-.83v-9.83c0-2.45-.05-5.45-.09-5.91-.14-.97-.41-1.15-2.26-1.15h-1.1c-.88 0-1.52.28-1.94.69-.88.88-3.37 6.92-3.83 8.12-.42.97-4.2 10.02-4.57 10.62-.14.23-.37.37-.74.37s-.6-.32-.74-.69c-1.01-2.72-3.46-9.42-3.83-10.43l-.32-1.02c-.78-2.12-2.17-6.32-2.49-6.78-.37-.51-.74-.88-1.34-.88h-.46c-.18 0-.23-.14-.23-.28v-1.15c0-.14.09-.23.28-.23.23 0 2.77.14 3.97.14 1.11 0 3.92-.14 4.2-.14.25-.05.34.05.34.28" class="st4"></path>
  <g>
    <path d="M342.52 72.83c.1 0 .16.05.16.21.05.84.26 1.84 1 2.99.79 1.26 2.15 1.89 3.46 1.89 1.42 0 3.41-.89 3.41-3.07 0-2.41-1.1-3.2-3.88-4.25-.84-.31-2.57-1.05-3.83-2.2-.89-.84-1.31-2.15-1.31-3.75 0-1.47.58-2.68 1.84-3.67 1.05-.89 2.2-1.26 3.73-1.26 1.73 0 2.78.42 3.31.63.26.1.42.05.55-.08l.34-.34c.1-.1.21-.16.37-.16s.21.16.21.42c0 .42.42 4.09.42 4.36 0 .1-.05.16-.16.18l-.42.13c-.11.03-.21 0-.26-.16-.26-.73-.68-1.78-1.63-2.78-.68-.73-1.52-1.1-2.73-1.1-2.1 0-2.94 1.68-2.94 2.65 0 .89.1 1.68.73 2.36.68.68 2.15 1.31 3.2 1.63 1.52.47 2.78 1 3.78 2.05.84.89 1.31 1.99 1.31 3.75 0 3.2-2.1 5.83-5.56 5.83-2.15 0-3.41-.47-4.46-1.26-.31-.21-.47-.31-.63-.31s-.26.21-.42.47c-.16.26-.26.31-.47.31s-.32-.16-.32-.42c.05-.31.42-4.57.47-4.88.03-.16.05-.21.16-.21l.57.04zM363.93 77.22h-.16c-.58.94-2.1 1.78-3.46 1.78-.94 0-1.78 0-2.7-1.15-.94-1.23-.97-2.2-.97-3.67 0-1.26.03-2.18.03-2.73 0-.63 0-1.57-.05-1.89-.08-.66-.45-.89-.92-.94-.42-.05-.58-.05-.58-.21v-.47c0-.16.05-.21.31-.21h3.15c.16 0 .29-.03.39-.05s.21-.05.29-.05c.16 0 .26.16.26.31 0 .26-.1 1.47-.1 3.28v1.65c0 1.05-.18 2.83.52 3.94.52.79 1.1.73 1.68.73.63 0 1.42-.42 1.84-1 .1-.16.29-.52.29-.84v-6.2c0-.68-.5-.84-1.13-.89-.47-.05-.52-.1-.52-.21v-.47c0-.18.08-.21.31-.21h3.25c.18 0 .31-.03.45-.05s.24-.05.34-.05c.16 0 .21.16.21.26 0 .26-.16.94-.16 3.54v1.92c0 1.26 0 2.52.05 3.04.1.79.37.89.58.89.16 0 .52 0 .84-.05.21-.03.29 0 .31.1l.08.42c.03.16-.03.21-.13.24l-3.25.92c-.16.05-.31.1-.52.1s-.34-.1-.37-.31l-.16-1.47zM373.49 83.3c.03 1.52.21 1.63.73 1.63h.94c.16 0 .21.08.21.21v.55c0 .16-.05.21-.26.21s-1-.08-3.04-.08c-1.73 0-2.68.08-2.89.08-.16 0-.21-.05-.21-.21v-.58c0-.1.05-.18.16-.18h.94c.37 0 .52-.26.58-.68.05-.58.05-1.63.05-3.62v-9.05c0-.79-.1-1.15-.89-1.57l-.58-.31c-.16-.1-.21-.16-.21-.26v-.26c0-.1.05-.16.21-.21l2.99-1.31c.31-.13.52-.21.73-.21.13 0 .21.16.24.34l.18 1.29h.05c.68-.84 2.05-1.63 3.57-1.63 1.26 0 2.2.47 3.04 1.31 1.05 1.1 1.42 2.1 1.42 3.75 0 3.78-2.52 6.51-5.72 6.51-.58 0-1.52-.1-2.31-.47l.07 4.75zm-.05-7.4c0 .58.16 1.16.68 1.47.52.42 1.21.6 2.05.6 1.26 0 2.55-1.05 2.6-3.81 0-2.44-.84-5.22-3.07-5.22-.84 0-1.73.42-2.26 1.15v5.81zM387.22 83.3c.03 1.52.21 1.63.73 1.63h.94c.16 0 .21.08.21.21v.55c0 .16-.05.21-.26.21s-1-.08-3.04-.08c-1.73 0-2.68.08-2.89.08-.16 0-.21-.05-.21-.21v-.58c0-.1.05-.18.16-.18h.94c.37 0 .52-.26.58-.68.05-.58.05-1.63.05-3.62v-9.05c0-.79-.1-1.15-.89-1.57l-.58-.31c-.16-.1-.21-.16-.21-.26v-.26c0-.1.05-.16.21-.21l2.99-1.31c.31-.13.52-.21.73-.21.13 0 .21.16.24.34l.18 1.29h.05c.68-.84 2.05-1.63 3.57-1.63 1.26 0 2.2.47 3.04 1.31 1.05 1.1 1.42 2.1 1.42 3.75 0 3.78-2.52 6.51-5.72 6.51-.58 0-1.52-.1-2.31-.47l.07 4.75zm-.05-7.4c0 .58.16 1.16.68 1.47.52.42 1.21.6 2.05.6 1.26 0 2.55-1.05 2.6-3.81 0-2.44-.84-5.22-3.07-5.22-.84 0-1.73.42-2.26 1.15v5.81zM406.88 68.97c1.23 1.23 1.81 2.6 1.81 4.15 0 1.47-.63 2.89-1.63 3.99-1.08 1.21-2.65 1.89-4.41 1.89-1.65 0-3.07-.47-4.25-1.89-1.15-1.36-1.42-2.47-1.42-4.07 0-1.26.63-3.1 2.2-4.36 1.29-1.05 2.65-1.26 3.73-1.26 1.76.01 3.08.69 3.97 1.55zm-1.39 4.07c0-2.89-1.52-4.57-2.73-4.57-.68 0-1.21.21-1.65.71-.81.92-1.13 2.02-1.13 3.94 0 1.52.1 2.52.81 3.65.45.71 1.02 1.13 2.07 1.13 1.73 0 2.63-2.18 2.63-4.86zM411.92 71.94c0-1.21-.21-1.63-1-2.05l-.47-.26c-.16-.05-.21-.1-.21-.21v-.16c0-.1.05-.16.21-.24l3.17-1.5c.16-.05.26-.1.42-.1.16 0 .21.16.24.31l.24 1.94h.11c.89-1.47 1.99-2.36 3.15-2.36.84 0 1.36.58 1.36 1.31s-.73 1.42-1.42 1.42c-.37 0-.68-.1-.89-.21-.21-.16-.47-.21-.73-.21-.32 0-.79.21-1.1.76-.21.37-.31.94-.31 1.29v5.01c0 .84.21 1.1.73 1.1h1.15c.16 0 .21.05.21.18v.6c0 .13-.05.18-.18.18-.18 0-1.34-.08-3.25-.08-1.84 0-2.86.08-3.07.08-.13 0-.18-.05-.18-.18V78c0-.16.05-.21.24-.21h.92c.42 0 .68-.21.68-.71v-5.14zM420.19 69.18c-.21 0-.37-.1-.37-.37 0-.21.16-.37.5-.5.73-.26 3.02-2.2 3.6-3.31.1-.21.26-.26.42-.26.21 0 .31.16.31.37l-.11 2.6H428c.16 0 .21.11.18.21l-.26 1.1c-.03.1-.1.16-.26.16h-3.18c-.05 1.1-.08 2.36-.08 3.52v2.36c0 2.05.87 2.47 1.39 2.47.58 0 1.16-.13 1.52-.31.18-.08.26-.08.32.05l.16.31c.05.16 0 .26-.1.37-.37.26-1.47 1.05-3.31 1.05-1.57 0-2.76-1.26-2.76-2.36 0-.95.08-3.04.08-4.04v-3.41h-1.51zM430.53 71.21c0-.79-.16-1.31-1.37-1.63-.24-.05-.26-.13-.26-.24v-.29c0-.1.05-.16.18-.21.37-.16 2.97-1.08 3.41-1.26.26-.1.47-.16.63-.16.16 0 .24.1.21.31-.05.42-.05 2.1-.05 4.28v2.83c0 1 0 1.94.05 2.26.05.47.16.68.42.68h1.05c.21 0 .26.05.26.18v.52c0 .16-.05.26-.21.26-.21 0-1.42-.08-3.18-.08-1.52 0-2.52.08-2.83.08-.13 0-.21-.05-.21-.26V78c0-.16.1-.21.26-.21h1.15c.26 0 .39-.1.42-.52.03-.79.05-1.63.05-2.36v-3.7zm.89-6.43c-.84 0-1.68-.66-1.68-1.57 0-.79.76-1.63 1.84-1.63 1.1 0 1.63.89 1.63 1.52 0 .78-.55 1.68-1.79 1.68zM439.32 67.64c.21-.1.37-.21.52-.21.16 0 .26.1.32.31l.21 1.36h.16c.32-.37.79-.79 1.31-1.05.63-.37 1.31-.63 2.1-.63.89 0 1.73.16 2.31.63 1.15.84 1.44 1.63 1.44 2.7v3.78c0 .84-.03 1.99-.03 2.52 0 .58.32.73.63.73h.74c.24 0 .31.05.31.18v.6c0 .13-.05.18-.21.18-.21 0-1-.08-2.83-.08-1.58 0-2.42.08-2.57.08s-.21-.1-.21-.31V78c0-.16.05-.21.31-.21h.53c.21 0 .42-.16.47-.63.08-.68.1-1.42.1-2.47v-3.02c0-1.05-.05-1.73-.68-2.26-.52-.47-1-.47-1.57-.47-.42 0-1.05.1-1.68.68-.42.42-.55 1.15-.55 1.86v5.41c0 .58.13.89.5.89h.47c.21 0 .26.05.26.24v.47c0 .16-.05.26-.21.26-.16 0-.89-.08-2.47-.08-1.63 0-2.47.08-2.62.08-.11 0-.16-.1-.16-.26V78c0-.16.05-.21.26-.21h.53c.31 0 .68-.1.68-.52v-5.91c0-.79-.47-1.21-1.1-1.52l-.21-.1c-.16-.05-.21-.16-.21-.26v-.21c0-.1.1-.21.26-.26l2.89-1.37zM451.29 85.01c-.94-.55-1.31-1.23-1.31-2.07 0-1.42 1.47-2.42 2.73-2.94v-.16c-1.16-.26-1.79-1.1-1.79-1.94 0-1.42 1.47-2.31 2.26-2.68v-.05c-1-.58-2.26-1.68-2.26-3.91 0-1.73 1.47-3.83 4.86-3.83 2.26 0 3.31 1.21 3.57 1.5.63-.5 1.55-.97 2.23-.97.97 0 1.42.58 1.36 1.26 0 .52-.47 1.05-1.05 1.05-.39 0-.66-.21-.81-.37-.21-.16-.42-.31-.63-.31-.16 0-.42 0-.63.16.16.31.31.89.31 1.73 0 1.02-.31 2.07-1.1 2.91-.84.89-2.1 1.21-3.33 1.21-.58 0-.95 0-1.5-.11-.47.21-1.13.68-1.13 1.31 0 1.05 1 1.05 3.31.94 2-.1 3.31.05 4.46 1 1.05.79 1.31 1.78 1.31 2.57 0 1.15-.47 2.15-1.63 3.04-.84.68-2.68 1.52-5.14 1.47-1.25 0-2.93-.15-4.09-.81zm2.63-4.75c-.73.21-1.6 1.05-1.6 2.1 0 .73.45 1.52.94 1.81.81.47 1.55.63 3.07.63 1.37 0 3.62-.79 3.57-2.34 0-1.52-1.1-2.47-3.62-2.36l-2.36.16zm3.59-9.26c0-1.05-.32-1.73-.58-2.07-.24-.29-.6-.52-1.23-.52-.55 0-1.02.18-1.42.66-.58.73-.73 1.94-.73 2.97 0 .84.21 1.68.66 2.07.37.37.76.58 1.5.58 1.36-.02 1.8-1.83 1.8-3.69zM474.65 61.21h-.74c-.84 0-2.73 0-3.83.37-.84.37-1.84 2.1-2.34 2.99-.08.13-.16.24-.29.18l-.53-.18c-.1-.05-.13-.13-.1-.26l1.26-4.83c.05-.37.21-.47.32-.47.16 0 .26.1.42.26.52.52 1.05.66 1.78.68 1.42.05 2.52.16 5.09.16h1.42c2.89 0 3.99-.1 5.2-.16.5-.03 1.5-.39 1.89-.68.21-.16.32-.26.47-.26s.21.1.26.42c.05.47.58 3.73.79 4.99.03.16-.03.21-.1.24l-.53.18c-.11.03-.16-.05-.24-.21-.37-.73-1.34-2.41-2.07-2.94-.74-.42-3.1-.47-4.04-.47h-.73v13.99c0 1.99.26 2.52.89 2.52h1.52c.11 0 .16.1.16.24v.55c0 .16-.05.26-.26.26-.26 0-1.1-.08-3.94-.08-2.68 0-3.78.08-4.15.08-.16 0-.21-.05-.21-.24v-.6c0-.16.08-.21.18-.21h1.5c.53 0 .84-.31.87-.71.08-.68.08-8.71.08-9.24v-6.57zM486.05 71.94c0-1.21-.21-1.63-1-2.05l-.47-.26c-.16-.05-.21-.1-.21-.21v-.16c0-.1.05-.16.21-.24l3.18-1.5c.16-.05.26-.1.42-.1.16 0 .21.16.24.31l.24 1.94h.11c.89-1.47 1.99-2.36 3.15-2.36.84 0 1.36.58 1.36 1.31s-.73 1.42-1.42 1.42c-.37 0-.68-.1-.89-.21-.21-.16-.47-.21-.73-.21-.32 0-.79.21-1.1.76-.21.37-.32.94-.32 1.29v5.01c0 .84.21 1.1.74 1.1h1.16c.16 0 .21.05.21.18v.6c0 .13-.05.18-.18.18-.18 0-1.34-.08-3.25-.08-1.84 0-2.86.08-3.07.08-.13 0-.18-.05-.18-.18V78c0-.16.05-.21.24-.21h.92c.42 0 .68-.21.68-.71v-5.14zM500.09 77.4c-.58.63-1.26 1.08-2.28 1.42-.61.18-1.16.18-1.68.18-.97 0-1.81-.79-1.81-2.26 0-1.21.53-2.39 2.42-3.23 1.63-.79 2.62-1.21 3.2-1.63v-1.36c-.05-.52-.11-1.15-.42-1.47-.26-.29-.74-.39-1.31-.39-.47 0-1.1.16-1.52.47-.37.26-.1.66-.1 1.29 0 .94-.47 1.52-1.58 1.52-.47 0-.89-.31-.89-.89 0-.73.42-1.57 1.21-2.15 1.1-.84 2.52-1.47 4.25-1.47 1.47 0 1.94.31 2.41.73.58.52.63 1.26.63 1.97l.05 4.15v1.26c0 1.42.21 1.84.68 1.84.37 0 .73-.21.84-.42.1-.16.16-.16.26-.1l.32.21c.1.05.16.16.05.42-.26.47-.89 1.52-2.41 1.52-1 0-1.84-.47-2.21-1.6h-.11zm-.16-4.54c-1.16.73-2.89 1.18-2.89 3.1 0 1.08.58 1.6 1.21 1.6.73-.05 1.68-.79 1.68-1.26v-3.44zM508.81 67.64c.21-.1.37-.21.52-.21.16 0 .26.1.32.31l.21 1.36h.16c.32-.37.79-.79 1.31-1.05.63-.37 1.31-.63 2.1-.63.89 0 1.73.16 2.31.63 1.15.84 1.44 1.63 1.44 2.7v3.78c0 .84-.03 1.99-.03 2.52 0 .58.32.73.63.73h.74c.24 0 .31.05.31.18v.6c0 .13-.05.18-.21.18-.21 0-1-.08-2.83-.08-1.58 0-2.42.08-2.57.08s-.21-.1-.21-.31V78c0-.16.05-.21.31-.21h.53c.21 0 .42-.16.47-.63.08-.68.1-1.42.1-2.47v-3.02c0-1.05-.05-1.73-.68-2.26-.52-.47-1-.47-1.57-.47-.42 0-1.05.1-1.68.68-.42.42-.55 1.15-.55 1.86v5.41c0 .58.13.89.5.89h.47c.21 0 .26.05.26.24v.47c0 .16-.05.26-.21.26-.16 0-.89-.08-2.47-.08-1.63 0-2.47.08-2.62.08-.11 0-.16-.1-.16-.26V78c0-.16.05-.21.26-.21h.53c.31 0 .68-.1.68-.52v-5.91c0-.79-.47-1.21-1.1-1.52l-.21-.1c-.16-.05-.21-.16-.21-.26v-.21c0-.1.1-.21.26-.26l2.89-1.37zM520.23 75.38c-.03-.11 0-.18.08-.21l.5-.16c.11-.03.18-.03.24.08l.87 1.47c.47.79.97 1.42 2.26 1.42 1.02 0 1.86-.63 1.86-1.6 0-1.05-.68-1.52-2.52-2.05-1.78-.53-3.2-1.42-3.2-3.28 0-1.15.42-2.1 1.34-2.76.92-.63 1.65-.87 2.73-.87 1.29 0 2.07.31 2.55.58.39.21.47.31.5.47l.34 1.78c.03.1.03.24-.03.29l-.5.24c-.08.03-.16 0-.21-.1l-1.26-1.42c-.32-.34-.79-.81-1.65-.81-.97 0-1.81.58-1.81 1.5 0 1.08.79 1.39 2.36 1.81 1.21.31 1.94.63 2.62 1.36.58.58.79 1.21.79 2.1 0 2.2-1.79 3.78-4.38 3.78-1.39 0-2.55-.45-2.83-.68-.1-.11-.18-.18-.21-.29l-.44-2.65zM534.16 71.34c0 2.1-.03 4.99.03 5.72.05.47.26.73.73.73h1.21c.21 0 .26.05.26.24v.47c0 .16-.05.26-.16.26-.16 0-1.15-.08-3.46-.08-1.58 0-2.94.08-3.15.08-.16 0-.21-.05-.21-.21v-.6c0-.1.05-.16.26-.16h1.05c.53 0 .68-.31.68-.89v-7.87h-1.78c-.11 0-.16-.08-.13-.29l.11-.89c0-.1.13-.13.34-.13h1.47v-.5c0-2.68.79-4.41 1.94-5.62 1.42-1.36 2.83-1.89 4.41-1.89 1.42 0 2.57.52 2.57 1.63 0 .73-.79 1.26-1.31 1.26-.32 0-.63-.05-.84-.21-.32-.1-.58-.42-.74-.68-.31-.47-.68-.68-1.05-.68-.63 0-1.15.16-1.63.84-.68.94-.58 3.04-.6 5.01v.84h3.12c.21 0 .21.13.21.24l-.13.94c-.03.1-.13.13-.34.13h-2.86v2.31zM548.05 68.97c1.23 1.23 1.81 2.6 1.81 4.15 0 1.47-.63 2.89-1.63 3.99-1.08 1.21-2.65 1.89-4.41 1.89-1.65 0-3.07-.47-4.25-1.89-1.15-1.36-1.42-2.47-1.42-4.07 0-1.26.63-3.1 2.2-4.36 1.29-1.05 2.65-1.26 3.73-1.26 1.76.01 3.08.69 3.97 1.55zm-1.39 4.07c0-2.89-1.52-4.57-2.73-4.57-.68 0-1.21.21-1.65.71-.81.92-1.13 2.02-1.13 3.94 0 1.52.1 2.52.81 3.65.45.71 1.02 1.13 2.07 1.13 1.73 0 2.63-2.18 2.63-4.86zM553.09 71.94c0-1.21-.21-1.63-1-2.05l-.47-.26c-.16-.05-.21-.1-.21-.21v-.16c0-.1.05-.16.21-.24l3.17-1.5c.16-.05.26-.1.42-.1.16 0 .21.16.24.31l.24 1.94h.11c.89-1.47 1.99-2.36 3.15-2.36.84 0 1.36.58 1.36 1.31s-.73 1.42-1.42 1.42c-.37 0-.68-.1-.89-.21-.21-.16-.47-.21-.73-.21-.32 0-.79.21-1.1.76-.21.37-.31.94-.31 1.29v5.01c0 .84.21 1.1.73 1.1h1.15c.16 0 .21.05.21.18v.6c0 .13-.05.18-.18.18-.18 0-1.34-.08-3.25-.08-1.84 0-2.86.08-3.07.08-.13 0-.18-.05-.18-.18V78c0-.16.05-.21.24-.21h.92c.42 0 .68-.21.68-.71v-5.14zM564.19 67.58c.21-.1.37-.16.53-.16.16 0 .29.1.31.37l.16 1.52h.11c.79-1 2.2-1.89 3.78-1.89 1.57 0 2.47.79 3.1 1.94h.16c.84-1.1 2.21-1.94 3.67-1.94 1.05 0 1.73.16 2.41.89.71.73 1.21 1.1 1.21 3.39v2.99c0 .73-.05 1.99-.05 2.31 0 .58.31.79.68.79h.68c.16 0 .21.05.21.18v.55c0 .16-.05.24-.21.24-.16 0-.89-.08-2.52-.08-1.47 0-2.41.08-2.57.08-.16 0-.21-.08-.21-.21V78c0-.16.05-.21.21-.21h.42c.26 0 .52-.16.52-.52.05-.58.11-1.52.11-2.31v-3.07c0-1.26-.11-1.94-.58-2.36-.42-.42-.89-.58-1.57-.58-.74 0-1.52.58-1.86 1.08-.39.55-.39 1.34-.39 2.05v4.88c0 .58.16.84.47.84h.68c.21 0 .26.05.26.18v.58c0 .13-.03.21-.16.21-.21 0-.89-.08-2.57-.08-1.63 0-2.49.08-2.65.08-.13 0-.18-.08-.18-.21v-.5c0-.21.05-.26.21-.26h.58c.37 0 .63-.26.63-1.21V72.1c0-1.89-.32-2.47-.68-2.78-.32-.26-.89-.37-1.42-.37-.58 0-1.42.31-1.89 1.1-.37.52-.42 1.1-.42 1.86v4.67c0 .94.21 1.21.52 1.21h.58c.21 0 .26.05.26.16v.6c0 .13-.05.21-.21.21-.21 0-.94-.08-2.62-.08-1.58 0-2.42.08-2.62.08-.16 0-.21-.05-.21-.24v-.55c0-.13.11-.18.32-.18h.79c.26 0 .42-.21.47-.68v-5.43c0-.84-.16-1.31-.79-1.68l-.55-.29c-.13-.08-.18-.13-.18-.24v-.26c0-.1.08-.16.18-.21l2.89-1.42zM588.58 77.4c-.58.63-1.26 1.08-2.28 1.42-.6.18-1.16.18-1.68.18-.97 0-1.81-.79-1.81-2.26 0-1.21.52-2.39 2.41-3.23 1.63-.79 2.62-1.21 3.2-1.63v-1.36c-.05-.52-.11-1.15-.42-1.47-.26-.29-.74-.39-1.31-.39-.47 0-1.1.16-1.52.47-.37.26-.1.66-.1 1.29 0 .94-.47 1.52-1.58 1.52-.47 0-.89-.31-.89-.89 0-.73.42-1.57 1.21-2.15 1.1-.84 2.52-1.47 4.25-1.47 1.47 0 1.94.31 2.42.73.58.52.63 1.26.63 1.97l.05 4.15v1.26c0 1.42.21 1.84.68 1.84.37 0 .74-.21.84-.42.11-.16.16-.16.26-.1l.32.21c.1.05.16.16.05.42-.26.47-.89 1.52-2.42 1.52-1 0-1.84-.47-2.2-1.6h-.11zm-.16-4.54c-1.16.73-2.89 1.18-2.89 3.1 0 1.08.58 1.6 1.21 1.6.73-.05 1.68-.79 1.68-1.26v-3.44zM594.07 69.18c-.21 0-.37-.1-.37-.37 0-.21.16-.37.5-.5.73-.26 3.02-2.2 3.6-3.31.1-.21.26-.26.42-.26.21 0 .31.16.31.37l-.11 2.6h3.46c.16 0 .21.11.18.21l-.26 1.1c-.03.1-.1.16-.26.16h-3.18c-.05 1.1-.08 2.36-.08 3.52v2.36c0 2.05.87 2.47 1.39 2.47.58 0 1.16-.13 1.52-.31.18-.08.26-.08.32.05l.16.31c.05.16 0 .26-.1.37-.37.26-1.47 1.05-3.31 1.05-1.57 0-2.76-1.26-2.76-2.36 0-.95.08-3.04.08-4.04v-3.41h-1.51zM604.41 71.21c0-.79-.16-1.31-1.37-1.63-.24-.05-.26-.13-.26-.24v-.29c0-.1.05-.16.18-.21.37-.16 2.97-1.08 3.41-1.26.26-.1.47-.16.63-.16.16 0 .24.1.21.31-.05.42-.05 2.1-.05 4.28v2.83c0 1 0 1.94.05 2.26.05.47.16.68.42.68h1.05c.21 0 .26.05.26.18v.52c0 .16-.05.26-.21.26-.21 0-1.42-.08-3.18-.08-1.52 0-2.52.08-2.83.08-.13 0-.21-.05-.21-.26V78c0-.16.1-.21.26-.21h1.15c.26 0 .39-.1.42-.52.03-.79.05-1.63.05-2.36v-3.7zm.89-6.43c-.84 0-1.68-.66-1.68-1.57 0-.79.76-1.63 1.84-1.63 1.1 0 1.63.89 1.63 1.52-.01.78-.56 1.68-1.79 1.68zM614.25 78.48c-.16-.26-2.05-4.7-2.31-5.35-.18-.52-1.21-3.23-1.42-3.57-.42-.73-.63-.94-1.1-.94h-.5c-.13 0-.18-.05-.18-.21v-.55c0-.16.05-.21.26-.21.31 0 .73.08 2.89.08 1.63 0 2.31-.08 2.62-.08.21 0 .26.05.26.21v.5c0 .16-.05.26-.21.26h-.42c-.31 0-.58.16-.58.45 0 .47.74 2.6.89 3.07l1.31 3.41h.16c.31-.73 1.89-4.54 2.26-5.77.21-.68-.1-1.15-.58-1.15h-.42c-.11 0-.16-.08-.16-.21v-.58c0-.13.05-.18.21-.18.31 0 .89.08 2.31.08 1.21 0 1.84-.08 2.05-.08s.26.05.26.18v.58c0 .13-.05.21-.18.21h-.45c-.32 0-.74.05-1 .29-.47.47-1.68 3.07-2.2 4.17-.34.71-2.31 5.2-2.44 5.46-.18.34-.34.55-.66.55-.3-.02-.46-.23-.67-.62zM624.54 72.86c0 2.68 1.92 4.25 3.41 4.25 1.63 0 2.62-.68 3.18-1.52.1-.18.21-.18.31-.13l.39.24c.13.08.18.18 0 .53-.55 1-1.89 2.78-4.78 2.78-1.68 0-2.86-.37-3.78-1.42-1.21-1.39-1.47-2.7-1.47-4.33 0-1.44.16-2.41 1.29-3.88 1.1-1.42 2.28-1.94 4.57-1.94 2.99 0 3.96 3.12 3.96 4.2 0 .39-.26.42-.73.42h-6.35v.8zm3.25-1.76c.55 0 .87-.16.87-.37 0-.79-.26-2.34-1.63-2.34-1.29 0-2.07.94-2.41 2.7h3.17z" class="st4"></path>
  </g>
  <g>
    <path d="M343.74 102.97c-.21.6-1.5 4.36-1.63 5.07-.05.21-.05.42-.05.55 0 .34.42.63.95.63h1.1c.21 0 .26.05.26.13v.65c0 .16-.05.26-.21.26-.37 0-1.47-.08-3.31-.08-1.94 0-2.52.08-2.89.08-.16 0-.16-.16-.16-.34v-.5c0-.16.05-.21.16-.21h.79c.73 0 1.21-.37 1.68-1.18.26-.47 2.15-5.2 2.94-7.4l2.57-6.88c.05-.26.21-.73.05-.89-.08-.08-.16-.24-.16-.31 0-.11.05-.21.26-.26.84-.21 2.28-1 2.6-1.31.16-.16.26-.26.39-.26.16 0 .26.31.31.47.47 1.63 2.52 7.51 2.99 9.19.63 2.05 2.31 6.93 2.68 7.64.47.89 1.16 1.21 1.68 1.21h.84c.16 0 .21.05.21.18v.55c0 .16-.05.32-.26.32-.47 0-1-.08-3.88-.08-2.2 0-3.1.08-3.67.08-.21 0-.26-.16-.26-.32v-.52c0-.16.05-.21.21-.21h.68c.73 0 .94-.26.79-.97-.21-.94-1.26-4.3-1.58-5.28h-6.08zm5.82-1.05c-.26-.76-2.05-6.74-2.2-7.27-.1-.31-.16-.47-.26-.47-.16 0-.26.11-.34.34-.1.34-2.47 6.8-2.65 7.4h5.45zM366.55 108.72h-.16c-.58.94-2.1 1.78-3.46 1.78-.94 0-1.78 0-2.7-1.15-.94-1.23-.97-2.21-.97-3.67 0-1.26.03-2.18.03-2.73 0-.63 0-1.57-.05-1.89-.08-.66-.45-.89-.92-.95-.42-.05-.58-.05-.58-.21v-.47c0-.16.05-.21.31-.21h3.15c.16 0 .29-.03.39-.05.1-.03.21-.05.29-.05.16 0 .26.16.26.31 0 .26-.1 1.47-.1 3.28v1.65c0 1.05-.18 2.83.52 3.94.52.79 1.1.74 1.68.74.63 0 1.42-.42 1.84-1 .1-.16.29-.52.29-.84V101c0-.68-.5-.84-1.13-.89-.47-.05-.52-.11-.52-.21v-.47c0-.18.08-.21.31-.21h3.25c.18 0 .31-.03.45-.05.13-.03.24-.05.34-.05.16 0 .21.16.21.26 0 .26-.16.94-.16 3.54v1.92c0 1.26 0 2.52.05 3.04.1.79.37.89.58.89.16 0 .52 0 .84-.05.21-.03.29 0 .31.1l.08.42c.03.16-.03.21-.13.24l-3.25.92c-.16.05-.31.1-.52.1s-.34-.1-.37-.31l-.16-1.47zM371.98 100.68c-.21 0-.37-.1-.37-.37 0-.21.16-.37.5-.5.73-.26 3.02-2.2 3.6-3.31.1-.21.26-.26.42-.26.21 0 .31.16.31.37l-.1 2.6h3.46c.16 0 .21.11.18.21l-.26 1.1c-.03.11-.1.16-.26.16h-3.18c-.05 1.1-.08 2.36-.08 3.52v2.36c0 2.05.87 2.47 1.39 2.47.58 0 1.15-.13 1.52-.32.18-.08.26-.08.32.05l.16.31c.05.16 0 .26-.1.37-.37.26-1.47 1.05-3.31 1.05-1.57 0-2.76-1.26-2.76-2.36 0-.95.08-3.04.08-4.04v-3.41h-1.52zM382.33 102.71c0-.79-.16-1.31-1.36-1.63-.24-.05-.26-.13-.26-.24v-.29c0-.11.05-.16.18-.21.37-.16 2.97-1.08 3.41-1.26.26-.11.47-.16.63-.16s.24.1.21.31c-.05.42-.05 2.1-.05 4.28v2.83c0 1 0 1.94.05 2.26.05.47.16.68.42.68h1.05c.21 0 .26.05.26.18v.54c0 .16-.05.26-.21.26-.21 0-1.42-.08-3.18-.08-1.52 0-2.52.08-2.83.08-.13 0-.21-.05-.21-.26v-.5c0-.16.1-.21.26-.21h1.15c.26 0 .39-.1.42-.52.03-.79.05-1.63.05-2.36v-3.7zm.89-6.43c-.84 0-1.68-.66-1.68-1.57 0-.79.76-1.63 1.84-1.63 1.1 0 1.63.89 1.63 1.52-.01.78-.56 1.68-1.79 1.68zM388.13 106.88c-.03-.11 0-.18.08-.21l.5-.16c.1-.03.18-.03.24.08l.87 1.47c.47.79.97 1.42 2.26 1.42 1.02 0 1.86-.63 1.86-1.6 0-1.05-.68-1.52-2.52-2.05-1.78-.53-3.2-1.42-3.2-3.28 0-1.15.42-2.1 1.34-2.75.92-.63 1.65-.87 2.73-.87 1.29 0 2.07.31 2.55.58.39.21.47.31.5.47l.34 1.78c.03.11.03.24-.03.29l-.5.24c-.08.03-.16 0-.21-.11l-1.26-1.42c-.32-.34-.79-.81-1.65-.81-.97 0-1.81.58-1.81 1.5 0 1.08.79 1.39 2.36 1.81 1.21.32 1.94.63 2.62 1.36.58.58.79 1.21.79 2.1 0 2.21-1.79 3.78-4.38 3.78-1.39 0-2.55-.45-2.83-.68-.1-.11-.18-.18-.21-.29l-.44-2.65zM400.78 99.08c.21-.11.37-.16.53-.16.16 0 .29.1.31.37l.16 1.52h.11c.79-1 2.2-1.89 3.78-1.89 1.57 0 2.47.79 3.1 1.94h.16c.84-1.1 2.21-1.94 3.67-1.94 1.05 0 1.73.16 2.41.89.71.74 1.21 1.1 1.21 3.39v2.99c0 .74-.05 2-.05 2.31 0 .58.31.79.68.79h.68c.16 0 .21.05.21.18v.55c0 .16-.05.24-.21.24-.16 0-.89-.08-2.52-.08-1.47 0-2.41.08-2.57.08-.16 0-.21-.08-.21-.21v-.55c0-.16.05-.21.21-.21h.42c.26 0 .52-.16.52-.52.05-.58.11-1.52.11-2.31v-3.07c0-1.26-.11-1.94-.58-2.36-.42-.42-.89-.58-1.57-.58-.74 0-1.52.58-1.86 1.08-.39.55-.39 1.34-.39 2.05v4.88c0 .58.16.84.47.84h.68c.21 0 .26.05.26.18v.58c0 .13-.03.21-.16.21-.21 0-.89-.08-2.57-.08-1.63 0-2.49.08-2.65.08-.13 0-.18-.08-.18-.21v-.5c0-.21.05-.26.21-.26h.58c.37 0 .63-.26.63-1.21v-4.49c0-1.89-.32-2.47-.68-2.78-.32-.26-.89-.37-1.42-.37-.58 0-1.42.32-1.89 1.1-.37.53-.42 1.1-.42 1.86v4.67c0 .95.21 1.21.52 1.21h.58c.21 0 .26.05.26.16v.6c0 .13-.05.21-.21.21-.21 0-.94-.08-2.62-.08-1.58 0-2.42.08-2.62.08-.16 0-.21-.05-.21-.24v-.55c0-.13.11-.18.32-.18h.79c.26 0 .42-.21.47-.68v-5.43c0-.84-.16-1.31-.79-1.68l-.55-.29c-.13-.08-.18-.13-.18-.24v-.26c0-.1.08-.16.18-.21l2.89-1.42zM430.31 103.31c0 1.57.05 4.51.1 4.91.08.53.26 1 .68 1h1.31c.16 0 .21.08.21.18v.63c0 .18-.08.24-.29.24-.34 0-.87-.08-3.6-.08-2.57 0-3.2.08-3.46.08-.16 0-.21-.08-.21-.24v-.6c0-.13.05-.21.16-.21h.89c.58 0 1-.16 1-.87.05-2.62.05-5.09.05-7.56v-6.9c0-.89-.37-1.31-.84-1.31h-1.02c-.13 0-.18-.05-.18-.16v-.71c0-.13.05-.18.18-.18.18 0 1.02.08 3.6.08 1.47 0 3.88-.08 4.67-.08 2.1 0 3.73.71 4.78 1.65.95.84 1.42 1.94 1.42 2.94 0 3.31-2 4.67-4.88 5.14v.11c.74.26 1.21.73 1.58 1.21.31.42 1.94 2.89 2.15 3.2.16.26 1.84 2.62 2.23 2.99.5.45 1.23.5 1.86.5.16 0 .21.08.21.18v.55c0 .18-.05.26-.21.26-.21 0-.89-.08-2.57-.08-.73 0-1.73.05-2.31.08-.32-.24-.81-.95-1.16-1.5-.47-.74-1.5-2.62-1.73-3.04-.26-.47-1-1.68-1.42-2.26-.66-.92-1.26-1.63-2.36-1.63-.11 0-.55.03-.84.05v1.43zm.05-2.36c.37.05.68.11 1 .11 4.09 0 4.93-3.31 4.93-4.51s-.5-2.34-1.15-2.94c-.95-.84-2.15-1.13-3.46-1.13-.42 0-.73.03-.94.16-.21.13-.32.45-.32.76l-.06 7.55zM446.09 104.36c0 2.68 1.92 4.25 3.41 4.25 1.63 0 2.62-.68 3.18-1.52.1-.18.21-.18.31-.13l.39.24c.13.08.18.18 0 .53-.55 1-1.89 2.78-4.78 2.78-1.68 0-2.86-.37-3.78-1.42-1.21-1.39-1.47-2.7-1.47-4.33 0-1.44.16-2.42 1.29-3.88 1.1-1.42 2.28-1.94 4.57-1.94 2.99 0 3.96 3.12 3.96 4.2 0 .39-.26.42-.73.42h-6.35v.8zm3.25-1.76c.55 0 .87-.16.87-.37 0-.79-.26-2.34-1.63-2.34-1.29 0-2.07.94-2.41 2.7h3.17zM454.93 106.88c-.03-.11 0-.18.08-.21l.5-.16c.11-.03.18-.03.24.08l.87 1.47c.47.79.97 1.42 2.26 1.42 1.02 0 1.86-.63 1.86-1.6 0-1.05-.68-1.52-2.52-2.05-1.78-.53-3.2-1.42-3.2-3.28 0-1.15.42-2.1 1.34-2.75.92-.63 1.65-.87 2.73-.87 1.29 0 2.07.31 2.55.58.39.21.47.31.5.47l.34 1.78c.03.11.03.24-.03.29l-.5.24c-.08.03-.16 0-.21-.11l-1.26-1.42c-.32-.34-.79-.81-1.65-.81-.97 0-1.81.58-1.81 1.5 0 1.08.79 1.39 2.36 1.81 1.21.32 1.94.63 2.62 1.36.58.58.79 1.21.79 2.1 0 2.21-1.79 3.78-4.38 3.78-1.39 0-2.55-.45-2.83-.68-.1-.11-.18-.18-.21-.29l-.44-2.65zM467.19 104.36c0 2.68 1.92 4.25 3.41 4.25 1.63 0 2.62-.68 3.18-1.52.1-.18.21-.18.31-.13l.39.24c.13.08.18.18 0 .53-.55 1-1.89 2.78-4.78 2.78-1.68 0-2.86-.37-3.78-1.42-1.21-1.39-1.47-2.7-1.47-4.33 0-1.44.16-2.42 1.29-3.88 1.1-1.42 2.28-1.94 4.57-1.94 2.99 0 3.96 3.12 3.96 4.2 0 .39-.26.42-.73.42h-6.35v.8zm3.26-1.76c.55 0 .87-.16.87-.37 0-.79-.26-2.34-1.63-2.34-1.29 0-2.07.94-2.41 2.7h3.17zM481.94 108.9c-.58.63-1.26 1.08-2.28 1.42-.6.18-1.16.18-1.68.18-.97 0-1.81-.79-1.81-2.26 0-1.21.53-2.39 2.42-3.23 1.63-.79 2.62-1.21 3.2-1.63v-1.36c-.05-.53-.11-1.16-.42-1.47-.26-.29-.74-.39-1.31-.39-.47 0-1.1.16-1.52.47-.37.26-.1.66-.1 1.29 0 .95-.47 1.52-1.58 1.52-.47 0-.89-.31-.89-.89 0-.73.42-1.57 1.21-2.15 1.1-.84 2.52-1.47 4.25-1.47 1.47 0 1.94.31 2.41.73.58.53.63 1.26.63 1.97l.05 4.15v1.26c0 1.42.21 1.84.68 1.84.37 0 .73-.21.84-.42.1-.16.16-.16.26-.1l.32.21c.1.05.16.16.05.42-.26.47-.89 1.52-2.41 1.52-1 0-1.84-.47-2.21-1.6h-.11zm-.15-4.54c-1.16.73-2.89 1.18-2.89 3.1 0 1.08.58 1.6 1.21 1.6.73-.05 1.68-.79 1.68-1.26v-3.44zM489.03 103.44c0-1.21-.21-1.63-1-2.05l-.47-.26c-.16-.05-.21-.1-.21-.21v-.16c0-.11.05-.16.21-.24l3.17-1.5c.16-.05.26-.1.42-.1.16 0 .21.16.24.31l.24 1.94h.11c.89-1.47 1.99-2.36 3.15-2.36.84 0 1.36.58 1.36 1.31 0 .73-.73 1.42-1.42 1.42-.37 0-.68-.1-.89-.21-.21-.16-.47-.21-.73-.21-.32 0-.79.21-1.1.76-.21.37-.31.94-.31 1.29v5.01c0 .84.21 1.1.73 1.1h1.15c.16 0 .21.05.21.18v.6c0 .13-.05.18-.18.18-.18 0-1.34-.08-3.25-.08-1.84 0-2.86.08-3.07.08-.13 0-.18-.05-.18-.18v-.58c0-.16.05-.21.24-.21h.92c.42 0 .68-.21.68-.71v-5.12zM506.54 108.17c.08.08.1.18 0 .31-.66.81-2.49 2.02-4.44 2.02-1.78 0-3.2-.47-4.2-1.73s-1.26-2.31-1.26-3.62c0-1.65.63-3.49 1.94-4.7 1.1-1 2.36-1.52 3.83-1.52 3.04 0 3.73 1.57 3.73 2.36 0 .63-.42 1.16-1.16 1.16-.89 0-1.31-.63-1.57-1.31-.37-.89-.95-1.08-1.63-1.08-1.05 0-2.36 1.18-2.36 3.04 0 1.57.05 2.65 1.02 4.25.71 1.15 1.86 1.42 2.7 1.42 1.31 0 2.13-.45 2.83-1 .05-.05.16-.05.24.03l.33.37zM516.49 104.44c0-1.36 0-2.83-.68-3.52-.42-.42-.84-.63-1.47-.63-.68 0-1.37.37-1.94.95-.21.26-.47.79-.47 1.29v5.67c0 .84.11 1.1.47 1.1h.63c.16 0 .26.05.26.24v.46c0 .16-.05.26-.21.26-.21 0-1.37-.08-2.73-.08-1.63 0-2.62.08-2.83.08-.13 0-.21-.05-.21-.21v-.58c0-.13.11-.18.24-.18h.66c.42 0 .79-.1.87-.42.1-.52.13-2.05.13-3.25l-.05-9.37c0-1.47-.31-1.99-1.21-2.36l-.47-.16c-.16-.05-.21-.1-.21-.21v-.26c0-.11.05-.16.37-.32.79-.21 2.57-1.1 3.41-1.52.32-.1.47-.21.74-.21.21 0 .26.21.21.63-.05.47-.05 5.77-.05 7.06v1.63h.16c.74-1.02 2.15-1.6 3.39-1.6 1.16 0 1.84.37 2.62 1.05 1.21 1.05 1.15 2.36 1.15 3.86v5.04c0 .37.47.42.89.42h.47c.21 0 .26.05.26.18v.58c0 .13-.05.21-.21.21-.16 0-1-.08-2.6-.08-1.58 0-2.52.08-2.78.08-.16 0-.21-.05-.21-.18v-.63c0-.11.05-.16.18-.16h.45c.32 0 .68-.1.74-.52.05-.37.05-1.73.05-2.57v-1.77z" class="st4"></path>
  </g>
</svg>