<svg xmlns="http://www.w3.org/2000/svg" width="180" height="180" viewBox="0 0 180 180">
  <defs>
    <style>
      .a52145f6-7bdf-43f7-80e8-58b421a49edd {
        fill: #fff;
      }

      .f37d0fe9-6155-4384-973d-ebd2fd9fac13 {
        fill: #242f4b;
      }

      .a95d042b-5289-4bff-bcbb-691437fcf35d {
        fill: #d5926e;
      }

      .f518ab21-2251-4e04-b0e9-8ecd6c36c064 {
        fill: #d6772b;
      }

      .fdb7ee94-2247-4bfb-96ef-0f64a8fb1a3d {
        fill: #ea975d;
      }

      .b6431ea8-cc16-4e5c-8aa4-b64e20bf8109 {
        fill: #f1b78a;
      }

      .bbea6780-ecb7-4ca3-9e44-a42003a2debd {
        fill: #aab1c7;
      }

      .aef42b04-7575-4222-8519-54bff488d1e2 {
        fill: #6d7b9b;
      }
    </style>
  </defs>
  <title>STAR-Logomark</title>
  <g id="f6c0f954-a342-49e7-a676-cdd4b5c62535" data-name="Layer 7">
    <g>
      <rect class="a52145f6-7bdf-43f7-80e8-58b421a49edd" width="180" height="180" rx="12.13537" transform="translate(180 180) rotate(180)"/>
      <g>
        <path class="f37d0fe9-6155-4384-973d-ebd2fd9fac13" d="M167.91842.00768H83.40574L143.91322,9.5558l4.09459,13.51733a2.46268,2.46268,0,0,0,3.26732,1.57281l16.15651-6.43506-9.87018,14.31941a2.46167,2.46167,0,0,0,.807,3.53468l12.13566,6.92492L180,120.86836V12.08926A12.09519,12.09519,0,0,0,167.91842.00768Z"/>
        <path class="a95d042b-5289-4bff-bcbb-691437fcf35d" d="M144.7786,53.10591a2.45985,2.45985,0,0,0-3.62564,0l-9.02508,9.82654L69.41823,149.8403l10.57146-.716c.28948-.02028.6687-.01045,1.10816.00246a9.12309,9.12309,0,0,0,2.14072-.08666,8.02306,8.02306,0,0,1,.4161-.85187c.12845-.27166.24523-.50952.34418-.673l2.63734-4.35273q.72924-1.20221,1.46709-2.40071c.98954-1.61276,1.96433-3.20217,2.8881-4.783,2.63795-4.51807,5.20091-8.947,7.54753-13.45833,1.93728-3.72644,3.73259-7.63911,5.46766-11.44176l-.00062-.00061,1.394-3.04975c1.1309-2.464,1.93421-4.35027,2.60476-6.11608a11.16495,11.16495,0,0,0,.48924-2.4972,9.25193,9.25193,0,0,1,1.236-4.25255c1.12107-1.66193,3.306-3.15607,5.06139-4.35581.39336-.26859.70251-.48125.98339-.67977a15.40625,15.40625,0,0,0,2.815-2.77624,25.57952,25.57952,0,0,1,2.01288-2.17883c1.09648-1.02457,3.389-2.29744,5.2089-1.60477a3.03049,3.03049,0,0,1,1.87029,2.81189c.142,1.53286-.74123,3.1112-1.783,4.47935a18.97216,18.97216,0,0,0,2.38411-.79348,15.74293,15.74293,0,0,1,3.21077-.97847c.56545-.08421,1.19421-.14014,1.80207-.19422a18.8423,18.8423,0,0,0,2.41361-.31161,5.5929,5.5929,0,0,0,1.50029-.83957,12.87623,12.87623,0,0,1,1.3706-.85125c.992-.50768.992-.50768,1.46218-1.65272l.209-.50583c.145-.343.252-.55992.3319-.72033a1.38232,1.38232,0,0,0,.00614-.57529,3.66518,3.66518,0,0,0-.14443-.66317,4.63444,4.63444,0,0,1-.217-1.75843,5.50583,5.50583,0,0,1,1.775-3.53775,2.43884,2.43884,0,0,1,1.93421-.51321,2.73278,2.73278,0,0,1,2.07,2.10938,4.20375,4.20375,0,0,1,2.11183-1.4628,3.19629,3.19629,0,0,1,1.75966.02459L153.379,62.46964Z"/>
        <path class="f518ab21-2251-4e04-b0e9-8ecd6c36c064" d="M156.12448,45.89581l.00062-.00062a2.46109,2.46109,0,0,0-2.26058,2.834l2,12.83326.18623.20159-4.169,18.05507a4.062,4.062,0,0,1,.14935,1.15733l-.01475.15919a12.09554,12.09554,0,0,0-.25076,2.50334,16.01368,16.01368,0,0,1-.217,2.52978,29.4516,29.4516,0,0,1-1.35032,5.04726c-.09527.25015-.18623.52365-.28027.80638a8.43476,8.43476,0,0,1-1.58387,3.1616L128.753,180.00768h39.16542A12.09506,12.09506,0,0,0,180,167.92672V140.99838L168.29334,45.04579Z"/>
        <path class="fdb7ee94-2247-4bfb-96ef-0f64a8fb1a3d" d="M143.30351,97.32535c-.26367.0633-.496.11923-.705.17393a13.91353,13.91353,0,0,1-2.01349.31715,7.51818,7.51818,0,0,0-2.2913.47325c-.69206.32145-1.40257.73447-2.08971,1.13336-.64351.37431-1.36384.79409-2.10323,1.1518a51.408,51.408,0,0,0-8.491,5.2341c-4.13147,3.078-5.39821,7.6514-6.73931,12.49276-.18991.68653-.37922,1.37183-.57774,2.05836-1.61645,5.58567-3.42036,11.31946-5.5156,17.529-1.81743,5.38653-4.01531,10.5856-6.29616,15.88116-1.53163,3.55558-2.81988,6.41909-4.05526,9.01155l-.209.4456c-.89182,1.89242-2.11184,4.48427-4.05834,5.62623a14.78934,14.78934,0,0,1-4.18,1.3829c-.65457.14874-1.22678.27842-1.73015.42962l-31.06288,9.3416h65.06l19.221-83.26069C144.72882,96.9787,143.963,97.16493,143.30351,97.32535Z"/>
        <path class="b6431ea8-cc16-4e5c-8aa4-b64e20bf8109" d="M129.80769,45.89642l-12.94266-.9041L22.862,101.36586c.118.19852.23048.39335.338.587.19115.34234.43208.72033.68776,1.12106a12.44587,12.44587,0,0,1,1.641,3.21877,9.57909,9.57909,0,0,1,.23417,2.41545,5.60251,5.60251,0,0,0,.29071,2.196c.8451,1.98522,3.57832,3.28145,5.77435,4.32262l.68531.32759c.28825.13891.66071.27166,1.05407.413,1.26919.45789,2.70494.976,3.43388,2.129.98708,1.55868.279,3.08539-.18992,4.09583a6.66941,6.66941,0,0,0-.38106.92869c-.024.08666-.04794.16471-.07068.2354.04855.07191.10264.15242.161.24461a5.88682,5.88682,0,0,0,.62015.74185,10.32178,10.32178,0,0,1,.67485.78241c.456.6054,1.77072,2.35338,1.12414,4.34659,1.40625,1.19913.89058,2.80636.60233,3.70432a6.43073,6.43073,0,0,0-.23233.84879c-.07744.469.17271.93176.587,1.64841a6.17922,6.17922,0,0,1,.94344,2.38472c.48555,4.01162-1.11983,6.96057-5.20644,9.561a71.60662,71.60662,0,0,1-9.30227,4.7719l-.22557.10142a16.971,16.971,0,0,0-3.99994,2.31527c-1.32266,1.09279-1.52426,1.25935-1.47939,2.37182a121.25743,121.25743,0,0,0,15.899-4.12164,44.94626,44.94626,0,0,1,11.5272-1.772l18.19766-1.2317,63.80429-88.41367,2.01288-12.9107a2.45959,2.45959,0,0,0-2.26-2.8334Z"/>
        <path class="bbea6780-ecb7-4ca3-9e44-a42003a2debd" d="M116.27008,42.49942l.01536.00123L127.5631,36.065a2.46216,2.46216,0,0,0,.80761-3.53468l-7.14864-10.37048L0,40.347V86.85345a23.02876,23.02876,0,0,1,9.14063,2.24644A32.51279,32.51279,0,0,1,21.53136,99.31426Z"/>
        <path class="aef42b04-7575-4222-8519-54bff488d1e2" d="M122.59083,19.83962,134.657,24.64656a2.46267,2.46267,0,0,0,3.26671-1.57343l3.46645-11.443L67.63337-.00768,12.08158.00768A12.09519,12.09519,0,0,0,0,12.08926v25.787L122.36772,19.51694Z"/>
      </g>
    </g>
  </g>
</svg>
