<svg width="32" height="32" viewBox="0 0 32 32" fill="none" xmlns="http://www.w3.org/2000/svg">
<path d="M16.2 0C10.008 0 5 5.008 5 11.2C5 19.6 16.2 32 16.2 32C16.2 32 27.4 19.6 27.4 11.2C27.4 5.008 22.392 0 16.2 0Z" fill="#E57200"/>
<path d="M18.265 11.53L17.735 11L15.295 13.44L14.235 12.38L13.705 12.91L15.295 14.5L18.265 11.53V11.53ZM19.5 7.5H19V6.5H18V7.5H14V6.5H13V7.5H12.5C11.945 7.5 11.505 7.95 11.505 8.5L11.5 15.5C11.5 16.05 11.945 16.5 12.5 16.5H19.5C20.05 16.5 20.5 16.05 20.5 15.5V8.5C20.5 7.95 20.05 7.5 19.5 7.5ZM19.5 15.5H12.5V10H19.5V15.5Z" fill="white"/>
</svg>
