<svg width="128" height="128" viewBox="0 0 128 128" fill="none" xmlns="http://www.w3.org/2000/svg">
<circle cx="64" cy="64" r="64" fill="#E57200" fill-opacity="0.125"/>
<circle cx="64" cy="64" r="12" fill="#E57200"/>
<path d="M66.265 63.53L65.735 63L63.295 65.44L62.235 64.38L61.705 64.91L63.295 66.5L66.265 63.53ZM67.5 59.5H67V58.5H66V59.5H62V58.5H61V59.5H60.5C59.945 59.5 59.505 59.95 59.505 60.5L59.5 67.5C59.5 68.05 59.945 68.5 60.5 68.5H67.5C68.05 68.5 68.5 68.05 68.5 67.5V60.5C68.5 59.95 68.05 59.5 67.5 59.5ZM67.5 67.5H60.5V62H67.5V67.5Z" fill="white"/>
</svg>
