<svg width="48" height="48" viewBox="0 0 48 48" fill="none" xmlns="http://www.w3.org/2000/svg">
<circle cx="24" cy="24" r="24" fill="#E57200" fill-opacity="0.125"/>
<circle cx="24" cy="24" r="12" fill="#E57200"/>
<path d="M26.265 23.53L25.735 23L23.295 25.44L22.235 24.38L21.705 24.91L23.295 26.5L26.265 23.53V23.53ZM27.5 19.5H27V18.5H26V19.5H22V18.5H21V19.5H20.5C19.945 19.5 19.505 19.95 19.505 20.5L19.5 27.5C19.5 28.05 19.945 28.5 20.5 28.5H27.5C28.05 28.5 28.5 28.05 28.5 27.5V20.5C28.5 19.95 28.05 19.5 27.5 19.5ZM27.5 27.5H20.5V22H27.5V27.5Z" fill="white"/>
</svg>
