<svg width="32" height="32" viewBox="0 0 32 32" fill="none" xmlns="http://www.w3.org/2000/svg">
<path d="M16.5333 0C10.3413 0 5.33333 5.008 5.33333 11.2C5.33333 19.6 16.5333 32 16.5333 32C16.5333 32 27.7333 19.6 27.7333 11.2C27.7333 5.008 22.7253 0 16.5333 0Z" fill="#232D4B"/>
<path d="M11 16.4597V8.24058C12.1792 8.16073 13.3617 8.08088 14.5607 8.00104V16.1061C13.3782 16.2233 12.2012 16.3405 11 16.4597ZM16.5143 16.4722C15.983 16.3508 15.5111 16.2482 15.0447 16.1279C14.993 16.1144 14.9391 16.0034 14.9391 15.9371C14.9336 14.476 14.9358 13.0138 14.9358 11.5527C14.9358 10.4722 14.9347 9.39163 14.9347 8.31109C14.9347 8.21362 14.9347 8.11614 14.9347 8C15.7597 8.19288 16.5638 8.38057 17.3668 8.56827C17.5186 8.60352 17.6693 8.64915 17.8232 8.673C17.9563 8.69478 17.986 8.76011 17.9849 8.87729C17.9805 9.56896 17.9794 10.2617 17.9871 10.9533C17.9882 11.0861 17.9255 11.1369 17.8079 11.1784C17.0984 11.4314 16.533 11.8628 16.1304 12.4632C15.3197 13.6702 15.4143 15.1573 16.3504 16.2762C16.3911 16.3249 16.4318 16.3747 16.5143 16.4722ZM19.0618 17C17.4339 16.9938 16.1062 15.7504 16.1062 14.2343C16.1051 12.71 17.4394 11.45 19.0651 11.4407C20.6744 11.4314 22.012 12.711 21.9999 14.2489C21.9867 15.7763 20.6744 17.0062 19.0618 17ZM21.2068 13.9865C21.1551 12.9651 20.0012 12.1365 19.3071 12.2195C19.2257 12.4227 19.1454 12.6249 19.0486 12.8676C18.9727 12.6644 18.8979 12.5036 18.8539 12.3356C18.8165 12.1936 18.7362 12.1614 18.6108 12.2081C18.3699 12.2983 18.1202 12.3781 17.8969 12.4995C17.3536 12.794 17.0588 13.2627 16.9169 13.8268C16.8883 13.9398 16.9114 14.0072 17.0489 14.0394C17.2293 14.0819 17.402 14.1514 17.6319 14.226C17.3503 14.3194 17.1281 14.393 16.9125 14.4646C16.9389 15.3429 17.8837 16.2274 18.8044 16.2471C18.8836 16.0377 18.9628 15.8261 19.0607 15.5648C19.1575 15.8334 19.2356 16.0491 19.3115 16.2616C20.3719 16.1113 21.1364 15.3792 21.2046 14.4635C20.9813 14.3899 20.7569 14.3152 20.4819 14.224C20.7646 14.1317 20.9879 14.0581 21.2068 13.9865ZM21.1683 11.6263C20.307 11.029 19.3819 10.8434 18.3512 11.0145V10.2606C18.3512 9.79398 18.3468 9.32838 18.3567 8.86173C18.3578 8.79951 18.4216 8.69789 18.4777 8.68337C19.3478 8.45524 20.2201 8.23954 21.0935 8.02178C21.1133 8.01659 21.1364 8.02074 21.1683 8.02074V11.6263ZM18.2929 13.4784C18.3831 13.5354 18.4733 13.5935 18.5635 13.6516C18.7219 13.7542 18.8209 13.7283 18.8869 13.5613C18.9419 13.4224 18.9859 13.2814 19.0519 13.0937C19.1256 13.2772 19.1839 13.4224 19.2521 13.5914C19.6591 13.3529 20.0518 13.1217 20.4456 12.8904L20.4753 12.9184C20.2311 13.2855 19.988 13.6536 19.7295 14.0435L20.2641 14.2281C20.0749 14.2903 19.9374 14.3339 19.801 14.3795C19.592 14.449 19.5601 14.5351 19.6767 14.7031C19.7295 14.7788 19.7812 14.8534 19.8076 14.9602C19.7196 14.9053 19.6305 14.8503 19.5436 14.7943C19.3951 14.6979 19.2939 14.7321 19.2345 14.8887C19.1806 15.0328 19.1267 15.1759 19.0574 15.3574C18.987 15.1697 18.9331 15.0256 18.8693 14.8576C18.4645 15.095 18.0696 15.3273 17.6737 15.5596L17.6429 15.5358C17.887 15.1645 18.1312 14.7943 18.3842 14.4096C18.2159 14.3494 18.0663 14.2955 17.8639 14.224C18.0641 14.1586 18.2159 14.1141 18.3633 14.0601C18.5162 14.0031 18.5723 13.9098 18.4601 13.7687C18.393 13.6847 18.3303 13.5976 18.2654 13.5116L18.2929 13.4784Z" fill="white"/>
</svg>
