<svg width="48" height="48" viewBox="0 0 48 48" fill="none" xmlns="http://www.w3.org/2000/svg">
<circle cx="24" cy="24" r="24" fill="#232D4B" fill-opacity="0.125"/>
<circle cx="24" cy="24" r="12" fill="#232D4B"/>
<path d="M19 28.4597V20.2406C20.1792 20.1607 21.3617 20.0809 22.5607 20.001V28.1061C21.3782 28.2233 20.2012 28.3405 19 28.4597ZM24.5143 28.4722C23.983 28.3508 23.5111 28.2482 23.0447 28.1279C22.993 28.1144 22.9391 28.0034 22.9391 27.9371C22.9336 26.476 22.9358 25.0138 22.9358 23.5527C22.9358 22.4722 22.9347 21.3916 22.9347 20.3111C22.9347 20.2136 22.9347 20.1161 22.9347 20C23.7597 20.1929 24.5638 20.3806 25.3668 20.5683C25.5186 20.6035 25.6693 20.6492 25.8232 20.673C25.9563 20.6948 25.986 20.7601 25.9849 20.8773C25.9805 21.569 25.9794 22.2617 25.9871 22.9533C25.9882 23.0861 25.9255 23.1369 25.8078 23.1784C25.0984 23.4314 24.533 23.8628 24.1304 24.4632C23.3197 25.6702 23.4143 27.1573 24.3504 28.2762C24.3911 28.3249 24.4318 28.3747 24.5143 28.4722ZM27.0618 29C25.4339 28.9938 24.1062 27.7504 24.1062 26.2343C24.1051 24.71 25.4394 23.45 27.0651 23.4407C28.6744 23.4314 30.012 24.711 29.9999 26.2489C29.9867 27.7763 28.6744 29.0062 27.0618 29ZM29.2068 25.9865C29.1551 24.9651 28.0012 24.1365 27.3071 24.2195C27.2257 24.4227 27.1454 24.6249 27.0486 24.8676C26.9727 24.6644 26.8979 24.5036 26.8539 24.3356C26.8165 24.1936 26.7362 24.1614 26.6108 24.2081C26.3699 24.2983 26.1202 24.3781 25.8969 24.4995C25.3536 24.794 25.0588 25.2627 24.9169 25.8268C24.8883 25.9398 24.9114 26.0072 25.0489 26.0394C25.2293 26.0819 25.402 26.1514 25.6319 26.226C25.3503 26.3194 25.1281 26.393 24.9125 26.4646C24.9389 27.3429 25.8837 28.2274 26.8044 28.2471C26.8836 28.0377 26.9628 27.8261 27.0607 27.5648C27.1575 27.8334 27.2356 28.0491 27.3115 28.2616C28.3719 28.1113 29.1364 27.3792 29.2046 26.4635C28.9813 26.3899 28.7569 26.3152 28.4819 26.224C28.7646 26.1317 28.9879 26.0581 29.2068 25.9865ZM29.1683 23.6263C28.307 23.029 27.3819 22.8434 26.3512 23.0145V22.2606C26.3512 21.794 26.3468 21.3284 26.3567 20.8617C26.3578 20.7995 26.4216 20.6979 26.4777 20.6834C27.3478 20.4552 28.2201 20.2395 29.0935 20.0218C29.1133 20.0166 29.1364 20.0207 29.1683 20.0207V23.6263ZM26.2929 25.4784C26.3831 25.5354 26.4733 25.5935 26.5635 25.6516C26.7219 25.7542 26.8209 25.7283 26.8869 25.5613C26.9419 25.4224 26.9859 25.2814 27.0519 25.0937C27.1256 25.2772 27.1839 25.4224 27.2521 25.5914C27.6591 25.3529 28.0518 25.1217 28.4456 24.8904L28.4753 24.9184C28.2311 25.2855 27.988 25.6536 27.7295 26.0435L28.2641 26.2281C28.0749 26.2903 27.9374 26.3339 27.801 26.3795C27.592 26.449 27.5601 26.5351 27.6767 26.7031C27.7295 26.7788 27.7812 26.8534 27.8076 26.9602C27.7196 26.9053 27.6305 26.8503 27.5436 26.7943C27.3951 26.6979 27.2939 26.7321 27.2345 26.8887C27.1806 27.0328 27.1267 27.1759 27.0574 27.3574C26.987 27.1697 26.9331 27.0256 26.8693 26.8576C26.4645 27.095 26.0696 27.3273 25.6737 27.5596L25.6429 27.5358C25.887 27.1645 26.1312 26.7943 26.3842 26.4096C26.2159 26.3494 26.0663 26.2955 25.8639 26.224C26.0641 26.1586 26.2159 26.1141 26.3633 26.0601C26.5162 26.0031 26.5723 25.9098 26.4601 25.7687C26.393 25.6847 26.3303 25.5976 26.2654 25.5116L26.2929 25.4784Z" fill="white"/>
</svg>
