<svg width="128" height="128" viewBox="0 0 128 128" fill="none" xmlns="http://www.w3.org/2000/svg">
<circle cx="64" cy="64" r="64" fill="#232D4B" fill-opacity="0.125"/>
<circle cx="64" cy="64" r="42" fill="#232D4B" fill-opacity="0.25"/>
<circle cx="64" cy="64" r="24" fill="#232D4B" fill-opacity="0.5"/>
<circle cx="64" cy="64" r="12" fill="#232D4B"/>
<path d="M59 68.4597V60.2406C60.1792 60.1607 61.3617 60.0809 62.5607 60.001V68.1061C61.3782 68.2233 60.2012 68.3405 59 68.4597ZM64.5143 68.4722C63.983 68.3508 63.5111 68.2482 63.0447 68.1279C62.993 68.1144 62.9391 68.0034 62.9391 67.9371C62.9336 66.476 62.9358 65.0138 62.9358 63.5527C62.9358 62.4722 62.9347 61.3916 62.9347 60.3111C62.9347 60.2136 62.9347 60.1161 62.9347 60C63.7597 60.1929 64.5638 60.3806 65.3668 60.5683C65.5186 60.6035 65.6693 60.6492 65.8232 60.673C65.9563 60.6948 65.986 60.7601 65.9849 60.8773C65.9805 61.569 65.9794 62.2617 65.9871 62.9533C65.9882 63.0861 65.9255 63.1369 65.8079 63.1784C65.0984 63.4314 64.533 63.8628 64.1304 64.4632C63.3197 65.6702 63.4143 67.1573 64.3504 68.2762C64.3911 68.3249 64.4318 68.3747 64.5143 68.4722ZM67.0618 69C65.4339 68.9938 64.1062 67.7504 64.1062 66.2343C64.1051 64.71 65.4394 63.45 67.0651 63.4407C68.6744 63.4314 70.012 64.711 69.9999 66.2489C69.9867 67.7763 68.6744 69.0062 67.0618 69ZM69.2068 65.9865C69.1551 64.9651 68.0012 64.1365 67.3071 64.2195C67.2257 64.4227 67.1454 64.6249 67.0486 64.8676C66.9727 64.6644 66.8979 64.5036 66.8539 64.3356C66.8165 64.1936 66.7362 64.1614 66.6108 64.2081C66.3699 64.2983 66.1202 64.3781 65.8969 64.4995C65.3536 64.794 65.0588 65.2627 64.9169 65.8268C64.8883 65.9398 64.9114 66.0072 65.0489 66.0394C65.2293 66.0819 65.402 66.1514 65.6319 66.226C65.3503 66.3194 65.1281 66.393 64.9125 66.4646C64.9389 67.3429 65.8837 68.2274 66.8044 68.2471C66.8836 68.0377 66.9628 67.8261 67.0607 67.5648C67.1575 67.8334 67.2356 68.0491 67.3115 68.2616C68.3719 68.1113 69.1364 67.3792 69.2046 66.4635C68.9813 66.3899 68.7569 66.3152 68.4819 66.224C68.7646 66.1317 68.9879 66.0581 69.2068 65.9865ZM69.1683 63.6263C68.307 63.029 67.3819 62.8434 66.3512 63.0145V62.2606C66.3512 61.794 66.3468 61.3284 66.3567 60.8617C66.3578 60.7995 66.4216 60.6979 66.4777 60.6834C67.3478 60.4552 68.2201 60.2395 69.0935 60.0218C69.1133 60.0166 69.1364 60.0207 69.1683 60.0207V63.6263ZM66.2929 65.4784C66.3831 65.5354 66.4733 65.5935 66.5635 65.6516C66.7219 65.7542 66.8209 65.7283 66.8869 65.5613C66.9419 65.4224 66.9859 65.2814 67.0519 65.0937C67.1256 65.2772 67.1839 65.4224 67.2521 65.5914C67.6591 65.3529 68.0518 65.1217 68.4456 64.8904L68.4753 64.9184C68.2311 65.2855 67.988 65.6536 67.7295 66.0435L68.2641 66.2281C68.0749 66.2903 67.9374 66.3339 67.801 66.3795C67.592 66.449 67.5601 66.5351 67.6767 66.7031C67.7295 66.7788 67.7812 66.8534 67.8076 66.9602C67.7196 66.9053 67.6305 66.8503 67.5436 66.7943C67.3951 66.6979 67.2939 66.7321 67.2345 66.8887C67.1806 67.0328 67.1267 67.1759 67.0574 67.3574C66.987 67.1697 66.9331 67.0256 66.8693 66.8576C66.4645 67.095 66.0696 67.3273 65.6737 67.5596L65.6429 67.5358C65.887 67.1645 66.1312 66.7943 66.3842 66.4096C66.2159 66.3494 66.0663 66.2955 65.8639 66.224C66.0641 66.1586 66.2159 66.1141 66.3633 66.0601C66.5162 66.0031 66.5723 65.9098 66.4601 65.7687C66.393 65.6847 66.3303 65.5976 66.2654 65.5116L66.2929 65.4784Z" fill="white"/>
</svg>
