<svg id="b5eb7b6c-09c7-4f43-b0f5-883b6a8ffe25" data-name="Layer 1" xmlns="http://www.w3.org/2000/svg" width="128" height="128" viewBox="0 0 128 128">
  <defs>
    <style>
      .bc1b1884-ccbc-45da-b67a-88a3d01ad025 {
        fill: #1d1d1b;
      }
    </style>
  </defs>
  <title>082</title>
  <path class="bc1b1884-ccbc-45da-b67a-88a3d01ad025" d="M91.34715,74.37583c-1.0137-10.0694-8.6133-8.9531-9.6133-10.2695-.9897-1.3252,5.4746-4.6465-1.1562-11.2784-6.62939-6.6318-11.10789.666-12.21049,1.1592-1.0908.499.6094-3.1523-4.6792-6.2764-4.1425-2.458-13.1172-2.5068-17.4238,1.3047-4.3076,3.8125-.8296,15.9141-.9951,17.2393-.167,1.3252-2.6514-.335-6.7949,3.5947-4.1446,3.9307-.4976,10.499,3.144,11.1602C41.61816,81.00963,92.51175,85.81623,91.34715,74.37583ZM58.22466,56.21373c1.5913-.0655,1.539,2.0185,1.6518,4.8008.124,2.7714.3506,4.8427-1.2505,4.9101-1.602.0664-1.5386-2.0185-1.6611-4.7881C56.85006,58.36113,56.62256,56.28113,58.22466,56.21373Zm3.9965,18.1074c-4.3628-.001-7.646.1416-7.6406-1.4561-.0039-1.5966,3.2695-1.456,7.6333-1.455,4.3638.0019,7.647-.1397,7.6416,1.458C69.85936,74.46563,66.586,74.324,62.22116,74.32113Zm6.3096-8.3945c-1.602.0664-1.5298-1.5655-1.6177-3.7432-.0864-2.167-.2949-3.7969,1.2969-3.8623,1.6001-.0664,1.5288,1.5752,1.6167,3.7441C69.91406,64.23223,70.13136,65.85923,68.53076,65.92663Z"/>
</svg>
