<svg id="aedaa985-3bd6-4cdb-a9be-fc2d68cb8eb8" data-name="Layer 1" xmlns="http://www.w3.org/2000/svg" width="128" height="128" viewBox="0 0 128 128">
  <defs>
    <style>
      .afb30184-9285-47fd-bf17-6d4df41b2b29 {
        fill: #1d1d1b;
      }
    </style>
  </defs>
  <title>002</title>
  <path class="afb30184-9285-47fd-bf17-6d4df41b2b29" d="M64.00193,39.528c-13.02614-.00261-15.53717,9.66909-15.53688,24.46265a1.82593,1.82593,0,0,1,1.9718,1.73046,3.19848,3.19848,0,0,1,.01649.33029,1.84907,1.84907,0,0,1-1.91292,2.04853A36.36072,36.36072,0,0,0,50.611,80.0595a1.80422,1.80422,0,0,1,1.83039-1.13093,2.05427,2.05427,0,0,1-.00113,4.10636c-.08432-.00142-.16835-.0029-.24923-.01216,2.33947,3.37071,6.0454,5.28251,11.81237,5.43982,13.4051.361,15.53308-9.67252,15.5316-24.47309C79.53465,49.19587,78.81757,39.52536,64.00193,39.528Zm1.36906,6.1413a21.17344,21.17344,0,0,1,3.7378-2.16934c.31872.02985,1.22332,1.94248-.72961,3.14871A1.92812,1.92812,0,0,1,65.371,45.66927Zm-6.582-1.93844a21.31792,21.31792,0,0,1,3.9189,1.8124,1.92778,1.92778,0,0,1-2.90274,1.25608C57.74759,45.78113,58.46823,43.79112,58.789,43.73083ZM69.88444,77.13064a5.25023,5.25023,0,0,0-1.015-1.277c-.266-.12949-.74788.468-1.05325,1.47137a4.41526,4.41526,0,0,0-.04432,1.85441,5.30031,5.30031,0,0,1-1.312.49349,6.28464,6.28464,0,0,0-1.66055-2.78513c-.26567-.12978-.74758.46767-1.053,1.47487a3.73259,3.73259,0,0,0-.09821,1.43167,6.82068,6.82068,0,0,1-1.91328-.50072,6.5714,6.5714,0,0,0-.942-2.94328c-.22046-.18894-.82633.25992-1.365,1.141-1.98479-2.573-2.4765-7.13081-2.4797-13.09741.00089-5.93123.488-10.56033,2.44522-13.1507.01478.02694.02955.051.04462.07821.55752.89042,1.17063,1.34622,1.3969,1.15152a6.38815,6.38815,0,0,0,.89564-3.0546,6.54953,6.54953,0,0,1,1.96105-.44565,4.17735,4.17735,0,0,0,.07186,1.78374c.317.9999.80147,1.59248,1.0669,1.45861a6.07037,6.07037,0,0,0,1.63421-2.8761.5212.5212,0,0,0-.038-.20484,6.41468,6.41468,0,0,1,1.35429.44245,4.33827,4.33827,0,0,0,.06634,1.839c.3173,1,.80176,1.59219,1.0669,1.45861a5.52946,5.52946,0,0,0,1.07265-1.405c1.77793,2.62455,1.908,7.15686,1.9089,12.92206C71.89391,69.95117,71.53229,74.44752,69.88444,77.13064Z"/>
</svg>
