<svg id="ee8a0e04-6072-4800-ac50-6fb6c5813bbd" data-name="Layer 1" xmlns="http://www.w3.org/2000/svg" width="128" height="128" viewBox="0 0 128 128">
  <defs>
    <style>
      .a0797932-0f6a-49a9-b69e-e11ad3ee105c {
        fill: #1d1d1b;
      }
    </style>
  </defs>
  <title>003</title>
  <g>
    <path class="a0797932-0f6a-49a9-b69e-e11ad3ee105c" d="M60.92312,47.01815c.771-.00119,1.18831-.42215,1.1857-1.06369.00083-.64558-.41266-1.06512-1.18772-1.06684-.77482.00231-1.18825.42275-1.18974,1.06452C59.73024,46.59742,60.14776,47.017,60.92312,47.01815Z"/>
    <path class="a0797932-0f6a-49a9-b69e-e11ad3ee105c" d="M65.04343,46.844c.64379.00523,1.06571-.30044,1.07378-.88228.00469-.57716-.41-.89588-1.04945-.9014-.64415-.00492-1.066.30074-1.07444.882C63.985,46.52034,64.40361,46.83823,65.04343,46.844Z"/>
    <path class="a0797932-0f6a-49a9-b69e-e11ad3ee105c" d="M83.38068,80.14909c-.45894-2.28962-5.0344-4.66126-6.04884-5.16691a66.87535,66.87535,0,0,0,.71221-10.992c.0006-14.01827-.66094-23.18313-14.31438-23.18194-12.00215.00083-14.31783,9.164-14.31842,23.18194a59.82681,59.82681,0,0,0,.83392,11.16941c-1.51255.7823-5.20976,2.88215-5.62182,4.92112a3.02782,3.02782,0,0,0,1.0666,3.24,2.23429,2.23429,0,0,1-.01448-1.26421,1.67966,1.67966,0,0,0,1.14944.60968,2.5129,2.5129,0,0,1-.19648-1.17206,2.57367,2.57367,0,0,0,1.28943.57253s-1.67942-2.01494,1.01326-4.20345a18.62608,18.62608,0,0,1,1.64524-1.21145c1.63622,6.5015,5.34648,10.31317,13.1542,10.53108,8.18407.22715,11.806-3.86936,13.31846-10.73794a18.79466,18.79466,0,0,1,2.03149,1.47166c2.68626,2.19688,1.0002,4.2063,1.0002,4.2063a2.57325,2.57325,0,0,0,1.29257-.56731,2.55478,2.55478,0,0,1-.20336,1.17235,1.67713,1.67713,0,0,0,1.15229-.60587,2.24314,2.24314,0,0,1-.01733,1.26041A3.03592,3.03592,0,0,0,83.38068,80.14909ZM63.029,43.45215c4.1539-.01561,5.96808.78408,5.96838,2.50029.00024,1.71651-1.81359,2.51708-5.97069,2.50112-4.1539-.01709-5.96683-.84923-5.96862-2.50023C57.0613,44.30174,58.87169,43.46871,63.029,43.45215Zm.69976,33.91644c-4.665-.12978-6.79263-2.482-7.68305-6.48031A8.171,8.171,0,0,0,58.774,69.68056c.20253-.26395-.3697-.89326-1.43369-1.41108a4.62183,4.62183,0,0,0-1.72778-.38043c-.1-1.20392-.1388-2.50463-.13969-3.8963-.00053-.0432-.00172-.09014.00148-.13358a7.856,7.856,0,0,0,3.29968-1.2848c.202-.26769-.36649-.89759-1.43048-1.41541a4.681,4.681,0,0,0-1.77995-.38192,26.27716,26.27716,0,0,1,.35148-3.06326.64109.64109,0,0,0,.21149.07074,7.23838,7.23838,0,0,0,3.568-1.275c.20283-.26769-.36625-.89736-1.42965-1.41512a4.27128,4.27128,0,0,0-1.478-.36073c1.15959-2.61506,3.26147-4.10755,6.941-4.10726,4.05188-.00089,6.119,1.39832,7.17164,3.85719a4.52794,4.52794,0,0,0-1.62667.42738c-1.04684.55081-1.5945,1.20249-1.38615,1.46063a7.2026,7.2026,0,0,0,3.61116,1.15787.5317.5317,0,0,0,.18081-.0632,29.16,29.16,0,0,1,.251,3.05519,4.40738,4.40738,0,0,0-1.5357.421c-1.0466.55116-1.59427,1.20249-1.38242,1.46068a8.20869,8.20869,0,0,0,2.97111,1.14826c0,.14835.00029.29588.00089.44393.00172,1.294-.02694,2.52314-.109,3.67145a3.93634,3.93634,0,0,0-1.2451.38186c-1.046.55087-1.59391,1.2025-1.38183,1.4601a7.71061,7.71061,0,0,0,2.29545,1.00311C70.75877,74.87091,68.70615,77.50419,63.72878,77.36859Z"/>
  </g>
</svg>
