<svg id="b9b4fcf1-90c4-4217-98df-cabdf5318720" data-name="Layer 1" xmlns="http://www.w3.org/2000/svg" width="128" height="128" viewBox="0 0 128 128">
  <defs>
    <style>
      .fa84b630-e686-471e-ab66-cf4d17c64a24 {
        fill: #1d1d1b;
      }
    </style>
  </defs>
  <title>004</title>
  <g>
    <path class="fa84b630-e686-471e-ab66-cf4d17c64a24" d="M69.621,59.9347c-.8799,0-1.021,4.5435,0,4.5435C70.57072,64.4782,70.50032,59.9347,69.621,59.9347Z"/>
    <path class="fa84b630-e686-471e-ab66-cf4d17c64a24" d="M83.90072,54.6564c-1.7915-5.688-6.9629-9.5488-15.1577-10.6636.7344-2.7353,1.6988-6.0922,2.1157-6.5244.7144-.7427,2.9722-.3467,3.8125.2466.8414.5933-.7241,3.1694,1.543,3.7109,2.9658.708,4.1607-6.3667,3.6504-6.9467-.749-.8531-10.5127-2.3482-11.043-2.0113-.3823.2437-2.8051,7.312-4.1171,11.21-.3609-.0093-.7134-.0259-1.0831-.0259-11.2407.0029-18.2055,4.25-20.312,11.0962-4.9638.3726-5.4174,4.2769-.6792,5.0508.1226,7.6728,4.9942,13.1714,14.0855,14.9487-.042.5117-.0796,1.023-.107,1.5332-.1049,1.9673-.1049,3.9322-.0322,5.8931a92.11771,92.11771,0,0,0,.9321,9.81c-4.0771.4004-4.0581,2.8677-3.9926,3.4664a.15711.15711,0,0,0,.1523.1303h8.458a.15076.15076,0,0,0,.147-.1323,3.622,3.622,0,0,0-.835-2.8491,90.68959,90.68959,0,0,1-1.9936-10.6514c-.2271-1.8735-.3838-3.7549-.4395-5.6352-.0122-.4038-.0156-.8072-.018-1.2105a38.89474,38.89474,0,0,0,4.6323.2656,36.70635,36.70635,0,0,0,6.415-.5332q.003.7368-.0195,1.4781c-.0552,1.8803-.2119,3.7617-.4395,5.6352a90.669,90.669,0,0,1-1.9936,10.6514,3.62281,3.62281,0,0,0-.835,2.8491.15056.15056,0,0,0,.1475.1323h8.458a.15777.15777,0,0,0,.1523-.1303c.0655-.5987.0845-3.066-3.9936-3.4664a91.70291,91.70291,0,0,0,.9321-9.81c.0738-1.9609.0738-3.9258-.0317-5.8931-.0342-.645-.0874-1.2915-.1489-1.937,7.9702-2.1113,12.2294-7.3696,12.3427-14.5342C90.62142,58.6071,89.63122,53.9733,83.90072,54.6564Zm-30.1318,7.8472c0-5.3477,9.2197-5.5947,9.2197-.563S53.76892,66.6564,53.76892,62.5036Zm11.2412-.563c0-5.0317,9.2202-4.7847,9.2202.563C74.23032,66.6564,65.01012,66.9723,65.01012,61.9406Z"/>
    <path class="fa84b630-e686-471e-ab66-cf4d17c64a24" d="M58.37972,59.9347c-.8803,0-.9511,4.5435,0,4.5435C59.39982,64.4782,59.25912,59.9347,58.37972,59.9347Z"/>
  </g>
</svg>
