<svg id="bea65d5c-eca3-4abf-b8fa-29f2c57067ed" data-name="Layer 1" xmlns="http://www.w3.org/2000/svg" width="128" height="128" viewBox="0 0 128 128">
  <defs>
    <style>
      .ba9f70d2-2fbd-4ea3-a44c-2c0bcc43ed61 {
        fill: #1d1d1b;
      }
    </style>
  </defs>
  <title>005</title>
  <g>
    <path class="ba9f70d2-2fbd-4ea3-a44c-2c0bcc43ed61" d="M76.23933,73.9256c-6.1592,0-10.7803-.2735-10.7803-4.3667,0-4.0943,4.6211-3.731,10.7803-3.731,2.3359,0,4.4502-.0518,6.1768.1074a16.68725,16.68725,0,0,0,.124-1.9428c-.0049-7.6934-4.877-12.7203-13.9619-12.7164-7.7451-.0024-12.4268,3.6529-13.6368,9.5035-3.8085-2.1934-8.2685-4.4283-9.0205-3.9888-1.3613.7847.6202,16.311,1.708,17.2446.4463.3858,4.4131-2.3208,7.8497-4.9341,1.7636,4.7413,6.2265,7.6197,13.1025,7.6226,4.0596-.0015,7.2725-1.0132,9.5918-2.814Q77.23393,73.9261,76.23933,73.9256Zm-1.5547-19.3789c2.9414.0771,4.49021,5.7651-.0957,5.6323C70.91513,60.0862,71.74423,54.468,74.68463,54.5467Z"/>
    <path class="ba9f70d2-2fbd-4ea3-a44c-2c0bcc43ed61" d="M78.29984,67.513a9.06627,9.06627,0,0,1,.15529,1.8496c.8252,0,1.59571.0058,2.2949.0224a12.39682,12.39682,0,0,1,.0762-1.8393C80.02643,67.513,79.17,67.51,78.29984,67.513Z"/>
    <path class="ba9f70d2-2fbd-4ea3-a44c-2c0bcc43ed61" d="M79.86433,72.2722a10.67849,10.67849,0,0,0,.9883-1.4438c-.01079-.1782-.0205-.3521-.0274-.5093-.7402.02-1.5576.0249-2.43839.0249a13.7228,13.7228,0,0,1-.19051,2.02C78.75884,72.3479,79.31553,72.3152,79.86433,72.2722Z"/>
    <path class="ba9f70d2-2fbd-4ea3-a44c-2c0bcc43ed61" d="M76.22563,70.3426c-.4765,0-.9384,0-1.3886.0014a18.92883,18.92883,0,0,1-.32519,2.0498c.68649,0,1.37589-.0078,2.04489-.0078.2637,0,.5342-.0024.8047-.0044a11.00011,11.00011,0,0,1-.0987-2.039Z"/>
    <path class="ba9f70d2-2fbd-4ea3-a44c-2c0bcc43ed61" d="M70.55384,72.1502a12.83175,12.83175,0,0,1-.25491-1.8907c-.9864-.0683-2.0127.0313-2.7002-.0009C67.98733,71.344,69.09573,71.888,70.55384,72.1502Z"/>
    <path class="ba9f70d2-2fbd-4ea3-a44c-2c0bcc43ed61" d="M67.43953,69.4251c0,.0249.0078.0459.0088.0693.6562-.0605,1.7002.0386,2.6914-.0371a9.91887,9.91887,0,0,1,.0654-1.8657C68.55963,67.784,67.41513,68.2674,67.43953,69.4251Z"/>
    <path class="ba9f70d2-2fbd-4ea3-a44c-2c0bcc43ed61" d="M71.43363,70.3142a8.35409,8.35409,0,0,1-.0254,1.9556c.7207.0767,1.4971.1094,2.293.1186a8.73274,8.73274,0,0,1,.0029-2.0444C72.88484,70.3426,72.12313,70.3352,71.43363,70.3142Z"/>
    <path class="ba9f70d2-2fbd-4ea3-a44c-2c0bcc43ed61" d="M74.25984,67.4895c-1.17281-.021-2.32811-.0307-3.35061.0376a13.00938,13.00938,0,0,1,.334,1.8701c.80861-.0283,1.72561-.0346,2.7217-.0346C74.04013,68.8084,74.12413,68.0535,74.25984,67.4895Z"/>
    <path class="ba9f70d2-2fbd-4ea3-a44c-2c0bcc43ed61" d="M76.55673,67.5193c-.4766,0-.9658-.0073-1.457-.0151a8.9499,8.9499,0,0,1-.00489,1.8584c.36909.0014.74509.0014,1.13079.0014.3809,0,.752,0,1.11921-.0014a11.08387,11.08387,0,0,1,.23339-1.8457C77.23643,67.5178,76.89653,67.5193,76.55673,67.5193Z"/>
  </g>
</svg>
