<svg id="be531202-eac1-4c9f-85c1-96415fbb871a" data-name="Layer 1" xmlns="http://www.w3.org/2000/svg" width="128" height="128" viewBox="0 0 128 128">
  <defs>
    <style>
      .bcc599bb-bd58-4c60-ba27-f3268af0c095 {
        fill: #1d1d1b;
      }
    </style>
  </defs>
  <title>006</title>
  <g>
    <path class="bcc599bb-bd58-4c60-ba27-f3268af0c095" d="M62.556,44.35174c.418-.0874.57231-.4853.457-1.0229-.1093-.5371-.4062-.8399-.8242-.752-.418.0864-.5664.4829-.457,1.022C61.847,44.13594,62.14386,44.43774,62.556,44.35174Z"/>
    <path class="bcc599bb-bd58-4c60-ba27-f3268af0c095" d="M64.74936,43.74434c.3437-.0708.5175-.3735.41991-.8579-.09381-.481-.37311-.7012-.72071-.6314-.3477.066-.5176.3682-.4238.8531C64.12436,43.592,64.40166,43.80884,64.74936,43.74434Z"/>
    <path class="bcc599bb-bd58-4c60-ba27-f3268af0c095" d="M79.28056,34.41284a2.78831,2.78831,0,0,0-3.4922.2968c-.2832.4619,1.6934,8.1319-4.32609,12.1197-2.20711-7.9478-7.32821-9.5411-11.51031-7.7159-1.3574.5943-1.9473,4.2012-2.0586,8.3794-7.3213-4.0727-4.3994-11.0854-4.9316-11.6274-.708-.7148-3.2256-.9761-4.2666-.6504-.8301.2607-3.0664,13.3071,9.2656,16.9634.2119,4.4375.8486,8.5151,1.5703,9.458a3.60437,3.60437,0,0,0,.709.6777c.1836,3.9771,2.0425,21.4278,1.88821,22.1558-.17.7793-5.24661,3.2378-5.19,4.0752.05469.8359.37409,1.8974.94139,2.0093.5645.1123,6.649-2.6265,6.8169-3.1807.1504-.5166-1.3008-19.7681-1.3144-23.6934a13.67,13.67,0,0,0,4.6074.4707c.0762-.0141.1582-.0356.2598-.0605.6425,7.5332,2.2832,23.2788,2.1523,23.894-.168.7823-5.248,3.2383-5.19139,4.0757.05659.8379.375,1.898.94139,2.0103.5664.1118,6.6504-2.6231,6.8184-3.1817.166-.5551-2.0391-27.5561-1.80279-29.2094,1.01569-1.7613,1.72269-4.7671,1.18749-9.9288C81.73956,47.56714,80.27276,35.21654,79.28056,34.41284ZM63.181,41.33514c2.2344-.4829,3.2402-.5239,3.5195.814.3203,1.5337-.5175,2.3725-2.7597,2.8281-2.2344.4512-3.2378-.0703-3.5093-1.3784C60.13166,42.14964,60.94906,41.81314,63.181,41.33514Z"/>
  </g>
</svg>
