<svg id="ec88ff81-fbf3-44f3-be62-11f099888317" data-name="Layer 1" xmlns="http://www.w3.org/2000/svg" width="128" height="128" viewBox="0 0 128 128">
  <defs>
    <style>
      .f503d5d5-c8ca-4fa4-987e-b7e3ae4a6298 {
        fill: #1d1d1b;
      }
    </style>
  </defs>
  <title>007</title>
  <path class="f503d5d5-c8ca-4fa4-987e-b7e3ae4a6298" d="M92.03663,56.16713c-.9248-.0235-2.3399,2.166-5.96,4.0766a25.61569,25.61569,0,0,1-6.125,2.2715c.8916-6.417.9805-15.4653-.874-18.6259a4.455,4.455,0,0,0-1.3164-1.3121c.5205-1.0166,1.4404-2.3115,2.72171-2.144,2.96089.3906,3.45019,6.1274,7.08489,4.3437,3.542-1.7265-.5781-8.5595-4.0351-9.2753-3.8077-.795-6.0284,3.8193-6.9512,6.3818-5.5811-2.7993-18.1582-3.9072-24.64259-.9522-.56051-2.7446-1.94041-6.4379-5.28711-6.4331-3.5303-.0019-8.9541,5.8496-5.8428,8.2608,3.1905,2.4814,4.8516-3.0298,7.8243-2.8047a2.46194,2.46194,0,0,1,1.914,1.7275,6.84738,6.84738,0,0,0-1.56439,1.3833c-2.32911,2.8872-1.82131,13.2261-.13581,20.6104a25.48745,25.48745,0,0,1-6.9219-2.4409c-3.621-1.9107-5.0361-4.1006-5.9599-4.0767-.6709.019-3.9219,5.2676-3.8457,5.7686.0781.5004,4.2676-1.8081,4.6924-1.6158.4228.1929-.3858,4.5381-.03909,4.7691.34569.23,3.07619-3.3076,3.53709-2.8848.46091.4234.92291,4.4981,1.3467,4.4605.4228-.0381,1.3457-3.0762,1.8447-3.191a51.16516,51.16516,0,0,1,5.875,1.2896c.7422,2.6187,1.6367,4.6333,2.5908,5.4145a7.21844,7.21844,0,0,0,3.46,1.0899c-.1348.1714-.2705.3413-.4004.5171a17.993,17.993,0,0,0-2.2002,3.8354,11.46653,11.46653,0,0,0-.9141,4.7178,9.46283,9.46283,0,0,0,1.544,4.8418c.0391.061.0508.0786.06441.0981a2.33318,2.33318,0,0,0,3.80859-2.6962,4.81835,4.81835,0,0,1-.913-2.4712,7.00053,7.00053,0,0,1,.4648-2.9117,13.71017,13.71017,0,0,1,1.5654-2.9848c.32521-.4844.6797-.9551,1.0547-1.4131.18751-.2295.3799-.4522.5762-.6704.1865-.21.4072-.4439.56831-.6026l.04889-.0463c.0127-.0113.0195-.0274.0322-.0411.92091-.0278,1.8691-.0781,2.8272-.1513a12.70645,12.70645,0,0,1-.7374,4.5024,22.66711,22.66711,0,0,1-1.1464,2.1983,12.772,12.772,0,0,0-1.1758,2.9917c-.0664.2602-.124.518-.1768.7773l-.0693.3838-.0645.4126c-.0175.1216-.0302.1924-.0488.3652-.0176.1592-.03029.3081-.0391.4468-.0214.2837-.0283.5742-.0234.8662a8.37577,8.37577,0,0,0,3.0576,6.4111,10.06791,10.06791,0,0,0,1.4483,1.0069c.2529.1445.5107.2788.7822.4028.1338.062.2705.1211.415.1792l.2227.0869c.0889.0313.1328.0503.291.0987a2.33294,2.33294,0,0,0,1.3086-4.4786c-.041-.0127-.1348-.0434-.1348-.0434l-.209-.0816a4.61705,4.61705,0,0,1-.4296-.2031,5.31774,5.31774,0,0,1-.7901-.5093A3.87935,3.87935,0,0,1,64.476,85.089c-.0088-.1597-.0117-.3199-.0049-.4859l.01181-.2304c0-.0499.02049-.2046.03019-.3033l.0323-.2588.042-.2832c.0302-.1865.0644-.3706.10351-.5498a8.44352,8.44352,0,0,1,.73629-2.0561,25.0227,25.0227,0,0,0,1.252-2.6533,16.71844,16.71844,0,0,0,.8398-6.0572,2.08557,2.08557,0,0,0-.03609-.3335c.58389-.0757,1.15909-.1548,1.72549-.2412a1.8326,1.8326,0,0,0,.2647.5152l.0586.0771c.1084.1406.2744.374.40621.5747.14069.2105.27839.4277.40629.6485a13.47324,13.47324,0,0,1,.6992,1.3515,10.72831,10.72831,0,0,1,.8496,2.7901,6.87171,6.87171,0,0,1-.0849,2.6386,6.2813,6.2813,0,0,1-1.087,2.2866c-.0341.0464-.0683.0953-.0996.1446a2.33515,2.33515,0,0,0,3.9541,2.4853,10.89056,10.89056,0,0,0,1.5655-4.1064,11.28465,11.28465,0,0,0-.1768-4.2495,14.72988,14.72988,0,0,0-1.44139-3.732,17.95889,17.95889,0,0,0-1.01861-1.6513c-.1152-.166-.2402-.3277-.3603-.4883,2.4951-.5469,4.3633-1.1655,4.9375-1.7402.5781-.5757,1.1201-2.3316,1.5508-4.6724a36.42183,36.42183,0,0,1,4.8662-1.0347c.501.1148,1.4238,3.1524,1.8467,3.1914.4238.0367.8838-4.039,1.34571-4.4604.46089-.4243,3.19139,3.1147,3.53709,2.8828.3467-.229-.4619-4.5747-.03809-4.7671.42279-.1929,4.61429,2.1152,4.69039,1.6148C95.95753,61.43423,92.70753,56.18663,92.03663,56.16713Zm-36.6953-3.1406a2.40278,2.40278,0,0,1,3.0185-2.5581,1.34741,1.34741,0,0,0-.7754,1.3354c-.001,1.2676,2.3819,1.6939,2.8028.4155a2.776,2.776,0,0,1,.1201.8111C60.50533,56.21493,55.34523,55.523,55.34133,53.02653ZM70.437,63.74863c-.0264.1314-.8252,2.7241-3.002,2.7193a3.037,3.037,0,0,1-2.6133-1.8047,3.19876,3.19876,0,0,1-2.7597,2.0864c-2.1768.0039-2.9727-2.5889-3.0049-2.7202-.1231-.4746-.0977-1.0664.2412-1.2661.35061-.1924,1.2949,2.582,2.8057,2.6411,1.7041.0766,1.7841-1.7505,2.2695-2.3389a1.27707,1.27707,0,0,1,.0713-.2876c-.8721-.7187-2.75689-.6128-2.5684-3.3823.0176-.292,4.93651-.8857,4.96-.6626.2803,2.7285-1.1211,3.1997-1.7617,4.0488.4755.5811.3847,1.938,1.4589,2.2271,2.252.6138,3.2735-2.792,3.6641-2.5181C70.59913,62.76333,70.56594,63.28233,70.437,63.74863Zm-2.5918-11.2705a2.40421,2.40421,0,0,1,3.0205-2.5571,1.34627,1.34627,0,0,0-.7774,1.3345c-.0009,1.2666,2.3819,1.6831,2.8047.4165a2.73088,2.73088,0,0,1,.127.7998C73.018,55.65833,67.85,54.97573,67.84523,52.47813Z"/>
</svg>
