<svg id="b33f9ebb-b3f2-4e3a-b913-5b070304c1a9" data-name="Layer 1" xmlns="http://www.w3.org/2000/svg" width="128" height="128" viewBox="0 0 128 128">
  <defs>
    <style>
      .bdf62903-2f07-4c03-ad15-1751d2ab126e {
        fill: #1d1d1b;
      }
    </style>
  </defs>
  <title>008</title>
  <g>
    <path class="bdf62903-2f07-4c03-ad15-1751d2ab126e" d="M86.33434,67.12927c-.1035-.2993-1.11518.3994-1.4649,1.1504-.4834,1.0366-.0937,2.1806.5518,2.1088.6455-.0683-.1709-1.1855.0732-1.9428C85.73574,67.69027,86.37924,67.25767,86.33434,67.12927Z"/>
    <path class="bdf62903-2f07-4c03-ad15-1751d2ab126e" d="M91.05016,67.39437c-.08982.1172.42288.7832.41208,1.648-.0117.8623-1.2392,1.7334-.5986,2.0288.6406.2934,1.4394-.7496,1.2998-1.9844C92.06184,68.19177,91.261,67.12,91.05016,67.39437Z"/>
    <path class="bdf62903-2f07-4c03-ad15-1751d2ab126e" d="M94.78454,40.25867a3.11109,3.11109,0,0,0-.541-.3575,4.42736,4.42736,0,0,0-.3858-2.3276,4.10578,4.10578,0,0,0-2.1904-2.2139c-.4131.0186-.6045.8203-.40818,2.0938a1.50949,1.50949,0,0,1-.64362,1.437,51.01347,51.01347,0,0,0-5.56338-.5049,1.29452,1.29452,0,0,1,.04288-.9306c.4844-1.1949.4815-2.0181.086-2.1319a4.1076,4.1076,0,0,0-2.6436,1.6489,6.66113,6.66113,0,0,0-.7197,1.3257c-15.04689-.1802-37.62109,2.4312-39.77349,4.982a2.76949,2.76949,0,0,0-.2099.2929,1.72882,1.72882,0,0,0-.167.1187,4.63541,4.63541,0,0,0-1.28419,1.7798,31.08365,31.08365,0,0,0-1.42281,5.8398c-.36719,1.6265-.8848,3.8174-2.9141,3.8608a3.69732,3.69732,0,0,1-3.168-1.955,1.27373,1.27373,0,0,0,.29791-1.6992c-.60351-.8501-1.02051-.5547-1.80861-1.1104a3.92807,3.92807,0,0,1-1.0488-1.2349c-.126-.2182-.2832-.2143-.3565.0259a4.75606,4.75606,0,0,0,.1192,3.6094,2.56224,2.56224,0,0,0,.6171.6601,1.6395,1.6395,0,0,0,1.47761.1739,11.07654,11.07654,0,0,0,.87789.7373,5.47656,5.47656,0,0,0,2.1445,1.104,3.05433,3.05433,0,0,0,2.4942-.332,4.40294,4.40294,0,0,0,1.3213-1.939c.6445-1.563.9804-3.23,1.5019-4.8364-1.333,9.999.3428,30.0361,2.90921,31.4921.99709.5665,4.14449.9292,8.42579,1.1314-.1113,1.478,0,3.624.0449,5.397.0752,3.0317-1.1758,5.9868-.30469,6.1382a7.62939,7.62939,0,0,0,2.76959.0439c.455-.1895-.0518-.6943-.0694-.9053-.0137-.1782.1709-.3379.1709-.5683,0-.2725-.5019-.312-.6435-.5215-.1104-.1612.18941-2.2359.1601-4.4238a29.86479,29.86479,0,0,0-.5166-5.0948c2.3418.0855,4.9531.1294,7.6944.1363-.0879,1.4672.0166,3.5029.05851,5.1953.07719,3.0317-1.17481,5.9868-.30271,6.1382a7.61826,7.61826,0,0,0,2.7676.0439c.456-.1895-.0508-.6943-.0674-.9053-.0146-.1782.1699-.3379.1699-.5683,0-.2725-.5019-.312-.6445-.5215-.1084-.1612.1895-2.2359.1602-4.4238a30.44362,30.44362,0,0,0-.4864-4.9585c3.8242-.0069,7.84179-.0791,11.69731-.1988-.11042,1.4771.00188,3.6226.04588,5.3941.0762,3.0317-1.1748,5.9868-.3027,6.1382a7.61783,7.61783,0,0,0,2.7675.0439c.4551-.1895-.05168-.6943-.0683-.9053-.0147-.1782.1689-.3379.1689-.5683,0-.2725-.501-.312-.6426-.5215-.1084-.1612.1895-2.2359.1612-4.4238a29.70008,29.70008,0,0,0-.543-5.211c2.74612-.0962,5.3838-.2182,7.7734-.3559a51.06852,51.06852,0,0,0,.0049,5.8037c.0772,3.0317-1.1748,5.9868-.3017,6.1382a7.62309,7.62309,0,0,0,2.76852.0439c.45408-.1895-.05272-.6943-.07032-.9053-.01368-.1782.1709-.3379.1709-.5683,0-.2725-.5019-.312-.64258-.5215-.11032-.1612.18848-2.2359.16018-4.4238a27.18984,27.18984,0,0,0-.6543-5.6543,56.54955,56.54955,0,0,0,9.4795-1.0806C99.56774,77.82157,99.48864,44.27817,94.78454,40.25867ZM54.29235,91.14587c.0146.2768-.1348.2998-.1563.5473-.0214.2491.334.5684.2207.7466a5.93908,5.93908,0,0,1-2.7998-.1221,2.10229,2.10229,0,0,1,.0567-1.476c.1006-.1075.4131-.1563,1.081-.1504C53.36265,90.69907,54.27765,90.87,54.29235,91.14587Zm9.3223,0c.0136.2768-.1368.2998-.1582.5473-.0196.2491.3339.5684.22071.7466a5.93164,5.93164,0,0,1-2.79791-.1221,2.08448,2.08448,0,0,1,.0567-1.476c.0986-.1075.4101-.1563,1.0781-.1504C62.682,90.69907,63.59805,90.87,63.61465,91.14587Zm13.33789,0c.01462.2768-.1348.2998-.1563.5473-.0215.2491.334.5684.2207.7466a5.93943,5.93943,0,0,1-2.79978-.1221,2.11416,2.11416,0,0,1,.05658-1.476c.1006-.1075.4131-.1563,1.0811-.1504C76.02184,90.69907,76.93784,90.87,76.95254,91.14587Zm14.3544-30.1841a1.357,1.357,0,1,1,1.2315,1.4712A1.24249,1.24249,0,0,1,91.30694,60.96177Zm-6.2363-.3179a1.67215,1.67215,0,1,1,1.5186,1.814A1.52978,1.52978,0,0,1,85.07064,60.64387Zm1.21,30.502c.0146.2768-.1348.2998-.1572.5473-.0206.2491.3349.5684.2216.7466a5.93429,5.93429,0,0,1-2.7988-.1221,2.09758,2.09758,0,0,1,.0557-1.476c.1006-.1075.4131-.1563,1.08-.1504C85.34994,90.69907,86.26694,90.87,86.28064,91.14587Zm1.5908-17.729c-9.8008-1.1363-6.7832-8.1748-5.249-8.7305,2.72172-.9829,2.6953.1186,6.251.4541,3.5546.3374,3.67772-.7002,5.8505.3437C96.19074,66.19127,97.85484,74.57507,87.87144,73.41687Z"/>
  </g>
</svg>
