<svg id="ba4ee5ad-8a33-4de6-905a-66c0e62bbce7" data-name="Layer 1" xmlns="http://www.w3.org/2000/svg" width="128" height="128" viewBox="0 0 128 128">
  <defs>
    <style>
      .e915b3c0-9e71-4575-b4a8-3f5d90eea121 {
        fill: #1d1d1b;
      }
    </style>
  </defs>
  <title>009</title>
  <g>
    <path class="e915b3c0-9e71-4575-b4a8-3f5d90eea121" d="M63.46434,46.87609a3.31785,3.31785,0,1,0-3.3174-3.3189A3.3185,3.3185,0,0,0,63.46434,46.87609Zm0-5.4463a2.128,2.128,0,1,1-2.1279,2.1274A2.1271,2.1271,0,0,1,63.46434,41.42979Z"/>
    <path class="e915b3c0-9e71-4575-b4a8-3f5d90eea121" d="M83.70454,45.693c-1.4541-2.293-4.0537-2.7481-7.124-.8062a5.82186,5.82186,0,0,0-3.00678,3.9512,14.95071,14.95071,0,0,0-5.041-1.9419c.09178-.895.13668-1.8559.13858-2.875a22.63917,22.63917,0,0,0-.6308-5.6811c.7451-.1631,2.9199-.7525,2.4287-2.1324-.4981-1.41158-2.4619-.0566-3.0469.3853-.8369-1.82081-2.0849-2.85352-3.706-2.85157-1.6319,0-2.8868,1.042-3.7188,2.88237-.7256-.4893-2.4971-1.50835-2.916-.1832-.4043,1.2793,1.4014,1.8184,2.2861,2.0035a22.67223,22.67223,0,0,0-.6064,5.5786,28.17053,28.17053,0,0,0,.1484,2.979,14.46987,14.46987,0,0,0-4.709,1.9458,6.52354,6.52354,0,0,0-2.5185-3.3672c-2.8858-2.2085-5.5137-1.9863-7.166.1709-1.65238,2.1558-1.1807,4.7539,1.706,6.9629a6.71548,6.71548,0,0,0,3.6465,1.5454,14.21466,14.21466,0,0,0-.917,5.2031c0,5.9185,2.9746,10.2954,8.6143,12.0952a14.49189,14.49189,0,0,0-.1778,2.3404c0,2.978.7647,5.3818,2.2354,6.9345-1.1719,1.8194-2.8945,4.6197-2.8945,5.3706,0,1.1382,2.0322,2.3545,2.2109,2.5684.1787.2134-.2861,3.9565.0361,4.3843.3203.4287,4.5625-3.5645,4.34772-4.6348-.21392-1.0693-3.59962-2.3169-3.99022-3.2085-.2071-.4668.5683-2.1221,1.3525-3.5893a6.81992,6.81992,0,0,0,3.8125,1.0512,7.16106,7.16106,0,0,0,3.0869-.6435c.8809,1.5903,1.9522,3.7138,1.7148,4.2534-.39248.8921-3.7783,2.1392-3.9921,3.208-.2139,1.0698,4.0283,5.0625,4.34862,4.6343.32128-.4273-.14162-4.1699.03608-4.3843s2.21-1.4277,2.21-2.5693c0-.8179-2.0469-4.0723-3.1963-5.8345,1.9043-1.4898,2.9004-4.1411,2.9004-7.543a14.31346,14.31346,0,0,0-.2393-2.6972c4.9903-1.9839,7.6133-6.1748,7.6114-11.7388a13.91159,13.91159,0,0,0-1.1514-5.7666,6.90055,6.90055,0,0,0,3.5596-1.2153C84.45364,50.53189,85.15864,47.98889,83.70454,45.693Zm-20.2402-5.7246a3.8491,3.8491,0,1,1-3.84858,3.8506A3.85087,3.85087,0,0,1,63.46434,39.96839Zm.5752,29.4648c-3.0625.149-4.7363-.3305-4.7783-1.187-.0401-.8569,1.5791-1.4966,4.6406-1.6455,3.0576-.1494,4.7324.3311,4.7734,1.1875C68.71634,68.64509,67.101,69.28429,64.03954,69.43319Zm-.1924-4.8095c-4.6972.2294-7.2656-.5967-7.3398-2.0425-.0684-1.4439,2.4101-2.5142,7.10742-2.7403,4.69528-.229,7.26368.5923,7.332,2.0391C71.02,63.32729,68.54244,64.39469,63.84714,64.62369Zm-.0947-6.2681c-6.2705.3032-9.6963-.791-9.7881-2.7188-.0957-1.9253,3.21-3.3471,9.4785-3.6538,6.2676-.3032,9.6953.7915,9.7871,2.7163C73.32376,56.62759,70.02,58.04989,63.75244,58.35559Z"/>
  </g>
</svg>
