<svg id="acaf36e1-af8c-498d-8978-4ef01940c193" data-name="Layer 1" xmlns="http://www.w3.org/2000/svg" width="128" height="128" viewBox="0 0 128 128">
  <defs>
    <style>
      .fd3f58da-56d7-45ed-a54d-7872d92e5d75 {
        fill: #1d1d1b;
      }
    </style>
  </defs>
  <title>010</title>
  <path class="fd3f58da-56d7-45ed-a54d-7872d92e5d75" d="M83.37231,90.44422c-.61518-.3159-4.334-1.7373-4.4638-2.291-.3946-1.6709.4824-9.6167.47162-9.7134.74508-.913,1.27538-2.7431-.70992-3.2358-.3438-.1162-6.4014-8.8892-7.8584-10.9946,3.0176-1.4439,6.1328-2.8863,6.2148-3.2793.1416-.6289-2.9267.4184-3.418-.0044-.4902-.416,1.39852-1.3911,1.5362-1.8135.1377-.416-1.3242.5581-1.4678.001-.1367-.5586,2.2324-1.8164,2.2324-2.166,0-.3501-1.6738-.2066-1.6738-.625.0039-.4248,2.0254-.6978,2.3066-1.2613.2754-.5586-.91108-8.6562-2.9326-10.3325a4.60105,4.60105,0,0,0-2.3193-.6054c-1.6621-1.9283-.99118-4.3345-.4649-5.5674,1.4961.1567,3.2041-.605,2.84772-2.1758-.59282-2.58448-5.46872-2.65138-4.86132.6831a1.4669,1.4669,0,0,0,.4248.7998c-1.2442,1.2319-4.2031,5.02-5.35448,6.5049-2.98442.2529-5.53132.5386-5.77442.3584-.56158-.4199-.6289-5.3784-1.1192-6.4932-.4912-1.1162-11.5849-1.7002-13.2666-.6264-.6181.3891-.9814,4.5395-.63178,4.9541.35058.4204,3.35638.3496,3.35638.6982,0,.3506-2.7255,2.0991-2.7265,2.7256,0,.6299,1.8125-.2803,2.376.6279.5566.9068-1.46588,1.4678-1.1885,2.0962.2793.6284.8398-.0688,1.1172.5601.2783.6289-1.6075.3476-2.0274,1.0478-.4179.6943,1.6065,21.646,2.3047,22.2759.28912.2593,1.2227.1406,2.3477-.0752-1.669,1.7534-3.3809,3.5186-3.5684,3.6025-1.9531.6216-1.2988,2.4121-.5049,3.2774-.0185-.1812,5.418,8.0288,5.124,9.7583-.0976.5552-3.7138,2.2192-4.3056,2.5718-.374.2236-2.1475,1.2666-1.4082,1.6386.7402.378,9.1914-.0796,9.4629-.6201.9853-3.3467-7.0098-13.0542-6.6651-13.4253a2.00824,2.00824,0,0,0-.1601-3.0888c-.1856-.4219,2.7676-2.6309,5.0791-4.2784a5.87355,5.87355,0,0,1,1.582-.0595c1.7451.2793,3.4229,1.2592,4.0518.978.3584-.1602,2.2724-1.6431,4.3652-3.1968,1.9766,1.1714,7.6455,4.6143,7.4316,5.1987a2.01134,2.01134,0,0,0,.0479,3.0918c.36722.3496-6.9815,10.5591-5.7783,13.8374.3047.5176,8.77152.4209,9.4814-.0014.7158-.4219-1.1221-1.3447-1.5107-1.543-.6133-.3115-4.333-1.7373-4.4629-2.2905-.3955-1.6836,4.373-10.0606,4.4726-10.0733.7452-.9116,1.2754-2.7412-.71088-3.2353-.34282-.1167-5.76662-5.1821-7.05862-6.3867.9248-.6577,1.8047-1.2593,2.5205-1.687.5967-.3516,1.419-.7862,2.3545-1.25,1.5879,1.6836,8.8701,9.4516,8.64062,10.0771-1.44822,1.4043.08988,2.9097.45708,3.2529.3701.3496-3.3838,10.0391-2.1856,13.3184.3047.5234,8.77152.4258,9.48052.0034C85.59791,91.56482,83.76291,90.643,83.37231,90.44422Zm-37.1289-12.4804c-.0674.833-1.623.7973-1.5029-.1455C44.85961,76.87782,46.35081,76.75972,46.24341,77.96382Zm24.875-1.6275c.1846.9322-1.36328,1.0679-1.4922.2437C69.44361,75.38422,70.94071,75.40472,71.11841,76.33632Zm-3.7578-29.7924a19.49022,19.49022,0,0,1,2.7607,1.9223c.0684.1699-1.124,4.1875-1.3818,4.1533-.2637-.0341-4.0703-3.039-4.0713-3.6308C64.67113,48.49552,67.36061,46.54392,67.36061,46.54392Zm-11.89448,2.4912c.04288.1508-1.63672,3.1552-1.87212,3.0835-.2363-.0708-3.3398-3.1031-3.2588-3.5752.0723-.3868,2.8486-1.4995,2.8486-1.4995A17.59547,17.59547,0,0,1,55.46613,49.03512Zm-6.19142-6.1665c.747-2.6958,5.3886-2.4258,4.5771,1.0625C53.28931,46.33292,48.52761,45.56532,49.27471,42.86862ZM45.968,61.66452c.3926-1.4532,2.49612-1.3965,2.0606.4795C47.72491,63.43842,45.57251,63.119,45.968,61.66452Zm2.12212,7.2959c-.35452-.2081-.70022-3.5982-.38972-3.8394.3223-.2578,1.4981-.5244,1.6094-.2109.1045.3164.6924,3.9433.4121,4.0493A2.8948,2.8948,0,0,1,48.09013,68.96042Zm5.123-.2115a2.90962,2.90962,0,0,1-1.63472.0005c-.3516-.208-.69828-3.5923-.3877-3.8393.3203-.2515,1.5058-.5259,1.60942-.2105C52.90451,65.01462,53.49241,68.643,53.21313,68.74892Zm3.97948.4283a2.54444,2.54444,0,0,1-1.6328-.0035c-.3506-.2368-.6972-4.1381-.3896-4.4194.3242-.292,1.50292-.606,1.6064-.2446C56.885,64.871,57.47191,69.05512,57.19261,69.17722Zm.98152-5.5938c-.24422.0322-4.85452.4526-6.28522-2.27-1.4297-2.7222-.9414-5.166-.6933-5.3413a4.1184,4.1184,0,0,1,2.0576-.0039c.1894.1631-.3955,2.7627.6933,4.1225,1.084,1.3599,4.1231,1.4341,4.2295,1.7149C58.28251,62.08052,58.41821,63.54972,58.17413,63.58342Zm-3.29492-6.8057c-1.3545-8.5332,10.1171-8.4443,11.45892-1.831C67.68091,61.56482,55.81571,62.63762,54.87921,56.77772ZM64.846,62.433c.03412-.3374,2.3339-3.8686,2.3339-3.8686a23.76958,23.76958,0,0,1,2.3809,2.3647c.0537.1255-1.3525,1.9653-1.5879,1.9116C67.73271,62.79192,64.79521,62.83342,64.846,62.433Zm12.7773,14.6924a.75656.75656,0,1,1,1.4893-.2441C79.29813,77.807,77.75021,77.94862,77.62331,77.12542Z"/>
</svg>
