<svg id="af6f5e47-6bbd-43a3-a41d-b4857b0883dc" data-name="Layer 1" xmlns="http://www.w3.org/2000/svg" width="128" height="128" viewBox="0 0 128 128">
  <defs>
    <style>
      .aced3275-1b9d-4fd9-9f90-179c144b98f5 {
        fill: #1d1d1b;
      }
    </style>
  </defs>
  <title>011</title>
  <path class="aced3275-1b9d-4fd9-9f90-179c144b98f5" d="M79.873,44.90328c-4.9746-.335-2.1563,10.606-3.1582,12.105-.9932,1.4883-5.795,1.1533-6.7872-.0093-1.0019-1.1601-1.66009-6.7959-6.8027-7.2925-4.9971,1.3023-4.7666,6.9654-5.5693,8.2696-.8018,1.3037-5.501,2.3813-6.711,1.0625-1.2216-1.3174-.1513-12.5586-5.0078-11.4556-4.8554,1.1045-1.4082,33.4546,3.7188,32.9756,5.126-.4722.3984-12.313,1.8808-13.5552,1.4815-1.2422,3.8604-3.1269,5.25-1.8364a23.25331,23.25331,0,0,1,1.7627,2.519c-.0537.0518-.09759.1104-.1523.1704-2.86129,3.4278-5.0615,8.1226-3.8096,12.6592,1.1328,4.103,5.8584,2.8052,3.9932-.2666-1.9873-3.2749.3183-7.5566,2.5049-10.1645a6.391,6.391,0,0,0,3.7968.6826,6.461,6.461,0,0,0,3.584-1.23,12.32744,12.32744,0,0,0,.5469,1.2393,9.972,9.972,0,0,1,1.1797,6.3491c-.2276,1.1216-1.4541,2.5996-1.1983,3.9228.3389,1.7061,2.4942,2.3765,3.4122.6699a11.64607,11.64607,0,0,0,1.1845-7.4526.4599.4599,0,0,0-.0195-.0791.42467.42467,0,0,0-.0225-.1147c-.0078-.0728-.0234-.1167-.0302-.17-.0176-.0708-.02639-.1601-.0469-.2504a.23846.23846,0,0,1-.01949-.0874c-.37021-1.6377-1.41221-5.2525-3.01471-6.3833.6963-1.2833,1.0674-2.5665,1.5693-3.212,1.1631-1.4985,3.8223-.0019,5.4786.9873,1.6582.9966-1.16119,13.4288,3.9707,13.1016C86.498,77.72118,84.84457,45.23778,79.873,44.90328ZM45.55848,65.38868c-1.97071-4.3018,3.32909-5.5909,4.98629-2.2891C52.21667,66.41108,46.91787,68.34278,45.55848,65.38868Zm31.64059-4.9771c.9756-3.564,6.418-3.3618,5.3457,1.2471C81.80657,64.82418,76.23227,63.98438,77.19907,60.41158Z"/>
</svg>
