<svg id="af7649df-b26b-41a4-8e70-67e2999cb884" data-name="Layer 1" xmlns="http://www.w3.org/2000/svg" width="128" height="128" viewBox="0 0 128 128">
  <defs>
    <style>
      .ecd091f3-ff18-488e-97d5-e12b45ead227 {
        fill: #1d1d1b;
      }
    </style>
  </defs>
  <title>012</title>
  <g>
    <path class="ecd091f3-ff18-488e-97d5-e12b45ead227" d="M66.77835,54.90684c1.5.0132,2.4839-.6494,2.4956-1.9082.0254-1.2593-.9453-1.9497-2.4434-1.9624-1.4873-.0152-2.4814.6582-2.4951,1.9174C64.32325,54.21244,65.27975,54.90244,66.77835,54.90684Z"/>
    <path class="ecd091f3-ff18-488e-97d5-e12b45ead227" d="M57.17385,55.28964c1.8115.0005,2.7793-.9131,2.7768-2.3164-.0034-1.4024-.9731-2.313-2.7739-2.315-1.7993-.0005-2.7681.9126-2.7642,2.315C54.40425,54.37754,55.375,55.28764,57.17385,55.28964Z"/>
    <path class="ecd091f3-ff18-488e-97d5-e12b45ead227" d="M93.17875,57.13284c.0048-6.4111-3.7081-11.4726-10.8399-14.4716-.0972-3.1104-.6748-8.9981-1.3325-9.2818-.6694-.2832-5.0562,4.3789-7.0488,6.9536a61.45363,61.45363,0,0,0-9.9493-.7417,51.43937,51.43937,0,0,0-16.0229,2.2076c-1.6895-2.7061-4.8599-7.1656-5.5371-7.0914-.9512.1148-3.2173,10.4507-2.8067,11.3487.0279.0493.1036.0825.2315.1006a14.02293,14.02293,0,0,0-5.0518,10.9765c-.0053,5.6812,2.9229,10.3086,8.5547,13.3824-.8164,5.9643-4.3838,11.9575-2.4223,17.9848a1.69025,1.69025,0,0,0,2.3725,1.1162,2.2065,2.2065,0,0,0,.709-2.6162c-1.7856-5.0859.9966-10.1997,1.7266-15.3472a34.06262,34.06262,0,0,0,5.6533,1.7754c-.8716,5.8887-4.3286,11.8091-2.3916,17.7603a1.68821,1.68821,0,0,0,2.3721,1.1177,2.20783,2.20783,0,0,0,.7089-2.6167c-1.8369-5.2281,1.1592-10.4893,1.7847-15.7818a58.27609,58.27609,0,0,0,7.4639.7237c.5429,5.5713,2.2158,11.2514-.3179,16.393a2.68714,2.68714,0,0,0,.4722,3.2593,2.04625,2.04625,0,0,0,3.0195-.9995c2.7358-5.8984.7275-12.3413-.0332-18.606a64.95429,64.95429,0,0,0,7.041-.4106c.8047,5.02,3.4151,10.0107,1.6724,14.9727a2.211,2.211,0,0,0,.7085,2.6191,1.69073,1.69073,0,0,0,2.373-1.1187c1.8345-5.6372-1.1704-11.2441-2.2353-16.8242a36.87663,36.87663,0,0,0,8.1855-2.2661c.729,5.1455,3.5142,10.2612,1.7261,15.3496a2.209,2.209,0,0,0,.7085,2.6162,1.6894,1.6894,0,0,0,2.373-1.1162c1.9624-6.0273-1.6069-12.0234-2.4218-17.9858C90.253,67.44094,93.18015,62.81454,93.17875,57.13284Zm-37.8467,4.5826c1.4765-1.0738,9.3237-.3101,10.1748-.3047a9.79846,9.79846,0,0,0,.2378,1.9189,9.159,9.159,0,0,0,2.8554,0c.1773-.0747.251-1.1709.2803-1.8584,1.2925.0425,2.7925-.1709,3.7085.2573.8677.4043,3.103,6.5542-8.6338,6.5542C52.40725,68.28274,54.55175,62.28184,55.33205,61.71544Zm6.749-14.1817c9.6777-.0351,13.9087,1.7114,13.9004,5.4409.0024,3.7295-4.2163,5.4707-13.9019,5.4429-9.6738-.0391-13.8901-1.8486-13.9008-5.4414C48.17875,49.38334,52.40425,47.56894,62.08105,47.53374Z"/>
  </g>
</svg>
