<svg id="f1eb1ba9-1703-46e2-8639-4d8d93d82b17" data-name="Layer 1" xmlns="http://www.w3.org/2000/svg" width="128" height="128" viewBox="0 0 128 128">
  <defs>
    <style>
      .ed45f827-a69d-4bfc-acd8-b7b9a87f757b {
        fill: #1d1d1b;
      }
    </style>
  </defs>
  <title>013</title>
  <path class="ed45f827-a69d-4bfc-acd8-b7b9a87f757b" d="M114.46544,53.35637c-.4502-2.5503-2.5508-9.4712-12.9043-9.4624-9.1543.0083-15.8652,8.6099-18.3262,12.3071a19.03114,19.03114,0,0,0-3.6084-9.9414,28.00791,28.00791,0,0,0,2.3697-6.6484,3.04375,3.04375,0,0,0,2.9609-2.3433c.3232-1.5371.1455-3.5351-2.4731-4.0805-2.6162-.5459-3.7593,1.5532-4.0821,3.0908-.2558,1.2309.7827,2.4746,2.0933,3.0005a11.70949,11.70949,0,0,1-3.0566,4.6679c-3.2227-2.7666-7.7129-4.31-13.4087-4.31-6.3282-.0015-11.1914,1.9155-14.4502,5.2949a11.56067,11.56067,0,0,1-2.7227-4.3335c1.3169-.5337,2.3521-1.7788,2.0977-3.0078-.3296-1.5381-1.4722-3.6406-4.0889-3.0899-2.6094.5381-2.7998,2.5425-2.4707,4.0806a3.05261,3.05261,0,0,0,2.9526,2.3447,28.01884,28.01884,0,0,0,2.2862,6.4815,19.7271,19.7271,0,0,0-2.8267,8.8574c-2.4253-3.6601-9.1597-12.3623-18.3672-12.3716-10.3555-.0078-12.4556,6.9131-12.9048,9.4634-.4511,2.5513.5992,7.2041,3.1494,7.6533,2.5518.4497,3.375-4.5014,3.7891-4.6504.4126-.1499,1.5024-.1128,1.5386.1866.0371.3007.4136,4.9511,2.9267,5.2519,2.5127.2998,3.8628-3.5649,4.3506-3.8647.4873-.2998,1.5752-.0747,1.6885.2251.1123.3012.5986,4.3916,3.2642,4.9892,2.664.6011,3.4126-4.0508,4.0507-4.2744.5957-.2134,4.1949.4941,6.4419,1.2295.625,8.5952,7.1563,19.7617,13.8745,25.0278-.8022,1.7124-1.2514,3.7686-2.9179,4.3643-.48.1714-1.0337-.2095-1.4942-.417a1.11369,1.11369,0,0,0-1.5297.5513.93064.93064,0,0,0,.5991,1.4043c.5078.1797,1.1811.2675,1.4038.7568a2.22856,2.22856,0,0,1-.0845,1.459c-.2764.7969-.1987,1.4155.5933,1.6133.7934.1953,1.3144-.3765,1.5063-1.1036.1065-.3925.2232-.8627.5894-1.0454.3428-.1699.8213.0723,1.1811.2027.606.2075,1.104.1064,1.2681-.4492a.86.86,0,0,0-.5723-1.1485c-.331-.1494-.9521-.415-1.0835-.7534-.5971-1.5132.8565-2.9507,2.1128-4.3145a10.5665,10.5665,0,0,0,5.1905,1.875,9.89772,9.89772,0,0,0,6.6127-2.7431c.9698,1.2402,1.8213,2.5215,1.2266,3.7524-.1562.3262-.7964.5459-1.1357.6685a.86175.86175,0,0,0-.6568,1.104c.1231.5659.6128.7051,1.2325.5415.3681-.1025.8623-.3091,1.1918-.1143.3516.2085.4341.6875.5113,1.0865.1372.7397.6147,1.3471,1.4194,1.2104.8047-.1362.9287-.7485.7114-1.5635a2.23822,2.23822,0,0,1,.0235-1.4629c.2583-.4697.9375-.5078,1.4565-.6494a.93043.93043,0,0,0,.7017-1.3559,1.11585,1.11585,0,0,0-1.4849-.6651c-.4746.1739-1.0556.5132-1.522.3086-1.4628-.6509-1.8437-2.4175-2.4013-4.0556,5.4853-5.605,9.6587-16.0845,10.0722-24.105,2.2496-.729,5.7867-1.4199,6.3765-1.2095.6392.2236,1.3862,4.8755,4.0518,4.2744,2.663-.5986,3.1508-4.688,3.2636-4.9892.1128-.2998,1.1997-.5249,1.6875-.2251.4883.3007,1.8384,4.1645,4.3516,3.8647,2.5122-.3013,2.8887-4.9512,2.9258-5.2519.0366-.2994,1.1269-.3365,1.5395-.1866.4131.1475,1.2368,5.1006,3.7871,4.6504C113.86534,60.56047,114.91464,55.90767,114.46544,53.35637Zm-52.3686,21.3203c-3.2159,1.1216-6.0303-1.4013-7.6866-6.1792-1.6567-4.7763-1.0112-8.4936,2.2144-9.6074,3.2261-1.1235,6.0298,1.4014,7.687,6.1787C65.96834,69.83637,65.32484,73.56337,62.09684,74.67667Zm14.9814-8.1401c-1.0063,5.2676-3.2183,8.4145-6.106,7.8633-2.8891-.5518-3.791-4.2891-2.7758-9.5664,1.0088-5.2603,3.2197-8.4073,6.1089-7.856C77.19344,57.52927,78.08414,61.26747,77.07824,66.53657Z"/>
</svg>
