<svg id="bd9272bb-cec8-4ad7-88d1-d06351877de1" data-name="Layer 1" xmlns="http://www.w3.org/2000/svg" width="128" height="128" viewBox="0 0 128 128">
  <defs>
    <style>
      .ff8da4c2-d66f-4325-88dc-a0b11b752e38 {
        fill: #1d1d1b;
      }
    </style>
  </defs>
  <title>014</title>
  <g>
    <path class="ff8da4c2-d66f-4325-88dc-a0b11b752e38" d="M47.16528,71.02721c0,2.6611,5.165,3.3062,5.165,0C52.33028,67.72061,47.16528,67.55891,47.16528,71.02721Z"/>
    <path class="ff8da4c2-d66f-4325-88dc-a0b11b752e38" d="M90.49928,70.704c-.11181-.2046-.22271-.4263-.31941-.6289a13.53146,13.53146,0,0,1-.5957-1.4322,15.82987,15.82987,0,0,1-.7636-3.0298,13.46982,13.46982,0,0,1,1.0009-7.6162c.2154-.4585.5337-1.1294.7725-1.7319a18.696,18.696,0,0,0,1.0615-3.7813,15.73174,15.73174,0,0,0-.5429-7.8632,8.73777,8.73777,0,0,0-2.3218-3.5254,7.41479,7.41479,0,0,0-3.9248-1.7866,9.96608,9.96608,0,0,0-4.0733.332,8.92992,8.92992,0,0,0-3.5942,2.0014,8.32893,8.32893,0,0,0-2.5845,7.7754,6.36815,6.36815,0,0,0,2.6695,3.9009,10.83062,10.83062,0,0,0,4.4707,1.5962l.3647.0601a2.70226,2.70226,0,1,0-.6597-5.1304c-1.7046.7646-3.4502.3936-4.1401-1.2251a4.73454,4.73454,0,0,1,1.5459-5.1372,6.42138,6.42138,0,0,1,2.6196-1.3735,7.41319,7.41319,0,0,1,2.99171-.1851,4.85545,4.85545,0,0,1,3.86669,3.6636,11.73741,11.73741,0,0,1,.0381,6.2348,15.1529,15.1529,0,0,1-1.0747,3.0118c-.23.4912-.4683.8735-.8105,1.4643a17.32117,17.32117,0,0,0-.8838,1.7959,19.10184,19.10184,0,0,0-1.4424,7.8814,23.6968,23.6968,0,0,0,.3818,3.5761,11.39318,11.39318,0,0,1-3.081-1.0483c-4.2886-2.2119-8.7163-22.6646-22.7261-22.272-21.8496.585-24.7964,27.7432-21.5449,34.5269.8134,1.7041,5.1396,2.7968,11.0302,3.2807-.1123,1.4185-.2788,4.1509.0743,4.4356.4907.3979,5.5229.3955,5.7114.0034a30.9839,30.9839,0,0,0,.04391-4.1733,119.53765,119.53765,0,0,0,12.99079-.5538c-.0923,1.4483-.15679,3.3135.1567,3.5538.4893.3823,5.5019.3823,5.6914-.0093a27.37729,27.37729,0,0,0,.0337-4.2681c12.081-1.8262,21.7397-5.665,18.2627-11.5683A2.40875,2.40875,0,0,0,90.49928,70.704Zm-40.753,7.3466c-4.62011,0-7.11671-2.7504-7.11671-7.1713,0-4.42,2.4966-7.1705,7.11671-7.1705,4.62059,0,7.11869,2.7505,7.11869,7.1705C56.865,75.30021,54.36687,78.05061,49.74628,78.05061Z"/>
  </g>
</svg>
