<svg id="fa3fbc5b-08be-4695-9488-946672666c6e" data-name="Layer 1" xmlns="http://www.w3.org/2000/svg" width="128" height="128" viewBox="0 0 128 128">
  <defs>
    <style>
      .aa1ff535-3645-4027-a74d-2a1fee34504e {
        fill: #1d1d1b;
      }
    </style>
  </defs>
  <title>015</title>
  <g>
    <path class="aa1ff535-3645-4027-a74d-2a1fee34504e" d="M76.82007,55.50057a8.91006,8.91006,0,0,0-2.623-2.3349,4.68891,4.68891,0,0,0,.249-3.6636c-.6221-1.9136-2.4863-2.9927-2.88279-2.7188-.39841.2793,1.24319,2.1211-.06641,3.9595a7.07308,7.07308,0,0,0-.6113,1.0156,23.46077,23.46077,0,0,0-6.4014-.7929,20.847,20.847,0,0,0-8.25589,1.4521,6.68683,6.68683,0,0,0-.66211-.8599c-1.4951-1.687-.0595-3.6894-.4844-3.9243-.4316-.2334-2.166,1.0352-2.5839,3.002a4.57062,4.57062,0,0,0,.706,3.6938,8.01072,8.01072,0,0,0-2.1181,3.0869c-5.21.1451-6.5499,3.7378-.5733,3.1929-.0029,5.1187,3.6729,8.6695,10.5723,9.5249-.1221,2.0918-.336,5.7344-.3594,6.0625-.0312.4287-.1289,3.7881-.1289,3.7881a4.51,4.51,0,0,0-1.0859.4053,1.64687,1.64687,0,0,0-.6016.5918c-.0596.1318-.0244.248.1221.25l3.2109.0058c.1465.001.1436-.0937.1094-.2343-.1973-.8086-.3936-4.502-.3985-4.8028-.0058-.3701.042-3.9668.06841-5.9668.63959.0567,1.30659.086,1.998.0957.01659,2.0157.04689,5.5118.03909,5.875-.0049.3028-.2187,3.9932-.4209,4.8018-.0351.1406-.0371.2353.1084.2353l3.2119.0079c.14551,0,.1817-.1163.1221-.2491a1.63573,1.63573,0,0,0-.5977-.5927,4.42532,4.42532,0,0,0-1.08389-.4112s-.08211-3.3603-.11141-3.7881c-.0215-.3203-.208-3.7636-.3222-5.8789a26.76,26.76,0,0,0,3.2617-.2382c.0185,1.9609.0488,5.7441.042,6.123-.0059.3018-.2188,3.9941-.42,4.8018-.03609.1416-.038.2353.1065.2353l3.2129.0078c.14551,0,.1816-.1162.1221-.248a1.61559,1.61559,0,0,0-.5977-.5938,4.44345,4.44345,0,0,0-1.084-.4121s-.082-3.3603-.1113-3.7881c-.0244-.3408-.2334-4.2256-.3438-6.2734,6.0811-1.1162,9.3018-4.5361,9.2998-9.2954a9.08732,9.08732,0,0,0-.2802-2.3062C83.79467,56.24087,81.33087,53.64167,76.82007,55.50057Zm-14.8447-.3979c2.79591-.001,3.4346,5.7729,0,5.7734C58.54567,60.87607,59.40217,55.09877,61.97537,55.10267Zm4.4404,12.8701c-2.792.4365-4.4443-.2959-4.6738-1.7695-.2275-1.4751,1.1191-2.6714,3.9111-3.108,2.793-.4365,4.4405.2906,4.6739,1.7647C70.55647,66.33507,69.20877,67.53627,66.41577,67.97277Zm1.9112-6.9605c-3.9522-.0029-3.2198-6.6494-.001-6.6513C71.28787,54.36237,72.27807,61.00987,68.327,61.01227Z"/>
    <path class="aa1ff535-3645-4027-a74d-2a1fee34504e" d="M64.19217,64.87017c-.3398.0938-.4043.5665-.2285,1.2149.1767.6426.47261,1.0166.8135.9238.3339-.0918.4043-.5615.2285-1.209C64.82887,65.15247,64.52717,64.77937,64.19217,64.87017Z"/>
    <path class="aa1ff535-3645-4027-a74d-2a1fee34504e" d="M66.98707,64.00257c-.33979.0927-.3926.6196-.1904,1.3559.2031.7344.5107,1.1621.85061,1.0694.34079-.0928.38859-.6192.19039-1.3555C67.63457,64.338,67.32207,63.91077,66.98707,64.00257Z"/>
  </g>
</svg>
