<svg id="ff068efe-c5a6-4866-b118-aab498c2dce9" data-name="Layer 1" xmlns="http://www.w3.org/2000/svg" width="128" height="128" viewBox="0 0 128 128">
  <defs>
    <style>
      .f465ecb7-c374-465f-becd-2394df20b0ed {
        fill: #1d1d1b;
      }
    </style>
  </defs>
  <title>016</title>
  <path class="f465ecb7-c374-465f-becd-2394df20b0ed" d="M82.14573,37.54011c-.0029-3.1826-2.5781-3.5605-8.5-3.5298-5.9209.0288-8.1777.4146-8.1767,3.8433.0029,2.4829,1.4336,4.0415,5.03121,4.584-.34861,1.7427-.29391,9.2519-.14351,12.9194-7.4834-.8305-18.7949-.272-22.3379,2.7212-3.9941,3.3711-1.8037,16.8726,1.2891,19.6611.8584.773,2.9716,1.272,5.6738,1.5201.0742.9453.1348,2.1826.123,3.6294a91.63868,91.63868,0,0,1-.7549,10.9331c.0967.1801.3399.1582.8223.1694l6.7637-.1177c.3359-.0249.5547-.0552.6562-.2036.5791-.8784-4.166-3.4922-4.25-3.7744-.13079-.4556-.0517-4.3291-.1689-7.0576a20.14565,20.14565,0,0,0-.50489-3.418,67.39048,67.39048,0,0,0,9.01469-.332c.0595.8735.1015,1.9419.0888,3.1665a90.15456,90.15456,0,0,1-.7529,10.9331c.0947.1806.3389.1601.8213.1694l6.7617-.1172c.3389-.0263.5576-.0547.6592-.2046.5781-.872-4.1612-3.4917-4.2461-3.7734-.13669-.4575-.05669-4.3306-.1738-7.0581a19.41791,19.41791,0,0,0-.5127-3.4429c3.1289-.4653,5.7851-1.1533,7.1845-2.0312,4.7696-2.9912,2.7071-16.6123.6475-19.4019a5.76961,5.76961,0,0,0-3.03419-1.3452,106.19182,106.19182,0,0,0,.01559-13.3306C79.71413,42.59581,82.14483,41.06551,82.14573,37.54011Zm-18.2666,36.6836c-.8427.0191-.6757-1.4487-.5712-2.0493a3.17229,3.17229,0,0,0-1.5069.0542c.1065.6499.2285,1.9771-.5732,1.9951-.8135.0161-.6875-1.3481-.5811-1.9848a2.90779,2.90779,0,0,0-1.499-.0206c.1074.649.23051,1.981-.5703,2.0015-.8555.0176-.669-1.4888-.5693-2.0723a1.97351,1.97351,0,0,1-.5215-1.2817c-.0762-.5893-1.3721-9.6787.7148-11.227,1.4287-1.0562,4.8467-1.0225,6.5303.0044,1.6904,1.0273.3183,7.9741.2627,9.8793.9111.0113,2.54.1568,2.4092,1.002-.128.8125-1.5977.562-2.4727.3296a2.262,2.262,0,0,1-.5049,1.2349C64.53543,72.66411,64.74443,74.20321,63.87913,74.22371Zm5.0694-36.518c.0019-1.2696.5898-2.1021,1.6933-2.1021,1.10941,0,1.6993.8301,1.6963,2.1011,0,1.2754-.5888,2.1084-1.6914,2.1084C69.54224,39.81161,68.94853,38.98251,68.94853,37.70571Zm7.5722,1.7631c-.9169-.0102-1.5068-.6401-1.4921-1.7846.0097-1.1441.6113-1.75,1.5214-1.7378.918.0102,1.5079.6343,1.4991,1.7832C78.03933,38.87411,77.43683,39.47861,76.52073,39.46881Z"/>
</svg>
