<svg id="a9383f01-713b-482f-ba5a-4dbde73191e0" data-name="Layer 1" xmlns="http://www.w3.org/2000/svg" width="128" height="128" viewBox="0 0 128 128">
  <defs>
    <style>
      .b36ef9a0-3ffc-4cde-99e2-fb5fdce462d5 {
        fill: #1d1d1b;
      }
    </style>
  </defs>
  <title>017</title>
  <g>
    <path class="b36ef9a0-3ffc-4cde-99e2-fb5fdce462d5" d="M101.411,53.73331c3.22749-3.6367,2.27239-12.562-3.42871-18.9785-2.57129-2.8896-27.668.8027-28.876,3.6318-1.19729,2.8286,5.376,13.0616,2.956,25.1753-2.4189,12.1148-24.7607,7.5366-26.583-4.268-.5175-3.3799,5.4541-7.7832,8.0762-3.5401,2.6201,4.2354,11.918,3.0156,6.0537-4.4433-7.0781-9.0274-17.2519-5.0708-21.9619,1.7895-8.2568-1.7895-8.4248-2.7661-10.0674-3.6704-.2861-.1562-.4883-.2109-.5644.0962l-1.4942,6.0332c-.0761.3169.1475.459.47271.4111a17.97484,17.97484,0,0,0,2.35939-2.7216s-.1563-.9786,7.9375,2.2348a13.42109,13.42109,0,0,0-.9043,2.5855,13.75719,13.75719,0,0,0,.1562,5.7739c-7.8125,2.8149-8.4805,2.081-10.331,2.1831-.3291.0146-.5313.0698-.4356.3916l1.9453,5.8989c.0957.3101.3643.3032.6104.0884.29-.2544.5527-3.5542.5527-3.5542s-.6719-.7676,8.35941-2.4092a29.90105,29.90105,0,0,0,3.63179,7.3164c-6.2256,4.6621-7.0869,4.1831-8.7803,4.8218-.3066.1099-.4892.23-.3007.4966l3.6054,5.064c.1895.2675.4493.1831.6153-.0894.1963-.3301-.5264-3.5674-.5264-3.5674s-.8545-.5254,6.96391-4.6318a23.53915,23.53915,0,0,0,6.39839,5.5093c-3.7666,7.2002-4.7539,7.1425-6.0303,8.4541-.2314.2348-.3466.4135-.0595.5805l5.4277,3.02c.2871.167.4883-.021.51371-.3447.04289-.3794-2.00591-2.9848-2.00591-2.9848s-1.0293-.1197,4.58791-7.5328a18.21728,18.21728,0,0,0,8.84179,1.2173c.8721,7.7198.0469,8.2305-.2734,10.0122-.0489.3267-.0401.5347.2773.5108l6.1856-.5562c.3291-.0137.3974-.2871.2441-.5683-.1836-.3345-3.3447-1.3472-3.3447-1.3472s-.8926.4639-.4668-8.5034a25.36141,25.36141,0,0,0,5.3379-1.9234c.7783-.3828,1.5214-.7519,2.2148-1.1259,3.8936,7.353,3.2666,8.1181,3.626,9.936.0605.3247.1543.5142.4463.3833l5.5634-2.7656c.292-.1328.2618-.4058.0059-.6201-.28419-.2461-3.5928-.0386-3.5928-.0386s-.6855.7827-3.6738-8.2495a27.86532,27.86532,0,0,0,6.1641-4.7774c7.10931,3.729,7.0449,4.709,8.36131,5.98.23339.2275.40429.3423.56929.0591l3.0293-5.4287c.166-.2823-.0273-.4829-.34959-.5142-.38381-.0347-2.98831,2.0083-2.98831,2.0083s-.1142.9746-7.0019-4.1958c3.70021-5.7983-.1387-10.4175,1.7588-13.6665C84.04375,53.52731,98.18435,57.37,101.411,53.73331Zm-24.61331-7.5347c-.59469-4.0791,2.0322-4.9199,9.0937-5.9838,7.0499-1.0596,10.18461-1.0611,10.7334,2.7129.8038,5.54-2.1835,6.5634-9.2529,7.5585C80.31625,51.47061,77.62965,51.89881,76.79765,46.19861Z"/>
    <path class="b36ef9a0-3ffc-4cde-99e2-fb5fdce462d5" d="M64.67455,65.32461a2.5157,2.5157,0,1,0-2.4433-2.5068A2.26672,2.26672,0,0,0,64.67455,65.32461Z"/>
    <path class="b36ef9a0-3ffc-4cde-99e2-fb5fdce462d5" d="M83.31135,47.62881c1.3144-.1894,1.8691-1.2793,1.6533-2.791-.2139-1.5137-1.0713-2.4018-2.3858-2.2139-1.3134.1988-1.8798,1.2896-1.6533,2.8003C81.14045,46.93641,81.99585,47.81581,83.31135,47.62881Z"/>
    <path class="b36ef9a0-3ffc-4cde-99e2-fb5fdce462d5" d="M90.25855,46.20161c1.0879-.1406,1.7061-.9712,1.5205-2.3325-.1855-1.3604-1.0039-2.0015-2.0908-1.8589-1.0986.1421-1.706.9721-1.5195,2.333C88.35425,45.70351,89.161,46.34511,90.25855,46.20161Z"/>
  </g>
</svg>
