<svg id="b2bb820e-dc24-41a4-bcd9-4a9e0ba1fd81" data-name="Layer 1" xmlns="http://www.w3.org/2000/svg" width="128" height="128" viewBox="0 0 128 128">
  <defs>
    <style>
      .e235ef1d-ef70-44d8-899d-365e4930a826 {
        fill: #1d1d1b;
      }
    </style>
  </defs>
  <title>018</title>
  <g>
    <path class="e235ef1d-ef70-44d8-899d-365e4930a826" d="M50.05954,73.42411c-.2529-.313.06351-2.0776-.68849-3.4605-.75871-1.3833-4.09181-1.5087-4.40331-1.0664-.3174.4375,1.7588,1.5743,1.3828,2.6416-.3799,1.0684-4.9668,1.5723-4.9716,1.8824,0,.3159,3.5263.6928,3.3994,1.2583-.126.5673-2.8955,1.5732-3.0176,1.9687-.127.4009,2.5791-.019,2.6406.5474.0635.5659-1.8906,1.4458-2.0146,1.7641-.126.314,11.2236.1836,12.0752-.0029.5185-.1138.1914-4.3989-.25-4.7183C53.77144,73.926,50.31054,73.73711,50.05954,73.42411Z"/>
    <path class="e235ef1d-ef70-44d8-899d-365e4930a826" d="M60.37594,49.73271c.3379-1.4619-1.5635-1.5689-1.874-.4336C58.19234,50.426,60.13674,50.73421,60.37594,49.73271Z"/>
    <path class="e235ef1d-ef70-44d8-899d-365e4930a826" d="M83.70894,68.32941c-.37789.5683.503,2.7021-2.0146,5.8486-2.3037,2.8809-5.666,1.8511-7.083,1.4697a1.69008,1.69008,0,0,1,.1328-1.2031c.5683-.6606,2.9267.0928,4.3057-1.3286,2.2558-2.334,6.7304-29.6143,1.9208-31.7822a31.47215,31.47215,0,0,0-4.97159-1.7622,4.81269,4.81269,0,0,0,.22069-3.5157c-.5938-1.9277-2.4453-3.0454-2.8496-2.7744-.4053.2715,1.20891,2.1489-.1368,3.9707a5.08441,5.08441,0,0,0-.8535,1.5645,37.456,37.456,0,0,0-16.9912,1.3369,4.6398,4.6398,0,0,0-1.2431-1.4741c-1.7129-1.4854-.5459-3.6685-1-3.8453-.4541-.1782-2.0196,1.315-2.1758,3.3252a4.79646,4.79646,0,0,0,1.0049,3.4122c-1.7344.9028-2.836,1.8652-3.0762,2.6875-1.0371,3.4902,1.2265,23.8652,4.2451,24.0566,3.01951.1846,12.5469-2.6416,12.5469-.2866.0019,2.3593-4.3428.9448-5.8506,1.7002-1.50679.7539-.9453,2.5444-.6895,3.6797.2559,1.1284,8.4239-.0928,9.55671.3764.51759.2154.46779.8628.36229,1.669-2.3838.0918-11.6699.4541-12.2178.6743a1.15332,1.15332,0,0,0-.375,1.6997c.2686.2129,9.8389-.5483,12.47751-.7651a2.63877,2.63877,0,0,0,.41309,1.436,2.90251,2.90251,0,0,0,.2598.3276c.0498,2.1221.3428,14.4932.49411,15.189.16209.7632.86919.9795,1.085.4551.13569-.3243-.38381-11.6343-.53711-15.0147a3.71327,3.71327,0,0,0,2.6904-.3608c.0742,2.9751.3301,11.9219.4639,12.4751.1641.6577.8662.8457,1.084.3935.1504-.3115-.4785-12.0464-.5635-13.6479a1.99213,1.99213,0,0,0,.3311-.8945,14.53852,14.53852,0,0,0,7.0175-1.2754c3.5869-1.7461,3.6524-7.2535,3.76271-7.8174C85.55664,67.76391,84.08784,67.76151,83.70894,68.32941Zm-19.4228-12.3282c-.4043.1319-6.2022.8975-7.084.8907-.8838-.0064-.9668-1.4019-.7227-1.521.4844-.2344,7.0284-.9771,7.6348-.9825C64.71484,54.38451,64.68844,55.86351,64.28614,56.00121Zm-2.0889-11.3169c.7754.2818.6631,1.5074.2383,1.5547-.4248.0459-3.3506-.6601-3.1592,1.0381.0733.668,3.1592-1.0381,3.5811,3.1123.30561,2.9365-5.9903,2.4043-6.4961-1.4599C55.85154,45.06031,61.56444,44.44951,62.19724,44.68431Zm-7.5986,18.9429c-.4238-2.7627,3.1142-2.6865,3.5351-.5425C58.55074,65.22831,54.89254,65.52131,54.59864,63.62721Zm7.7031-1.6147c-.6992.1543-5.0186-2.6973-4.9551-3.0664.0449-.273,7.0479-1.273,7.2901-1.1499C64.87305,57.91971,62.99994,61.86351,62.30174,62.01251Zm9.2256.2231c-.5781,2.4019-5.2451,1.6333-4.4844-1.0732C67.80564,58.45971,72.36234,58.74,71.52734,62.23561Z"/>
    <path class="e235ef1d-ef70-44d8-899d-365e4930a826" d="M84.32424,65.01391c-.377,1.3638,1.9697,1.7359,2.248.5269C86.98144,63.78251,84.69434,63.656,84.32424,65.01391Z"/>
  </g>
</svg>
