<svg id="e6271941-6694-4e5f-8e14-42a8b94b1429" data-name="Layer 1" xmlns="http://www.w3.org/2000/svg" width="128" height="128" viewBox="0 0 128 128">
  <defs>
    <style>
      .ffddf621-86ee-4834-97ca-f8e4bad7908f {
        fill: #1d1d1b;
      }
    </style>
  </defs>
  <title>019</title>
  <g>
    <path class="ffddf621-86ee-4834-97ca-f8e4bad7908f" d="M62.72375,50.08319a.7652.7652,0,1,0,.74511.7676A.69324.69324,0,0,0,62.72375,50.08319Z"/>
    <path class="ffddf621-86ee-4834-97ca-f8e4bad7908f" d="M65.30965,50.20679a.64071.64071,0,1,0,.6514.6508A.59764.59764,0,0,0,65.30965,50.20679Z"/>
    <path class="ffddf621-86ee-4834-97ca-f8e4bad7908f" d="M79.58605,58.59449c-.4463-.6573-1.8438-.3077-2.9239-.9419-1.08-.6265-.3916-3.8038-1.5898-3.5401-1.1914.2686-.044,3.3589-.5322,4.169-.4834.81-2.03129.2578-1.8174,1.4492.2139,1.1987,1.751.3877,2.1582,1.3125.37891.8408.7422,6.0137-3.5244,7.3862-.666-8.3784-2.0645-19.812-1.2989-21.06,1.1524-1.8858,4.7559-1.4566,4.9239-2.8277.4677-3.7568-6.38969,1.4688-6.3916-2.0918.00191-3.5664,9.0576-2.581,8.8017-6.1831-.1552-2.167-6.7539-2.9048-11.8506-.8667-.7138-.8852-1.90819-2.2275-2.0996-2.1728-.2148.0581-.2724,2.2148-.2011,3.3764a8.46144,8.46144,0,0,0-2.0196,1.8555c-1.1513-.521-3.6181-1.4658-3.7783-1.3042-.1758.1904,1.81841,3.1377,2.4981,3.8872-2.01469,6.0186-2.7051,19.0225-2.3194,27.8672-4.94629-.8325-4.8301-6.4419-4.4785-7.3462.36821-.9399,1.9346-.2065,2.0947-1.4106.1534-1.2095-1.3652-.5782-1.8838-1.3638-.5244-.7857.4707-3.9287-.7343-4.1397-1.2032-.2065-.3711,2.9356-1.4131,3.6182-1.0518.6768-2.4678.396-2.8809,1.0776-.4209.6778-.4189,2.9537.10161,3.3213.52439.3662,1.04589.0743,1.30759.4405.2627.3662.8291,4.4668,2.2041,5.8418,1.1074,1.1049,4.418,1.9233,5.8106,2.2236.2304,3.2656.63471,5.6758,1.1992,6.4731a5.19634,5.19634,0,0,0,3.331,1.8081c1.0879,4.8296-2.2539,15.0225-.6279,15.3145,1.6211.2925,3.6533-9.2817,2.2998-15.1196a13.51193,13.51193,0,0,0,4.7178-.626c.6543,3.9419-2.3067,11.1875-.7578,11.4014,1.6445.226,3.7177-7.5166,2.22461-12.0435a3.09887,3.09887,0,0,0,1.28509-1.2598c.3496-.7597.3115-3.2441.0967-6.478,1.5811-.4604,4.0381-1.3027,4.9229-2.2768,1.3086-1.4449,1.6699-5.5674,1.914-5.9444.2422-.3818.7822-.1142,1.292-.5024C80.15045,61.52459,80.03915,59.25609,79.58605,58.59449Zm-9.168-21.6543c.3232-1.1299,2.38381-.9893,2.0361.476C72.22175,38.42839,70.10455,38.07589,70.418,36.94019Zm-3.7373,1.2544c.3203-1.1373,2.3809-.9961,2.04.4746C68.48245,39.67549,66.36625,39.32829,66.68075,38.19459Zm-3.5957,1.5688c.3203-1.1309,2.38181-.9897,2.04.4751C64.88675,41.25169,62.77055,40.89869,63.08505,39.76339Zm2.1621,34.4224c-.2949,1.2534-2.9229.8188-2.53029-.5889C63.11045,72.18919,65.66905,72.36109,65.24715,74.18579Zm.0488-3.6636a2.65663,2.65663,0,0,1-2.0967.001c-.4238-.2115-1.52239-7.9121-1.2558-8.3824.2637-.4878,3.9805-1.3086,4.1885-.6826C66.34086,62.08809,65.76475,70.156,65.296,70.52219Zm-3.0166-16.1528a28.4672,28.4672,0,0,1,3.0303,0c.127.0605-.1201,2.3222-1.5186,2.3222C62.39945,56.68919,62.14555,54.42989,62.27935,54.36939Zm5.4707-3.5816c-.0967,1.7764-1.122,1.8706-3.7099,1.8569-2.5938-.0131-3.5752.1343-3.5772-1.7456-.0039-1.7089.9854-1.3808,3.5772-1.396C66.62415,49.49529,67.83605,49.30489,67.75005,50.78779Z"/>
  </g>
</svg>
