<svg id="fdf0b626-89fa-4193-ac14-f8c144c36be4" data-name="Layer 1" xmlns="http://www.w3.org/2000/svg" width="128" height="128" viewBox="0 0 128 128">
  <defs>
    <style>
      .f20f40b7-0d55-4bc5-84ef-3674b0a5ab5d {
        fill: #1d1d1b;
      }
    </style>
  </defs>
  <title>020</title>
  <g>
    <path class="f20f40b7-0d55-4bc5-84ef-3674b0a5ab5d" d="M86.57949,65.03433c-2.5879-.043-1.1124,4.0737-1.4961,4.4712-.3331.3476-15.9288,1.3716-20.002,1.6343-.4268-2.7764-1.0625-6.5889-1.6748-10.3179,5.0332-.2735,22.2861-1.8428,22.8008-2.5664.5937-.8262.79981-7.2139-1.8975-7.2569-2.6982-.0434-1.1592,4.0704-1.55269,4.4703-.32811.3256-14.74611,1.2534-19.96391,1.58-.7549-4.6914-1.3144-8.5439-1.126-8.937.4981-1.0366,3.4913-1.6562,5.4805-.458,1.9942,1.1929.2002,3.6841,1.3936,4.7808,1.2002,1.0952,10.8623-.1983,11.9619-1.0957,1.0928-.8975-.3399-13.1387-4.4844-15.8418-2.2959-1.4956-20.92869-2.294-27.30569,2.5488-3.03321,2.3008-3.04491,10.9165-2.07711,19.4614-.9863.2969-2.0645.7188-2.9014-.1889-1.1953-1.2964.1797-17.2325-2.6523-17.1387-2.8321.0976-2.0498,18.2197,0,19.8726a8.24181,8.24181,0,0,0,6.0625,1.3422c1.1621,7.9566,2.9336,14.9654,3.5654,15.5508a1.08563,1.08563,0,0,0,.3467.1953c1.5449,1.6006,10.1435,5.5708,9.9785,6.6236-.166,1.0532-6.4971,5.2046-6.418,6.3701.0762,1.1626,4.459,3.7485,5.55571,3.5014,1.09859-.248,2.48539-.9438,2.18949-1.7417-.2969-.7973-2.4854-.6308-2.4864-1.7597-.0019-1.1289,6.1153-7.023,5.4981-8.0611-.4668-.7871-4.5449-3.7021-6.5049-5.0786,3.3838-.4404,6.542-1.1631,6.6855-1.7436a1.64062,1.64062,0,0,0,.0108-.353c2.9961-.0538,22.2978-1.8233,22.8379-2.6065C88.97109,71.46843,89.16829,65.08163,86.57949,65.03433Zm-12.792-18.1011c2.8798-.1963,4.1386-.123,4.21971,1.1646.09859,1.4702-1.11721,2.1684-3.99421,2.3364-2.8779.1733-4.0195-.4258-4.0996-1.689C69.82549,47.35653,70.91049,47.13053,73.78749,46.93323Zm-24.1924,1.189c-.2295-.3755,1.0908-.8599,2.7138-1.23-.0839-.4697-.1669-.9385-.2441-1.3931-1.47559-.0298-2.7734-.2348-2.9404-.646-.1856-.4507,1.1191-.7529,2.6924-.8764-.4444-2.9336-.5782-5.1035.1845-4.8433.9043.3062,1.7754,2.1372,2.5596,4.8193,1.2148.0806,2.1494.293,2.1494.6573,0,.3315-.74509.5761-1.7705.7256.0879.3461.1768.7094.2617,1.0766,1.2744-.1313,2.2696-.0991,2.3018.229.0312.3203-.8438.6944-2.0196,1.0117,2.1016,9.75,3.2403,24.6294,1.9766,26.9117-.3896.7016-3.28909-2.3965-3.28909-2.9986,0-.5962-.00291-11.272-.14941-14.7178-.0683-1.4736-.7988-5.0522-1.4619-8.6132C51.08039,48.42983,49.8002,48.44793,49.59509,48.12223Z"/>
    <path class="f20f40b7-0d55-4bc5-84ef-3674b0a5ab5d" d="M72.48179,49.38053a.85529.85529,0,1,0-.8809-.7998A.76864.76864,0,0,0,72.48179,49.38053Z"/>
    <path class="f20f40b7-0d55-4bc5-84ef-3674b0a5ab5d" d="M75.32459,49.05633a.71587.71587,0,1,0-.7725-.6773A.66874.66874,0,0,0,75.32459,49.05633Z"/>
  </g>
</svg>
