<svg id="f33592c2-a49a-4abc-81fe-1b3ca01650fd" data-name="Layer 1" xmlns="http://www.w3.org/2000/svg" width="128" height="128" viewBox="0 0 128 128">
  <defs>
    <style>
      .b4f6ffcb-6a00-44c8-934d-f5387f552c7b {
        fill: #1d1d1b;
      }
    </style>
  </defs>
  <title>021</title>
  <g>
    <path class="b4f6ffcb-6a00-44c8-934d-f5387f552c7b" d="M64.0074,41.03893c-12.3516-.0029-18.9991,6.2408-18.9991,15.8042,0,6.3052,2.8907,11.1695,8.3994,13.7476-.0185,2.5088.1055,13.689,2.25491,13.5703,1.87009-.0986,2.22759-8.3926,2.29589-12.0893a29.80977,29.80977,0,0,0,6.0469.5874,29.40291,29.40291,0,0,0,7.0596-.8047c.05861,5.0586.4277,15.2363,2.2422,15.1054,2.1132-.1523,2.2998-13.5161,2.3105-16.8828,4.8428-2.6889,7.373-7.3291,7.374-13.2329C82.9917,47.28023,76.3579,41.02873,64.0074,41.03893Zm.0156,24.8736c-5.6367.0029-10.2061-3.1074-10.1992-8.1822-.0049-5.0737,4.5625-8.1806,10.2002-8.1738,5.6328-.0044,10.1552,2.0767,10.1552,8.3906C74.1802,63.08043,68.5972,65.91783,64.023,65.91253Z"/>
    <path class="b4f6ffcb-6a00-44c8-934d-f5387f552c7b" d="M61.5191,56.994c-.0049,5.0318,7.97751,5.0362,7.97951-.0073C69.4917,51.95793,61.522,51.95153,61.5191,56.994Z"/>
  </g>
</svg>
