<svg id="b5c49acc-53b4-46c3-82ac-804280da5e6a" data-name="Layer 1" xmlns="http://www.w3.org/2000/svg" width="128" height="128" viewBox="0 0 128 128">
  <defs>
    <style>
      .b5d39b5c-c080-4712-a027-60dbd796bf3c {
        fill: #1d1d1b;
      }
    </style>
  </defs>
  <title>022</title>
  <g>
    <path class="b5d39b5c-c080-4712-a027-60dbd796bf3c" d="M49.83962,67.77851c.249,2.0561,3.1884,1.7139,2.8486-.6109C52.33862,64.85561,49.49192,64.79311,49.83962,67.77851Z"/>
    <path class="b5d39b5c-c080-4712-a027-60dbd796bf3c" d="M70.25462,74.18821c.2353,2.0576,3.1875,1.7055,2.8379-.6094C72.74092,71.25651,69.89422,71.19351,70.25462,74.18821Z"/>
    <path class="b5d39b5c-c080-4712-a027-60dbd796bf3c" d="M75.46062,48.04611a1.73277,1.73277,0,1,0,1.97171,1.3857A1.57042,1.57042,0,0,0,75.46062,48.04611Z"/>
    <path class="b5d39b5c-c080-4712-a027-60dbd796bf3c" d="M77.50172,79.26681c.163,3.3222,2.1533,2.7592,1.9248-.9878C79.195,74.52261,77.25852,74.42641,77.50172,79.26681Z"/>
    <path class="b5d39b5c-c080-4712-a027-60dbd796bf3c" d="M90.17652,41.97671c-4.3868-3.3291-49.4727-.6782-54.0596,4.7403-2.6641,3.1528-4.6914,9.1157,1.0986,14.3842,2.1631,1.9693,10.042,1.6529,19.2237.4136-.0254,3.6421.0839,14.6201,2.3779,14.0039,2.2725-.6225,1.0557-10.8369.5557-14.4189,1.5263-.2359,3.0839-.4839,4.6298-.7486-.0322,4.9366.0479,23.8091,2.4268,22.7911,2.3242-1.0049.9102-18.1661.4336-23.2964.8662-.1548,1.7187-.315,2.5635-.4751.0029,3.312.2666,10.1841,2.3564,9.7446,2.1221-.4434,1.2168-7.2476.6836-10.3452,1.2822-.2471,2.5293-.5088,3.7461-.7671-.0059,4.5029.208,15.2881,2.3916,14.6357,2.1836-.6513,1.1338-11.0097.6025-15.2802,1.4014-.3077,2.7403-.6084,3.9942-.9097l-.1729.0679s-.2509,32.434,2.4864,30.9238c2.5683-1.416.5166-28.3735.2568-31.5996,1.4639-.3521,2.7559-.6851,3.8203-.9663.0234,3.4057.2637,9.8681,1.8877,9.4492,1.6445-.4292.9805-6.9707.5469-10.1475.3593-.1079.626-.2026.7793-.2675C95.95872,52.506,94.55242,45.31751,90.17652,41.97671Zm-29.3243,7.1909c-.2587.2686-5.5234,4.7437-5.3378,5.1744.1982.4389,4.3242-.4356,4.4052.0058a10.44709,10.44709,0,0,1,.0948,2.8032c-.1827.087-9.3799,1.6612-9.8233,1.316-.4414-.3545-.2676-3.4161-.0937-3.8575.1757-.4414,7.0195-5.2622,6.67091-5.6167-.35651-.3462-6.84671.7212-7.36721.5381-.5293-.1811-.8584-2.6992-.4346-2.8105.8662-.251,10.6074-1.6358,11.3057-1.2803C60.96942,45.78631,61.12082,48.90791,60.85222,49.16761Zm18.6084,4.0249c-5.7548,1.064-8.206.1416-8.6845-2.3667-.5176-2.7763,1.61621-3.4995,7.36621-4.6206,5.75-1.1088,8.30469-1.2753,8.789,1.2925C87.487,50.43181,85.21462,52.12031,79.46062,53.19251Z"/>
    <path class="b5d39b5c-c080-4712-a027-60dbd796bf3c" d="M81.25462,47.237a1.45,1.45,0,1,0,1.7344,1.1631A1.35483,1.35483,0,0,0,81.25462,47.237Z"/>
    <path class="b5d39b5c-c080-4712-a027-60dbd796bf3c" d="M90.29372,70.49141c.249,3.3232,3.1865,2.7612,2.8388-.9829C92.79562,65.755,89.945,65.65451,90.29372,70.49141Z"/>
  </g>
</svg>
