<svg id="acfb237a-1624-43be-bd57-cbb8e633bde8" data-name="Layer 1" xmlns="http://www.w3.org/2000/svg" width="128" height="128" viewBox="0 0 128 128">
  <defs>
    <style>
      .ad1ac7be-0941-4000-8d3e-de5da117e4ae {
        fill: #1d1d1b;
      }
    </style>
  </defs>
  <title>023</title>
  <path class="ad1ac7be-0941-4000-8d3e-de5da117e4ae" d="M86.73953,46.60906c-.18458-.0811-2.0547-.2046-4.95209-.3453-.3331-.9965-3.9297-11.6347-5.1153-11.6298-.9053-.0025-2.2793,7.3364-2.9629,11.3227-5.4179-.1782-11.7461-.3218-17.3896-.3359,0,0-3.9043-6.9053-5.1475-6.9073-.9443.0005-2.4004,4.7344-3.0429,6.9898-4.2237.1201-7.0899.3994-7.2862.9014-.666,1.7187.1035,14.5463,9.58991,20.9111-.35451.8193-.06551,20.6611.19719,21.8701.26081,1.2095,3.7823,3.0669,4.294,1.7144.4961-1.3072.3203-19.0933.1582-21.3052a23.81417,23.81417,0,0,0,6.4277,1.2182c-.0244,6.1714.1777,16.3296.3604,17.1836.2548,1.2173,4.2968,1.7207,4.8086.3682.4062-1.085.0302-12.4634-.2227-17.6431a34.23155,34.23155,0,0,0,4.459-.686c-.1778,2.5615-.5889,20.2959-.0879,21.7842.5244,1.5381,4.4726,1.8476,4.7158.4595.22071-1.2188.334-18.9571.1055-23.7671a20.6685,20.6685,0,0,0,2.7471-1.4307c.1103,5.3481.57611,16.4976.9814,17.5537.5273,1.3462,3.3906.6035,3.63771-.6103.21779-1.1016.33589-17.3125.08889-21.1079C88.71513,56.07,87.343,46.86436,86.73953,46.60906ZM53.676,56.31746c-1.2607-1.1948-1.1269-5.0556.0733-6.2495.8632-.8672,7.9785-.4023,8.6425-.0019.66611.4009.9844,5.5884.4532,6.1196C62.31574,56.716,54.93774,57.51916,53.676,56.31746Zm22.376,2.2574c-.4824.5918-6.7939.8833-7.4434.4155-.6494-.4746-1.625-7.0166-.1728-8.1377,1.457-1.1279,6.1494-1.0166,7.6064.0469C77.096,51.66516,76.53544,57.98156,76.052,58.57486Z"/>
</svg>
