<svg id="adcbf95d-b6ed-492b-be50-56d63717eca7" data-name="Layer 1" xmlns="http://www.w3.org/2000/svg" width="128" height="128" viewBox="0 0 128 128">
  <defs>
    <style>
      .ad362fb5-25f2-47a3-92c3-e381912ce326 {
        fill: #1d1d1b;
      }
    </style>
  </defs>
  <title>024</title>
  <path class="ad362fb5-25f2-47a3-92c3-e381912ce326" d="M72.74114,78.659c.4932.6738,1.001,1.0835,1.5527,1.065,7.4493-.2266,15.2871-27.21,12.8721-39.7788-2.415-12.5704-18.1738-5.3731-23.1074-4.9903-4.9307.3696-21.749-6.3901-23.46389,6.2935-1.71681,12.6811,7.624,39.1845,15.083,38.999.63479-.0176,1.17969-.5947,1.69049-1.4893.0087.3877.01751.7749.0322,1.1621a106.463,106.463,0,0,0,1.0791,11.357c-4.7207.4643-4.6983,3.3183-4.6221,4.0117a.18039.18039,0,0,0,.1748.1519h9.794a.176.176,0,0,0,.1699-.1519,4.19013,4.19013,0,0,0-.9678-3.2974A105.05762,105.05762,0,0,1,60.72065,79.658c-.26271-2.1684-.44531-4.3476-.50881-6.5244-.0107-.3759-.0127-.7495-.0176-1.125,1.0996-2.4497,2.4463-4.4819,4.4395-4.4384,2.3066-.1783,3.9053,2.4873,5.2637,5.3671-.001.0655,0,.1309-.002.1963-.0635,2.1768-.2461,4.3565-.5107,6.5244a105.05359,105.05359,0,0,1-2.3057,12.3335,4.194,4.194,0,0,0-.9678,3.2974.17615.17615,0,0,0,.1709.1519h9.792a.1788.1788,0,0,0,.1748-.1519c.0762-.6934.0996-3.5474-4.6221-4.0117a106.7212,106.7212,0,0,0,1.0811-11.357C72.72354,79.49941,72.73334,79.07851,72.74114,78.659Zm-20.2158-25.4448c-.4893-10.4053,9.61231-13.9863,10.1992-1.896C63.29974,63.39291,52.77634,58.23911,52.52534,53.21421Zm13.914-2.1816c-.414-8.4073,6.8477-6.6031,7.1934.6391C73.79684,55.17711,66.83884,59.453,66.43934,51.03261Z"/>
</svg>
