<svg id="b453cac6-5586-440d-950b-d2ad97180ede" data-name="Layer 1" xmlns="http://www.w3.org/2000/svg" width="128" height="128" viewBox="0 0 128 128">
  <defs>
    <style>
      .b9645909-e56d-458c-b244-c756ec41cf77 {
        fill: #1d1d1b;
      }
    </style>
  </defs>
  <title>025</title>
  <path class="b9645909-e56d-458c-b244-c756ec41cf77" d="M74.35409,38.3852c-5.5556-.2085-7.7197,3.1816-11.48139,3.5146-3.76471.3374-6.46191-2.6928-11.90721-1.5674-5.4444,1.1221-12.1485,9.083-10.0157,19.4356,2.1338,10.355,11.8721,34.1157,20.7627,29.1929,2.5391-1.4078-7.5791-10.8457,4.0664-12.0982,11.6914-.686,3.2666,10.2915,6.003,11.2617,9.582,3.3882,15.2636-21.6557,15.6601-32.2202C87.83649,45.3407,79.90979,38.5956,74.35409,38.3852Zm3.7871,13.393c0,5.7217-8.2509,5.1856-8.2509.1685C69.89029,47.4018,78.14119,46.5605,78.14119,51.7782Zm-2.1884,6.4204a1.56134,1.56134,0,0,1-3.12109.0645C72.8317,56.5419,75.95279,56.2245,75.95279,58.1986Zm-8.3887-6.2973c0,3.0395-4.3799,2.7529-4.3799.0893C63.18419,49.578,67.56409,49.1313,67.56409,51.9013Zm3.8281,7.7988c0,5.8623-9.6387,6.4902-9.6387-.1977C61.75349,53.4057,71.39219,54.3891,71.39219,59.7001Zm-8.8721-9.8628c0,2.1607-3.5498,2.3906-3.5498-.0722C58.97029,47.5185,62.52009,47.8818,62.52009,49.8373ZM61.3697,54.0439c0,2.2041-3.623,2.4399-3.623-.0738C57.7467,51.6777,61.3697,52.0483,61.3697,54.0439Zm-5.29191-1.1236c0,4.0664-6.6836,4.502-6.6836-.1362C49.39419,48.5566,56.07779,49.2382,56.07779,52.9203Zm-9.7364,10.708c0-2.2924,3.6241-1.9228,3.6241.0733C49.96549,65.9067,46.34139,66.141,46.34139,63.6283Zm.86231-5.0625c0-2.4121,4.38189-2.8588,4.38189-.0883C51.58559,61.5165,47.2037,61.2309,47.2037,58.5658Zm4.38189,8.0728c0-2.2441,3.5478-1.8818,3.5478.0727C55.13339,68.8715,51.58559,69.102,51.58559,66.6386Zm1.1504-5.3731c0-4.3173,6.8222-3.6215,6.8222.1377C59.55819,65.5546,52.736,65.998,52.736,61.2655Zm5.4502,5.6265c0-3.2378,5.1181-2.7163,5.1181.1055C63.30429,70.1108,58.18619,70.4418,58.18619,66.892Zm6.3437,1.7061c0-2.2442,3.5479-1.8833,3.5479.0722C68.07779,70.83,64.52989,71.061,64.52989,68.5981Zm5.3604-2.1783c0-3.2382,5.8789-3.8383,5.8789-.1211C75.76919,70.3774,69.89029,69.9945,69.89029,66.4198Zm5.89941-3.8305c0-2.292,3.624-1.9219,3.624.0742C79.4137,64.8676,75.7897,65.1029,75.7897,62.5893Zm1.81149-4.0225c0-2.4131,4.3809-2.8598,4.3809-.0893C81.98209,61.5165,77.60119,61.2309,77.60119,58.5668Z"/>
</svg>
