<svg id="ad2a7b2d-8e82-4e18-b883-04184bc82c98" data-name="Layer 1" xmlns="http://www.w3.org/2000/svg" width="128" height="128" viewBox="0 0 128 128">
  <defs>
    <style>
      .acade4ac-5f84-4daa-a904-4308cc5e453e {
        fill: #1d1d1b;
      }
    </style>
  </defs>
  <title>026</title>
  <g>
    <path class="acade4ac-5f84-4daa-a904-4308cc5e453e" d="M79.06288,43.169c-10.5235-1.5025-11.8975,5.5088-16.0274,4.8135-4.1279-.688-6.4453-6.2461-15.0508-4.5533-8.6054,1.6924-10.3515,23.2569-6.5693,26.4024,1.0918.9072,7.3506,1.4238,14.8682,1.5898-.4766,1.6602-1.127,4.0117-1.253,4.7701-.1816,1.1215-.1738,5.8457-.1738,5.8457a5.5257,5.5257,0,0,0-2.7109.4086,2.95139,2.95139,0,0,0-1.208,1.1788c-.1856.33-.1202.6479.2568.684l7.7568.7305c.378.0366.3965-.2139.3379-.5952a62.695,62.695,0,0,1-.333-7.8799c.0762-.9829.4278-3.668.6211-5.0972,2.7354.023,5.55861-.0004,8.2998-.0605.0684,1.4707.17481,3.9917.167,4.9292a64.39519,64.39519,0,0,1-1.0283,7.8247c-.0947.3706-.1006.6196.2842.6221l7.7861-.0489c.38281-.0053.4775-.3125.3193-.665a2.92891,2.92891,0,0,0-1.0976-1.269,5.53876,5.53876,0,0,0-2.666-.6538s.4297-4.7032.3349-5.834c-.0566-.7852-.5185-3.3072-.8515-5.0025,7.541-.2812,13.8603-.8979,15.0244-1.8188C90.22009,66.28234,89.58728,44.67784,79.06288,43.169ZM50.97109,54.57674c-3.97271.4966-5.669-.6807-6.01571-3.2656-.3837-2.8633,1.087-3.3789,5.0596-3.9307,3.9658-.56,5.7373-.4702,6.0928,2.1724C56.50718,52.58264,54.95248,54.07134,50.97109,54.57674Zm25.32419.6338c-4.65719.5976-6.6133-.5483-6.961-3.1416-.3828-2.8555,1.3506-3.4102,5.9971-4.0562,4.6563-.6411,6.72071-.5957,7.0762,2.0538C82.809,53.08994,80.95148,54.61774,76.29528,55.21054Z"/>
    <path class="acade4ac-5f84-4daa-a904-4308cc5e453e" d="M48.17709,48.96984c-.73831.103-1.04291.8442-.90331,1.9048.1396,1.06.6318,1.6987,1.3711,1.604.7383-.1016,1.042-.8418.9033-1.9102C49.40758,49.51524,48.91338,48.87554,48.17709,48.96984Z"/>
    <path class="acade4ac-5f84-4daa-a904-4308cc5e453e" d="M52.17609,48.72954c-.61521.0728-.95311.6324-.831,1.5821.12209.957.58489,1.4228,1.19919,1.3515.6221-.0727.9531-.6255.8379-1.5835C53.26009,49.12314,52.79038,48.65824,52.17609,48.72954Z"/>
    <path class="acade4ac-5f84-4daa-a904-4308cc5e453e" d="M73.15558,49.65784c-.8691.1167-1.2422.8657-1.10249,1.9272.13769,1.0596.70209,1.6899,1.56249,1.5732.8691-.1093,1.2422-.8662,1.1016-1.9282C74.57948,50.17054,74.02278,49.54064,73.15558,49.65784Z"/>
    <path class="acade4ac-5f84-4daa-a904-4308cc5e453e" d="M77.84018,49.32284c-.7227.0859-1.1318.6558-1.0088,1.6123.1153.9502.6524,1.4077,1.3672,1.3281.7227-.0888,1.1309-.6567,1.0068-1.6142C79.09309,49.69834,78.55409,49.23394,77.84018,49.32284Z"/>
  </g>
</svg>
