<svg id="a091962d-0e0d-4b3d-a7a3-a82dc29692b1" data-name="Layer 1" xmlns="http://www.w3.org/2000/svg" width="128" height="128" viewBox="0 0 128 128">
  <defs>
    <style>
      .a01e357d-2306-477a-a2d7-3cd88a46f7fe {
        fill: #1d1d1b;
      }
    </style>
  </defs>
  <title>027</title>
  <path class="a01e357d-2306-477a-a2d7-3cd88a46f7fe" d="M96.34264,65.35478c-.5269-.0356-3.7988.3228-2.7119-1.0273a24.19028,24.19028,0,0,1,3.1367-2.4864.9352.9352,0,0,0-.3569-1.6889c-.5288-.0899-1.1221.4204-1.5284.6709-.2915.1801-3.2182,2.5869-3.3168,1.3833-.1006-1.2242,1.0634-2.7022,1.5341-3.8121.3003-.7084.0435-1.8652-1.0293-1.5117-.4863.1592-.7597.8238-.9956,1.2163-.5674.9375-1.146,2.5508-2.0898,3.1895-2.6226,1.771-1.7446-.9966-2.7446-2.4326a1.13819,1.13819,0,0,0-2.0982.6484c.0176,1.1543.7515,2.1489.8994,3.2964.2906,2.2461-.8174,3.7847-2.7099,5.061a41.59307,41.59307,0,0,1-5.41019,3.6719,19.91382,19.91382,0,0,1-4.65621,1.5479,14.20119,14.20119,0,0,0-.3711-3.815c3.6255-1.0962,6.479-2.6465,7.4116-4.4863,2.6323-5.1675-5.0532-18.0952-17.2241-16.6099-12.1729,1.4781-16.5987,16.2666-12.6084,20.2549,1.5805,1.5879,4.8061,2.3843,8.58,2.5659a30.55209,30.55209,0,0,0-.0551,3.5054,24.54985,24.54985,0,0,1-6.1641-.9463,41.73557,41.73557,0,0,1-5.8887-2.8423c-2.059-.9863-3.37889-2.3462-3.41989-4.6108-.02151-1.1572.55909-2.2481.40819-3.3926a1.13856,1.13856,0,0,0-2.1709-.335c-.77929,1.5665.49371,4.1773-2.3594,2.8077-1.0273-.4937-1.83589-2.0049-2.5332-2.8496-.291-.354-.65869-.9707-1.1626-1.0582-1.1128-.1928-1.1987.9888-.7973,1.646.6274,1.0298,1.9956,2.3218,2.0737,3.5469.0786,1.2046-3.1689-.7485-3.4834-.8833-.4385-.1889-1.0996-.6069-1.6094-.4414a.9352.9352,0,0,0-.1059,1.7232,24.33815,24.33815,0,0,1,3.4658,2.0014c1.2729,1.1763-2.0161,1.3008-2.5332,1.4126-1.8252.397-1.5645,2.1099.2939,1.8926,1.05571-.1226,2.8555-.4497,3.9751.0127,4.2178,1.7383,4.6245.9932,6.2964,1.6362,2.8521,1.0982,5.336,2.8931,8.3311,3.5313a51.875,51.875,0,0,0,7.7119.4336c.1973,1.0229.4868,1.7822.896,1.9497,1.5185.6269,11.665-.2476,12.38621-.8106a5.51627,5.51627,0,0,0,.51169-2.3818,52.44842,52.44842,0,0,0,6.5625-1.4258c2.8706-1.0688,5.065-3.208,7.7261-4.7109,1.5596-.8809,2.0713-.2027,5.9902-2.5391,1.0396-.6211,2.8677-.5591,3.9302-.5928C98.19864,67.21268,98.20694,65.47978,96.34264,65.35478Zm-39.1255-.5313c-.3032-3.893,4.312-5.415,4.667-.9008C62.23864,68.44558,57.37144,66.70148,57.21714,64.82348Zm7.12211-1.0356c-.51031-6.4966,6.38229-5.3638,6.81979.2202C71.367,66.70588,64.848,70.26888,64.33925,63.78788Z"/>
</svg>
