<svg id="b135939d-7889-4be1-bfc1-c61f2dd22369" data-name="Layer 1" xmlns="http://www.w3.org/2000/svg" width="128" height="128" viewBox="0 0 128 128">
  <defs>
    <style>
      .b6756637-c273-42e0-a852-a993dcccdbb5 {
        fill: #1d1d1b;
      }
    </style>
  </defs>
  <title>028</title>
  <path class="b6756637-c273-42e0-a852-a993dcccdbb5" d="M77.37186,86.96141c-4.1402-.1812-7.6275,3.124-8.208,2.6885-.5821-.4356.0356-5.6299,0-7.7725-.0235-1.3355-.1153-4.3877-.1836-6.5024,9.7275-6.1885,22.4077-26.2349,18.7592-35.0972-4.3603-10.5796-43.5615-7.9199-47.2871-.3057-4.2773,8.7134,8.8228,29.4175,18.5972,35.5308-.0664,2.1074-.1562,5.0644-.1777,6.3745-.0376,2.1426.5805,7.3369,0,7.7725-.583.4355-4.0699-2.8697-8.211-2.6885-4.1411.1816-6.936,3.4497-6.936,5.5952,0,2.5771,1.2329,2.1416,9.4805,2.1416,8.247,0,9.0439-.3999,9.2622-1.0894.2177-.6904-.3643-9.5166-.3267-11.623.0166-1.0244-.0171-3.1406-.0561-5.0444a6.43632,6.43632,0,0,0,1.6801.2963,6.70013,6.70013,0,0,0,2.187-.3764c-.04,1.9243-.0756,4.0845-.0566,5.1245.0352,2.1064-.5449,10.9326-.3276,11.623.2187.6895,1.0151,1.0894,9.2627,1.0894,8.248,0,9.4804.4355,9.4804-2.1416C84.31076,90.41111,81.51346,87.143,77.37186,86.96141Zm-9.0767-33.832c.3423-.4903,7.3999-6.7754,8.2837-6.6714.7231.0888,2.731,5.977-1.6084,9.6738C70.618,59.84131,67.93826,53.61031,68.29516,53.12941Zm-12.3511,3.4667c-4.5732-3.124-2.9707-9.2417-2.2641-9.4257.875-.2281,8.3247,5.1352,8.7016,5.5693C62.76146,53.18791,60.51736,59.72111,55.94406,56.59611Zm3.0264,10.9532c-.3208-2.0772,1.9092-2.2368,4.8213-2.6763,2.9272-.4409,5.0908-.9517,5.4111,1.124.3086,2.0767-1.9101,2.2246-4.8359,2.667C61.45386,69.102,59.29026,69.625,58.97046,67.54931Z"/>
</svg>
