<svg id="bc2bcb24-6bb1-45b7-9f61-d57bada6d9e9" data-name="Layer 1" xmlns="http://www.w3.org/2000/svg" width="128" height="128" viewBox="0 0 128 128">
  <defs>
    <style>
      .e447670a-512f-4fb6-97c4-94b724a119dc {
        fill: #1d1d1b;
      }
    </style>
  </defs>
  <title>029</title>
  <path class="e447670a-512f-4fb6-97c4-94b724a119dc" d="M80.36538,46.92805c1.6079-1.5513,3.9174-4.3384,3.1816-6.9771-.5171-1.8408-6.5923-5.4092-7.917-3.7319-1.3198,1.6748,3.5615,2.5146,3.7988,5.1831a2.85927,2.85927,0,0,1-1.5424,2.6538,9.34729,9.34729,0,0,0-1.3819-1.2969c-2.1225-1.3389-4.6264-5.2646-19.7593-4.3545-2.3818.1431-6.6001,2.2368-8.6782,4.5396-1.1694-.375-2.8564-1.2212-2.8457-2.9742.0215-2.6782,4.8233-3.9057,3.3721-5.4702-1.4517-1.5634-7.2256,2.4785-7.5879,4.3516-.6113,3.1387,2.9282,6.1421,4.5078,7.3066a82.94876,82.94876,0,0,0-7.9731,14.9146c-1.4868,3.5307-2.8189,12.2456.3198,16.1308a5.41284,5.41284,0,0,0-1.3198,3.3853c-.084,2.0122,1.1938,3.5635,1.6328,3.4053.4394-.1631-.3936-2.3853,1.3511-3.8003a6.84509,6.84509,0,0,0,.9873-.9527,35.55058,35.55058,0,0,0,6.3471,1.7886c-.0405.0503.0127.0713.1709.0357.042.0087.0733.0146.1099.0205a53.65518,53.65518,0,0,0,.4897,9.0371c-.0771-.0137-.8691-.0972-.8691-.0972-.7876-.0469-1.4771.3359-1.5371.8511-.0645.5215,2.0556,1.0483,2.0664,1.0537.0044-.0054-1.8613.6704-1.6792,1.1782a1.76242,1.76242,0,0,0,1.8476.7227c.4053-.0537,1.8794.0039,2.1934-.0015a1.02794,1.02794,0,0,0,1.0894-1.3164,48.72673,48.72673,0,0,1-1.7325-11.0547c8.1578,1.5288,20.0425.7637,29.2144-.1225a67.51664,67.51664,0,0,1-.7441,11.2788,1.02912,1.02912,0,0,0,1.1909,1.2251c.3134-.0162,1.7768-.1954,2.1855-.1753a1.76158,1.76158,0,0,0,1.7842-.8687c.145-.5205-1.771-1.0434-1.7651-1.04.0053-.001,2.0771-.7002,1.9707-1.2105-.0972-.5112-.8145-.8413-1.5996-.7329,0,0-.7759.1494-.855.1675a83.3604,83.3604,0,0,0-.1963-8.8731,23.71209,23.71209,0,0,0,7.7866-2.2163c.0615.0484.1274.0962.1987.1436,1.8511,1.2725,1.2027,3.5527,1.6524,3.6772.4512.1255,1.5962-1.5224,1.3506-3.5258a5.98906,5.98906,0,0,0-.7334-2.1973,5.4938,5.4938,0,0,0,1.018-1.7393C94.38248,66.91725,85.78718,53.66625,80.36538,46.92805Zm-22.8467-2.3106a3.912,3.912,0,0,1,3.521,1.7065,2.70814,2.70814,0,0,0,1.4385.4024,3.64914,3.64914,0,0,0,1.3759-.4312,3.40251,3.40251,0,0,1,3.0562-1.3193c2.5058,0,3.8515,1.5708,3.8515,3.9746a3.871,3.871,0,0,1-4.0253,4.1641c-2.502,0-3.6734-1.7608-3.6734-4.1641a3.68568,3.68568,0,0,1,.0278-.5527,8.28937,8.28937,0,0,0-1.2929-.0786c-.0562-.001-.0845.3589-.0845.6313a4.19228,4.19228,0,0,1-4.3686,4.5225c-2.731,0-4.024-1.9014-4.024-4.5225C53.32088,46.32885,54.78768,44.61745,57.51868,44.61745Zm5.5063,28.9854c-24.9389-.001-18.6884-14.2837-16.9751-15.2481.4683-.2617.3213-.4473,4.25-.5659.0777,2.0571.0992,2.3393.5557,2.5693.6567.3355,2.8877.3472,3.2637-.2075.2495-.3652-.1665-.4995-.0401-2.6811,2.1826-.0103,15.0879-.0186,17.2486.0014.1274,2.1773.4257,2.4004.6689,2.7632.376.5547,2.5205.3325,3.1846-.0005.4472-.228.125-.6186.1987-2.6802,3.2803.1265,4.2251.5996,4.6382.8394C81.714,59.36065,87.95908,73.60285,63.025,73.60285Z"/>
</svg>
