<svg id="e4c88e51-d081-42ef-a4b8-12070b69eb6a" data-name="Layer 1" xmlns="http://www.w3.org/2000/svg" width="128" height="128" viewBox="0 0 128 128">
  <defs>
    <style>
      .fe8e278f-6e6d-4ee7-bb1c-53817b0a9e7c {
        fill: #1d1d1b;
      }
    </style>
  </defs>
  <title>030</title>
  <g>
    <path class="fe8e278f-6e6d-4ee7-bb1c-53817b0a9e7c" d="M79.56815,61.75173c-.001-7.8232-4.7217-13.1147-13.5567-13.8061q-.22035-1.2906-.3359-2.5879a30.42423,30.42423,0,0,1-.0523-4.791c1.9053-.458,3.5113-1.7105,3.5113-3.6568,0-4.7895-9.7119-5.5429-9.7119.3091,0,2.2002,1.8374,3.332,3.9145,3.5171a33.06141,33.06141,0,0,0-.2715,4.7534c.0127.7984.0576,1.5947.1245,2.3901-9.5976.2911-14.7509,5.7017-14.7583,13.8707.0015,6.2739,3.0371,10.9218,8.7876,12.8754-1.6298,2.4751-5.3125,8.2193-5.3125,9.5796,0,1.7486,3.1192,3.6138,3.3921,3.9414.2744.3296-.437,6.0747.0552,6.732.4927.6572,7.0049-5.4732,6.6763-7.1148-.3291-1.6406-5.5269-3.5576-6.128-4.9248-.4257-.9687,1.8916-5.2578,3.2808-7.6787a22.86325,22.86325,0,0,0,4.8228.4805,20.66617,20.66617,0,0,0,7.1259-1.1387c1.3462,2.4336,2.9639,5.6523,2.6021,6.4756-.6016,1.3667-5.7988,3.2822-6.1284,4.9233-.3277,1.6416,6.1836,7.7715,6.6767,7.1143.4927-.6563-.2197-6.4014.0547-6.731.273-.3276,3.3926-2.1933,3.3926-3.9414,0-1.2153-2.9336-5.9194-4.7232-8.6782C77.31125,71.35913,79.56865,67.15993,79.56815,61.75173Zm-7.2788-6.4638a1.07716,1.07716,0,0,0-.6245,1.0732c-.001,1.0205,1.9165,1.3564,2.2558.3369a2.1443,2.1443,0,0,1,.1035.6436c-.0014,2.5644-4.1621,2.0083-4.164.0048A1.93247,1.93247,0,0,1,72.28935,55.28793Zm-9.9546-18.2486c0-2.3428,3.6069-2.042,3.6069-.1245S62.33475,39.06283,62.33475,37.03933Zm-6.4824,21.9458a1.93154,1.93154,0,0,1,2.4291-2.0576,1.08385,1.08385,0,0,0-.625,1.0742c-.0004,1.0195,1.9175,1.3618,2.2564.3345a2.18889,2.18889,0,0,1,.0952.6455C60.00705,61.55253,55.85475,60.99493,55.85235,58.98513Zm11.52,11.1465c-1.3443.4023-9.1812-5.4971-9.0215-6.3154.0688-.3355,4.749-3.8716,8.7978-4.1841,3.25-.2476,6.0308,2.6665,6.1709,2.8408C73.66675,62.91533,68.71755,69.73663,67.37235,70.13163Z"/>
    <path class="fe8e278f-6e6d-4ee7-bb1c-53817b0a9e7c" d="M65.39575,66.16143a.47074.47074,0,0,0,.0049-.104.699.699,0,1,0-1.397,0,.6437.6437,0,0,0,.0054.1172c-.0039.0434,0,.0727-.0049.1093a.699.699,0,1,0,1.397,0A.664.664,0,0,0,65.39575,66.16143Z"/>
    <path class="fe8e278f-6e6d-4ee7-bb1c-53817b0a9e7c" d="M68.52905,64.12043a.96922.96922,0,1,0,.9292.9673A.87576.87576,0,0,0,68.52905,64.12043Z"/>
  </g>
</svg>
