<svg id="e16669ae-5658-4d48-920d-1ce6a1a08d18" data-name="Layer 1" xmlns="http://www.w3.org/2000/svg" width="128" height="128" viewBox="0 0 128 128">
  <defs>
    <style>
      .be26509c-9353-40df-953d-6e27180ce1c6 {
        fill: #1d1d1b;
      }
    </style>
  </defs>
  <title>031</title>
  <g>
    <path class="be26509c-9353-40df-953d-6e27180ce1c6" d="M81.3417,33.86268c-35.314-3.9682-48.8247,36.5826-48.1143,47.7496.7237,11.1738,16.041,12.6103,31.8999,12.7954,15.8594.1836,22.16989-13.3306,26.855-21.4405C96.66739,64.85838,96.96809,35.61078,81.3417,33.86268Zm.54439,36.0499c-4.457,7.0976-12.86179,12.1918-20.48289,14.3593-1.792,2.3965-.6021,4.0796-1.2778,4.6875-1.2652,1.1348-3.1802-1.2793-4.0078-3.6445-3.7398.3804-6.9229-.1382-8.8335-1.7124a12.22342,12.22342,0,0,1-1.6397-1.6958c-2.123.6768-2.4741,2.2642-3.2744,2.2334-2.1978-.1035-1.0234-5.1445.7661-7.0674-2.0268-6.4258-.3428-14.7783,8.8408-18.3486,12.9683-5.0425,15.1104,3.7275,17.1206-3.9595,1.05469-4.0405-3.9638-5.0493-4.5131-7.5635-.8306-3.8838,7.03459-8.1093,10.45359-7.0337C78.45839,41.25088,89.81729,57.31538,81.88609,69.91258Z"/>
    <path class="be26509c-9353-40df-953d-6e27180ce1c6" d="M63.4428,61.60928c-2.275-1.6054-11.0533,3.3614-9.9659,7.208,1.0782,3.8467,3.9668,1.0835,4.44,2.4034.4843,1.3266-.9624,2.2846.0058,2.6425.9571.3589,1.8028-2.3974,2.4009-2.5229.5996-.1143-.2427,2.4731.4775,2.562.7198.0791,3.7281-4.4819,2.6436-5.2017-1.085-.7197-5.6118.3589-4.9048-1.5634C59.2474,65.21578,65.4916,63.05118,63.4428,61.60928Z"/>
    <path class="be26509c-9353-40df-953d-6e27180ce1c6" d="M70.91349,46.40858c-1.69579-1.7177-5.00739.3912-2.92139,2.6685C69.4218,50.645,72.61019,48.12588,70.91349,46.40858Z"/>
    <path class="be26509c-9353-40df-953d-6e27180ce1c6" d="M75.2157,65.101c-2.15821.9561-4.26421-.0063-5.8604.5943-1.5839.5971-2.8403,4.6904-2.0288,5.4111.8003.7202,1.1026-1.3062,2.0337-1.1914.92969.1069.979,2.1523,2.03909,2.144,1.0591.002-.5093-1.6504.5732-2.144,1.0826-.4927,5.6485-1.8125,6.2447-3.2593.6079-1.4375,2.4087-6.8432.0024-8.0483C77.24839,58.12248,77.38319,64.13368,75.2157,65.101Z"/>
    <path class="be26509c-9353-40df-953d-6e27180ce1c6" d="M76.15519,43.67278c-.8262-2.2476-3.4566-.7153-2.87849,1.0659C73.85529,46.52,76.72839,45.21818,76.15519,43.67278Z"/>
  </g>
</svg>
