<svg id="a0ffb8a3-b6af-4da9-95cc-c0fc4182f396" data-name="Layer 1" xmlns="http://www.w3.org/2000/svg" width="128" height="128" viewBox="0 0 128 128">
  <defs>
    <style>
      .e082296b-9dd5-428b-9b4e-a14adcbdda4b {
        fill: #1d1d1b;
      }
    </style>
  </defs>
  <title>032</title>
  <g>
    <path class="e082296b-9dd5-428b-9b4e-a14adcbdda4b" d="M59.96777,66.1478a1.74181,1.74181,0,1,0,1.6871,1.7407A1.573,1.573,0,0,0,59.96777,66.1478Z"/>
    <path class="e082296b-9dd5-428b-9b4e-a14adcbdda4b" d="M68.80517,66.3274a1.56227,1.56227,0,1,0,1.5147,1.5611A1.41137,1.41137,0,0,0,68.80517,66.3274Z"/>
    <path class="e082296b-9dd5-428b-9b4e-a14adcbdda4b" d="M79.44247,74.5066c4.4799-2.2973,4.4863-9.2851,2.3979-12.2055-2.0889-2.9209-6.3638-.6299-7.0957-1.252-.7275-.6274.3145-12.52,0-13.456-.0859-.2593-1.6973-.4439-4.0049-.563a47.02375,47.02375,0,0,0-1.1636-10.5137c-.8217-2.895-6.9687-4.0537-9.3452-1.2529-1.6621,1.959-2.1157,7.5293-1.5708,11.7143-3.0327.1045-5.3051.3072-5.4028.6128-.3149.9375.727,12.834-.0005,13.4561-.7324.6279-5.0068-1.6651-7.0957,1.2534-2.0879,2.9194-2.0879,9.9111,2.3975,12.2085a9.70613,9.70613,0,0,0,2.1938.6987c-1.3159,3.5987-3.3027,11.5713-2.9463,12.4155.3887.9385,1.9571,5.6363,2.4239,5.8687.4707.2324,2.2705.4688,2.3452.001.0805-.4688-3.2036-5.6338-2.7383-6.8096.4233-1.0488,2.0937-8.6675,3.4463-11.0469,1.4809.1949,3.1797.3438,4.9814.4409-1.3081,3.7833-3.1108,11.1329-2.7763,11.9366.3891.9394,1.957,5.6372,2.4228,5.8696.4727.2324,2.2715.4688,2.3467.001.0801-.4678-3.2041-5.6338-2.7388-6.8096.4141-1.0273,2.0249-8.355,3.3545-10.8916,1.0108.0288,2.0425.043,3.0786.043-.1328,4.0644-.4302,17.2636.0464,17.7026a1.77373,1.77373,0,0,0,2.272-.0024c.397-.503-.1074-13.7642-.2666-17.7173,1.1191-.02,2.2256-.0542,3.2959-.1084,1.4302,2.5532,3.2866,9.6714,3.7344,10.6763.5156,1.1518-2.5718,6.4414-2.4751,6.9062.0971.4644,1.8891.165,2.3466-.0918.4595-.2519,1.8433-5.0049,2.1963-5.957.3003-.8125-1.7402-7.9424-3.1885-11.7022a44.04225,44.04225,0,0,0,4.9805-.6489c1.4356,2.439,3.3467,9.7891,3.8018,10.8081.5151,1.1524-2.5733,6.4385-2.4756,6.9072.0967.4634,1.8891.1587,2.3476-.0927.4581-.2515,1.8428-5.0044,2.1958-5.9566.3179-.8613-2.0019-8.8633-3.457-12.375C79.35547,74.553,79.39947,74.5276,79.44247,74.5066Zm-22.4312-25.769a5.36279,5.36279,0,0,1,1.8696-.4268A6.84618,6.84618,0,0,0,60.234,51.617c2.2685,2.2651,7.1953,1.1728,9.3437-.0029.6538-.3555.9883-1.6309,1.1133-3.314.7104.1138,1.167.2598,1.2383.4394.4179,1.043.938,8.4473,0,9.5982-.9395,1.146-13.7681,1.8774-14.918-.0005S55.44287,49.8865,57.01127,48.7376Zm12.6279,24.3579c-3.6518,0-3.8393-2.5566-5.6381-2.5151-2.0645.0444-2.1495,2.2392-4.7906,2.2954-3.562.0742-5.2397-1.565-5.2397-4.9873,0-3.4209,1.7822-3.751,5.3457-3.751,2.7529,0,3.1401.3833,5.2031.4272,1.7998.0415,2.2549-.5639,4.8247-.5639,3.2813,0,4.6841.7378,4.6841,3.8877C74.02837,71.0389,72.461,73.0955,69.63917,73.0955Z"/>
  </g>
</svg>
