<svg id="e4e7a482-a52b-49d9-99f6-e9a7b17ed3b6" data-name="Layer 1" xmlns="http://www.w3.org/2000/svg" width="128" height="128" viewBox="0 0 128 128">
  <defs>
    <style>
      .b1e9d282-0370-45df-bfe9-186475f03af4 {
        fill: #1d1d1b;
      }
    </style>
  </defs>
  <title>033</title>
  <g>
    <path class="b1e9d282-0370-45df-bfe9-186475f03af4" d="M68.01256,58.31757c0,2.667,2.6963,2.667,2.6963,0C70.70886,55.65107,68.01256,55.65107,68.01256,58.31757Z"/>
    <path class="b1e9d282-0370-45df-bfe9-186475f03af4" d="M70.29,51.35957c-.1108.7993.1597,2.0171-.7559,1.9653-1.8579-.1045-3.3374-.1665-5.1977-.1328-1.8677.0073-3.3443.0528-5.2095.1563-.9224.0517-.6406-1.1856-.7446-1.9888-.1411-1.1016-1.395.0625-1.4502.5635-.1616,1.4682-.7158,2.9297,1.1328,3.0429,1.5918.0972,2.2349.148,4.0249.1724a1.38955,1.38955,0,0,1,1.3765,1.5718c-.2603,3.2783-.2193,9.2798,1.1103,9.459,1.8936.2548,1.6397-6.1963,1.3296-9.4571a1.38169,1.38169,0,0,1,1.3721-1.5737c1.4282-.022,1.9809-.063,3.3296-.1489,1.9902-.1304,1.2773-2.1074,1.0659-3.6299C71.59756,50.81217,70.36906,50.79067,70.29,51.35957Z"/>
    <path class="b1e9d282-0370-45df-bfe9-186475f03af4" d="M59.04236,58.31757c0,2.667,2.6963,2.667,2.6963,0C61.73866,55.65107,59.04236,55.65107,59.04236,58.31757Z"/>
    <path class="b1e9d282-0370-45df-bfe9-186475f03af4" d="M74.86956,38.38647c-5.3286-.5015-7.584,2.6367-11.2197,2.7543-3.6314.1177-6.0547-2.9379-11.3462-2.1543-5.292.7842-12.1626,8.0718-10.6704,18.1285,1.4882,10.0566,10.1596,36.3427,18.9643,32.0918,2.5147-1.2119-6.5874-9.3702,4.6602-9.9453,11.2666-.0264,2.4814,8.6103,5.0537,9.6855,9.019,3.7759,15.229-22.9067,16.1777-33.0308C87.44086,45.79367,80.19576,38.885,74.86956,38.38647Zm-21.7779,19.4047c.3042-13.9902,23.4083-13.4882,23.1041.503C75.892,72.28387,52.78706,71.782,53.09166,57.79117Z"/>
  </g>
</svg>
