<svg id="a58b4325-70e5-4738-9029-3b19eddc251d" data-name="Layer 1" xmlns="http://www.w3.org/2000/svg" width="128" height="128" viewBox="0 0 128 128">
  <defs>
    <style>
      .bf822aba-1cac-4693-8915-7645764b225f {
        fill: #1d1d1b;
      }
    </style>
  </defs>
  <title>034</title>
  <g>
    <path class="bf822aba-1cac-4693-8915-7645764b225f" d="M58.833,56.1937a1.32666,1.32666,0,0,0-1.3208,1.4892c0,.8223.3291,1.4878,1.3208,1.4878.9912,0,1.3198-.6655,1.3198-1.4878A1.32648,1.32648,0,0,0,58.833,56.1937Z"/>
    <path class="bf822aba-1cac-4693-8915-7645764b225f" d="M62.46924,61.4774a1.32662,1.32662,0,0,0-1.3208,1.4883c0,.8217.3291,1.4887,1.3208,1.4887.9907,0,1.3194-.667,1.3194-1.4887A1.32615,1.32615,0,0,0,62.46924,61.4774Z"/>
    <path class="bf822aba-1cac-4693-8915-7645764b225f" d="M69.55084,61.1585a1.32733,1.32733,0,0,0-1.3218,1.4883c0,.8228.3296,1.4898,1.3218,1.4898.9907,0,1.3193-.667,1.3193-1.4898A1.32659,1.32659,0,0,0,69.55084,61.1585Z"/>
    <path class="bf822aba-1cac-4693-8915-7645764b225f" d="M85.47175,35.4315c-3.53131-2.5557-7.06891-2.2105-8.772.146a5.032,5.032,0,0,0-1.09131,3.7119,30.19382,30.19382,0,0,0-10.8989-1.7901c-5.375.002-9.7584.9961-13.0772,2.8067a5.14447,5.14447,0,0,0-1.28559-4.3218c-2.04891-2.0591-5.60161-1.8476-8.689,1.2261-3.08741,3.0718-3.31251,6.6269-1.26511,8.686a4.72823,4.72823,0,0,0,4.706,1.5166,15.79193,15.79193,0,0,0-1.06489,5.856c.00139,6.6269,3.497,11.6533,10.12989,14.1094-1.00489,4.1328-2.5196,11.2363-2.5625,12.2041-.1119,2.4521,2.64061,7.8437,2.64061,7.8437s-5.22811,4.6152-5.60651,5.5112c-.3188.7676-.0971,1.4268.732,1.4043l14.4951-.018c.8315-.0181.8027-.5616.5801-1.3633-1.2588-4.5933-7.1304-11.8384-7.2032-13.5596-.0468-1.0483.2027-6.7539.543-10.9956a34.95819,34.95819,0,0,0,6.9297.646,33.148,33.148,0,0,0,8.1601-.9434c.3526,4.2681.61671,10.2183.5679,11.293-.0727,1.7212-5.9443,8.9663-7.2031,13.5596-.2222.8017-.252,1.3452.5801,1.3633l14.4956.018c.8291.0225,1.0503-.6367.7309-1.4043-.3784-.896-5.6064-5.5112-5.6064-5.5112s2.7519-5.3916,2.6416-7.8437c-.04489-1.0088-1.6787-8.6426-2.6797-12.6783A14.14363,14.14363,0,0,0,85.373,53.2703a14.84025,14.84025,0,0,0-1.8662-7.4931,5.32128,5.32128,0,0,0,4.5684-1.9566C89.77684,41.4637,89.00194,37.9871,85.47175,35.4315ZM47.80864,42.495c-2.439,2.4257-5.3462-.481-2.895-2.918C47.36184,37.14,50.25834,40.0579,47.80864,42.495Zm24.5405,5.0717a2.37748,2.37748,0,1,1-2.3408,2.3726A2.15678,2.15678,0,0,1,72.34914,47.5667Zm-14.1572-.3857a2.37845,2.37845,0,1,1-2.3413,2.3833A2.17423,2.17423,0,0,1,58.19194,47.181ZM73.82375,65.0599c-3.70021,1.8491-12.88621,1.8491-16.58591,0-4.9082-2.4551-4.9756-5.4233-3.5723-8.2295,1.4033-2.8076,11.8657-2.5513,11.8657-2.5513s10.4619-.2563,11.8653,2.5513C78.79984,59.6366,78.73244,62.6048,73.82375,65.0599ZM81.251,42.3582c-2.7989-2.0185-.378-5.353,2.4091-3.3344C86.45854,41.0438,84.03764,44.3773,81.251,42.3582Z"/>
    <path class="bf822aba-1cac-4693-8915-7645764b225f" d="M65.84964,56.1937a1.32648,1.32648,0,0,0-1.3198,1.4892c0,.8213.3291,1.4878,1.3198,1.4878s1.3198-.6665,1.3198-1.4878A1.32648,1.32648,0,0,0,65.84964,56.1937Z"/>
    <path class="bf822aba-1cac-4693-8915-7645764b225f" d="M72.57224,56.1937a1.32675,1.32675,0,0,0-1.3198,1.4892c0,.8223.3291,1.4878,1.3198,1.4878.9903,0,1.3199-.6655,1.3199-1.4878A1.32682,1.32682,0,0,0,72.57224,56.1937Z"/>
  </g>
</svg>
