<svg id="bfb635ad-01b3-433d-b3af-b76e5bf3afa6" data-name="Layer 1" xmlns="http://www.w3.org/2000/svg" width="128" height="128" viewBox="0 0 128 128">
  <defs>
    <style>
      .a2217919-d05e-4272-b8a0-373f17868ade {
        fill: #1d1d1b;
      }
    </style>
  </defs>
  <title>035</title>
  <g>
    <path class="a2217919-d05e-4272-b8a0-373f17868ade" d="M67.4201,45.06146c-.293.6816,2.6836.5278,2.875-.0704C70.5822,44.11656,67.7131,44.37786,67.4201,45.06146Z"/>
    <path class="a2217919-d05e-4272-b8a0-373f17868ade" d="M75.8957,41.38956a3.874,3.874,0,0,0-3.5078,1.2744c-2.0694,1.9268-3.2881,5.2988-.6377,6.27.9668.3584,2.15721-.3291,3.1611-1.4219C76.7931,45.47306,78.0236,42.01946,75.8957,41.38956Z"/>
    <path class="a2217919-d05e-4272-b8a0-373f17868ade" d="M71.4211,42.65806c.2129-.1562.1572-.3891-.0528-.6328-.5312-.6113-2.0048-1.3061-2.46089-1.0298C68.2599,41.37786,70.9113,43.03116,71.4211,42.65806Z"/>
    <path class="a2217919-d05e-4272-b8a0-373f17868ade" d="M72.7697,41.05556a.3101.3101,0,0,0,.1338.0127c.7051-.0776.25491-2.77-.41209-3.022a.17987.17987,0,0,0-.09671-.0161C71.8342,38.09216,72.1847,40.89446,72.7697,41.05556Z"/>
    <path class="a2217919-d05e-4272-b8a0-373f17868ade" d="M75.2609,47.87146a.37886.37886,0,0,0-.1484.0562c-.4717.3178-.0049,2.7094.5244,2.8369a.19211.19211,0,0,0,.1709-.0454C76.342,50.28946,75.9367,47.79726,75.2609,47.87146Z"/>
    <path class="a2217919-d05e-4272-b8a0-373f17868ade" d="M77.051,46.22156c-.2207.5952,2.0849,2.7056,2.2783,1.98C79.5207,47.477,77.3762,45.35686,77.051,46.22156Z"/>
    <path class="a2217919-d05e-4272-b8a0-373f17868ade" d="M76.94741,40.71136a.93155.93155,0,1,0,.73929-1.708C76.4377,38.415,75.3732,39.90716,76.94741,40.71136Z"/>
    <path class="a2217919-d05e-4272-b8a0-373f17868ade" d="M78.2385,44.49846c.331.5473,3.41891.062,2.9697-.5381C80.7687,43.351,77.7609,43.70746,78.2385,44.49846Z"/>
    <path class="a2217919-d05e-4272-b8a0-373f17868ade" d="M101.465,54.02776a6.02907,6.02907,0,0,0-2.0117.2407,3.10457,3.10457,0,0,0-.4082-.5718c.5547-.7051.71-2.2485.416-2.3032a6.76332,6.76332,0,0,0-2.1035,1.081c-.1084-.0546-.2227-.1074-.3389-.1547.3799-.8184.1514-2.3604-.1465-2.334a7.42414,7.42414,0,0,0-1.9365,1.7387,3.90145,3.90145,0,0,0-1.8662.0655,2.67634,2.67634,0,0,0-.6836.414c-.6211-.6294-1.7529-1.1562-1.8262-.9419a7.68067,7.68067,0,0,0,.7276,2.2701c-1.3848,2.1958-3.5625,6.0786-8.3955,8.0835-.4463-3.2579-.8633-5.9195-.5576-6.4781.7295-1.334,10.3144-16.7964-1.1211-20.7002-11.30369-3.8584-15.7354,4.6944-17.6748,5.7891-1.9395,1.0898-8.3418.7305-13.33889,4.7295-1.98931,1.5918-3.51271,8.8144-4.02051,15.8672-5.3779-1.5611-7.9444-5.5078-9.5357-7.6758a7.95486,7.95486,0,0,0,.5767-2.3198c-.0962-.2027-1.1929.396-1.7598,1.0683a2.60813,2.60813,0,0,0-.7163-.373,3.91513,3.91513,0,0,0-1.8608.0654,7.66509,7.66509,0,0,0-2.05179-1.6074c-.3027,0-.4199,1.5522.0064,2.3423-.1114.0591-.2163.1162-.3272.1758a6.86239,6.86239,0,0,0-2.1689-.9312c-.2866.0728-.0293,1.6021.5805,2.2666a3.05437,3.05437,0,0,0-.3759.6055,5.61256,5.61256,0,0,0-2.0196-.104c-.2885.185.7632,1.9946,1.6685,2.0737-.0835,2.2407.8013,4.5464,5.01029,6.5742,4.3193,2.0874,10.1826,2.0947,12.7939,1.8272-.0654,4.3032.3193,8.0835,1.2871,9.8564.8828,1.6089,2.832,3.0225,5.3965,4.1338-.3242.7271-1.6602,3.8394-1.0772,4.6597.668.9282,2.51081,3.1157,2.4629,4.2163-.0498,1.0937-2.5752,3.0835-2.0879,3.2358.4873.145,1.7373-1.3325,2.2315-1.1206.4941.2114-1.4443,1.917-1.0381,2.1978.4033.2744,1.8369-1.0909,2.2773-.8199.4434.2759-1.3017,2.3931-.9394,2.4322.373.0385,4.10551-2.3345,3.8213-2.981-.291-.6523-4.46879-6.0893-4.3965-6.8262a25.70234,25.70234,0,0,1,1.7109-3.9116,39.01925,39.01925,0,0,0,16.8057,1.1836,23.56175,23.56175,0,0,1,1.874,3.6641c.124.7236-3.6943,6.4253-3.9375,7.0884-.2431.6718,3.6387,2.7944,4,2.7348.3682-.06-1.5146-2.063-1.0918-2.3691.4239-.2988,1.9395.9751,2.3242.667.3868-.3008-1.6543-1.875-1.17379-2.1211.47459-.2447,1.82619,1.1548,2.29789.9702.4746-.1792-2.1758-1.9985-2.295-3.0933-.1201-1.0903,1.5772-3.393,2.1846-4.3623.4248-.685-.4717-2.749-1.041-3.9155,3.4941-1.0806,6.2686-2.9438,7.4863-5.7856.8106-1.8741.6934-5.2862.3301-8.732,2.8477.0127,8.125-.5005,11.9736-2.6933,4.06351-2.3174,4.792-4.6748,4.5547-6.9058C100.8361,56.06926,101.7638,54.20156,101.465,54.02776Zm-45.1699,3.5825c-2.3916-.0044-2.8408,2.2749-3.97269,1.6098-1.13281-.6728.52639-3.9223,3.96879-3.9204,3.45021,0,4.9883,3.0113,4.0351,3.919C59.3742,60.12586,58.6847,57.61316,56.2951,57.61026Zm8.3037,11.2685c-3.9853.0054-4.69239-4.1713-4.3223-4.2783.3702-.1079,8.2784-.105,8.6485,0C69.298,64.706,68.5871,68.87876,64.5988,68.87876Zm14.1524-9.664c-1.1329.6684-1.5733-1.6065-3.97079-1.6016-2.38961-.0029-3.07911,2.5142-4.03121,1.603-.9541-.9047.5859-3.913,4.0273-3.913C78.2267,55.30316,79.8849,58.54626,78.7512,59.21476Zm.44721-4.8408c-1.40721-.6968-1.83791-1.7369-4.00581-1.8575a9.4195,9.4195,0,0,0-1.1817.024c-3.2324.2417-4.124,1.8989-5.0986,1.8662-.9678-.0327-6.3057-4.2403-4.6904-9.2886,1.0751-3.3589,3.2978-10.5195,11.93751-10.0444C90.1056,35.84076,80.8332,55.18346,79.19841,54.374Z"/>
  </g>
</svg>
