<svg id="ada2b9c2-f423-4cbd-a21a-7b769bc7802b" data-name="Layer 1" xmlns="http://www.w3.org/2000/svg" width="128" height="128" viewBox="0 0 128 128">
  <defs>
    <style>
      .edda1309-548a-46c1-8a97-e90d7f0ac018 {
        fill: #1d1d1b;
      }
    </style>
  </defs>
  <title>036</title>
  <g>
    <path class="edda1309-548a-46c1-8a97-e90d7f0ac018" d="M40.90314,83.13387c-.0752,1.5742,3.2597,1.7417,3.3418.167C44.32014,81.733,40.98614,81.56507,40.90314,83.13387Z"/>
    <path class="edda1309-548a-46c1-8a97-e90d7f0ac018" d="M73.00464,33.96837c-2.6523,1.8154-20.5342,35.7534-20.5332,36.8701.002,1.1187,7.2637,3.7739,6.8467,4.8916-.4189,1.1118-6.9814,5.5142-8.9414,3.0742a8.37079,8.37079,0,0,0-7.8174-2.9375c-7.875,1.1939-7.96679,11.314-7.2656,12.4292.2305.3711,2.71481.4766,6.0713.3731-2.3096,2.4595-3.1992,5.7163-1.7539,5.5752.77241-.0845-.128-2.2281,5.1797-5.7281,1.6601-.1025,3.4062-.2309,5.1171-.3945-2.35439,2.459-3.2685,5.7759-1.8095,5.6333.7969-.0888-.1905-2.3701,5.7187-6.0742.6641-.084,1.3018-.1782,1.9082-.2729,4.45021,2.517,4.0957,4.5566,4.7403,4.52,1.2197-.064.0566-2.9131-2.16609-4.9849a11.9063,11.9063,0,0,0,2.66019-.8144c3.7705-1.9556,5.1982-7.4683,5.6182-7.7486.4228-.2759,5.0263,3.0723,6.4267,2.8609,1.3946-.21,19.6895-34.4224,19.9717-36.6602C93.25174,42.34727,75.66384,32.14467,73.00464,33.96837Zm-29.959,52.1934c-2.3574-.1206-4.20409-1.0293-4.08-3.4976.0957-2.0112,2.4902-3.0015,4.4072-2.9087,2.3564.1206,4.206,1.436,4.1045,3.4204C47.38455,85.15877,45.40894,86.28137,43.04564,86.16177Zm39.1612-26.2837c-.6797.624-.999-.9468-3.5147-1.0479-2.5078-.1035-1.6748,1.7603-4.1894,1.1919-2.5088-.5659-1.6699-2.1372-4.0801-2.4536-2.41209-.3135-2.2002,3.7627-4.9229,2.5649-2.7246-1.1967-3.7753-.4682-1.9951-3.9209,1.7832-3.4575,9.6621-16.0185,11.003-16.6601,1.7568-.8345,15.3935,5.5542,15.3994,6.2871C89.904,46.57387,82.88744,59.24667,82.20684,59.87807Z"/>
  </g>
</svg>
