<svg id="a4411743-0ff6-4c28-b9b1-b5dc286c1c1f" data-name="Layer 1" xmlns="http://www.w3.org/2000/svg" width="128" height="128" viewBox="0 0 128 128">
  <defs>
    <style>
      .a20f9c8f-f51b-4262-b4b5-80617e438eb4 {
        fill: #1d1d1b;
      }
    </style>
  </defs>
  <title>037</title>
  <path class="a20f9c8f-f51b-4262-b4b5-80617e438eb4" d="M84.12844,40.27066c-2.4082-2.1904-9.4306-1.7915-11.52538-2.2963-2.09472-.4986-11.62592-4.733-12.25292-4.3155-.6279.4195,4.8164,2.7227,4.293,3.7383-.5264,1.0083-12.7793-.5937-12.7783-.0034.0009.5962,9.53222,2.3428,10.0566,4.8545.5225,2.5171-5.4492,5.2358-8.0283,7.8584-2.57808,2.6103-9.11819,14.2959-2.9278,25.3716a26.33221,26.33221,0,0,1-1.916,1.8208c-2.666,2.2885-8.48628,3.3852-7.48339,4.3579.9102.8813,3.6338.0713,4.19139.6357.8379.8477-1.41889,2.0596-.60839,2.8413.80959.7832,5.32619-2.0112,7.43169-4.3633a9.53143,9.53143,0,0,0,1.3506-2.0063,14.469,14.469,0,0,0,8.3955,2.1694,26.82444,26.82444,0,0,1-1.2842,4.6826c-1.2481,3.2837-5.8232,7.044-4.4658,7.4151,1.2177.3379,3.2129-1.688,3.9756-1.4619,1.1425.3452-.2549,2.4878.832,2.7866,1.0869.2998,3.707-4.3213,4.4258-7.3999a12.70911,12.70911,0,0,0-.45408-6.211,41.14929,41.14929,0,0,0,8.417-1.9848,25.8255,25.8255,0,0,1,.74308,3.9907c.3701,3.4902-2.0342,8.9038-.66008,8.6323,1.24218-.2509,2.122-2.9565,2.90038-3.0937,1.1718-.2085.89162,2.333,1.998,2.1147,1.10062-.2177,1.3643-5.5278.6201-8.6006a11.51574,11.51574,0,0,0-2.2998-4.3339,11.47957,11.47957,0,0,0,3.27932-1.9082c1.99218-2.5166-1.94242-9.6597-3.45312-12.8418-1.9004-3.9947-1.7813-9.5748-1.1533-10.3379.6289-.7564,2.4101-.4932,3.6679.1884,1.2549.6817-.5263,2.563.2071,2.8721.73142.3086.94142-1.7773,1.4697-1.7778.5205.0005.1064,1.7832.624,2.0464.5244.2646.6338-1.5196,1.1543-1.416.52642.104.417,1.7832,1.2598,2.1621.8349.3774,1.2549-6.4576.709-7.5035-.5479-1.0459-8.042-.2138-7.4121-1.8818.623-1.6738,6.38572-.1103,8.164-.5239C87.37554,46.14126,86.54054,42.46016,84.12844,40.27066Zm-12.6513,2.0816c.582-3.6582,2.9267-2.3228,2.4287.8286C73.65974,44.70426,70.88724,46.01286,71.47714,42.35226Zm.4951,15.7021a7.41333,7.41333,0,0,1-2.5654-.8603c-.7217.6645-2.3536.1543-2.46-.5318-.0059-.0459-.0039-.0927-.00978-.1372a7.00148,7.00148,0,0,1-2.61422-.2124c-.55078-.3808.9765-2.79,1.374-2.9316.293-.1069,1.4668.9228,2.081,1.4863a1.19954,1.19954,0,0,1,1.6788.3491c.02342.0376.0478.086.0722.1358.8194-.2852,2.1953-.7168,2.40922-.5166C72.24274,55.12326,72.63724,57.91766,71.97224,58.05436Zm8.5644-14.4883c-.3379,1.2574-3.1572,2.0269-2.34758-1.0048C78.99464,39.532,81.22906,40.95576,80.53664,43.56606Z"/>
</svg>
