<svg id="ae5c3f0e-e802-4c1e-948e-e03a1755e5d4" data-name="Layer 1" xmlns="http://www.w3.org/2000/svg" width="128" height="128" viewBox="0 0 128 128">
  <defs>
    <style>
      .a1a91440-7350-4a0a-8a59-1479e348c7b0 {
        fill: #1d1d1b;
      }
    </style>
  </defs>
  <title>038</title>
  <path class="a1a91440-7350-4a0a-8a59-1479e348c7b0" d="M62.03113,41.22663c-20.16011.25-24.02051,16.0566-22.40141,24.1494.5137,2.5518,5.5,4.3008,12.1172,5.231-.1201,3.0175-.04979,10.0063,3.2959,9.6714,3.0547-.3062,2.25-5.9815,1.5528-9.1602,2.209.1655,4.5049.2549,6.8193.2661-.1719,4.6455-.2373,15.9463,3.15721,15.3706,3.28229-.5654,2.19729-10.7944,1.51859-15.4619,1.8135-.0688,3.6025-.1973,5.3115-.377.2461,2.2344,1.0293,4.5606,3.2774,4.4014,2.3964-.167,2.3984-2.8369,1.9433-5.1382,5.7481-1.0722,9.8389-2.8769,10.0401-5.4272C89.284,56.78813,82.19032,40.98443,62.03113,41.22663Zm-7.56351,23.8901c-1.93449.001-2.9726-1.2744-2.9677-3.23-.003-1.9555,1.03321-3.2343,2.9677-3.2358,1.9317.0073,2.9698,1.2832,2.9737,3.231C57.43542,63.83693,56.39932,65.11583,54.46762,65.11673Zm7.48151-3.2324c.00489-1.9541,1.042-3.2261,2.97359-3.2275,1.9336-.002,2.9717,1.2744,2.9756,3.2299-.0059,1.9556-1.0439,3.2276-2.9766,3.2291C62.99013,65.11583,61.952,63.84043,61.94913,61.88433Zm14.26849,2.3462c-1.9326,0-2.9697-1.2739-2.9668-3.2305-.0019-1.956,1.0362-3.228,2.9698-3.229,1.9306,0,2.9687,1.2754,2.9726,3.231C79.18832,62.95753,78.15122,64.22853,76.21762,64.23053Z"/>
</svg>
