<svg id="b1345394-ece2-4ac6-b3b1-2ebf6d89fa51" data-name="Layer 1" xmlns="http://www.w3.org/2000/svg" width="128" height="128" viewBox="0 0 128 128">
  <defs>
    <style>
      .ee2d1919-47b4-415b-bb97-1b42712f2f44 {
        fill: #1d1d1b;
      }
    </style>
  </defs>
  <title>039</title>
  <g>
    <path class="ee2d1919-47b4-415b-bb97-1b42712f2f44" d="M82.37528,56.06174c-.25882-5.4306-1.042-9.8935-2.53032-10.6806-4.1318-2.1709-10.6562,6.8506-13.2676,8.6992-2.6064,1.8481-17.23139-2.4224-22.50289,2.2852-3.0478,2.7172-.2187,15.3286,1.30281,17.0688.39739.4483,2.01749.5776,4.22849.5308a23.73971,23.73971,0,0,1,.97851,3.3842c.09759.9253-.77051,4.7925-.63771,5.0909.1318.2978-.5274.7007,3.39939.417,3.9209-.2828,4.5254-.1353,4.4268-1.2701-.0791-.9472-1.5332-2.2924-3.5088-2.227-1.97659.06-2.461,1.3804-2.752,1.2124-.2959-.1738.7217-2.4458.6289-3.3862a18.563,18.563,0,0,0-1.1113-3.2749c2.88771-.1382,6.43159-.4864,9.542-.8042a25.731,25.731,0,0,1,1.0361,3.541c.0918.9277-.7695,4.7988-.6435,5.0923.1338.2973-.5264.7041,3.4004.417,3.9209-.2828,4.5263-.1353,4.4316-1.2715-.085-.9468-1.5332-2.292-3.5098-2.2266-1.9775.061-2.4648,1.3857-2.7558,1.2134-.2959-.1734.72172-2.4409.6279-3.3858a20.28892,20.28892,0,0,0-1.2168-3.5219,44.09092,44.09092,0,0,1,6.1611-.4575c1.4121.3759,8.9151,7.2304,11.7393,6.3627,1.0957-.3388,1.9629-5.102,2.3721-10.9414a6.46442,6.46442,0,0,0,3.0674-5.9331C85.27666,58.43824,83.59306,56.78834,82.37528,56.06174ZM66.90656,69.30054c-1.4151,1.3057-18.48439,2.3936-20.11628.5464-1.62791-1.8477-2.06441-10.1103.75979-11.416,2.8867-1.3311,15.11721-2.2969,17.83109-.8233C68.10086,59.08134,68.31666,67.99924,66.90656,69.30054Z"/>
    <path class="ee2d1919-47b4-415b-bb97-1b42712f2f44" d="M52.60767,61.83864c.3858,2.4356,5.086,2.0269,4.53219-.7197C56.58528,58.37334,52.04228,58.303,52.60767,61.83864Z"/>
    <path class="ee2d1919-47b4-415b-bb97-1b42712f2f44" d="M60.48956,61.00124c-.5752,2.0981,3.038,2.6704,3.4726.8115C64.595,59.09934,61.07256,58.90554,60.48956,61.00124Z"/>
  </g>
</svg>
