<svg id="b7a646e7-bb3a-4cb9-8b38-d88a9f8a3428" data-name="Layer 1" xmlns="http://www.w3.org/2000/svg" width="128" height="128" viewBox="0 0 128 128">
  <defs>
    <style>
      .b9251b83-0e4a-41fe-8088-2647c11ded32 {
        fill: #1d1d1b;
      }
    </style>
  </defs>
  <title>040</title>
  <g>
    <path class="b9251b83-0e4a-41fe-8088-2647c11ded32" d="M86.1504,44.21279c-3.3028-2.8066-6.2657-3.0693-11.8838-2.0176-5.6162,1.0396-1.2725,8.0069-11.3448,8.0972-9.9931,1.2271-6.6464-6.2363-12.3642-6.5386-5.72069-.3047-8.61329.3365-11.49608,3.5528-2.87311,3.2138-4.87211,25.9692-.57521,27.0146,1.6826.4063,6.0254.271,10.68359-.0522-.4531,1.9843-.9678,4.3598-.9795,4.7456-.0674,1.2187,1.2852,3.9028,1.2852,3.9028a28.57188,28.57188,0,0,0-2.80569,2.7285c-.1543.378-.042.7051.37009.6963l7.2022.0313c.413-.0088.4111-.2754.2939-.6724-.6143-2.291-3.5127-5.9092-3.5371-6.7676-.02148-.4653.0947-2.8227.2344-4.8203,6.6425-.5166,19.0019-1.3696,25.16112-1.6733.30268,2.0337.60158,4.5219.61128,5.0092.0371.8492-2.289,5.8111-2.9228,8.1026-.10548.3974-.1231.665.2871.6787l7.2168.0015c.4121.0122.5185-.3164.3672-.6958a27.63461,27.63461,0,0,0-2.7871-2.7442,33.62052,33.62052,0,0,0,.64352-5.4702c-.05472-.4028-.80172-2.9849-1.42282-4.9839,5.2187-.2876,10.3134-.7475,12.09182-1.4341C94.5771,69.29879,89.4404,47.019,86.1504,44.21279ZM63.749,67.67819c-11.7861-.1021-16.9131-2.0416-16.8916-5.8228.0195-3.7798,5.1748-5.6582,16.95212-5.6362,11.78028.0332,16.91118,1.8901,16.89358,5.8222C80.6718,65.97549,75.5224,67.78309,63.749,67.67819Z"/>
    <path class="b9251b83-0e4a-41fe-8088-2647c11ded32" d="M53.6728,58.50239a3.01077,3.01077,0,1,0,2.9531,3.0078A2.73167,2.73167,0,0,0,53.6728,58.50239Z"/>
    <path class="b9251b83-0e4a-41fe-8088-2647c11ded32" d="M63.6816,58.34759a3.1573,3.1573,0,1,0,3.085,3.1567A2.87524,2.87524,0,0,0,63.6816,58.34759Z"/>
    <path class="b9251b83-0e4a-41fe-8088-2647c11ded32" d="M73.7851,58.50239a3.011,3.011,0,1,0,2.9395,3.0088A2.72986,2.72986,0,0,0,73.7851,58.50239Z"/>
  </g>
</svg>
