<svg id="f49a4437-7bea-415c-84fa-48107eedb307" data-name="Layer 1" xmlns="http://www.w3.org/2000/svg" width="128" height="128" viewBox="0 0 128 128">
  <defs>
    <style>
      .e4b4b07d-225f-429f-8bb0-71123cf64187 {
        fill: #1d1d1b;
      }
    </style>
  </defs>
  <title>041</title>
  <g>
    <path class="e4b4b07d-225f-429f-8bb0-71123cf64187" d="M59.52271,45.99611c.5547-2.4053-2.5712-2.5781-3.0849-.7163C55.92312,47.13581,59.13312,47.65091,59.52271,45.99611Z"/>
    <path class="e4b4b07d-225f-429f-8bb0-71123cf64187" d="M61.98471,41.56941c.788-3.4063-3.6397-3.6485-4.3692-1.0176C56.889,43.189,61.43391,43.91751,61.98471,41.56941Z"/>
    <path class="e4b4b07d-225f-429f-8bb0-71123cf64187" d="M83.22781,66.22121c-.7334-.4399-6.8115,9.5542-7.542,10.2315-.67769.6186-6.3154-1.2745-8.5146-1.7837-.0527-.2525-.1035-.4873-.1533-.7115,3.6435-.2055,6.7656-.645,7.4131-1.1181,1.5703-1.1465,5.5498-17.6997,4.7148-19.0596-.1533-.2466-1.208-.4634-2.8213-.6357-.19039-1.6202-2.9209-5.1275-10.0693-5.1285-7.502.0035-10.8877,3.024-12.1924,5.0938-2.51469.2578-4.2686.6499-4.5654,1.1938-1.0049,1.836,1.5742,16.4424,4.2978,18.5411,1.04.7968,4.0635,1.1542,7.4971,1.2246-.041.205-.0928.4292-.1416.6689-2.1084.5308-7.875,2.6416-8.5772,2.0308-.7519-.6577-7.081-10.4903-7.8056-10.0323-.71779.4566,8.2295,18.5518,8.7519,18.3858.5225-.1611-1.0078-4.8379-.1719-5.8013.6651-.7671,5.2315-1.7715,7.2784-1.9389-.42,2.3051-.7578,4.7958-.4405,5.541.2754.6572,1.8985.7959,3.6436.6723.1933,1.0562.42871,2.0977.5098,2.8394a1.75725,1.75725,0,0,1-.0723.9653c-.419.6314-6.7012,3.562-6.5977,4.5093.1035.9404,14.5586,1.0449,14.7657-.0039.2109-1.0435-5.8604-3.7544-6.38479-4.8613a2.37772,2.37772,0,0,1-.18751-.7295,17.75359,17.75359,0,0,1,.1562-2.9825c1.3721-.2426,2.4649-.5805,2.544-.8525a31.99149,31.99149,0,0,0-.84469-5.2051c2.08589.1328,6.57709,1.0044,7.25579,1.75.8604.9434-.54779,5.6563-.0215,5.8047C75.47491,84.97711,83.96421,66.66211,83.22781,66.22121Zm-26.4453,1.8291c-.5625-6.5547,3.3692-6.6309,3.9072-1.5518C61.222,71.58251,57.16631,72.55471,56.78251,68.05031Zm9.4473-4.2134c.7549-6.5044,5.81931-6.164,5.0068,2.2378C70.681,71.85211,65.472,70.34821,66.22981,63.83691Z"/>
    <path class="e4b4b07d-225f-429f-8bb0-71123cf64187" d="M64.02571,43.667c-.34959,1.2715,1.8349,1.6231,2.1015.4937C66.51012,42.51761,64.37531,42.40141,64.02571,43.667Z"/>
    <path class="e4b4b07d-225f-429f-8bb0-71123cf64187" d="M64.802,36.38141c.294-1.2588-1.3427-1.3501-1.6123-.3794C62.92412,36.97711,64.60581,37.24561,64.802,36.38141Z"/>
    <path class="e4b4b07d-225f-429f-8bb0-71123cf64187" d="M70.44461,39.90721c.6944-2.9882-3.1914-3.2045-3.8349-.8916C65.97291,41.33161,69.96421,41.96631,70.44461,39.90721Z"/>
    <path class="e4b4b07d-225f-429f-8bb0-71123cf64187" d="M73.39971,45.12791c.3652-1.583-1.6934-1.6948-2.0273-.4716C71.03541,45.88041,73.14381,46.21631,73.39971,45.12791Z"/>
  </g>
</svg>
