<svg id="f36ded63-80a0-41bc-800f-592626bb5ff4" data-name="Layer 1" xmlns="http://www.w3.org/2000/svg" width="128" height="128" viewBox="0 0 128 128">
  <defs>
    <style>
      .a895e04e-4984-4b3c-be4c-7519aa257b05 {
        fill: #1d1d1b;
      }
    </style>
  </defs>
  <title>042</title>
  <path class="a895e04e-4984-4b3c-be4c-7519aa257b05" d="M75.41961,55.05289a11.03466,11.03466,0,0,0-3.5176-1.0771,3.62737,3.62737,0,0,0-.039-1.541c-.3906-1.604-2.02349-2.7456-2.4258-2.5869-.4004.1572.9522,1.8623-.4531,3.1079a4.90338,4.90338,0,0,0-.6983.7339,46.82559,46.82559,0,0,0-14.15429,2.1298,5.304,5.304,0,0,0-.57911-.6909c-1.3105-1.3452.16411-2.9477-.2236-3.1343-.3887-.1865-2.1045.8316-2.61229,2.4024a3.312,3.312,0,0,0,.22849,2.6758,10.71167,10.71167,0,0,0-2.6094,1.6728c-1.0058.9302-3.0654,13.9243.7393,17.3364,5.998,5.3829,30.1748-.8369,31.4961-5.3593C81.89621,66.19409,81.12861,58.18919,75.41961,55.05289Zm-7.747,7.5752c.1386-.4414,2.914-1.332,3.3476-1.1299.94531.4439,1.4199,2.9849,1.0889,3.5923-.3438.6241-2.6817,1.0293-3.39459.7578C68.15791,65.632,67.46161,63.29949,67.67261,62.62809Zm-3.1954-.707a9.55491,9.55491,0,0,1,1.71,2.5029,6.65438,6.65438,0,0,1-2.4072.5772A8.54844,8.54844,0,0,1,64.47721,61.92109Zm-4.6904-1.1929c1.2012.4117,1.9639,5.1826,1.43071,6.0572-.54011.8823-5.48931,2.2583-6.75781,1.4116-.8428-.5625-2.0723-5.21-1.7198-6.355C53.01241,60.95429,58.87761,60.41669,59.78681,60.72819ZM78.38841,71.153c-.4707.1084-.7168-.3613-1.0156-.4023-.295-.04-1.2491,1.666-1.4229,1.7676-.1738.0996-1.6826-1.1514-1.8545-1.001a17.84447,17.84447,0,0,1-1.3164,1.4756c-.2324.1025-2.1006-1.2344-2.7451-1.168-.6475.0654-1.1865,1.8545-1.6582,1.8692-.4717.0126-2.7803-.9288-3.0508-.92-.2568.0908-1.875,1.753-2.3105,1.9082-.4346.1514-1.8252-1.2812-2.4444-1.1152-.6221.166-1.6396,2.0361-1.9033,2.0234-.2627-.0136-1.7041-.8047-1.9375-.8798-.2285-.0733-.97069,1.5937-1.17869,1.5625-.208-.0333-1.93361-1.2442-2.18071-1.1036-.25.1387-.2402.6553-.7178.7188-.4794.0654-4.5341-6.7217-4.2558-6.9248.2822-.2022,3.69331,2.0273,4.1269,2.2383.4297.2138,1.2159-1.3653,1.73541-1.2373.51659.1298.81349,1.0673,1.165,1.2539.35549.1884,1.293-.9737,1.57329-1.1778.2793-.2041,1.0674,1.1846,1.5693,1.1612.5039-.0196,2.48541-2.0196,2.8477-2.25.3623-.2295.8476.9511,1.1162.8554.2724-.0986.85251-2.124,1.4219-2.2168.5683-.0966,2.1132,1.5186,2.4062,1.5088.2949-.0049.1387-1.249.585-1.164.4443.081,3.247,1.2002,3.7158,1.0439.4668-.1582.4824-1.6934.8379-1.6074.3584.0849,1.7949.8105,2.0205.5166.2256-.293.0254-1.2466.4267-1.5449.4053-.3008,1.9121.8545,2.1983.5117.28321-.3438,2.2549-3.5659,2.6133-3.4776C79.111,63.46259,78.85711,71.04559,78.38841,71.153Z"/>
</svg>
