<svg id="f69f75af-72ac-4f94-b136-434c111ce8e0" data-name="Layer 1" xmlns="http://www.w3.org/2000/svg" width="128" height="128" viewBox="0 0 128 128">
  <defs>
    <style>
      .fb88f462-1fe9-4f54-9c5b-b22bf0178818 {
        fill: #1d1d1b;
      }
    </style>
  </defs>
  <title>043</title>
  <g>
    <path class="fb88f462-1fe9-4f54-9c5b-b22bf0178818" d="M56.398,52.15664c-.0196.4327.7978.5762.8222.0386A.41156.41156,0,1,0,56.398,52.15664Z"/>
    <path class="fb88f462-1fe9-4f54-9c5b-b22bf0178818" d="M61.60014,51.90034c-.0205.4136.7901.5513.8135.0381A.40741.40741,0,0,0,61.60014,51.90034Z"/>
    <path class="fb88f462-1fe9-4f54-9c5b-b22bf0178818" d="M84.45664,58.70644a4.666,4.666,0,0,0-.6699-.3344,4.54334,4.54334,0,0,0,1.5732-1.3404c1.6797-2.5317-1.876-8.1582-5.0615-6.2046-2.4043,1.4737-4.1348,5.3038-4.5733,7.4869-.957-3.795-2.0713-6.9937-2.8877-7.9908-.62109-.7563-2.1738-1.2334-4.1435-1.4878.0019-.0483.0058-.0966.0058-.144.0049-.1406.0049-.1636.0049-.1636.0244-.9966-.0625-2.5092-1.1279-2.9751a1.57862,1.57862,0,0,0-1.4043.1021.88466.88466,0,0,0-1.2529.5469.70957.70957,0,0,0,.8564.7895c.5068-.1157.5108-.9101.7647-.958,1.4101-.3174,1.1865,1.602.92671,2.6743a39.61949,39.61949,0,0,0-4.56641-.0791c.0049-.0693.0098-.1401.0098-.2119.0088-.147.0068-.1606.0068-.1631.0234-.999-.0635-2.5107-1.1299-2.9746a1.584,1.584,0,0,0-1.4052.1016.88633.88633,0,0,0-1.252.5468.7116.7116,0,0,0,.8555.7915c.5088-.1176.5107-.9126.7675-.9594,1.5313-.3472,1.1368,1.9536.8584,2.9331-3.6562.2314-6.9892.8603-7.8759,1.6465-.6983.6215-1.3164,2.3291-1.7871,4.2622l-.461.0053s-9.2119-.1743-9.2754.1123c-.0986.4454,2.0293,1.731,2.2588,1.7427.2305.0108-.1455-.9731.2207-.9555.3623.017,1.9492.9931,2.06741.8823.12109-.107-.15721-1.1192.09279-1.1255.25-.0093,1.9707.957,2.0918.8647.1181-.0903-.0127-.9399.1601-.9521.1729-.0112,1.8252,1.1807,2.0225,1.0742.1973-.1035-.1016-1.1094.1279-1.0796.0205.0025.5147.0132.5557.0308l-.0342.1538c-.7031,3.2041-1.0049,6.7065-.6484,6.8452.2822.1104.59081-.2021,1.166-.5405a6.464,6.464,0,0,0,.8486,1.643,9.20216,9.20216,0,0,0,.4365-2.1704,5.95211,5.95211,0,0,1,1.4141-.1709,6.911,6.911,0,0,0,.5742,1.8609,7.34805,7.34805,0,0,0,.7061-1.7359,5.07881,5.07881,0,0,1,1.61331.7588,6.26886,6.26886,0,0,0-.44541,1.7822,6.17707,6.17707,0,0,0,1.3536-.9741,3.57621,3.57621,0,0,1,.9599,2.6607,8.25735,8.25735,0,0,0-2.0537.0693,7.57847,7.57847,0,0,0,1.6953,1.2539,6.24848,6.24848,0,0,1-1.1836,1.6841q-.14355.15015-.28409.2808a5.99627,5.99627,0,0,0-1.17491-1.1543,6.77371,6.77371,0,0,0,.1846,1.8999,3.62177,3.62177,0,0,1-1.7168.4926,7.66626,7.66626,0,0,0-.4404-1.8813,6.50745,6.50745,0,0,0-.8311,1.6973,6.22706,6.22706,0,0,1-1.3818-.6485,7.323,7.323,0,0,0-.1103-1.8935,4.785,4.785,0,0,0-.90629,1.1943c-.66891-.501-1.15531-.9102-1.39161-.8286-.7793.27.0049,3.9863.9131,8.8501.22951,1.2158,4.4629,1.5889,9.4551,1.4394a5.18274,5.18274,0,0,0-.42,3.2422.34084.34084,0,0,1-.2041.3799,3.39472,3.39472,0,0,0-1.3808,1.0098.16308.16308,0,0,0,.1191.2802,15.74021,15.74021,0,0,0,2.8946.1416.31118.31118,0,0,0,.2939-.3105,1.968,1.968,0,0,0-.3008-.9531,3.96168,3.96168,0,0,1-.4639-3.8086c1.8389-.0664,3.7657-.2031,5.6202-.3906a4.39573,4.39573,0,0,1-.0284,3.5,4.30406,4.30406,0,0,1-.2998.4912,1.98247,1.98247,0,0,0-.2832.9599.31083.31083,0,0,0,.2969.3047,15.95648,15.95648,0,0,0,2.8926-.1846.16416.16416,0,0,0,.1172-.2822,3.41923,3.41923,0,0,0-1.3955-.9902.33925.33925,0,0,1-.2129-.375,5.23556,5.23556,0,0,0-.59669-3.4756c4.55079-.4902,8.56839-1.2881,9.65919-2.167,1.6572-1.3359.7724-8.7114-.70119-15.1313.07519.0185.15629.0356.249.0493.98829,1.7851,3.48639,4.6098,5.36919,4.8213C84.29354,65.16594,87.14214,60.34274,84.45664,58.70644Zm-26.6084-6.5053a1.08569,1.08569,0,1,1-1.0313-1.168A1.00637,1.00637,0,0,1,57.84824,52.20114Zm5.2802-.251a1.12191,1.12191,0,1,1-1.0683-1.1675A1.0206,1.0206,0,0,1,63.12844,51.95014ZM82.857,62.22454a.34889.34889,0,0,1-.5059-.0122,2.24757,2.24757,0,0,0-.3203-.292,4.86564,4.86564,0,0,1-.3252.5576.26729.26729,0,0,1-.3809.0806.28667.28667,0,0,1-.0625-.3853,3.88083,3.88083,0,0,0,.2784-.5625,7.98485,7.98485,0,0,0-.8379-.3994c-.06639-.0273-.1358-.0532-.2051-.0801-.0381.0586-.07329.1172-.11429.1744a4.95033,4.95033,0,0,1-.375.4858.32255.32255,0,0,1-.47071.0327.35911.35911,0,0,1-.0049-.4951,4.76745,4.76745,0,0,0,.3584-.417c-.0507-.0161-.0966-.0342-.1464-.0518-.3243-.103-.6592-.2011-.9873-.2812a.44213.44213,0,0,1-.2979-.5571c.34381-.0606.6992-.1187,1.0664-.187.1748.0576.3477.1176.5225.1821.1113.0415.2217.0869.333.1304a4.05949,4.05949,0,0,0,.2383-.5606c.1709-.0449.3447-.0908.51561-.1387a.30043.30043,0,0,1,.02539.2178,4.38531,4.38531,0,0,1-.251.7041c.0449.0195.0918.0376.1357.0576.253.1172.502.2412.7452.3814.00871-.0366.0175-.0747.0253-.1109a4.57792,4.57792,0,0,0,.0743-.5166.36727.36727,0,0,1,.3603-.3466.32212.32212,0,0,1,.3057.3593,5.65409,5.65409,0,0,1-.1221.625c-.0293.1143-.0644.229-.1015.3443a3.08831,3.08831,0,0,1,.5703.5263A.39312.39312,0,0,1,82.857,62.22454Zm.0078-7.2734a2.62625,2.62625,0,0,0-.48149.1831,5.26991,5.26991,0,0,1,.41309.6455.32313.32313,0,0,1-.12109.4482.34519.34519,0,0,1-.44241-.1465,4.77237,4.77237,0,0,0-.4423-.6001,9.58126,9.58126,0,0,0-.878.6705c-.0644.0561-.1299.1162-.19429.1723.042.0737.084.1436.123.2139a6.93629,6.93629,0,0,1,.30959.6606.38435.38435,0,0,1-.2207.5176.36052.36052,0,0,1-.1006.0215.44024.44024,0,0,1-.4248-.2847,6.49,6.49,0,0,0-.2461-.6064c-.0449.0444-.0908.0849-.1338.1294-.2675.2675-.5341.5473-.7812.8286-.27639.019-.544.0464-.7988.0791a.55789.55789,0,0,1-.0762-.7715c.3135-.335.6152-.625.9287-.915.1055-.0962.21091-.189.3164-.2813a4.78415,4.78415,0,0,0-.5117-.6079.34135.34135,0,0,1-.0235-.4751.32263.32263,0,0,1,.4483-.0029,5.3116,5.3116,0,0,1,.60841.6465c.04589-.0367.08979-.0747.13669-.1119.2578-.2021.5244-.3989.8057-.5786-.0342-.0293-.06839-.061-.1055-.0879a5.04165,5.04165,0,0,0-.50389-.3593.435.435,0,0,1-.16991-.5669.38264.38264,0,0,1,.54491-.1299,6.38408,6.38408,0,0,1,.59279.4673c.1054.0937.209.1938.3105.2949a3.77645,3.77645,0,0,1,.8652-.3198.47231.47231,0,0,1,.542.3403A.41463.41463,0,0,1,82.86484,54.95114Z"/>
  </g>
</svg>
