<svg id="b6848428-fe25-45d9-ad2f-cba6f2ca1424" data-name="Layer 1" xmlns="http://www.w3.org/2000/svg" width="128" height="128" viewBox="0 0 128 128">
  <defs>
    <style>
      .a3ef5f36-1c94-4ea0-b743-f9b20e55c2af {
        fill: #1d1d1b;
      }
    </style>
  </defs>
  <title>044</title>
  <g>
    <path class="a3ef5f36-1c94-4ea0-b743-f9b20e55c2af" d="M53.19988,59.0172c.5225-.0528.5811-3.1602.5333-3.4141-.0674-.3242-10.5381,6.3906-10.3311,6.4951C43.61208,62.2086,52.67648,59.0621,53.19988,59.0172Z"/>
    <path class="a3ef5f36-1c94-4ea0-b743-f9b20e55c2af" d="M60.30048,69.7105c-.0068-.2392-2.1045-1.4033-2.1689-.9541-.07129.4483-2.7324,6.25-2.6494,6.4424A48.49354,48.49354,0,0,0,60.30048,69.7105Z"/>
    <path class="a3ef5f36-1c94-4ea0-b743-f9b20e55c2af" d="M70.38738,70.3121c.1417.4326.6446,8.6572.8106,8.7871.168.1367,2.2529-10.3437,1.94731-10.293C72.91378,68.8424,70.238,69.8814,70.38738,70.3121Z"/>
    <path class="a3ef5f36-1c94-4ea0-b743-f9b20e55c2af" d="M88.96748,35.2828c-1.042-.521-10.4717,1.7803-11.416,3.1455-.9433,1.3599-.3135,6.0703,1.05181,6.6895,1.35739.6191,3.97949-2.2935,5.44429-.8267,1.419,1.4155,1.9912,11.1577-7.7998,11.3325.9854-4.5693.72851-8.7612-1.52149-9.7597-4.22071-1.8702-8.41011.018-11.81641,3.0859a8.3116,8.3116,0,0,0-5.3613-1.8369c-3.5625-.0962-5.084.7402-5.8711,1.1592-.7861.4184-2.9805,2.3047-.9414,3.458,2.0449,1.1513,2.918-1.3179,5.1865-1.3609,2.2773-.0429,3.5596.4136,4.4443,1.2398-3.34759,4.0019-5.4267,8.6318-5.1279,10.0732a3.5033,3.5033,0,0,0,.2051.6426c-3.0547,3.5566-7.791,11.4102-10.9971,13.8086-3.3515,2.5185-8.582,2.1006-9.1103,3.1455-.5196,1.0479.8418,3.6689,1.6777,3.873.83591.2129,9.6367-1.9902,10.2637-2.4599.5527-.416,8.2549-12.5684,10.0849-15.4639a13.38087,13.38087,0,0,0,5.9414,3.9453c-1.8339,2.5713-9.167,12.8184-9.5283,13.46-.4219.7275,2.3018,10.1601,3.0381,10.1592a9.05462,9.05462,0,0,0,3.87311-1.3653c.63079-.624-2.34381-7.6435-1.96-8.3798.37989-.7071,6.19629-9.2979,9.32709-14.0206a7.02409,7.02409,0,0,0,.9122-.4335c2.63371-1.4747,4.956-5.4336,6.375-9.6553,1.4814.1299,5.9189.3252,9.4404-1.6319,4.2949-2.3798,3.3535-13.2211,3.7666-13.8525.4189-.6304,3.7715-.8364,4.1914-1.7036C93.15988,40.8844,90.01638,35.8053,88.96748,35.2828ZM69.30538,48.0997c.8594-2.228,3.8047-1.8462,2.8047.7402C71.11108,51.4205,68.88738,49.1705,69.30538,48.0997Zm-2.37209,9.6108c-5.76661-3.6826-.93451-8.0556-.30951-8.1587.1728-.0317.1826-.1171,1.1191.4161a11.53161,11.53161,0,0,0-1.1699,2.1919c.0752.2226,1.4551,1.2207,1.6728,1.0722a23.42475,23.42475,0,0,0,1.5059-2.0464c.5098.3169,1.7197,1.0962,2.2149,1.4204A23.93853,23.93853,0,0,0,70.74,54.8277c-.0401.2569,1.4492,1.0967,1.6748,1.0733a11.22467,11.22467,0,0,0,1.4873-1.9649c.7266.5342.5254.499.5615.6494C74.62478,55.193,72.69408,61.3961,66.93329,57.7105Zm6.15729-8.5131c.6992-1.8028,2.3916-.6119,1.792.9326C74.59738,50.8844,72.39818,50.9986,73.09058,49.1974Z"/>
  </g>
</svg>
