<svg id="a1f78dc7-870b-44e8-b1aa-38ea96965db4" data-name="Layer 1" xmlns="http://www.w3.org/2000/svg" width="128" height="128" viewBox="0 0 128 128">
  <defs>
    <style>
      .b9c4189a-192b-4665-8030-33b8fb4f5121 {
        fill: #1d1d1b;
      }
    </style>
  </defs>
  <title>045</title>
  <g>
    <path class="b9c4189a-192b-4665-8030-33b8fb4f5121" d="M62.05078,49.92621a1.72943,1.72943,0,1,0,1.792,1.7285A1.61452,1.61452,0,0,0,62.05078,49.92621Z"/>
    <path class="b9c4189a-192b-4665-8030-33b8fb4f5121" d="M80.45708,52.291c2.2373-1.274,6.5673-2.0948,6.3105-2.5581-.2998-.5127-4.9668-1.565-6.9463-1.9068-1.8242-7.7051-8.8486-13.062-18.4629-13.062-11.2402-.001-17.2803,6.4292-17.2822,16.2676.0019,7.2671,2.6934,13.2847,8.6396,15.9238.9483,4.417-2.7021,11.5156-4.92179,14.1489-2.583,3.0699-4.68751-.4892-6.29791,2.2632-1.4199,2.4121,2.8662,3.8672,8.2637,3.918.1738,1.7207.7539,5.6738,1.1074,5.9394.3682.2793,1.3301-4.9043,2.5889-6.1123.08591-.0087.1806-.0185.2754-.0283.2236,1.9063.7207,5.0977,1.0332,5.3281.3535.2735,1.249-4.4511,2.4258-5.9209.5732-.1357,1.1386-.2841,1.68651-.458,7.28419-2.2597,9.251-14.3032,8.55659-18.6142,5.73341-1.6514,10.15041-5.315,11.958-10.292,1.8799.0522,6.9668-.1265,7.3653-.5894C87.14058,56.08341,82.00688,54.14551,80.45708,52.291Zm-13.2393-8.6763a2.6703,2.6703,0,0,1,5.28321.7573,2.67026,2.67026,0,0,1-5.28321-.7573Zm-13.2217-2.1704a2.57717,2.57717,0,1,1,.7305,5.0991,2.57723,2.57723,0,1,1-.7305-5.0991Zm-5.2783,9.7275a2.40531,2.40531,0,0,1,2.6035-2.6411,2.57692,2.57692,0,1,1,.1309,5.1489A2.40773,2.40773,0,0,1,48.71778,51.17181Zm2.8584,6.3267a2.66988,2.66988,0,1,1,1.5273,3.3784A2.40439,2.40439,0,0,1,51.57618,57.49851Zm7.75,23.3227c-.3984.2554-1.4814.5078-3.7607.5118-2.27149.0102-2.877-.6128-2.8067-.7745.0703-.1665,3.5186-.6572,3.5371-.8193.0117-.1543-2.5595-3.0112-2.3476-3.147.2148-.1299,3.2431,1.3897,3.2002,1.1485-.0401-.2412-2.0508-3.4253-1.77249-3.6353.27829-.2104,1.94239,2.0176,2.07029,1.9107.1201-.1128,1.5352-3.1031,2.1719-3.4722.6357-.3677.71481.4272.71481.4272a14.61907,14.61907,0,0,0-1.13471,4.877C59.17578,80.17381,59.72558,80.56441,59.32618,80.82121Zm2.7266-23.1923c-4.0254,0-6.1895-2.3628-6.1895-5.9756,0-3.6114,2.1641-5.9722,6.1895-5.9722,4.0244,0,6.1875,2.3608,6.1875,5.9722C68.24028,55.26611,66.07718,57.62891,62.05278,57.62891Zm9.0654,3.248a2.57723,2.57723,0,1,1,1.5254-3.3784A2.40793,2.40793,0,0,1,71.11818,60.87691Zm1.6494-7.1973a2.57692,2.57692,0,1,1,2.73341-2.5078A2.407,2.407,0,0,1,72.76758,53.67961Z"/>
    <path class="b9c4189a-192b-4665-8030-33b8fb4f5121" d="M69.72068,44.96331a.98.98,0,1,0-.8652-1.1137A.91235.91235,0,0,0,69.72068,44.96331Z"/>
    <path class="b9c4189a-192b-4665-8030-33b8fb4f5121" d="M54.5,44.96331a.98006.98006,0,1,0-1.14351-.8237A.91623.91623,0,0,0,54.5,44.96331Z"/>
    <path class="b9c4189a-192b-4665-8030-33b8fb4f5121" d="M53.69338,59.394a.97964.97964,0,1,0-.582-1.2847A.91323.91323,0,0,0,53.69338,59.394Z"/>
    <path class="b9c4189a-192b-4665-8030-33b8fb4f5121" d="M52.40138,51.07861a1.01512,1.01512,0,1,0-.9902,1.0063A.9137.9137,0,0,0,52.40138,51.07861Z"/>
    <path class="b9c4189a-192b-4665-8030-33b8fb4f5121" d="M72.85738,50.12741a.97972.97972,0,1,0,.9903,1.0049A.91125.91125,0,0,0,72.85738,50.12741Z"/>
    <path class="b9c4189a-192b-4665-8030-33b8fb4f5121" d="M69.80278,57.57511a.97944.97944,0,1,0,1.3056.5342A.91282.91282,0,0,0,69.80278,57.57511Z"/>
  </g>
</svg>
