<svg id="f38ff467-d830-4673-a673-7fe8793c8306" data-name="Layer 1" xmlns="http://www.w3.org/2000/svg" width="128" height="128" viewBox="0 0 128 128">
  <defs>
    <style>
      .a3ff4bef-ae99-4c52-a367-e2d1938bfd7b {
        fill: #1d1d1b;
      }
    </style>
  </defs>
  <title>046</title>
  <path class="a3ff4bef-ae99-4c52-a367-e2d1938bfd7b" d="M80.66509,55.713c.002-4.2754-8.12889-12.2026-13.6045-15.959a3.47226,3.47226,0,0,0,1.335-2.9155c.001-1.6402-1.1719-2.9468-1.5527-2.8311-.3819.1143.4287,1.9566-1.0518,3.0508a3.38641,3.38641,0,0,0-1.1553,1.2246,4.28085,4.28085,0,0,0-1.9062-.605,5.91811,5.91811,0,0,0-2.27439.7515,3.78584,3.78584,0,0,0-1.23341-.9976c-1.5928-.9218-.9961-2.8393-1.3848-2.9116-.3926-.0718-1.4101,1.3565-1.2226,2.9888a3.89249,3.89249,0,0,0,1.3437,2.5771c-5.1543,4.0137-11.2373,12.0806-10.5732,16.7198.7207,5.0439,9.3486,12.4624,14.98631,14.4653,1.47849,1.4541,3.67869,4.1533,3.498,6.1377-.22551,2.4668-2.31441,5.6035-1.86621,9.1904.4473,3.5889,5.9004,7.4737,6.2744,7.3994.376-.0742-3.9609-3.2881-3.5859-7.0996.376-3.8095,2.1201-5.4287,2.6143-7.622.832-3.6963-1.251-6.6534-1.0235-8.7935C73.24329,67.568,80.669,60.57684,80.66509,55.713Zm-9.0058,1.0893c.2226.0166.5234.0567.5957-.1054,1.1338-2.6812-.334-3.669-.1699-4.4356.16111-.7671,1.4218-1.3471,2.6836-.4175,1.2578.9336,1.6347,2.2056,1.4492,5.5225-.0088.1763.02731.25.0097.4121a2.389,2.389,0,0,0,.0567.7305.47732.47732,0,1,1-.9258.2329c-.0127-.1182.0928-.3091-.0518-.3511a.79477.79477,0,0,0-.60249.1802c-.17481.1426-.06541.3506-.083.5249a.65.65,0,0,1-.58991.4829.37031.37031,0,0,1-.332-.5044c.0596-.1499.2754-.3325.1641-.4468a.82242.82242,0,0,0-.7578-.1303c-.2012.0673-.1573.2944-.2276.4428a.772.772,0,0,1-.7226.3726.347.347,0,0,1-.1289-.5703c.1601-.1934.457-.3853.4375-.5918a.74531.74531,0,0,0-.2471-.6035c-.1465-.107-.4502.042-.6826.0703-.24709.0439-.6514-.1196-.6172-.3867C70.96589,56.96934,71.41509,56.77654,71.65929,56.80234Zm-7.9785,6.1123c-.002-1.8779,1.955-1.3969,1.955.2173C65.63579,63.91514,63.68269,64.79164,63.68079,62.91464Zm-.64359-21.3525c.07419-2.1025,2.24019-1.4863,2.17479.3262C65.18079,42.75794,62.96009,43.66074,63.0372,41.56214Zm-.792-.0444c-.05371,1.4624-1.55271.7236-1.52931.1157C60.75889,40.37124,62.297,40.05194,62.2452,41.51774Zm-4.751,18.1841c-.23341-.002-.54681-.1158-.68451.0058a.72737.72737,0,0,0-.1758.625c.0039.2041.3164.3657.4941.543a.344.344,0,0,1-.0625.5791.7868.7868,0,0,1-.7627-.292c-.084-.1426-.0634-.3696-.2715-.4155a.81174.81174,0,0,0-.7382.2109c-.1006.126.1357.2842.2099.4277a.36814.36814,0,0,1-.2773.5332.64486.64486,0,0,1-.6387-.4126c-.0371-.1718.0518-.3901-.1377-.5136a.80378.80378,0,0,0-.6172-.1162c-.1425.0571-.0146.2353-.0146.3579a.49821.49821,0,0,1-.5537.4052.5107.5107,0,0,1-.3907-.539,2.49,2.49,0,0,0-.0195-.729,4.04337,4.04337,0,0,1-.042-.4102c-.541-3.2773-.3037-4.5849.8457-5.647,1.1524-1.0639,2.4707-.623,2.71491.1236.24509.7417-1.10841,1.8852.30859,4.4248.0898.1572.3867.084.60741.0439.23529-.0507.70309.086.78119.3477C58.13,59.51434,57.75009,59.71934,57.4942,59.70184Zm3.74319-13.7583c-.249-.0088-.8936.602-.9697.8593-2.0694-.6723-1.9131-2.228-.3877-3.0381.0205.3135.57521,1.1939.8906,1.2124.2695.0191.8145-.9619.8018-1.3281.2754-.0049.6181-.0141.9912-.0176.291.688.6543,1.3873.789,1.3819a4.48018,4.48018,0,0,0,.9043-1.3892c.3125-.0005.6036,0,.8428.0025.0049.3305.54,1.2822.8936,1.3247.3955.0473.8125-.8692.8047-1.2281,1.5488.5249,1.6337,2.2994-.3487,3.0191-.0732-.294-.7383-.8594-.9248-.8179-.2656.0567-.7295.9551-.7012,1.2388-.11809.0083-.3525.0132-.6367.02a4.2665,4.2665,0,0,0-.8437-1.356c-.13669-.0048-.51369.6822-.8291,1.3638-.2715.001-.4951-.0029-.6104-.0117C61.94929,46.85214,61.4532,45.95814,61.23739,45.94354Z"/>
</svg>
