<svg id="f93a80ef-4b9c-473e-a0eb-b9eb6f8baf70" data-name="Layer 1" xmlns="http://www.w3.org/2000/svg" width="128" height="128" viewBox="0 0 128 128">
  <defs>
    <style>
      .af0b6c94-47fa-4d23-9b25-b5de9c9bb822 {
        fill: #1d1d1b;
      }
    </style>
  </defs>
  <title>047</title>
  <g>
    <path class="af0b6c94-47fa-4d23-9b25-b5de9c9bb822" d="M90.70851,63.18393c-.3111-1.045-6.0708-.3145-6.9112-.7325-.8393-.4184-3.664-14.8725-4.2939-15.291-.6313-.4175-14.2451-7.228-15.5015-6.8091-1.2597-.4243-14.8735,6.3853-15.5073,6.8042-.6269.4243-3.4512,14.8794-4.2944,15.2984-.8379.4184-6.5982-.3135-6.9097.729-.2705.896-4.2446,18.3667,14.5327,23.6411-.3564,2.8359-.6753,8.0937,1.8584,8.1953,2.2974.0908,2.3653-4.3252,2.1446-7.3164a53.9393,53.9393,0,0,0,16.6494-.0488c-.3023,2.9238-.3584,7.2744,1.9448,7.3662,2.5713.0957,2.355-5.4072,2.0654-8.2832C94.914,81.36213,90.97751,64.07113,90.70851,63.18393Zm-42.2759,14.4536s-7.9971-4.2041-4.626-6.3155c3.3701-2.1201,4.4409.6885,4.4409.6885s2.2349-2.7978,4.6246-.6455C55.25681,73.52323,48.43261,77.63753,48.43261,77.63753Zm16.3027.6308-.2524.0098s-14.2212-13.9092-14.6982-14.6074c-.4766-.6983,1.3276-11.2408,1.6894-12.0025.355-.7676,10.3301-7.5376,11.8027-7.4419,1.4571-.2114,11.9356,5.7608,12.3531,6.4947.417.7343,3.0405,11.0996,2.6191,11.8339C77.82861,63.28883,64.73531,78.26833,64.73531,78.26833Zm16.5625-1.4726s-7.0268-3.7578-4.7534-6.0323c2.2788-2.2793,4.6514.4073,4.6514.4073s.918-2.8653,4.3979-.918C89.07271,72.19313,81.29781,76.79573,81.29781,76.79573Z"/>
    <path class="af0b6c94-47fa-4d23-9b25-b5de9c9bb822" d="M41.59911,58.49683c.6963-.2592,3.3989-2.7871,3.2241-3.6796-.1728-.8868-2.1889-3.3374-3.2236-3.5557-.52-.1035-2.7056,2.9624-2.5298,3.9346C39.24711,56.16823,40.90281,58.75663,41.59911,58.49683Z"/>
    <path class="af0b6c94-47fa-4d23-9b25-b5de9c9bb822" d="M57.77931,60.03053c-2.815-.0009-4.1631,2.6514-3.2388,3.1993.9234.5405,1.2857-1.3169,3.2363-1.314,1.9502-.001,2.5122,2.0517,3.2896,1.314C61.84181,62.48563,60.58841,60.03253,57.77931,60.03053Z"/>
    <path class="af0b6c94-47fa-4d23-9b25-b5de9c9bb822" d="M57.03421,38.23813c.5068-.188,2.4726-2.025,2.3442-2.6719a5.27273,5.27273,0,0,0-2.3423-2.586c-.3764-.0737-1.9624,2.1529-1.834,2.8619C55.32421,36.54423,56.52831,38.42513,57.03421,38.23813Z"/>
    <path class="af0b6c94-47fa-4d23-9b25-b5de9c9bb822" d="M67.03071,67.15213a27.27835,27.27835,0,0,0-5.4458-.0058.94179.94179,0,0,0-.2387,1.0127,3.00007,3.00007,0,0,0,5.9209-.001A.95714.95714,0,0,0,67.03071,67.15213Z"/>
    <path class="af0b6c94-47fa-4d23-9b25-b5de9c9bb822" d="M69.88871,59.72293c-2.816-.0019-4.0645,2.4575-3.2901,3.1978.7798.7402,1.336-1.3155,3.293-1.3116,1.9507-.0029,2.3125,1.8565,3.2383,1.3072C74.05421,62.37333,72.69631,59.72343,69.88871,59.72293Z"/>
    <path class="af0b6c94-47fa-4d23-9b25-b5de9c9bb822" d="M84.32081,46.94753c.8364-.31,4.0864-3.3501,3.875-4.4155-.207-1.0723-2.627-4.0181-3.876-4.2773-.624-.1319-3.2432,3.561-3.0391,4.7314C81.49171,44.15023,83.48531,47.263,84.32081,46.94753Z"/>
  </g>
</svg>
