<svg id="bd00a648-71fd-44b6-a0d4-7440aa79f7b7" data-name="Layer 1" xmlns="http://www.w3.org/2000/svg" width="128" height="128" viewBox="0 0 128 128">
  <defs>
    <style>
      .bd4b7a55-e958-45b5-a28d-fffff54955b0 {
        fill: #1d1d1b;
      }
    </style>
  </defs>
  <title>048</title>
  <path class="bd4b7a55-e958-45b5-a28d-fffff54955b0" d="M76.867,71.71508c.10639-.7524.21379-6.355.29289-9.4272,6.523-1.7002,10.7823-4.6953,10.6949-9.273-.11579-7.1425-6.6377-20.1743-24.4507-20.1352-13.1543.0249-23.124,11.3139-23.2588,19.5503-.0928,5.3305,4.1792,8.709,10.771,10.3569.2202,3.3989.6894,9.6548,1.1099,10.2759a1.77412,1.77412,0,0,0,1.2197.5117c-.2066,4.4053-.4883,10.374-.5254,10.9805-.0552.8955-.1777,7.9218-.1777,7.9218a9.29492,9.29492,0,0,0-2.2603.876,3.39836,3.39836,0,0,0-1.2417,1.249c-.1221.2774-.0454.5215.2583.5186l6.7168-.0635c.3052-.0029.2969-.2011.2222-.4951-.4336-1.6875-.93409-9.4004-.9507-10.0303-.0176-.6884-.0112-6.7265-.0049-10.9941a2.97369,2.97369,0,0,0,1.2578-.3984c.6885-.5567-.208-5.4454.30671-5.3555.51459.0752,1.29539-.5488,1.87539.2998.58161.8574.7818,5.0644,1.8111,5.2295a14.11044,14.11044,0,0,0,1.9331.0996c.08641,4.2705.2065,10.3848.2007,11.0762-.0049.6318-.36229,8.3545-.7627,10.0488-.0699.2959-.0738.4932.23041.4912l6.71539-.0625c.3051-.0029.3784-.248.2495-.5234a3.40468,3.40468,0,0,0-1.2632-1.2266,9.2923,9.2923,0,0,0-2.2764-.832s-.2534-7.0225-.3252-7.918c-.0503-.6133-.45409-6.7363-.7436-11.1553a3.3488,3.3488,0,0,0,1.4043-.3506c.6391-.5097.2231-4.1401.3213-4.8833.1084-.746,3.9258-1.2622,3.768-.145-.1479,1.1167.2588,5.0723,1.1968,5.2227a8.45628,8.45628,0,0,0,1.8682-.0791c.0854,4.2773.2114,10.626.2041,11.332-.0044.6309-.3604,8.3526-.7608,10.0488-.0698.2959-.0747.4932.2295.4893l6.7173-.0625c.3027-.0029.376-.2471.2481-.5225a3.39866,3.39866,0,0,0-1.2627-1.2265,9.32626,9.32626,0,0,0-2.2769-.833s-.2544-7.0215-.3262-7.917c-.0512-.6387-.4853-7.2305-.7758-11.6709C76.02223,72.46418,76.81033,72.12718,76.867,71.71508ZM53.01543,54.33478c-.0039-9.0943,10.979-11.7891,10.9819-1.2286C63.99783,63.658,53.01743,58.719,53.01543,54.33478Zm9.9243,7.8173c-.15769-.4545,2.4658-5.1757,3.0659-5.1445.5992.0327,3.2232,4.6831,3.0665,4.9038C68.92363,62.12328,63.05013,62.49878,62.93973,62.15208Zm5.0479-9.1342c-.0025-7.3501,7.6548-5.4673,7.6548.8632C75.64243,56.93728,67.991,60.37668,67.98763,53.01788Z"/>
</svg>
