<svg id="bfda3b25-495b-4437-ba88-196ff42cc441" data-name="Layer 1" xmlns="http://www.w3.org/2000/svg" width="128" height="128" viewBox="0 0 128 128">
  <defs>
    <style>
      .a18fa83e-a393-4c72-b02b-201cb9ab71d9 {
        fill: #1d1d1b;
      }
    </style>
  </defs>
  <title>049</title>
  <g>
    <path class="a18fa83e-a393-4c72-b02b-201cb9ab71d9" d="M65.91017,64.33517l-.7358-.7597.2602,1.0366c.2749,1.0986.5459,2.1987.8379,3.2934.1446.5591.293,1.1192.4429,1.6763-.1802-.2339-.3608-.4673-.54-.7026-.5171-.6768-1.0513-1.3399-1.5757-2.0122l-.3809-.4864-.0356.6026c-.0503.8564-.1055,1.7143-.1392,2.5713-.645.2475-1.29.4912-1.9307.7544.6993-.1709,1.3926-.3643,2.087-.5508l.0708-.0196.0141-.0859c.1021-.6763.1909-1.3525.2808-2.0293.3769.5371.7534,1.0747,1.1396,1.6074.4991.69.9922,1.3848,1.5005,2.0679l.9927,1.3335-.4194-1.6118q-.42555-1.645-.8745-3.2832c-.2056-.7637-.4209-1.5249-.6382-2.2862.79.7417,1.5849,1.4795,2.3921,2.2046l.0815.0747.0854-.0454c.793-.4209,1.5938-.8266,2.3785-1.2646-.8072.3017-1.6016.6328-2.4019.9531C67.85157,66.34647,66.88427,65.33717,65.91017,64.33517Z"/>
    <path class="a18fa83e-a393-4c72-b02b-201cb9ab71d9" d="M40.91357,69.74047c-.3266.9927.5166,2.5088.9043,3.1294.0967.1567.1387.1343.0933-.044a5.6739,5.6739,0,0,1-.2051-2.3164,1.43921,1.43921,0,0,1,.3428-.5639,5.48985,5.48985,0,0,1,1.7266-.9522c.1733-.0649.1669-.1147-.0186-.1128C42.99227,68.888,41.16117,68.98807,40.91357,69.74047Z"/>
    <path class="a18fa83e-a393-4c72-b02b-201cb9ab71d9" d="M48.76807,68.02167c-.209.0674-.1963.126.0215.1314a6.53266,6.53266,0,0,1,2.3013.4058,1.70241,1.70241,0,0,1,.6001.4985,12.80387,12.80387,0,0,1,.7851,3.75c.0181.2173.0728.2251.1231.0117.1953-.8437.4316-3.9399-.3145-4.9263C51.71827,67.14427,49.629,67.73557,48.76807,68.02167Z"/>
    <path class="a18fa83e-a393-4c72-b02b-201cb9ab71d9" d="M45.44487,66.38407a7.21854,7.21854,0,0,0-1.0225.2348,5.62762,5.62762,0,0,0-.9682.3941,7.86731,7.86731,0,0,1,1.0024-.2574c.3394-.06.6753-.1181,1.0156-.145.2618-.022.5244-.0312.7852-.0322-.0933.021-.187.0405-.2813.0625-.2539.0596-.5048.1265-.7553.2007a3.93872,3.93872,0,0,0-.7525.2817l-1.0639.5713,1.1582-.3276a9.318,9.318,0,0,1,1.2085-.2539,7.46589,7.46589,0,0,1,1.2421-.105,4.829,4.829,0,0,0-.8808-.0694c.4741-.102.9507-.2006,1.4267-.2963l1.042-.209-1.0537-.1114A7.61942,7.61942,0,0,0,45.44487,66.38407Z"/>
    <path class="a18fa83e-a393-4c72-b02b-201cb9ab71d9" d="M81.93807,51.11257a19.80573,19.80573,0,0,1-3.4043-8.2754,18.77249,18.77249,0,0,0,1.4316,1.4111,10.43565,10.43565,0,0,0,3.0693,1.9697,4.73963,4.73963,0,0,0,1.8726.3394,3.59749,3.59749,0,0,0,1.8516-.5991,1.9622,1.9622,0,0,0,.708-.7896,1.90828,1.90828,0,0,0,.1533-1.0537,3.15139,3.15139,0,0,0-.2827-.9414,4.4873,4.4873,0,0,0-.315-.5527c2.3003-.8941,2.8306-5.4898.5816-7.2129-1.9654-1.5054-6.4976-1.4585-4.9146,2.4057,0,0-.5854-2.1337,1.0254-1.9868,1.6104.1465,1.5049,1.6314.7944,2.8648-.6933,1.2041-1.0434,4.3476,1.813,4.0805a3.15923,3.15923,0,0,1,.5928,1.4209,1.11567,1.11567,0,0,1-.5718,1.1411,2.83037,2.83037,0,0,1-1.458.4332,3.98845,3.98845,0,0,1-1.5493-.3218,9.64881,9.64881,0,0,1-2.7607-1.875,18.469,18.469,0,0,1-2.1621-2.3946.368.368,0,0,0-.0733-.2265c-.334-.2925-.334-.7095-6.5234,1.1294a41.79171,41.79171,0,0,0-10.8882,5.1445A1.70754,1.70754,0,0,0,59.17777,46.2a6.37388,6.37388,0,0,0-4.8882-2.7964c-4.0073-.2525-5.4341,2.3745-5.4062,2.5649.0268.1909,2.9814-.3696,4.9067.8076a3.60368,3.60368,0,0,1,1.5518,2.7071,1.65357,1.65357,0,0,0-.1299,1.2329,7.67,7.67,0,0,1-3.1358,2.4668,6.79713,6.79713,0,0,1-3.3247.9199,1.927,1.927,0,0,0-1.2138-.2715,2.92791,2.92791,0,0,1-1.024-1.4844c-.2714-1.3803.9414-3.1987.795-3.3252A5.40835,5.40835,0,0,0,43.753,51.845a5.58524,5.58524,0,0,0-.0869,4.4653,1.70962,1.70962,0,0,0,.5049,1.9536s.7114-.104,1.6728,2.4273c.6885,1.8086-.147,3.7007-1.0674,5.0654-2.9091.4888-5.4585,1.0801-5.832,1.499-1.0044,1.1309,1.0454,9.8706,4.3071,10.959a11.62141,11.62141,0,0,0,4.6675.3584c.1397,1.8985.5342,5.5044,1.5493,5.8721a14.87456,14.87456,0,0,0,3.4073.6382,9.01043,9.01043,0,0,0-1.7295,3.666c-.6211,2.7519-.5259,4.5498-.2393,4.6543a40.598,40.598,0,0,0,5.8696,0c.1924-.1768-1.2402-2.5029-1.4321-4.6543a9.343,9.343,0,0,1,.3818-3.4932c1.8189.0572,3.876.0381,6.0469-.0527a9.35032,9.35032,0,0,1,.397,3.5459c-.1914,2.1514-1.6235,4.4775-1.4317,4.6543a40.61321,40.61321,0,0,0,5.8707,0c.2861-.1045.3818-1.9024-.2383-4.6543a9.02263,9.02263,0,0,0-1.7564-3.6973c2.9268-.1943,5.9658-.5039,8.8599-.9175a10.56388,10.56388,0,0,0-1.8081,3.9468c-.6192,2.749-.5249,5.2178-.2388,5.3223a40.60486,40.60486,0,0,0,5.8701,0c.1924-.1768-1.2402-3.1738-1.4306-5.3223a11.31963,11.31963,0,0,1,.5976-4.4204c2.0708-.3618,4.0059-.7812,5.6983-1.2505a17.49944,17.49944,0,0,1,.5283,5.0015c-.1909,2.1499-1.6216,5.8149-1.4312,5.9917a40.60506,40.60506,0,0,0,5.8701,0c.2867-.1045.3824-3.2412-.2387-5.9917a18.3111,18.3111,0,0,0-2.5322-5.687c2.0463-.7315,3.5058-1.5567,4.061-2.4649C91.43067,74.32447,86.20317,57.721,81.93807,51.11257Zm-30.9239,10.4165s-.3833,1.6216-1.6176,1.5205c-1.2339-.1011-1.8316-1.9995-1.8316-1.9995A12.94569,12.94569,0,0,1,51.01417,61.52907Zm3.167,14.3154c-1.4575,1.4575-4.6645,2.4766-7.7978,2.4766a9.74131,9.74131,0,0,1-3.0259-.4248c-1.7544-.584-3.1568-3.7076-3.8218-6.2032-.6455-2.4111-.585-3.9404-.3413-4.2133.6118-.6641,9.7051-2.2803,13.689-2.2803a2.95666,2.95666,0,0,1,1.0551.1011c.3262.1538.8208,1.1665,1.1397,3.0219C55.56257,71.13157,55.40877,74.61647,54.18117,75.84447Zm.4561-13.9067c-1.166.8296-2.5078-.5542-2.5078-.5542a14.87407,14.87407,0,0,1,3.146-2.5161S55.80427,61.10767,54.63727,61.93777Zm18.1142,9.6547a11.92826,11.92826,0,0,1-2.5229,5.0577l-.0742.0913-.1148-.0454c-1.6113-.6211-3.208-1.2686-4.768-2.0352a17.3075,17.3075,0,0,1-2.2447-1.3589c-.6445-.4507-1.2661-.9228-1.8813-1.4155a7.3654,7.3654,0,0,1-3.0991,1.314,11.9605,11.9605,0,0,1-1.8189.2031c-.2388.0078-.4751.0088-.7109.0049.0464-.2945.081-.5987.1054-.9107q.2982.0183.5928.0215a10.80543,10.80543,0,0,0,1.6963-.1113,6.54751,6.54751,0,0,0,2.9404-1.1182,25.07106,25.07106,0,0,1-.1972-3.0908,20.85736,20.85736,0,0,1,.2373-3.2842,12.24553,12.24553,0,0,1,.9121-3.1782,6.47062,6.47062,0,0,1,2.0508-2.6025.1739.1739,0,0,1,.0908-.0328,7.75546,7.75546,0,0,1,5.2363,2.1026,11.43183,11.43183,0,0,1,1.8628,2.1777,12.7136,12.7136,0,0,1,1.3242,2.5366A9.83737,9.83737,0,0,1,72.75147,71.59247Z"/>
  </g>
</svg>
