<svg id="fce567b7-a5d0-418e-9f84-9fc4fbde2d28" data-name="Layer 1" xmlns="http://www.w3.org/2000/svg" width="128" height="128" viewBox="0 0 128 128">
  <defs>
    <style>
      .b7090868-b4ba-4d7f-b2a8-122f841c6fe8 {
        fill: #1d1d1b;
      }
    </style>
  </defs>
  <title>050</title>
  <path class="b7090868-b4ba-4d7f-b2a8-122f841c6fe8" d="M83.14945,45.62916c-2.5962-1.8799-5.1987,2.0752-6.478,4.5069a16.45538,16.45538,0,0,0-11.2856-4.3604c.2387-2.6982.1586-8.7197-5.5728-7.5752-3.4497.6826-1.7656,6.1309-.8589,8.4922a15.96271,15.96271,0,0,0-8.2959,5.5449c-1.894-1.9736-4.7412-4.1728-6.5718-2.0625-3.62447,4.2041.8506,7.1485,3.4336,8.4033-2.1587,7.6631-.0674,16.2198,2.2979,17.8731.9951.6943,3.3735.9307,6.4399.8594-.2876,1.6533-.602,3.5654-.6406,4.247-.064,1.209.1733,5.7618.1733,5.7618a7.44433,7.44433,0,0,0-3.2539.5908,2.98114,2.98114,0,0,0-1.3012,1.3125c-.1866.374-.0684.709.4096.7187l11.2642-.0107c.4702.0195.4526-.25.3364-.6504a46.00174,46.00174,0,0,1-1.0928-7.958c-.0454-.8408-.0336-2.8721-.0087-4.4307,2.4648-.2627,5.0566-.6386,7.559-1.0752.1548,1.5918.3702,3.8838.3955,4.8028a44.66693,44.66693,0,0,1-.9511,8.6709c-.1143.4082-.1319.6689.3423.6513l11.2622-.0312c.4746-.0186.601-.3506.4111-.7129a3.03211,3.03211,0,0,0-1.3101-1.3203,7.57106,7.57106,0,0,0-3.2578-.5811s.1988-5.7881.0313-6.9765c-.1172-.8926-.8897-3.837-1.3726-5.5928,4.5088-1.0108,8.0132-2.1309,8.7598-3.0176,1.2036-1.417.664-9.5869-3.249-16.3809C82.46935,54.12826,88.40485,49.44166,83.14945,45.62916Zm-31.7622,19.2393c-1.519-8.2979,9.9942-12.961,11.7735-3.3203C64.92925,71.17406,52.127,68.87236,51.38725,64.86846Zm16.1011-4.2002c-1.2324-6.707,7.4287-6.5254,8.4946-.7471C76.49465,62.70826,68.72075,67.37526,67.48835,60.66826Z"/>
</svg>
