<svg id="bb91f6e7-4fe8-4cad-8547-62a023d6171b" data-name="Layer 1" xmlns="http://www.w3.org/2000/svg" width="128" height="128" viewBox="0 0 128 128">
  <defs>
    <style>
      .a804a19a-bf52-4dcf-bd9e-eaaf2cc0d82f {
        fill: #1d1d1b;
      }
    </style>
  </defs>
  <title>051</title>
  <path class="a804a19a-bf52-4dcf-bd9e-eaaf2cc0d82f" d="M82.92661,54.95536a14.65024,14.65024,0,0,0-2.8594-9.1328c.4619-2.8804,1.0698-12.2588.3277-12.6704-.6416-.3482-5.607,4.5439-8.2984,7.6352a26.81344,26.81344,0,0,0-7.062-.8803,22.31719,22.31719,0,0,0-10.8457,2.4048c-3.0171-2.4239-8.3325-6.2203-8.9561-5.8794-.8007.4345,1.6231,10.9897,2.6836,13.3559a16.67355,16.67355,0,0,0-.7793,5.166c0,7.8125,4.6138,13.2862,13.2774,14.6856a17.68947,17.68947,0,0,0-1.3477,5.415c-.2461,2.5078.7539,5.7695-.1518,6.7285-2.8472,3.0157-3.7837,10.7276.999,12.8907,3.2939,1.4912,5.833-6.001,1.9043-13.2325a12.955,12.955,0,0,1-1.3389-6.7089c.2915-2.0577,1.7613-3.6368,2.2324-4.8174.7486.0527,1.5166.0879,2.3165.0879a29.23653,29.23653,0,0,0,4.1884-.2881,27.0439,27.0439,0,0,1,1.9146,4.8271,15.46068,15.46068,0,0,1-1.0728,7.4805c-3.312,4.8867-1.1714,9.9541,1.6035,8.9453,4.0303-1.4629,3.2417-6.6758.8418-8.7168-.7622-.6484.4283-4.9687.0557-7.459a39.68275,39.68275,0,0,0-1.1772-5.498C78.92461,67.47486,82.92661,62.22786,82.92661,54.95536Zm-11.1631-1.6445c.0137,1.497-3.7104,3.2148-3.7451-.3858C67.97351,49.33716,71.72691,50.21516,71.76351,53.31086Zm-13.3398.0898c-.045-4.4365,5.3056-5.8193,5.3618-.6504C63.84071,57.90846,58.43881,55.54716,58.42371,53.40066Zm13.9589,8.3057a3.63386,3.63386,0,0,1-3.3364,2.2832,3.3,3.3,0,0,1-2.7026-1.7783,3.39334,3.39334,0,0,1-3.0498,1.7187,3.60739,3.60739,0,0,1-3.0742-2.626c-.107-.4404-.0611-.9697.3173-1.1259.3897-.1573,1.2364,1.9599,2.8482,2.0439,1.1557.0615,2.0166-.9844,2.5532-1.4834a.78409.78409,0,0,1,.0884-.251c-.8906-.709-2.6665-2.9248-2.5684-3.206.064-.2598,5.1734-.4639,5.3282-.3242a12.7785,12.7785,0,0,1-2.0826,3.5615c.4795.5537,1.2539,1.6943,2.4336,1.7549,1.6109.0859,2.6367-1.9873,3.0493-1.7188C72.59941,60.82446,72.534,61.28156,72.38261,61.70636Z"/>
</svg>
