<svg id="ab28b1fa-5490-4df6-af64-04f860e52413" data-name="Layer 1" xmlns="http://www.w3.org/2000/svg" width="128" height="128" viewBox="0 0 128 128">
  <defs>
    <style>
      .f5046c27-8348-414f-bcd9-031dab5b81da {
        fill: #1d1d1b;
      }
    </style>
  </defs>
  <title>052</title>
  <path class="f5046c27-8348-414f-bcd9-031dab5b81da" d="M82.44742,57.25977c-.7539.378-.3755,1.6358-1.6377,2.1729-.9742.417-4.8116-2.0234-6.4908-3.1406,1.502-4.0938,2.6026-7.0498,2.7188-7.083,1.2578-.3741,9.3057,4.0253,10.3125,3.3984,1.0063-.6328,2.4087-6.6309-.7515-10.8203-4.2773-5.6592-34.0913-16.0977-44.1538,5.789-4.7768,10.3975-2.3213,18.0225,2.4082,23.3584.4698,4.1846-.3413,9.7832-2.2495,10.2823-2.1684.5722-4.9057.0312-5.09129,1.0537-.19041,1.0273,2.82859,2.9375,6.22269,1.7959a11.40188,11.40188,0,0,0,6.8545-8.249,34.71415,34.71415,0,0,0,3.1254,1.8349c2.3169,2.6065,5.2779,6.0166,5.40041,6.7676.18749,1.1396-5.37791,8.4072-5.28271,9.0684.0943.6552,13.3003-.1895,13.3013-1.2286.0005-1.038-4.4375-2.1611-4.6235-2.9218-.1919-.7569,1.4638-2.6162,1.5576-3.6914.07131-.7618-2.7735-3.7969-4.4053-5.4707,2.6777.8847,4.6445,1.1787,5.0464.9794.6235-.3105,4.7163-11.4638,8.0161-20.5058,2.3325.3486,6.2588,1.0283,6.7036,1.6406.6289.8818-2.0117,4.1494-2.0146,4.9024.0029.7617,7.4223,4.2793,8.3022,3.9033.8794-.375,3.0176-5.4053,2.832-6.1602-.1919-.7597-5.7265-2.0166-4.5942-3.2763,1.1328-1.2598,5.2847,1.3876,5.7852,1.5136.5063.124.7563-3.0215.7568-3.6933C90.49672,58.80377,83.20133,56.88187,82.44742,57.25977Zm-.0225-13.1953a1.84,1.84,0,0,1,1.8125,1.8662,1.81173,1.81173,0,1,1-3.6216.0049A1.83673,1.83673,0,0,1,82.42492,44.06447Zm-17.3477,13.6866c-4.5463,11.3007-8.3232,9.3183-9.1723,10.0712-.8511.7559-.8394,4.5079-1.5098,4.8155-2.2607,1.0351-14.6621-10.084-8.2051-24.8311,4.4327-10.1328,17.23931-9.3574,19.7168-9.3555.4693,0-1.7988,3.9961-1.7046,4.2813C64.30192,43.01567,69.62172,46.44337,65.07722,57.75107Z"/>
</svg>
