<svg id="a0cd9c5c-ca74-4386-9272-1c45c80cdf07" data-name="Layer 1" xmlns="http://www.w3.org/2000/svg" width="128" height="128" viewBox="0 0 128 128">
  <defs>
    <style>
      .b41de412-604e-4315-99bd-cdd35b651ec1 {
        fill: #1d1d1b;
      }
    </style>
  </defs>
  <title>053</title>
  <path class="b41de412-604e-4315-99bd-cdd35b651ec1" d="M63.81591,41.97965c-11.15671.3291-15.43311,5.455-17.13671,11.4843-1.7021,6.0411,4.3975,26.585,5.0552,26.5889.6577.002-.1279-8.4697,4.9243-8.4639,5.05321-.0039,4.7227,14.3038,5.0488,14.4405.3536-.0391,2.3316-14.2481,7.0928-14.833,4.7974-.5928,6.895,7.0898,7.4888,7.2832.5835.1933,4.73-11.8789,5.2685-18.8379C82.4414,48.31265,73.7232,41.69055,63.81591,41.97965ZM58.3496,60.96785c-4.40869-2.1767-2.8574-6.4443-2.1782-6.5732.85451-.1582,8.0381,3.5801,8.4058,3.8857C64.9444,58.58415,62.7696,63.14565,58.3496,60.96785Zm15.11331-1.8291c-2.88871,2.8497-5.76171-.1445-5.56-.4794.20259-.334,4.84909-5.1348,5.55459-5.2334C74.023,53.35365,76.33891,56.28035,73.46291,59.13875Z"/>
</svg>
