<svg id="a5c48caf-d85f-439b-bc9e-53f3012dafbb" data-name="Layer 1" xmlns="http://www.w3.org/2000/svg" width="128" height="128" viewBox="0 0 128 128">
  <defs>
    <style>
      .b8f5f937-9673-495c-b38a-5db9b988f301 {
        fill: #1d1d1b;
      }
    </style>
  </defs>
  <title>054</title>
  <g>
    <path class="b8f5f937-9673-495c-b38a-5db9b988f301" d="M63.65926,54.34362c-4.55031.3642-8.00241.1982-7.93991,1.0751.0718.8848,3.5151.8936,8.0742.5284,4.5513-.3623,7.94871-.9258,7.877-1.8076C71.60026,53.26052,68.21885,53.98122,63.65926,54.34362Z"/>
    <path class="b8f5f937-9673-495c-b38a-5db9b988f301" d="M99.14905,35.59752c-.88379.1201-5.127,3.7451-6.771,5.1738-.04879-.0635-.0982-.1338-.1475-.1963-5.9414-7.7314-48.8076-2.9473-55.5122.6914a3.62334,3.62334,0,0,0-1.2075,1.3643c-1.6909-1.5137-5.7251-5.0703-6.5942-5.2012-1.0992-.1758-4.7246,3.4277-4.8038,4.0859-.0429.4434,1.2691,3.1641,2.4961,1.9795.9468-.914,2.4439-3.0722,3.0596-2.876a49.16577,49.16577,0,0,1,4.8574,4.2588c-1.4775,4.3272-1.9804,11.2774,1.2198,14.4785,1.4858,1.4864,4.3964,2.0577,7.7041,2.1944-1.4961,4.0049-6.7139,7.9023-5.6368,10.3926.6729,1.5576,6.5748,6.0283,9.0415,7.6621.2618.1767.3516.3027.6099.4472a7.03558,7.03558,0,0,1,1.04881.8526c.24129.2138.74959.499,1.05469.2324.28131-.2725.0991-.8643-.15869-1.0713-.166-.1416-.518-.2226-.49171-.4385.0298-.2597.3599-.455.6402-.5078.3032-.0556.5517.3028.8213.4697.271.1817.8916.1817,1.0698-.1787.1611-.3652-.2354-.8427-.5459-.9297-.2622-.0927-.6568-.0341-.7691-.2871a.95137.95137,0,0,1,.2642-1.0332c.2246-.1601.53321.1309.7935.2139.313.1035.9072-.0605.98871-.4551.05809-.3916-.44241-.7519-.769-.7539-.38821-.0273-.85011.1153-1.14551-.1308a1.87974,1.87974,0,0,1-.7471-.9327c-.0732-.2851.332-.4902.5064-.7265a.74928.74928,0,1,0-1.2774-.7315c-.1123.2862-.2353.6856-.5141.5869-1.5909-.5273-4.3741-1.1601-5.75829-3.458-.68661-1.1572,2.43109-5.414,5.478-9.249,5.66009-.2568,11.21089-1.124,12.23479-.5703,1.4244.7666,1.3506,11.5469,1.5953,18.1338-9.60309,2.7998-7.45609,12.8965-6.8433,13.0644a4.14837,4.14837,0,0,0,3.0405-.623c.38671-.4414-.6528-7.0107,3.9956-9.2363a6.36277,6.36277,0,0,0,.28911,1.6474c.96289,2.2071,5.105,2.6231,7.31879.9659.38721-.292.5933-1.1534.6914-2.3956,5.1871,2.5274,3.4239,9.292,3.6553,9.6436.2808.416,2.1406.3477,2.9693-.415.7168-.6543,1.3837-10.6914-6.5923-12.9151-.2227-6.6875-1.5308-16.5449-.5899-17.6758.5103-.6084,3.8228-1.1074,7.8941-1.5693,3.3134,3.8613,6.9531,8.4072,6.2676,9.6397-1.3091,2.3427-4.0699,3.0683-5.6402,3.6416-.2812.1074-.4165-.2872-.5386-.5606a.8321.8321,0,0,0-1.0893-.3799.84657.84657,0,0,0-.167,1.1524c.1929.2265.5981.4091.5381.7031a1.87034,1.87034,0,0,1-.7241.957c-.2828.251-.7481.128-1.1294.1621-.333.0215-.8204.3916-.7525.7862.0933.3906.6953.5361,1.001.4179.2588-.0879.561-.3867.7871-.2382a.93766.93766,0,0,1,.2969,1.0273c-.0977.2529-.4966.2139-.7539.3096-.3067.1015-.689.5888-.5147.9482.188.3496.8057.334,1.0708.1465.2647-.1807.502-.5381.8076-.4961.2808.0361.61191.2275.6578.4854.0317.2168-.31889.3085-.479.4541-.2525.2177-.4141.8095-.1241,1.08.312.252.8067-.0507,1.0503-.2744a6.66791,6.66791,0,0,1,1.0176-.8818,6.3469,6.3469,0,0,0,.63331-.4942c1.09379-.791,7.90139-5.7783,8.74609-7.9277,1.0737-2.7324-5.2515-6.8603-6.2847-11.1631,5.8975-.624,11.8179-1.2422,12.7075-2.0664,1.6285-1.5019,2.9205-7.4414-1.3002-14.3027a43.40029,43.40029,0,0,1,4.6538-3.9268c.6167-.1885,2.08,2,3.0097,2.9199,1.2046,1.2051,2.5669-1.4912,2.5279-1.9335C103.82185,39.10722,100.25355,35.43932,99.14905,35.59752Zm-31.6245,9.6084c.7822,3.9267-5.9302,4.5127-6.48729,1.0351C60.23055,41.18242,66.73355,41.27912,67.52455,45.20592Zm-27.4517,1.9072c-.728-4.5772,5.147-4.4805,5.8618-.9395C46.64265,49.72542,40.57726,50.25472,40.07285,47.11312Zm17.4165-1.9024c.7822,3.9278-5.9292,4.5118-6.4878,1.0284C50.195,41.17852,56.69835,41.282,57.48935,45.21072Zm6.1104,12.709c-6.8174.544-11.9453.7647-12.1709-2.0605-.2261-2.8242,4.9077-2.9863,11.7163-3.5371,6.8174-.544,11.9048-1.208,12.1313,1.6259C75.51085,56.77032,70.40835,57.36892,63.59975,57.91972Zm13.0493-10.1699c-.707.7266-1.647.0293-3.0059-1.2881-1.3545,1.3203-2.2915,2.0195-3.0083,1.2901-.72359-.7129-.0303-1.6524,1.2871-3.0059-1.3134-1.3594-2.01069-2.2959-1.2851-3.0117.7163-.7285,1.64741-.0293,3.0063,1.2871,1.3555-1.3115,2.292-2.0117,3.0088-1.2822.7241.7148.0298,1.6464-1.2866,3.0068C76.67835,46.10622,77.37605,47.034,76.64905,47.74982Zm3.5014-2.0635c-.8051-5.0586,5.6973-4.9541,6.4874-1.0283C87.42975,48.58382,80.70955,49.17072,80.15045,45.68632Zm11.3501-.164c-.3886,1.6533-3.5859,1.1435-3.06929-.7129C88.94005,42.95492,92.05775,43.12582,91.50055,45.52232Z"/>
  </g>
</svg>
