<svg id="ae95aff1-0f52-47a8-b6de-95c8e88f3188" data-name="Layer 1" xmlns="http://www.w3.org/2000/svg" width="128" height="128" viewBox="0 0 128 128">
  <defs>
    <style>
      .fce5b77e-9e8f-4d5a-bc1d-a670478667f5 {
        fill: #1d1d1b;
      }
    </style>
  </defs>
  <title>055</title>
  <path class="fce5b77e-9e8f-4d5a-bc1d-a670478667f5" d="M73.4609,59.9836c-.7382-3.3711-4.4843-5.2432-9.5888-5.6436-5.0987.5352-8.79009,2.5059-9.4395,5.8955-.6523,3.3877.31641,13.3633.6328,13.4239.3164.0585,3.2071-4.1211,3.7637-4.1651.5586-.042,4.8193,4.0703,5.29791,4.1318.47359-.0742,4.625-4.2959,5.18159-4.2675.5605.0254,3.5605,4.1289,3.873,4.0615C73.4971,73.3508,74.2022,63.3517,73.4609,59.9836ZM58.9971,64.9133c-2.5235-1.1055-1.7696-3.5313-1.3897-3.6192.4717-.1113,4.5869,1.793,4.7998,1.9551A2.31481,2.31481,0,0,1,58.9971,64.9133Zm10.2627-.6553a2.3156,2.3156,0,0,1-3.6592-1.0078c.1797-.1973,3.873-2.8262,4.35741-2.8057C70.3457,60.4631,71.5381,62.7052,69.2598,64.258Z"/>
</svg>
