<svg id="b8f17bbb-e998-4e06-9991-d6817d78b634" data-name="Layer 1" xmlns="http://www.w3.org/2000/svg" width="128" height="128" viewBox="0 0 128 128">
  <defs>
    <style>
      .bf0888db-a840-45fb-bb77-167a0db4e79c {
        fill: #1d1d1b;
      }
    </style>
  </defs>
  <title>056</title>
  <g>
    <path class="bf0888db-a840-45fb-bb77-167a0db4e79c" d="M55.19,50.0504c-1.5048,0-3.2089.5283-3.2089,1.8867.0009,1.3623,2.5507,2.1827,4.0556,2.1827a2.09066,2.09066,0,0,0,2.3106-2.253C58.34734,50.5094,56.69594,50.0504,55.19,50.0504Z"/>
    <path class="bf0888db-a840-45fb-bb77-167a0db4e79c" d="M64.74674,50.3658c-1.24809-.0136-2.7178.2559-2.7334,1.4825a1.8131,1.8131,0,0,0,2.041,1.9033c1.248.0127,3.8252-.6514,3.8379-1.8779C67.90784,50.65,65.99474,50.3795,64.74674,50.3658Z"/>
    <path class="bf0888db-a840-45fb-bb77-167a0db4e79c" d="M73.04754,35.6881c-.2832,1.7461.9755,3.0947,2.6132,3.7822-.1337,1.4405,1.0733,2.5889.1954,4.8077a27.81527,27.81527,0,0,1-1.7881,2.7978,3.61731,3.61731,0,0,0-.5147-.666c-3.584-3.582-18.291-3.6943-25,1.04-3.2392,2.2901-2.6445,23.21-.7558,25.6602a5.12119,5.12119,0,0,0,2.7148,1.0781,118.99765,118.99765,0,0,1,.77831,17.6309,15.99792,15.99792,0,0,0-2.917,1.5176c-.11911.2753-.03611.5097.26179.5039l5.6767-.0391c.3027-.0068.293-.2031.21-.4893a115.26327,115.26327,0,0,1-1.6446-18.7539c1.6407.1905,3.5547.3223,5.5586.3877a118.279,118.279,0,0,1,.8438,18.128,16.24352,16.24352,0,0,0-2.9229,1.5195c-.1133.2754-.0361.5107.26661.5029l5.67779-.04c.3027-.0069.2881-.2002.2099-.4873a114.24334,114.24334,0,0,1-1.63769-19.5821c1.93459.0108,3.88579-.0439,5.69729-.1611a122.611,122.611,0,0,1,.5684,15.9268,16.04852,16.04852,0,0,0-2.917,1.5166c-.1182.2715-.0362.5097.2607.5029l5.6777-.0381c.3028-.0068.293-.2041.21-.4873A115.2158,115.2158,0,0,1,68.733,74.653c3.0518-.3038,5.415-.8174,6.14161-1.543,2.06929-2.0693,2.26859-16.043.34669-23.1289a1.31363,1.31363,0,0,0,.6348-.6436c.0136-.0322.0273-.0644.04-.0967.3389-.873,1.7851-2.5097,2.2754-4.4628.5303-2.1397-.5381-3.3868-.4903-4.8272,1.8877.1397,3.69341-.6103,4.0088-2.5771C82.54165,32.1383,73.73894,31.4039,73.04754,35.6881Zm-6.0733,29.46c.0225.8388-.1338,1.4345-.876,1.5049-.7529.0722-1.0205-.4971-1.1601-1.3487-.4727.0244-.9727.0489-1.4971.0703-.0361.8262-.2353,1.4004-.9717,1.419-.7363.0244-.96869-.5293-1.0586-1.3408-.2568.0088-.5048.0195-.7675.0273-.3135.0156-.6162.0264-.918.0342.0176.7881-.1445,1.3379-.8525,1.414-.753.084-1.0264-.4853-1.1827-1.3359-.665.0274-1.2949.044-1.8701.0518-.0234.834-.2119,1.4111-.9521,1.4463-.7744.0332-1.003-.5821-1.0948-1.4815-1.2509-.0791-1.9892-.2978-2.0087-.7764-.0166-.4736.69531-.7529,1.9248-.9287.0107-.8925.1816-1.5215.9502-1.5556.7461-.0352.98431.5273,1.0888,1.3642.5391-.0342,1.126-.0625,1.7461-.0898-.01759-.7822.1455-1.332.8535-1.4102.752-.082,1.0254.4824,1.1807,1.3321.3486-.0118.7021-.0264,1.0605-.0381.2618-.0127.5245-.0215.7803-.0332.041-.8262.2412-1.4004.9766-1.4248.7324-.0176.96781.5293,1.0576,1.3447.4727-.0147.9346-.0303,1.36821-.042-.01181-.793.15519-1.3525.86909-1.4219.7764-.0752,1.0352.5264,1.1738,1.4151,1.6358.0478,2.6309.2529,2.6514.8076C69.46644,64.6881,68.53484,64.9772,66.97424,65.1481Zm-6.8388-7.9922c-8.0831-.0322-11.1622-1.8067-11.1602-5.1328-.002-3.666,3.0771-4.0772,11.1602-4.1094,8.083-.0303,11.5947.374,11.5947,3.7715C71.72814,55.5748,68.21354,57.1891,60.13544,57.1559Zm18.9794-20.3662c-.2929,1.8144-3.4873,1.083-3.2119-.6348C76.17834,34.441,79.45184,34.6979,79.11484,36.7897Z"/>
  </g>
</svg>
