<svg id="bd5abc48-74d2-4d40-b514-170c9cb44849" data-name="Layer 1" xmlns="http://www.w3.org/2000/svg" width="128" height="128" viewBox="0 0 128 128">
  <defs>
    <style>
      .a1059577-3bc2-4def-9caa-bf6319edcbe7 {
        fill: #1d1d1b;
      }
    </style>
  </defs>
  <title>057</title>
  <path class="a1059577-3bc2-4def-9caa-bf6319edcbe7" d="M95.21507,49.62219c-1.2422.1982-2.5694,3.4717-6.9082,6.9307a34.84778,34.84778,0,0,1-7.6914,4.622c-3.2676-2.8945-8.9053-4.5693-16.72169-4.5713-8.07911.002-13.836,1.7999-17.03911,4.8506a34.29651,34.29651,0,0,1-7.3115-5.7871c-3.8369-4.0088-4.7168-7.4326-5.9121-7.7939-.8711-.2588-7.3135,5.0967-7.416,5.7715-.1162.6757,6.2558-.4893,6.7236-.0625.45511.4287-2.4385,5.665-2.08889,6.1191.333.4414,5.37409-2.9453,5.78129-2.2061.4101.754-.7344,6.1924-.1758,6.3272.5566.123,3.042-3.3887,3.7422-3.3184a40.03677,40.03677,0,0,1,5.0674,2.9287,9.29146,9.29146,0,0,0-1.3623,4.9346c.0039,7.1172,6.9873,11.7725,20,11.7686,13-.002,19.9824-4.6446,19.9746-11.7725a9.19335,9.19335,0,0,0-1.5352-5.207,30.26736,30.26736,0,0,1,4.6729-1.8985c.6953.0215,2.6914,3.8389,3.2588,3.7901.57711-.0635.1582-5.6123.6709-6.2813.5088-.6826,5.041,3.335,5.44821,2.9473.39159-.3984-1.77251-5.9902-1.25391-6.3535.50391-.3506,6.6807,1.6611,6.6475.9775C101.76487,55.65249,96.11057,49.47469,95.21507,49.62219ZM53.3,68.77259c-1.0468-6.585,7.4102-6.457,8.4336-1.3418C62.75707,72.54509,54.01387,73.29509,53.3,68.77259Zm21.1387-.0615c-.8154,3.4765-7.541,2.3974-6.46-1.4991C69.04607,63.31359,75.61347,63.674,74.43867,68.71109Z"/>
</svg>
