<svg id="e2d0ec93-c69c-409f-8272-e1f113e393da" data-name="Layer 1" xmlns="http://www.w3.org/2000/svg" width="128" height="128" viewBox="0 0 128 128">
  <defs>
    <style>
      .ab2ee861-0d61-4af5-977e-c60c3da8f181 {
        fill: #1d1d1b;
      }
    </style>
  </defs>
  <title>058</title>
  <g>
    <path class="ab2ee861-0d61-4af5-977e-c60c3da8f181" d="M75.47292,62.01168c-.875-.0059-1.4414.7012-1.4306,2.0127.0068,1.3086.583,2.0117,1.4638,2.0117.8721.0068,1.4404-.7021,1.4278-2.0107C76.929,62.71478,76.35382,62.01168,75.47292,62.01168Z"/>
    <path class="ab2ee861-0d61-4af5-977e-c60c3da8f181" d="M78.89772,56.92088c.1348.0039.2178.001.2178.001a10.20134,10.20134,0,0,1,1.6709-4.9209,2.0934,2.0934,0,0,0,2.581-.1846c.6993-.8613,1.3467-2.4219-.1171-3.6123a2.289,2.289,0,0,0-3.3096,3.1133,27.52873,27.52873,0,0,0-2.9268,4.5,31.84275,31.84275,0,0,0-6.791-2.4512,10.34388,10.34388,0,0,1,.08011-5.0488,2.08713,2.08713,0,0,0,2.39259-.9844,2.4236,2.4236,0,0,0-1.2491-3.3965,2.29214,2.29214,0,0,0-2.1621,4.0029,27.14817,27.14817,0,0,0-1.31539,4.9112c-30.13961-3.5313-24.65331,20.6582-21.71781,20.8437-.1914,2.4629-.7959,10.2051-.7373,10.2998.083.1387.2998.125.7285.1319l6.01961-.087c.29779-.0234.49219-.041.581-.1611.51859-.6816-3.68751-2.7344-3.75881-2.9492-.0957-.2813-.0634-4.9844-.0468-7.0508,3.6767.2227,7.18361.4004,10.4609.4883-.1494,1.6484-.8477,9.667-.79,9.7695.0859.1455.30271.126.7324.1328l6.0107-.0849c.3057-.0264.4991-.043.5909-.1631.5156-.6836-3.6885-2.7276-3.7637-2.9492-.1045-.3057-.0469-5.2452-.0342-6.6592a78.64908,78.64908,0,0,0,10.6143-.4805c-.1582,1.8262-.837,9.586-.7793,9.6865.0849.1387.3007.125.7314.1329l6.0176-.0889c.2998-.0225.4912-.0479.583-.1611.51761-.6807-3.6895-2.7334-3.7617-2.9473-.1182-.3594-.0225-7.042-.0225-7.042h-.2178c6.0567-1.2266,9.3633-3.8779,8.5801-8.9766A10.99245,10.99245,0,0,0,78.89772,56.92088ZM72.801,69.72068c-5.66211.0429-8.164-1.8067-8.22161-5.541-.0479-3.7295,2.3994-5.6504,8.0605-5.7686,5.669-.1123,8.1699,1.6621,8.2295,5.5391C80.92122,67.82808,78.47192,69.67478,72.801,69.72068Z"/>
    <path class="ab2ee861-0d61-4af5-977e-c60c3da8f181" d="M69.81862,61.69528c-1.05959.0146-1.6103.9736-1.5879,2.4307.0157,1.4599.5996,2.3994,1.6504,2.3847,1.0606-.0107,1.6113-.9678,1.58891-2.4258C71.45442,62.62688,70.87232,61.68648,69.81862,61.69528Z"/>
  </g>
</svg>
