<svg id="a284b099-a83d-43c8-8079-3be455fce86f" data-name="Layer 1" xmlns="http://www.w3.org/2000/svg" width="128" height="128" viewBox="0 0 128 128">
  <defs>
    <style>
      .becd0ea8-fd2e-4173-8a9c-34a14cc1afc0 {
        fill: #1d1d1b;
      }
    </style>
  </defs>
  <title>059</title>
  <g>
    <path class="becd0ea8-fd2e-4173-8a9c-34a14cc1afc0" d="M81.53714,59.1938c-3.0859.1348-1.2949,8.54-2.3945,9.6348-1.0928,1.0986-5.4785.997-5.8789.497-.3935-.497-1.1914-8.7675-.9932-9.5654.1973-.7949,4.2862-4.6816,2.0918-6.377-2.1933-1.6933-4.2832,3.8858-5.081,3.9834-.7979.1016-2.7901-1.8886-3.4883-2.8886-.6982-.9942.3018-7.3721.501-7.8711.1982-.4951,3.08492-1.293,4.4795-2.0908a6.39161,6.39161,0,0,0,1.7949-7.7715c-1.6924-3.4898-15.4453-3.4907-17.1387.0019a6.38965,6.38965,0,0,0,1.7959,7.7705c1.3916.795,4.28132,1.5918,4.4805,2.0909.2002.5009,1.1973,6.875.501,7.872-.6983.9961-2.6914,2.9912-3.4873,2.8897-.7998-.1006-2.8887-5.6797-5.0821-3.9873-2.1953,1.6972,1.8946,5.58,2.0908,6.3799.2012.7959-.59758,9.0664-.9951,9.5634-.3994.4981-4.7851.5987-5.8789-.4961-1.0957-1.0957.6973-9.5009-2.39058-9.6328-3.08792-.1328-2.99022,11.3272-1.19732,12.9229,1.793,1.5908,8.2715.6953,9.17,1.1953.8925.4951,1.79,3.6836,1.4404,4.582-.3457.8965-2.6875,4.582-2.6875,8.5166.001,3.9395.998,8.4229,4.2832,7.2774,3.2891-1.1455-1.2432-5.4297-.4961-8.8711.7471-3.4356.8437-5.0284,1.543-5.2285a99.5961,99.5961,0,0,1,10.9609,0c.6973.1972.7959,1.7959,1.5449,5.2314.749,3.4346-3.7861,7.7207-.499,8.8682,3.2881,1.1455,4.2832-3.3409,4.2861-7.2754,0-3.9366-2.3408-7.6241-2.6933-8.5205-.3467-.8955.5488-4.085,1.4463-4.5801.89842-.5,7.374.3984,9.166-1.1973C84.52354,70.5258,84.628,59.0639,81.53714,59.1938ZM57.877,39.8027c-.002-1.5015,1.7656-2.2549,5.8076-2.273,4.0459-.0141,5.8125.7105,5.8125,2.271-.0029,1.5576-1.7676,2.2837-5.8125,2.2696C59.64264,42.0551,57.878,41.3002,57.877,39.8027Zm5.7578,34.7241c-4.5098,0-6.6875-2.6221-6.6895-5.8564,0-3.2354,2.9942-5.8545,6.6885-5.8545,3.6944-.003,6.6934,2.6191,6.6895,5.8545C70.32524,71.9028,68.14654,74.5268,63.63484,74.5268Z"/>
    <path class="becd0ea8-fd2e-4173-8a9c-34a14cc1afc0" d="M60.22464,38.6289a.99906.99906,0,1,0,1.0069.9975A.9226.9226,0,0,0,60.22464,38.6289Z"/>
    <path class="becd0ea8-fd2e-4173-8a9c-34a14cc1afc0" d="M64.712,39.6254a1.05865,1.05865,0,1,0-1.05372,1.0445A.96224.96224,0,0,0,64.712,39.6254Z"/>
    <path class="becd0ea8-fd2e-4173-8a9c-34a14cc1afc0" d="M67.125,40.624a.99764.99764,0,1,0-1.0117-.9976A.9228.9228,0,0,0,67.125,40.624Z"/>
  </g>
</svg>
