<svg id="a69e0f45-3986-4b8f-904a-4de077da891a" data-name="Layer 1" xmlns="http://www.w3.org/2000/svg" width="128" height="128" viewBox="0 0 128 128">
  <defs>
    <style>
      .bff6aaa2-ddb1-4df7-b81d-0a480929ed0c {
        fill: #1d1d1b;
      }
    </style>
  </defs>
  <title>060</title>
  <g>
    <path class="bff6aaa2-ddb1-4df7-b81d-0a480929ed0c" d="M56.03142,69.3877a.50411.50411,0,0,0-.0635-.084c-.7354.1211-1.2002.2607-1.1758.457.0254.1944.5088.2686,1.2549.2588a.70454.70454,0,0,0,.0713-.374A.65315.65315,0,0,0,56.03142,69.3877Z"/>
    <path class="bff6aaa2-ddb1-4df7-b81d-0a480929ed0c" d="M58.05682,69.041c-.5899.0644-1.1348.1279-1.6104.1914a.607.607,0,0,0-.0449.1084.63692.63692,0,0,0-.0225.2725.66817.66817,0,0,0,.19921.3906c.43949-.0195.94049-.0586,1.47369-.1074a.71376.71376,0,0,0,.1582-.5108.65371.65371,0,0,0-.08889-.2549A.75785.75785,0,0,0,58.05682,69.041Z"/>
    <path class="bff6aaa2-ddb1-4df7-b81d-0a480929ed0c" d="M60.48942,68.8388c-.0157-.0253-.041-.0507-.0596-.0771-.2353.0312-.4668.0625-.7061.0918-.4013.0498-.8017.0928-1.1923.1357-.0137.0332-.0284.0645-.0391.0948a.59813.59813,0,0,0-.0234.2724.69493.69493,0,0,0,.289.4658c.3516-.0361.709-.0781,1.07231-.123.19139-.0244.38279-.0488.57229-.0723a.70655.70655,0,0,0,.1738-.5273A.73562.73562,0,0,0,60.48942,68.8388Z"/>
    <path class="bff6aaa2-ddb1-4df7-b81d-0a480929ed0c" d="M62.86052,68.6113a.67968.67968,0,0,0-.126-.1514c-.5469.0635-1.1777.1524-1.8379.2422a.61155.61155,0,0,0-.0391.0938.62126.62126,0,0,0-.0224.2685.70521.70521,0,0,0,.2832.4678c.6377-.0889,1.2373-.1875,1.7597-.2871a.72565.72565,0,0,0,.0713-.3779A.61347.61347,0,0,0,62.86052,68.6113Z"/>
    <path class="bff6aaa2-ddb1-4df7-b81d-0a480929ed0c" d="M63.30772,68.3994a.65447.65447,0,0,0-.0752.1641.6172.6172,0,0,0-.0244.2724.72946.72946,0,0,0,.1358.3164c.8574-.1914,1.4111-.3955,1.3877-.6103C64.70523,68.331,64.14952,68.3193,63.30772,68.3994Z"/>
    <path class="bff6aaa2-ddb1-4df7-b81d-0a480929ed0c" d="M81.91123,37.2031c.48439-.4121.20709-1.9971-.54881-2.6875-.7558-.6885-14.542.0684-15.3008,1.2402-.6836,1.0606,1.4209,17.3311,1.836,20.4883a28.74534,28.74534,0,0,0-4.5821-.1367c-.3662-5.957-1.0732-15.8301-1.7392-16.5352-.961-1.0127-14.6524.7813-15.2686,1.5987-.6162.8164-.5957,2.4248-.0439,2.7431.5488.3194,13.0566-1.955,13.5801-1.4931.35931.3144,1.3105,8.3984,1.7285,13.7861-4.6631.3594-9.6328,1.4277-10.5137,3.0488-.834,1.5479-.2939,11.3682,1.1524,12.6329.956.8378,7.75.2392,12.66111-.5303-.13091,1.0928-.43071,3.1553-.86621,3.374-.59079.2988-2.377-.0117-3.0137,2.5957-.6387,2.6084-1.8867,9.5313-.3223,9.4023,1.57821-.1298,1.1387-10.6962,1.8477-9.8535.707.8409.5273,2.8682.5078,3.8711-.0039.1856-.02729.4483-.0674.7696a54.94641,54.94641,0,0,0-.6631,5.6396c-.0429,2.2393.7471,4.7256.2588,4.8897-.4824.164-9.1181-.6602-9.039.5478.08,1.208,9.7685,1.0859,10.2226.751.4522-.3379-.2607-4.9942-.1308-6.335.1015-1.0459.0429-4.042.26461-5.5107a1.54379,1.54379,0,0,1,.26079-.8018c.207-.1777,1.2753-.0801,1.2753-.0801s1.0674-.0781,1.2745.1045a2.55511,2.55511,0,0,1,.3847,1.1328c.3028,1.5577.5049,4.2286.5821,5.2081.1035,1.3418-.6211,6.0293-.1739,6.374.4463.3447,10.1319.6533,10.2354-.5518.1015-1.2051-8.54789-.5508-9.0283-.7236-.4834-.1719.27441-2.6865.27341-4.9277A28.35661,28.35661,0,0,0,67.921,81.707a5.46753,5.46753,0,0,1-.1377-.916c0-1.001-.1367-3.0322.58691-3.8574.72459-.8282.25779,9.7724,1.86229,9.8886,1.6045.1153.2393-6.788-.3457-9.4082-.584-2.6181-2.3789-2.3418-2.9648-2.6523-.458-.2432-.7266-2.5957-.8184-3.6064a15.962,15.962,0,0,0,3.7832-.9415c1.4473-.9316,2.584-11.8886,0-13.4384-.6347-.6748-2.0332-17.9893-1.59959-18.5381C68.71792,37.6865,81.42982,37.6152,81.91123,37.2031ZM61.76382,63.3808c1.9209-.3261,3.083.2764,3.2832,1.4629.2021,1.1856-.6963,2.1358-2.6172,2.4639-1.9199.3223-3.084-.2783-3.2852-1.4658C58.94542,64.6553,59.84392,63.7051,61.76382,63.3808Zm-7.1611,2.3125c1.2919-.0898,2.02051.3819,2.0742,1.1807.0556.7959-.6035,1.3633-1.8955,1.4502-1.294.0898-2.0235-.3818-2.07519-1.1797C52.65052,66.3476,53.30872,65.7803,54.60272,65.6933Zm5.0947,4.543c-3.7676.4609-6.5987.7422-6.7178-.2207-.1182-.9658,2.7188-1.2266,6.4834-1.6885,3.7686-.4619,6.584-.8916,6.7031.0713C66.28332,69.3642,63.463,69.7763,59.69742,70.2363Z"/>
  </g>
</svg>
