<svg id="ba332d92-5e17-4536-90fc-788719686105" data-name="Layer 1" xmlns="http://www.w3.org/2000/svg" width="128" height="128" viewBox="0 0 128 128">
  <defs>
    <style>
      .aca10f70-aa3b-48b2-97fb-1385c5de850a {
        fill: #1d1d1b;
      }
    </style>
  </defs>
  <title>061</title>
  <path class="aca10f70-aa3b-48b2-97fb-1385c5de850a" d="M91.1146,93.76638c-.1054-1.6552-1.955-1.0312-2.1484-1.1758-.1914-.1445,1.2383-1.1572.6484-1.7949-.5888-.6357-1.6631.2031-1.8281.1162-.16018-.0859.8809-.9541.0195-1.3681-.8691-.42-.9502.7402-1.67868,1.2568-.72652.5195-4.07222.3379-4.43552-.0019-.3682-.3458,1.9687-4.9297.875-9.7393-.876-3.8399-5.1026-6.0713-8.2149-6.4981-.0244-2.4775-.0654-5.1679-.122-7.9209,4.6591.6084,11.8115.1221,15.8066-1.4726.2383-.0977,1.1211-.3789,1.5869-.4961.25-.0645.6631-.2676.625-.5801-.0508-.3086-.5146-.4502-.7597-.3769-.17.0439-.3809.2314-.5088.1211a.5892.5892,0,0,1-.0459-.6368c.10932-.2255.4482-.2275.6748-.3291.2431-.0927.5127-.4961.3613-.7714-.1641-.2657-.6494-.2256-.8477-.0616-.1748.1289-.3144.4112-.5224.3633a.73622.73622,0,0,1-.5576-.6308c-.0059-.211.3281-.2852.4951-.4209.206-.1534.373-.6065.1513-.837-.2314-.2168-.6884-.0517-.8359.1563-.1904.2441-.30758.5996-.59758.6855a1.4847,1.4847,0,0,1-.93952.0674c-.2168-.0859-.1689-.4355-.2432-.6553a.6404.6404,0,0,0-.8232-.3798.64878.64878,0,0,0-.2197.8818c.1318.1963.332.4531.1465.5957-2.629,1.9805-8.67288,2.5781-13.002,2.1856-.0684-2.7295-.1426-5.4698-.2354-8.086a23.72146,23.72146,0,0,0,11.836-4.4326c.206-.1465.3232-.1777.5029-.3252a4.59479,4.59479,0,0,1,.917-.5391c.22562-.125.5781-.4179.4649-.7177-.126-.2871-.61328-.3106-.8389-.1748-.14938.0839-.3018.3154-.4551.2382a.59457.59457,0,0,1-.2021-.6103c.04982-.2412.3769-.3223.5752-.4815.2119-.1464.3789-.6074.165-.8359-.2256-.2168-.69038-.0586-.8438.1504-.1347.168-.2041.4727-.4179.4824a.72621.72621,0,0,1-.6875-.4804c-.0606-.2032.2451-.3536.374-.5274.165-.1963.2051-.6826-.0566-.8476-.2823-.1543-.6788.1171-.7764.3535-.127.2812-.1494.6591-.41018.8076a1.48272,1.48272,0,0,1-.89652.2998c-.2294-.0293-.26848-.3818-.39248-.5781a.64714.64714,0,0,0-.89362-.169.66174.66174,0,0,0,0,.9131c.1729.1553.4365.3555.2901.5391a13.19168,13.19168,0,0,1-8.335,4.3779c-.27048-7.4902-.252-13.1416-.4971-13.5596-.6767-1.1484-1.5635-.0801-2.081-.125-.5147-.0449,2.456-2.0859.9677-3.6045-1.49508-1.5244-2.1728.4034-2.8095-.1689-.627-.5723,1.1035-2.0977-.7305-2.9649-1.833-.8691-2.0312,1.1114-2.4062,1.0079-.375-.1114.0048-1.5743-1.7266-1.7637-1.7158.1455-1.2578,1.6211-1.6338,1.7178-.3701.1015-.668-1.8877-2.4629-1.0694-1.79.8242.0332,2.3946-.5713,2.9492-.6074.5547-1.3828-1.3867-2.7959.0997-1.4131,1.4843,1.6719,3.6015,1.1533,3.6357-.5195.0322-1.455-1.0615-2.0703.0713a92.30749,92.30749,0,0,0-1.1738,14.1592c-3.5869-.5518-6.8359-2.0411-8.8603-4.6807-.1504-.1836.1171-.3789.2968-.5313a.59274.59274,0,1,0-.8779-.7656c-.1279.1953-.1699.5449-.4033.5664a1.46954,1.46954,0,0,1-.8916-.3144c-.2569-.1543-.2705-.5362-.3916-.8184-.0869-.2441-.4785-.5195-.7598-.375-.2744.1641-.2383.6475-.081.8496.1298.1739.4238.333.3662.5391a.74432.74432,0,0,1-.70508.459c-.21392-.0108-.27832-.3223-.40722-.4922a.64812.64812,0,0,0-.8379-.168c-.2168.2266-.0606.6846.1435.8399.1944.1621.5244.25.5674.4951a.60232.60232,0,0,1-.2139.6035c-.1552.0771-.3066-.1641-.45888-.252a.6446.6446,0,0,0-.837.1621c-.12012.292.22758.5977.45218.7237a5.53446,5.53446,0,0,1,.9033.5615c.1729.1504.2871.1826.4941.3369a23.75551,23.75551,0,0,0,12.4395,4.7813c-.0566,2.5664-.1094,5.248-.1445,7.916-4.3614.4883-11.1475-.1992-13.93258-2.3994-.18752-.1494.02048-.3994.15518-.5899a.659.659,0,0,0-.1963-.8906.6506.6506,0,0,0-.83788.3604c-.07712.2246-.03712.5722-.25782.6513a1.47444,1.47444,0,0,1-.9365-.0888c-.2851-.0909-.3965-.4512-.5791-.6993a.63725.63725,0,0,0-.831-.1757c-.22758.2216-.0723.6855.1269.8418.167.1396.4961.2167.4834.4345a.72464.72464,0,0,1-.5674.6172c-.207.0381-.3476-.2441-.5136-.376-.1954-.1728-.6807-.2246-.8516.041-.1582.2715.1045.6827.34572.7784.22358.1045.56438.1132.66408.3398a.584.584,0,0,1-.0616.6377c-.1289.1133-.33-.082-.5009-.1289-.2432-.0801-.7139.0479-.76958.3594-.04292.3135.35838.5215.60648.5888a5.76214,5.76214,0,0,1,1.01852.3252c.20508.1036.32518.1075.56248.211,4.27352,1.8252,12.2656,2.4365,16.8408,1.6943-.0312,2.7901-.0439,5.5147-.0449,8.0166-3.0752-.2148-8.5879,1.9385-9.7021,6.3477-1.1992,4.789,1.0215,9.4228.6504,9.7568-.3653.333-3.7188.4375-4.43168-.0947-.71192-.5371-.76952-1.7002-1.64452-1.3028-.877.3956.1484,1.2911-.0147,1.375-.1689.084-1.2236-.7832-1.83-.1582-.6045.6231.8027,1.6631.6045,1.8047-.1934.1407-2.0274-.5244-2.1739,1.128-.081.913,1.0879,1.2168,1.502,1.2929,1.0019.1826,6.2539-.5049,7.2363-.3799,1.832.2393,1.9356,1.2051,3.1934,1.2286a2.32752,2.32752,0,0,0,2.54392-2.6231c-.18552-1.2207-1.97952-2.6406-2.27732-3.1924-.2891-.5517-2.4824-6.4433-.1846-9.0615,1.9971-2.2617,4.1943-3.3652,6.542-3.2305a67.60012,67.60012,0,0,0,.4111,9.2842c.96582,3.6367,9.4619,3.5205,9.4619,3.5205s8.4903.0371,9.4248-3.6113a67.846,67.846,0,0,0,.3213-9.373,8.82283,8.82283,0,0,1,5.0332,3.2734c2.2383,2.6641-.0927,8.5068-.39738,9.0508-.30282.5488-2.13582,1.9238-2.34182,3.1416a2.31293,2.31293,0,0,0,2.4736,2.6767c1.2559.0108,1.3867-.955,3.2276-1.1513.9834-.1006,6.2187.7089,7.2207.5507C90.0004,94.96168,91.1752,94.67848,91.1146,93.76638ZM67.9554,44.12088c-.083,1.336-3.5283,2.6221-3.3173-.5918C64.851,40.31428,68.14,41.35818,67.9554,44.12088Zm-4.5253-.6953c-.1465,2.2383-2.4092,1.0391-2.3467.1084C61.2094,41.61018,63.5746,41.18628,63.4301,43.42558Zm-.5713,30.25c.1806-2.1191,2.3388-1.3818,2.1836.4346C64.96032,74.99688,62.6742,75.78888,62.8588,73.67558ZM68.6547,53.034c-.06738-.4805-.877-1.4453-1.1289-1.3945-.3536.0693-1.0547,1.4726-1.044,1.9258-.1582.0097-.4609,0-.8349-.0196a6.99647,6.99647,0,0,0-.9668-2.247c-.17678-.0264-.7403,1.0537-1.2149,2.1181-.3594-.0254-.6523-.0469-.7978-.0664.0966-.5273-.4629-2.0078-.74708-2.041-.32232-.0391-1.22462.8877-1.35452,1.2949-2.6318-1.2558-2.27048-3.7392-.1982-4.9092-.0079.502.6308,1.959,1.042,2.0244.34372.0479,1.1621-1.4755,1.1855-2.0683.3545.0146.8037.0322,1.291.0566a6.39921,6.39921,0,0,0,.8916,2.2832,7.44706,7.44706,0,0,0,1.3291-2.1513c.4043.0254.7842.0507,1.0938.0781-.0196.5254.5791,2.1025,1.0361,2.2002.5137.1094,1.1455-1.332,1.1768-1.9082C71.3861,49.18538,71.3187,52.04378,68.6547,53.034Z"/>
</svg>
