<svg id="bebe12fe-ce37-45f4-8da9-6b45d0a31bf9" data-name="Layer 1" xmlns="http://www.w3.org/2000/svg" width="128" height="128" viewBox="0 0 128 128">
  <defs>
    <style>
      .f9cd0035-c2f5-4893-bf08-90836a346396 {
        fill: #1d1d1b;
      }
    </style>
  </defs>
  <title>062</title>
  <g>
    <path class="f9cd0035-c2f5-4893-bf08-90836a346396" d="M53.61274,43.02785c-.02339.5722,1.082.7568,1.1104.0468A.55578.55578,0,0,0,53.61274,43.02785Z"/>
    <path class="f9cd0035-c2f5-4893-bf08-90836a346396" d="M69.26214,40.07665a.55525.55525,0,0,0-1.1093-.0469C68.12835,40.60205,69.22994,40.78665,69.26214,40.07665Z"/>
    <path class="f9cd0035-c2f5-4893-bf08-90836a346396" d="M78.68994,44.60985a18.57809,18.57809,0,0,0-1.5791-3.6738c1.64551-.4434,3.789-1.3389,3.2666-2.9502-.6436-1.9844-3.7774-.4121-5.12409.374-8.33391-9.2285-25.05951-2.584-25.94331,3.9141-.0293.2031-.0518.4287-.0694.6836-1.6796-.3291-4.3046-.5479-4.3388,1.2714-.0362,1.7911,2.5556,1.9541,4.27151,1.8623.01459.9073.05559,1.9131.11809,3.0039-1.6426.0997-6.1045.6182-4.6445,3.2676,1.2109,2.2051,3.60941,1.6748,5.001,1.1231,1.0996,10.6396,4.2158,25,10.6133,29.3388a16.03009,16.03009,0,0,0-.6758,3.335c-.1426,1.999-.1485,4.8428-.2608,5.1729-.0664.205-3.6875,2.0332-3.2685,2.6875.07221.1123.23921.1357.4941.164l5.0938-.039c.3642,0,.5498.0234.6269-.1104a56.22944,56.22944,0,0,1-.376-7.7773c.0147-.9981.0743-1.8536.1407-2.5254a6.88245,6.88245,0,0,0,3.05171.3457,9.76337,9.76337,0,0,0,3.23729-.9395,28.3842,28.3842,0,0,1,.166,2.9639,57.60289,57.60289,0,0,1-.4384,7.7773c.0752.1309.2558.1104.62111.1153l5.09959.081c.2539-.0263.4218-.0517.4941-.1611.4287-.6494-3.1836-2.5088-3.2461-2.7139-.1103-.333-.0957-3.1738-.2158-5.1758a17.156,17.156,0,0,0-.8223-3.8906c8-5.8555,10.5332-23.1328,9.6358-32.7295,1.6396.1074,3.6621-.2783,3.9873-2.7246C84.05514,43.28265,80.20654,44.14505,78.68994,44.60985Zm-9.919-6.1279a1.54,1.54,0,1,1-1.5898,1.4746A1.39991,1.39991,0,0,1,68.77094,38.482Zm-14.72559,6.0088a1.47454,1.47454,0,1,1,1.52539-1.4122A1.34106,1.34106,0,0,1,54.04535,44.49075ZM67.308,61.32465c-10.456,2.7676-10.2383-6.9931-9.67769-7.7949.15039-.2168.05469-.3222,1.68359-.832A16.44375,16.44375,0,0,0,60.559,56.19c.3359.1406,2.9775-.4112,3.042-.8047a32.47732,32.47732,0,0,0-.7148-3.7217c.916-.248,3.1152-.8301,4.0244-1.0576a34.36784,34.36784,0,0,0,1.2138,3.581c.253.3096,2.8213-.5214,3.045-.8076a16.391,16.391,0,0,0-.6377-3.6093c1.3945-.2852,1.1347-.0938,1.34861.0117C72.75244,50.20945,77.767,58.55615,67.308,61.32465Z"/>
  </g>
</svg>
