<svg id="ecf95c24-6a0b-4428-a641-f1d3a1735a89" data-name="Layer 1" xmlns="http://www.w3.org/2000/svg" width="128" height="128" viewBox="0 0 128 128">
  <defs>
    <style>
      .a69d991d-cc77-44f0-804e-0471342fc150 {
        fill: #1d1d1b;
      }
    </style>
  </defs>
  <title>063</title>
  <g>
    <path class="a69d991d-cc77-44f0-804e-0471342fc150" d="M61.24127,40.15087a1.14774,1.14774,0,0,0-2.2939.0029A1.14774,1.14774,0,0,0,61.24127,40.15087Z"/>
    <path class="a69d991d-cc77-44f0-804e-0471342fc150" d="M60.27257,46.97017a1.08638,1.08638,0,0,0,2.1718.0029A1.08638,1.08638,0,0,0,60.27257,46.97017Z"/>
    <path class="a69d991d-cc77-44f0-804e-0471342fc150" d="M66.67387,42.33147a1.68843,1.68843,0,1,0,2.9043,1.7227A1.68843,1.68843,0,1,0,66.67387,42.33147Z"/>
    <path class="a69d991d-cc77-44f0-804e-0471342fc150" d="M97.13487,40.69777c-.9278-3.9805-17.461-1.5987-21.6836-.9239-2.1202-3.5322-6.4766-6.0049-13.0391-5.4843-5.875.4619-10.8281,1.5478-11.7568,7.1171-.9278,5.5664,2.6318,6.8067,4.9355,8.5039,1.70411,1.2618,2.334,3.5352,1.169,8.5762-3.1612-2.4756-17.8262-9.8086-18.79889-9.9648-1.34661-.2119-4.16211,5.6142-3.664,6.2998.46479.6387,2.705-2.8076,3.67089-2.2539.3955.2256.2636,4.3281,1.1582,4.4717.6328.0957.8535-2.8633,1.6748-3.462.582-.4228,12.998,6.9161,15.1924,7.7852-.32329,1.0859-.709,2.2666-1.1592,3.5557a6.5946,6.5946,0,0,1-1.1738,2.0849c-.6192-1.4053-1.96-3.7129-3.7764-2.7392-2.0791,1.1123.2969,3.7431,1.24311,4.6728a12.71309,12.71309,0,0,1-2.03411.7861c-.46-1.1689-1.7891-3.9111-3.8213-2.8398-1.627.8555-.6045,2.4863.3525,3.5635-.7246.1045-1.4512.1885-2.1748.2676-.5322-1.2627-1.81829-3.6075-3.7207-2.6006-1.375.7207-.8603,1.998-.0908,3.0244a17.38185,17.38185,0,0,0-2.6065.5185c-.914-1.0595-2.7617-2.7636-4.23729-1.288-1.34471,1.3447.25979,2.6435,1.51369,3.372a3.14673,3.14673,0,0,0-.124,1.4365c-1.376-.1523-3.1192.003-3.335,1.7081-.3545,2.7578,4.2295,1.5722,4.57231,1.4834,1.665,2.5625,4.60159,3.9541,8.07229,4.4248.0576.6113.1045,1.3261.1328,2.1191.2256,5.8506-.1172,8.6289-.0674,8.7422.0674.1435.2197.124.5244.124l4.2598-.1826c.209-.0322.3447-.0557.4033-.1758.3359-.7051-2.75-2.7344-2.8164-2.9551-.0996-.3632-.1904-3.455-.3692-5.6377a17.25315,17.25315,0,0,0-.2675-1.8759,27.11818,27.11818,0,0,0,6.5175-.5508c.07041.6826.1348,1.5195.168,2.4687.2188,5.8477-.123,8.6241-.0683,8.7364.0673.1455.21871.124.5244.125l4.2539-.1827c.2119-.0293.3515-.0566.4043-.1767.334-.7041-2.75-2.7295-2.8106-2.9512-.1064-.3652-.19629-3.458-.375-5.6357a20.12986,20.12986,0,0,0-.4521-2.7588,32.629,32.629,0,0,0,5.5644-1.9688c.1055.8018.251,2.1582.3203,3.8731.24611,6.0859-.0888,8.9765-.038,9.0947.0722.1494.2246.127.5253.1328L64.087,92.979c.21189-.0293.34469-.0557.40139-.1807.334-.7353-2.7608-2.8525-2.8242-3.0849-.1016-.375-.2071-3.5967-.3897-5.8643a26.43083,26.43083,0,0,0-.8662-4.4736,25.2697,25.2697,0,0,0,4.1709-2.7002c8.8174-7.1162,4.333-23.6699,5.1416-24.1309.2158-.124.834-.3369,1.6328-.6826,2.21,3.5967,10.9678,17.4004,14.0713,15.4375,1.1006-.6953.4492-2.7461-.9746-5.2529.7881-.6836,2.38671-2.3535,1.1982-3.7373-1.0634-1.2295-2.122.2949-2.6748,1.3633-.4775-.7149-.9883-1.4405-1.5136-2.1631.79191-.8194,1.7236-2.1612.7353-3.3057-.94139-1.0967-1.8828-.0078-2.4717,1-.4863-.624-.9648-1.2324-1.4316-1.8066.749-.8242,1.5127-2.0733.58491-3.1426-.914-1.0664-1.832-.0674-2.41891.9121-.5508-.6465-1.0303-1.209-1.4004-1.6426a5.78821,5.78821,0,0,0,1.8975-4.2519c0-.252-.0088-.5059-.0303-.7578.5293.0058,1.165.0117,1.877.0107-.2618,1.1807-.292,2.6523,1.166,2.6699,1.4668.0215,1.78811-1.4873,1.8134-2.6972.7686-.0147,1.5694-.0401,2.3819-.0743-.28219,1.1963-.3555,2.7491,1.1435,2.7696,1.5694.0234,1.8311-1.6983,1.8174-2.9385.917-.0654,1.8223-.1494,2.6885-.2529-.3457,1.2168-.6475,3.1718,1.0361,3.1933,1.8877.0274,1.8809-2.4775,1.77831-3.6201C95.502,43.00237,97.464,42.105,97.13487,40.69777Zm-40.4024-.4004a2.72385,2.72385,0,0,1,2.9326-2.7256c1.6241,0,2.9258.6943,2.92091,2.7988a2.8138,2.8138,0,0,1-2.91791,2.6533A2.7233,2.7233,0,0,1,56.73247,40.29737Zm4.2236,9.3896a2.59221,2.59221,0,1,1,.002-5.1709c1.5342.0029,2.7647.6592,2.7637,2.6543A2.67008,2.67008,0,0,1,60.95607,49.687Zm5.0333-3.0957c-2.27839-1.0967-3.4805-3.332-2.4307-5.5215,1.0557-2.1924,3.5478-2.6416,5.832-1.5459,2.2774,1.0967,3.6778,2.8731,2.3672,5.5996C70.68857,47.34417,67.84187,47.48,65.98937,46.59127Z"/>
  </g>
</svg>
