<svg id="a3657595-0161-429b-ad6c-4ba41422c267" data-name="Layer 1" xmlns="http://www.w3.org/2000/svg" width="128" height="128" viewBox="0 0 128 128">
  <defs>
    <style>
      .a5ba6db4-f91c-439c-9791-ef4d08b08c2d {
        fill: #1d1d1b;
      }
    </style>
  </defs>
  <title>064</title>
  <path class="a5ba6db4-f91c-439c-9791-ef4d08b08c2d" d="M92.47784,57.755c-1.4151-2.1201-5.6582.7149-8.0752,2.6104-2.8496-6.999-9.585-14.3994-19.7276-14.3975-9.9511.003-18.5273,5.9366-21.6875,12.7471-2.6611-1.5215-6.5127-3.2334-7.5576-1.167-1.1328,2.2305,3.3779,4.2793,6.3399,5.3574a10.46563,10.46563,0,0,0,2.3173,7.9649c1.1534,1.4385,3.7237,2.4883,7.04111,3.1924-.60161,2.7773-1.35651,8.1025,1.77439,7.9638,2.7568-.1191,3.1172-4.3125,3.041-7.2148a84.70041,84.70041,0,0,0,17.6338-.1201c-.5674,2.8838-1.0049,7.4658,1.8994,7.3379,3.0547-.1377,3.1719-5.2705,2.999-8.1104,3.5332-.7373,6.085-1.7695,6.7705-3.0459.8018-1.4892.9278-3.8154.3955-6.4629C88.176,63.22669,94.07744,60.15149,92.47784,57.755Zm-28.5274-6.9921a2.465,2.465,0,1,1-2.3857,2.4629A2.231,2.231,0,0,1,63.95044,50.76289Zm9.0557,15.7734c-.8916-.3789-4.6436.2012-5.1318.7754a2.95619,2.95619,0,0,0-.3995,2.1182c-1.22459.0771-2.5712.122-4.0712.1171-1.4991.0049-2.8409-.038-4.0625-.1074.1376-.8857.1816-1.8935-.2471-2.2402-.711-.5811-4.5059-.9688-5.1787-.5361a3.1999,3.1999,0,0,0-1.1299,1.747c-5.751-1.832-4.4707-5.665-3.9707-9.8369.039-.3184,1.583-.5674,3.93751-.7461a3.47124,3.47124,0,0,0,.84669,2.4072c.5908.5049,4.414.5772,5.2197.087.5918-.3594.6611-1.793.64161-2.7842,2.55659-.0459,5.28509-.0528,7.84369-.0059a3.87134,3.87134,0,0,0,.86331,2.7061c.58889.498,4.41509.5752,5.22069.0859.5459-.3301.6455-1.5635.6455-2.5195,2.378.1767,3.9375.4306,3.9493.7724.1494,3.9385,1.5664,7.8409-3.9766,9.751C73.80494,67.53729,73.49244,66.73749,73.00614,66.53629Z"/>
</svg>
