<svg id="ba81fa21-5bfd-4a77-b513-c7876023a548" data-name="Layer 1" xmlns="http://www.w3.org/2000/svg" width="128" height="128" viewBox="0 0 128 128">
  <defs>
    <style>
      .aa7a308a-96c5-4ad3-9850-648bfe86705e {
        fill: #1d1d1b;
      }
    </style>
  </defs>
  <title>065</title>
  <path class="aa7a308a-96c5-4ad3-9850-648bfe86705e" d="M65.82293,45.22512C52.72433,44.96732,39.716,60.45562,46.55,70.79932c1.30609,1.9815,4.67139,3.2764,8.853,3.9795l-.11231,6.2969a5.2963,5.2963,0,0,0-2.1006.3145,1.7135,1.7135,0,0,0-.8213.7509c-.1123.2119-.0263.4082.2813.42l5.9463.1865c.30861.0185.292-.1387.209-.374a25.73512,25.73512,0,0,1-.8868-4.7764c-.038-.4707-.0615-1.586-.0732-2.4756,1.6641.1826,3.4121.2861,5.1719.3115-.001.8291.001,1.7598-.03029,2.1807a25.81721,25.81721,0,0,1-.80571,4.7871c-.081.2402-.0996.3975.212.375l5.9443-.2852c.3037-.0214.3887-.2168.27341-.4218a1.72536,1.72536,0,0,0-.83491-.7432,5.29717,5.29717,0,0,0-2.1084-.2773l-.1885-5.6221a58.993,58.993,0,0,0,7.6201-.6367c.0098.9238.0098,2.291-.0234,2.8281a26.47433,26.47433,0,0,1-.8047,4.7871c-.0889.2354-.1006.3906.2109.3682l5.9385-.2842c.3105-.0215.3945-.2168.2803-.4219a1.75348,1.75348,0,0,0-.835-.7383,5.34584,5.34584,0,0,0-2.1094-.2822l-.22949-6.7031c3.72559-.7998,6.48929-2.0098,7.167-3.5459C85.49483,64.48,78.92843,45.48292,65.82293,45.22512Zm-13.7002,25.7207c-1.88469.001-2.8994-.9453-2.8955-2.3984-.0019-1.4492,1.01081-2.4024,2.8955-2.3975,1.8789,0,2.8936.9483,2.8956,2.3985C55.01433,70.00052,54.00073,70.94482,52.12273,70.94582Zm22.7637-1.0127c-1.94239,0-2.98239-1.0547-2.98239-2.6777,0-1.6182,1.043-2.6768,2.98529-2.6787,1.9366,0,2.9844,1.0605,2.9844,2.6787C77.87373,68.87842,76.83083,69.937,74.88643,69.93312Z"/>
</svg>
