<svg id="b6247099-99e0-453e-8250-dc50c32042bd" data-name="Layer 1" xmlns="http://www.w3.org/2000/svg" width="128" height="128" viewBox="0 0 128 128">
  <defs>
    <style>
      .b7bcc34f-cc0f-45c4-a67d-271753b98e31 {
        fill: #1d1d1b;
      }
    </style>
  </defs>
  <title>066</title>
  <g>
    <path class="b7bcc34f-cc0f-45c4-a67d-271753b98e31" d="M82.11049,63.96518c-.169-1.0205-12.1865-2.2139-11.6768-6.4775.5103-4.2598,8.1817-4.6016,7.9278-5.4551-.2535-.8486-32.4771-2.8965-32.4737,11.9365-.0005,15.1709,32.2173,12.7852,32.4746,11.9307.253-.8545-7.415-1.1924-7.9292-5.4561C69.924,66.18488,82.27989,64.99158,82.11049,63.96518Zm-28.1333,3.6133c-2.3496.0244-4.2471-.8692-4.2769-3.6318-.019-2.251,2.294-3.5127,4.1992-3.5352,2.3496-.0244,4.2705,1.3193,4.2911,3.5381C58.21249,66.17128,56.32729,67.55408,53.97719,67.57848Zm8.458-12.2129c1.8486-.0215,3.3603,1.0352,3.3764,2.7832.021,1.751-1.4668,2.8379-3.3164,2.8555-1.8535.0205-3.3422-.6836-3.3691-2.8594C59.10709,56.37438,60.93269,55.38018,62.43519,55.36558Zm4.0395,14.0146c-.1865,1.7374-1.7885,2.6465-3.6294,2.4463-1.8422-.1992-3.2407-1.0732-3.0073-3.2343.189-1.7608,2.1152-2.5371,3.6065-2.3731C65.28579,66.41248,66.66169,67.64288,66.47469,69.38018Z"/>
    <path class="b7bcc34f-cc0f-45c4-a67d-271753b98e31" d="M51.65829,64.347c.022,2.0811,3.3477,2.0372,3.3252-.041C54.96689,62.22788,51.64069,62.26788,51.65829,64.347Z"/>
    <path class="b7bcc34f-cc0f-45c4-a67d-271753b98e31" d="M61.32139,69.31378c.1802,1.6514,2.7979,1.4834,2.6211-.1757S61.14509,67.65558,61.32139,69.31378Z"/>
    <path class="b7bcc34f-cc0f-45c4-a67d-271753b98e31" d="M63.28869,58.432a1.30985,1.30985,0,0,0-2.6187.0313A1.30985,1.30985,0,0,0,63.28869,58.432Z"/>
  </g>
</svg>
