<svg id="f00083b7-35f9-4bb1-8cf5-61ce03a3ff5f" data-name="Layer 1" xmlns="http://www.w3.org/2000/svg" width="128" height="128" viewBox="0 0 128 128">
  <defs>
    <style>
      .ee57828c-8661-4de8-b6fc-5626af047bd4 {
        fill: #1d1d1b;
      }
    </style>
  </defs>
  <title>067</title>
  <g>
    <path class="ee57828c-8661-4de8-b6fc-5626af047bd4" d="M84.03432,61.06468a10.256,10.256,0,0,0-.1782-1.3613l-7.1772.5566c-.1783,2.9336-1.9673,5.2393-5.4751,5.2393a5.06093,5.06093,0,0,1-5.378-4.3985l-2.605.2002a5.77881,5.77881,0,0,1-6.0249,4.9961A5.68872,5.68872,0,0,1,51.403,62.217l-7.4532.5821c.3936,5.1387,4.064,8.2695,9.4864,9.6572.3471,3.4756,1.0259,9.8731,1.4121,10.4922.52.8564,3.2495.4941,3.7998-.0938.5557-.5908-.4229-5.5673.0102-5.5019.4331.0644,1.065-.6094,1.5909.2402.5258.8555.8881,5.1563,1.7563,5.292.8677.1309,3.979-.0146,4.4927-.5635.5146-.5488-.0054-4.2529.0474-5.0146.0522-.7647,3.2368-1.4356,3.163-.2891-.0781,1.1485.4502,5.1895,1.2427,5.3076.7979.1231,4.6431-.6376,4.7158-1.6923.0518-.7744-.1176-6.5137-.1972-9.6709C80.88252,68.97778,84.31362,65.74338,84.03432,61.06468Zm-19.3935,11.6299c-2.502-.002-3.7129-1.2451-3.7095-2.7744-.0044-1.5342,1.6567-2.7735,3.7095-2.7783,2.0464.0019,3.7129,1.246,3.7099,2.7753C68.34832,71.45238,67.14222,72.69258,64.64082,72.69458Z"/>
    <path class="ee57828c-8661-4de8-b6fc-5626af047bd4" d="M57.19352,52.64378a6.323,6.323,0,0,1,5.9604,4.9395l3.0386-.1387a5.3969,5.3969,0,0,1,9.8047-.4453l6.8462-.3086c-2.8823-6.1026-10.5884-11.9883-19.498-12.1406a19.50424,19.50424,0,0,0-18.982,13.8779l6.7447-.3037A6.39242,6.39242,0,0,1,57.19352,52.64378Z"/>
    <path class="ee57828c-8661-4de8-b6fc-5626af047bd4" d="M55.31362,59.86258a2.78087,2.78087,0,0,0,5.5488-.003,2.7808,2.7808,0,0,0-5.5488.003Z"/>
    <path class="ee57828c-8661-4de8-b6fc-5626af047bd4" d="M69.61832,57.26878a2.06161,2.06161,0,0,0-2.1172,2.0029,2.11827,2.11827,0,0,0,4.23-.0029A2.05718,2.05718,0,0,0,69.61832,57.26878Z"/>
  </g>
</svg>
