<svg id="f8fd0347-69ce-4985-b470-e7793338f344" data-name="Layer 1" xmlns="http://www.w3.org/2000/svg" width="128" height="128" viewBox="0 0 128 128">
  <defs>
    <style>
      .b34bb073-dc44-40b6-95d6-2427a872b13e {
        fill: #1d1d1b;
      }
    </style>
  </defs>
  <title>068</title>
  <g>
    <path class="b34bb073-dc44-40b6-95d6-2427a872b13e" d="M61.86882,48.78705c-2.40379,0-3.688,1.5078-3.685,3.8027-.0064,2.3057,1.28321,3.8047,3.67521,3.8076,2.40289,0,3.68849-1.5,3.68359-3.8057C65.55142,50.29675,64.26042,48.788,61.86882,48.78705Z"/>
    <path class="b34bb073-dc44-40b6-95d6-2427a872b13e" d="M85.27212,75.86905c2.5034-2.3252,1.6123-12.1406-1.2509-22.8428-2.8521-10.7021-15.1641-14.8105-21.0464-15.1611-5.8941-.3604-16.9097-.0498-20.87259,10.8828-2.1216,5.8193-.0098,10.168,3.92289,11.7783,3.91891,1.6006,5.1694-.7148,9.9878,3.7461,4.8173,4.4522,1.789,9.8047,3.7475,12.8428.5855.9121,2.8984,1.3701,5.9107,1.5-.2212,1.2451-.4063,2.4258-.4468,2.9287-.0786,1.1621.3852,5.9951.3852,5.9951a5.62763,5.62763,0,0,0-2.72649.6875A2.94691,2.94691,0,0,0,61.76092,89.54c-.1558.3603-.0664.6728.3335.6777l7.998.002c.3887-.003.3838-.2569.2872-.6485a65.62285,65.62285,0,0,1-1.108-8.0224c-.0083-.5742.0152-1.7383.0596-2.9053a74.92725,74.92725,0,0,0,9.2481-.8398c-.2398,1.3544-.459,2.7168-.5074,3.2695-.0776,1.1611.3872,5.9922.3872,5.9922a5.71162,5.71162,0,0,0-2.7285.6816,3.03967,3.03967,0,0,0-1.122,1.3145c-.1661.3584-.0655.6797.3232.6777h8.0078c.3906.0049.3843-.2578.2871-.6377a66.133,66.133,0,0,1-1.1074-8.0342c-.00729-.7597.0478-2.5254.0942-3.9746A8.07852,8.07852,0,0,0,85.27212,75.86905Zm-23.4033-15.1465c-6.6445.0049-13.19579-5.4492-13.1943-7.6064.0024-2.1504,6.53951-8.6582,13.18451-8.6641,6.64409.0049,13.19139,6.5117,13.20119,8.6699C75.05682,55.26945,68.50162,60.72545,61.86882,60.72255Z"/>
  </g>
</svg>
