<svg id="b9d5ff03-371e-401d-8b69-105f1d1df9aa" data-name="Layer 1" xmlns="http://www.w3.org/2000/svg" width="128" height="128" viewBox="0 0 128 128">
  <defs>
    <style>
      .ee69d14b-1133-422a-9ebe-2870f11da966 {
        fill: #1d1d1b;
      }
    </style>
  </defs>
  <title>069</title>
  <g>
    <path class="ee69d14b-1133-422a-9ebe-2870f11da966" d="M74.48023,53.33728c-.6392-1.6308-2.9629-1.1181-2.21,1.0069A1.21457,1.21457,0,1,0,74.48023,53.33728Z"/>
    <path class="ee69d14b-1133-422a-9ebe-2870f11da966" d="M91.383,47.28848a11.40608,11.40608,0,0,0-4.5503-2.2295c.3897-3.332.9991-11.2822-2.1254-11.1289-2.8746.1416-2.6109,6.7432-2.2437,10.3164a49.48533,49.48533,0,0,0-5.7813-.3115c.0582-3.749-.206-12.2686-3.7026-11.7647-3.3901.4854-2.1167,8.1914-1.2812,11.918-12.1338.7266-26.1236,3.9228-32.5694,6.8672-1.5874-1.7979-4.8554-4.6289-7.8149-1.6748-3.4277,3.4228,2.1142,5.915,4.0205,6.6435-1.3789,6.5235-2.2935,19.9493,1.2241,23.2295,1.2979,1.21,4.8379,2.0166,9.5816,2.501.6713,2.3018,2.6796,5.3379,2.6313,5.8887-.082.9385-3.4331,4.7529-4.2173,7.2207-.1372.4297-.1719.7285.2832.7539l10.2896.331c.4477.0332.584-.3232.4287-.7519-.1875-.4922-5.335-3.1182-5.335-3.1182s1.6211-2.8691,1.6162-4.2051c-.0019-.4765-2.3403-3.622-3.4555-5.9179,4.352.3388,9.4741.456,14.7138.4111.8023,2.2022,2.4751,4.7705,2.4307,5.2832-.0742.9297-3.4341,4.7442-4.2192,7.2109-.1363.4317-.1621.7295.2841.7559l10.2896.3311c.4482.0341.585-.3223.4287-.751-.1875-.4922-5.3262-3.1201-5.3262-3.1201s1.6118-2.8672,1.6084-4.2061c-.0083-.4433-2.0864-3.2842-3.2622-5.5293,14.5562-.251,29.3096-1.6875,30.4795-3.0859C98.01443,76.50138,100.22193,55.16148,91.383,47.28848Zm-35.8545,25.6426c-.6445.2304-4.792-.6924-5.017-1.293-.2334-.5967,3.9995-11.877,3.3598-12.29-.6484-.4131-6.3066,2.0742-6.8633,1.6591a9.34354,9.34354,0,0,1-1.5586-4.2822c.1905-1.0176,12.2832-3.4101,12.9771-3.04.6938.3691,2.5312,2.5342,2.4868,3.04C60.86943,57.23478,56.17363,72.70058,55.52853,72.93108Zm27.2911-9.7051c-.0225,1.3223-.8072,1.4932-.772-.0068C82.092,61.70938,82.84253,61.30218,82.81963,63.226Zm-1.9927.0049c-.0147,1.3252-.8091,1.4951-.7637-.0147C80.09843,61.70938,80.85763,61.30018,80.82693,63.23088ZM92.49,75.32458c-1.1065,2.209-10.0816,2.4815-10.0816,2.4815-.124.0117-8.9311.9717-10.3257-1.045-1.4047-2.0283-.0214-19.8925-.9023-20.749-.8804-.8476-2.2866-2.1367-.4512-4.4941,1.8374-2.3477,3.8936-1.3848,4.2432-.8799.3574.5127,1.0249-.6572,2.3052-.1406,2.226.8984-1.7325,16.292,4.3037,15.5703,6.0752-.1387,0-14.8242,2.0713-16.0186,1.2065-.6914,2.0258.3672,2.3007-.1855.2749-.5498,2.1817-1.7959,4.3277.2822,2.1533,2.0694.9326,3.5401.1846,4.5078C89.71753,55.61948,93.59643,73.10878,92.49,75.32458Z"/>
    <path class="ee69d14b-1133-422a-9ebe-2870f11da966" d="M81.30053,70.45838c-4.5649.3047-8.0044.334-7.855,2.5401.1421,2.2138,3.5772,2.1396,8.1431,1.8359,4.5659-.2969,7.9844-.6709,7.835-2.8779C89.28053,69.74258,85.86743,70.16248,81.30053,70.45838Zm.4219,2.8428c-3.0527.2051-5.356.126-5.398-.5567-.0507-.6914,2.2652-.499,5.3184-.6992,3.0522-.1972,5.3174-.6972,5.3682-.0058C87.05343,72.73088,84.77373,73.1,81.72243,73.30118Z"/>
    <path class="ee69d14b-1133-422a-9ebe-2870f11da966" d="M87.04173,52.38318a1.214,1.214,0,1,0,2.3345.6651C89.80343,50.83238,87.43283,50.67718,87.04173,52.38318Z"/>
  </g>
</svg>
