<svg id="aafe6d3f-e0db-44ad-bd64-9093b5c94a89" data-name="Layer 1" xmlns="http://www.w3.org/2000/svg" width="128" height="128" viewBox="0 0 128 128">
  <defs>
    <style>
      .f86316aa-47be-4089-9f6a-06d83866b3fe {
        fill: #1d1d1b;
      }
    </style>
  </defs>
  <title>070</title>
  <path class="f86316aa-47be-4089-9f6a-06d83866b3fe" d="M87.61168,56.54985c-2.1572-2.2813-3.4287-3.1397-4.0654-3.2988-.6255-.1612-.5059.7597-2.8658,2.9248a19.42181,19.42181,0,0,1-5.4682,3.2441c-1.4077-4.9639-5.30319-8.0059-11.4014-8.0059-6.168.0078-10.081,3.1094-11.45309,8.17a19.31408,19.31408,0,0,1-5.1343-2.9541c-2.4136-2.1075-2.3105-3.0245-2.9414-2.8545-.6294.1787-1.8818,1.0683-3.9795,3.4131-2.0874,2.3339-2.0078,3.5253-1.7666,3.5996.2319.0752,3.8994-3.0284,4.0772-2.8916.1762.1269.7641,5.3906,1.0981,5.2998.335-.0918,1.5449-4.6104,1.7461-4.3487.2114.2598,1.6509,5.2491,2.1274,5.1514.4659-.0986-.2895-3.8516-.0703-3.876a12.56032,12.56032,0,0,0,4.5191,1.044,17.9203,17.9203,0,0,0-.2163,2.833c.0019,7.6113,4.1919,12.5888,11.99459,12.5859,7.7934.0049,11.9863-4.9678,11.9834-12.5859a18.03269,18.03269,0,0,0-.2695-3.1944,11.767,11.767,0,0,0,4.9511-1.1298c.2251.0214-.4472,3.7949.0288,3.872.4766.0918,1.7915-4.9414,1.9956-5.2011.2046-.2696,1.52981,4.2177,1.8526,4.3027.334.082.79-5.1983.9673-5.3272.1782-.1386,3.9194,2.875,4.1523,2.7871C89.70888,60.02835,89.76209,58.84185,87.61168,56.54985ZM65.42318,67.043c-.86809.8633-1.9946.0332-3.6289-1.5449-1.6328,1.5801-2.76019,2.4092-3.6269,1.542-.875-.8564-.0332-1.9726,1.5546-3.5937-1.5888-1.6202-2.43209-2.7373-1.5498-3.585.858-.8721,1.98391-.0439,3.6285,1.5332,1.6328-1.5781,2.7602-2.4082,3.6162-1.541.8745.8555.0429,1.9746-1.5542,3.5957C65.46128,65.06935,66.29328,66.18655,65.42318,67.043Zm8.377-1.2587c-.5576.5644-1.2867.0224-2.3535-1.0049-1.064,1.0312-1.7964,1.5693-2.355,1.0068-.5689-.5596-.0303-1.2861,1.0107-2.3437-1.0381-1.0498-1.5849-1.7754-1.0161-2.334.5654-.5645,1.2959-.0225,2.36181,1.0049,1.06539-1.0235,1.79639-1.5694,2.356-1,.56829.5517.019,1.2793-1.01171,2.3359C73.82209,64.50785,74.36658,65.22655,73.80018,65.78425Z"/>
</svg>
