<svg id="fe8e41d4-bf93-4f4d-aedd-616abc87e88c" data-name="Layer 1" xmlns="http://www.w3.org/2000/svg" width="128" height="128" viewBox="0 0 128 128">
  <defs>
    <style>
      .ab0abe1d-abc9-42ae-9ade-3862a23730ef {
        fill: #1d1d1b;
      }
    </style>
  </defs>
  <title>071</title>
  <path class="ab0abe1d-abc9-42ae-9ade-3862a23730ef" d="M93.07381,64.11539a11.68466,11.68466,0,0,1-2.5279-.1768c-.291-.2168-.248-3.6347-.248-3.6347s-.3765-3.3985-.1074-3.6387a11.58507,11.58507,0,0,1,2.4941-.4258c.418-.0801.8071-2.1201.377-2.3008-.4253-.1787-4.5503-.1132-5.2808.6622-.7315.7705.5039,3.1894.2114,4.3291-.2422.9423-5.0024.7539-6.6445.6601-1.146-2.2695-2.48-4.3652-3.3804-4.6142-1.9414-.5333-26.9736-2.001-30.1767.5351-.983.7774-1.378,2.7188-1.4439,4.9336-1.6245.1738-6.3989.6074-6.688-.3281-.3506-1.127.7705-3.6016-.0005-4.3369-.7671-.7373-4.8877-.6036-5.3086-.4024-.4199.1992.0694,2.2188.4893,2.2793a11.83774,11.83774,0,0,1,2.5132.3018c.2812.2304.0713,3.6396.0713,3.6396s.2114,3.4131-.0718,3.6455a11.71078,11.71078,0,0,1-2.5117.2979c-.4195.0644-.9077,2.0801-.4888,2.2793.416.2031,4.5386.3379,5.3096-.3975.768-.7373-.3526-3.2148-.001-4.3408.2905-.9365,5.1328-.4922,6.7222-.3242.1972,3.6523,1.0102,7.2168,1.4087,7.0732.7373-.2685.268-1.8076,1.7402,1.1387,1.4712,2.9414-1.2041,1.6016-.853,2.4736.8261,2.0498,32.7031-1.0058,33.5044-1.4717.8051-.4697-.6021-2.6757-.669-3.5478-.0669-.8682,1.8081-1.9375,2.0752-2.876a11.94536,11.94536,0,0,0-1.2241-3.792c2.0268-.2812,5.4897-.6386,5.7744.1397.4014,1.1054-.5908,3.6357.2114,4.332.8032.6982,4.9146.3623,5.32419.1397C94.0801,66.14659,93.49271,64.15739,93.07381,64.11539Zm-24.273-4.0244c.3638-.5684,5.0742-.6934,5.501-.5049.4267.1914.2978,4.8281.0005,5.1133a14.26239,14.26239,0,0,1-5.106.4101C68.56991,64.79219,68.61721,60.382,68.80081,60.091Zm-15.04-.7315c.4145-.2138,5.1259-.3632,5.519.1827.2007.2793.5093,4.6757-.0976,5.0273a14.11222,14.11222,0,0,1-5.1221-.1074C53.74711,64.19549,53.34621,59.57339,53.76081,59.35949Zm20.8139,11.0039c-.4214.2696-19.4223.8711-19.957.4688-.5352-.4004-1.0713-2.4756-.6714-2.6738.4038-.2012,7.4263-.6016,7.6299-1.3389.1992-.7354-.4004-7.2764.1343-7.6533.5346-.3779,4.0669-.3701,4.209,0,.3296.8594-.3321,6.7812.3379,7.4512.6699.6709,7.8212.1933,8.3925.6972C75.22511,67.82439,74.99561,70.09879,74.57471,70.36339Z"/>
</svg>
