<svg id="b2103c63-f5b9-453f-b878-2d659dba2019" data-name="Layer 1" xmlns="http://www.w3.org/2000/svg" width="128" height="128" viewBox="0 0 128 128">
  <defs>
    <style>
      .f04e1f0c-527d-4c3c-8339-752ac256149c {
        fill: #1d1d1b;
      }
    </style>
  </defs>
  <title>072</title>
  <path class="f04e1f0c-527d-4c3c-8339-752ac256149c" d="M85.06587,64.40064c-.1845-1.6826-7.48339,1.5078-8.122-3.6572-.6406-5.1641,5.0927-8.3672,4.4931-9.4854-.6084-1.1113-5.8076,1.1201-8.8398.003-3.0234-1.1143.3584-4.0528-.88869-4.4063-1.247-.3584-3.73681,3.8242-6.93991,3.2031-3.1973-.6201-5.2334-4.2002-6.5156-3.9853-1.2813.206,1.7397,3.5156-1.3951,4.2695-3.1411.7549-8.0449-2.0644-8.77339-1.0264-.729,1.0391,4.59419,4.8848,3.35109,9.9414-1.2373,5.0577-8.1192,1.0372-8.4888,2.6934-.3691,1.6494,5.5513,1.627,6.5073,5.6836.9629,4.0537-5.7363,6.1416-5.3164,7.0889.4282.9482,9.6323-2.8106,11.8643-1.7539,3.4287,1.6279-1.29349,8.0107.2993,8.1933,1.5928.1895,4.9316-6.9599,7.0381-6.5254,2.1352-.1836,4.6255,7.3008,6.229,7.2998,1.605,0-2.0015-6.1416,1.2495-8.1074,3.2988-1.7715,9.9707,4.9043,11.5732,3.126,1.6036-1.7852-5.8711-3.7432-4.4462-7.6641C79.36377,65.37724,85.24267,66.093,85.06587,64.40064Zm-17.2182-5.1738c-.001,1.3955-3.4907,2.9629-3.4946-.3916C64.35787,55.47774,67.84667,56.33714,67.84767,59.22684Zm-5.3135-.3545c.0024,4.8193-5.0098,2.5683-5.01069.5654C57.52148,55.28444,62.53317,54.05494,62.53417,58.87234Zm6.9331,8.4756c-.2764.2861-.36179.0966-.8174-.2842a6.517,6.517,0,0,1-11.0356-.0029c-.46.3857-.5444.5703-.8189.288-.3574-.372-.1894-.6162.462-1.2509.66011-.6348,1.226-1.084,1.5839-.7071.2837.2901.0918.4727-.3271.9346.8755.7539,2.0088,2.207,4.6177,2.207,2.6084-.0019,3.688-1.4648,4.5615-2.2187-.42289-.458-.5552-.6338-.2725-.9277.3574-.3682.9243.081,1.5855.7109C69.65967,66.73264,69.82467,66.97974,69.46727,67.34794Z"/>
</svg>
