<svg id="a9cb219e-5f64-4ef8-a1b5-75a2655ebffd" data-name="Layer 1" xmlns="http://www.w3.org/2000/svg" width="128" height="128" viewBox="0 0 128 128">
  <defs>
    <style>
      .a483f42c-5953-4da5-9b47-d377439dae22 {
        fill: #1d1d1b;
      }
    </style>
  </defs>
  <title>073</title>
  <g>
    <path class="a483f42c-5953-4da5-9b47-d377439dae22" d="M65.77944,47.025c-12.7949-.2197-25.4971,12.961-18.8203,21.7598a7.57045,7.57045,0,0,0,3.5117,2.1846c-.74509,1.0556-.9424,3.8222.2998,6.2754,1.456,2.8935,4.6933,4.1494,5.2607,3.6113.5645-.5439-2.5049-3.0654-.874-6.3174a9.49061,9.49061,0,0,0,.8652-2.3096,66.67118,66.67118,0,0,0,15.9336.0704,11.77942,11.77942,0,0,0,.8194,1.6298c1.8506,3.125-1.0391,5.8623-.4366,6.3614.6045.5039,3.7442-.9756,4.9991-3.9659a8.10192,8.10192,0,0,0,.42871-5.0878c2.34079-.6397,3.99609-1.4678,4.49219-2.4493C84.99034,63.40981,78.57434,47.24571,65.77944,47.025ZM63.67,67.00061c-3.4326,0-6.2119-1.833-6.2139-4.8291.0039-2.998,2.7842-4.833,6.2168-4.833,3.42581,0,6.1787,1.2285,6.1787,4.959C69.85854,65.33271,66.45524,67.00361,63.67,67.00061Z"/>
    <path class="a483f42c-5953-4da5-9b47-d377439dae22" d="M62.14664,61.73211c.0029,2.3711,3.6543,2.4717,3.6513.1015C65.80184,59.45571,62.14364,59.35711,62.14664,61.73211Z"/>
  </g>
</svg>
