<svg id="f6d496c5-4fac-4d83-bf8f-b2fef6080f73" data-name="Layer 1" xmlns="http://www.w3.org/2000/svg" width="128" height="128" viewBox="0 0 128 128">
  <defs>
    <style>
      .b579fd79-dc6b-4862-bb52-27379f2da0e0 {
        fill: #1d1d1b;
      }
    </style>
  </defs>
  <title>074</title>
  <path class="b579fd79-dc6b-4862-bb52-27379f2da0e0" d="M74.65969,49.07858c-3.3027-.4014-6.51658,1.9004-8.2714,1.8018-1.9698-.1143-4.334-3.3194-7.4834-2.8145-3.1524.5068-8.66609,2.1377-10.07129,12.4932-1.4073,10.3515,7.20209,16.6543,8.32709,16.0918,1.124-.5625-1.1279-2.8145,1.7988-3.2071,5.5772-.75,3.7715,7.3379,6.3018,6.4805,2.5332-.8564-1.2607-8.2803,4.6152-8.7314,3.6524-.2803,1.4063,3.3183,3.503,4.7255C75.47419,77.32658,84.84529,50.31488,74.65969,49.07858Zm-6.333,4.2656c.333-.4971.9502-.1972,1.8799.417.6426-.9121,1.1074-1.418,1.5996-1.0781.5.3369.1992.9541-.416,1.8838.9131.6426,1.41992,1.1074,1.0772,1.5996-.334.501-.9502.1982-1.8838-.416-.6426.9131-1.10548,1.4199-1.5996,1.0781-.4971-.334-.1963-.9512.416-1.8848C68.48979,54.30418,67.983,53.83738,68.32669,53.34418ZM59.106,54.56c-.6074-.9365-.9033-1.5546-.4013-1.8847.4941-.3379.957.1699,1.5908,1.0869.93362-.6065,1.5547-.9043,1.8857-.4014.33792.4971-.1709.9571-1.0869,1.5918.6065.9375.9024,1.5557.4014,1.8858-.4961.3388-.959-.1729-1.5918-1.0889-.9365.6064-1.5567.9033-1.88578.4014C57.67929,55.65868,58.18711,55.19378,59.106,54.56Zm15.4004,4.3741a10.31333,10.31333,0,0,1-2.57128.831c.00778.792-.13472,1.499-.48042,1.6143-.3633.124-.6455-.5401-.7871-1.3682-.7168.1182-1.542.2276-2.4903.3125-.0166.7119-.1631,1.3164-.4765,1.4219-.3604.123-.64068-.5205-.7823-1.3291q-.9462.05415-2.02438.0752c.01078.8008-.13382,1.5166-.47952,1.6347-.4004.1338-.7051-.6875-.8291-1.6269-.9746-.0029-1.8711-.0342-2.69138-.0811-.05372.8536-.26562,1.6289-.64352,1.7178-.4287.0996-.6524-.8203-.669-1.8125-1.1504-.1025-2.1211-.2402-2.9306-.3877-.1583.794-.4522,1.4746-.8213,1.5156-.4258.0459-.545-.8339-.46-1.79a8.98152,8.98152,0,0,1-2.125-.7285c-.4297-.2735-.3652-.6162.86129-.7295a6.07535,6.07535,0,0,1,1.49912.1816c.17178-.5654.41208-.9843.69528-.9951.3359-.0137.4814.5391.4843,1.2412.8067.1651,1.7637.3506,2.878.4961.0996-.5859.291-1.0361.5722-1.081.3399-.0528.5518.5039.6328,1.2197.81742.0771,1.7042.1289,2.6592.1396.0244-.6943.169-1.2675.4776-1.3476.3613-.0957.64062.541.7841,1.3369.7198-.0215,1.3926-.0674,2.0206-.1279-.0049-.7989.1386-1.502.4804-1.5899.377-.0976.6651.5967.8018,1.4385.9375-.1279,1.75972-.2861,2.4795-.4346.0166-.7041.1621-1.29.4756-1.3701.3271-.084.5879.4307.7392,1.1172a6.82673,6.82673,0,0,1,1.8711-.2187C75.05819,58.36468,74.93511,58.66358,74.50639,58.93408Z"/>
</svg>
