<svg id="aab2aa9c-d3b5-4632-96e7-b00b0666e63c" data-name="Layer 1" xmlns="http://www.w3.org/2000/svg" width="128" height="128" viewBox="0 0 128 128">
  <defs>
    <style>
      .ab554492-95e9-43c8-b602-4d79d32fc47e {
        fill: #1d1d1b;
      }
    </style>
  </defs>
  <title>075</title>
  <path class="ab554492-95e9-43c8-b602-4d79d32fc47e" d="M77.15811,86.07546c-.2236-4.3525,2.6768-6.8066,3.3496-11.2754.668-4.4638-1.45109-17.3047-2.4609-25.9013-1.0029-8.5967-9.4795-16.1436-15.9609-15.917-10.1202.3535-18.5215,10.4453-18.9825,12.541-.4609,2.0947.8369,4.3945,2.1787,4.5224,1.3379.1241,1.8428-1.8017,2.4688-1.8427.6289-.041.5859,1.0859,1.9248,1.2148,1.3418.1231,2.2617-1.8008,2.7627-1.7197.5078.0859.7539,1.5947,2.1377,1.4658,1.3828-.124,2.4736-1.2978,3.0566-1.2148.58891.0869.335,1.2607,1.6338,1.0488,1.2969-.2109,3.4756-1.5078,5.5664-.9639,2.0908.5459-.9648,7.4131-1.7998,7.6641-.8369.2471-.9599-1.3018-2.1777-1.4658-1.2129-.17-1.3809,1.3379-1.92479,1.3789-.544.042-1.50781-2.2998-2.92971-2.2578-1.4229.041-1.9668,1.7558-2.3848,1.9238-.4189.166-2.0527-1.5879-3.43449-1.4326-.94731.1084-1.25981,1.4765-2.00981,1.8115-.7549.335-3.8115-2.4697-5.2871-.0576-2.1738,3.5381,4.58691,9.0937,8.7637,12.1181a4.78664,4.78664,0,0,0-2.6221.9668,3.32506,3.32506,0,0,0-1.1319,3.5664,2.43981,2.43981,0,0,1,.7998-1.1328,1.83,1.83,0,0,0,.629,1.2842,2.83251,2.83251,0,0,1,.5771-1.1728,2.82852,2.82852,0,0,0,.78131,1.3388s-.19831-2.8193,3.50869-3.08c.1914.1357.334.2294.417.29,1.2246.8916-.6718,18.8691-.4472,19.5361.2207.6729-4.166.9668-4.1338,1.9033.0176.4405,3.0176.3321,2.90531,1.1153-.11431.7773-2.00981,1.2275-2.12211,2.0058-.1104.7823,2.5722.7579,4.7978.5918,2.6319-.1923,5.377-2.3535,5.3741-2.914,0-.5596-2.4151-.3125-2.63579-.9844-.22651-.667,2.84769-2.0488,3.96289-2.3867,1.1172-.333.4453-6.9199.8945-7.0508.4473-.1309.7793,6.0469.55961,7.0518-.22661,1.0048-3.72461,1.1513-3.49121,2.0742.1094.4463,2.1768-.1055,2.1475.8271-.043,1.459-2.2344,1.6748-2.1231,2.7774.1162,1.1015,12.7285.4599,13.5147-.002.78411-.4619-.5596-12.9326.0029-12.7285.5557.2051.999,11.0693.999,12.1875.0029,1.1182,10.4961.333,10.7188-.7803C85.75481,91.88306,77.38271,90.43286,77.15811,86.07546Zm-28.5986-40.6474a1.54519,1.54519,0,1,1,1.49511-1.544A1.39943,1.39943,0,0,1,48.55951,45.42806Zm11.7314.0009a1.7724,1.7724,0,1,1,1.7158-1.7734A1.59753,1.59753,0,0,1,60.29091,45.429Zm6.9453,22.7051c-3.3955,1.1748-2.1045,3.5039-2.041,3.6201a2.77366,2.77366,0,0,1-1.0742-1.0381,2.67314,2.67314,0,0,0-.2305,1.2403,1.78515,1.78515,0,0,1-.9228-1.0254,2.37186,2.37186,0,0,0-.4473,1.2627,3.21022,3.21022,0,0,1,.11621-3.6192c1.46189-2.374,5.78229-3.5546,6.63479-2.9511C70.12491,66.23076,69.65321,67.30006,67.23621,68.13406Z"/>
</svg>
