<svg id="ec575502-f5ae-492f-9aff-12f82359fdf9" data-name="Layer 1" xmlns="http://www.w3.org/2000/svg" width="128" height="128" viewBox="0 0 128 128">
  <defs>
    <style>
      .b8063006-8a43-4abe-a534-0e8c5be90b3e {
        fill: #1d1d1b;
      }
    </style>
  </defs>
  <title>076</title>
  <g>
    <path class="b8063006-8a43-4abe-a534-0e8c5be90b3e" d="M69.72722,70.20111c-4.3516-2.0459,5.2822-13.2236-5.7276-13.417-10.9365,1.2237-.2949,11.4473-4.4345,13.8985-4.1407,2.4492-16.3164,1.7363-13.7569,7.667,3.8477,8.8877,12.1856-3.212,14.3555-1.3604,2.1709,1.8584-4.3447,12.0195,5.3281,11.4795,9.6836-.374,2.2481-9.8789,4.2354-11.9326,1.9804-2.0449,11.4219,9.2129,14.4131.0029C86.13732,70.39061,74.07292,72.25681,69.72722,70.20111Z"/>
    <path class="b8063006-8a43-4abe-a534-0e8c5be90b3e" d="M55.25162,55.47941c2.8018-6.1445,14.6631-4.8281,17.1504.376,1.4414,3.0244-4.47848,13.0459,6.89652,12.8613,11.36328-.1904,10.15618-31.455-15.84672-29.0771-28.5127,2.6152-24.0381,28.8838-13.4609,29.0781C60.57392,68.90421,53.84054,58.60251,55.25162,55.47941Zm20.0185,4.8956c.7852-2.5108,2.4053-3.8135,4.4668-3.1739,2.0801.6426,2.6807,2.627,1.9053,5.1455-.7832,2.5196-2.4043,3.8203-4.4756,3.1758C75.09632,64.88571,74.49572,62.89251,75.27012,60.375Zm-28.5429,1.6328c-.51168-2.584.2959-4.4922,2.4199-4.919,2.123-.415,3.5977,1.044,4.1113,3.6279.5117,2.5831-.29588,4.501-2.41988,4.917C48.71454,66.05851,47.24092,64.59761,46.72722,62.00781Z"/>
  </g>
</svg>
