<svg id="aa46e2a7-b445-4339-a3e6-240b41507f9e" data-name="Layer 1" xmlns="http://www.w3.org/2000/svg" width="128" height="128" viewBox="0 0 128 128">
  <defs>
    <style>
      .ae79dad4-8bc2-416c-bc56-ca972c0053ff {
        fill: #1d1d1b;
      }
    </style>
  </defs>
  <title>077</title>
  <g>
    <path class="ae79dad4-8bc2-416c-bc56-ca972c0053ff" d="M51.72172,42.33205a1.43238,1.43238,0,1,0-2.86131-.0215A1.43238,1.43238,0,1,0,51.72172,42.33205Z"/>
    <path class="ae79dad4-8bc2-416c-bc56-ca972c0053ff" d="M77.65921,41.292a1.28992,1.28992,0,0,0-2.5732-.0195A1.28992,1.28992,0,0,0,77.65921,41.292Z"/>
    <path class="ae79dad4-8bc2-416c-bc56-ca972c0053ff" d="M92.127,57.01565c-.5537.0654-1.2168,1.4902-3.2197,2.9365a15.44867,15.44867,0,0,1-3.8985,2.0293c-.41209-12.1006-2.4922-23.961-3.0947-25.0323-1.8018-3.1865-8.4883-3.2939-11.9746-.9462-2.1611,1.458-.1113,8.5712-1.6836,9.9755-1.5703,1.4004-8.36619,1.7588-10.2588-.1269-1.8896-1.8809-2.0556-6.707-2.98239-9.1416-.92091-2.4346-9.53221-3.5352-11.67291.3828-1.5625,2.8623-1.49609,13.8916-.66009,23.3721a15.55235,15.55235,0,0,1-3.58891-2.1797c-1.914-1.5606-2.4912-3.0254-3.03709-3.1211-.40531-.0684-2.95121,2.6504-2.96391,2.957-.0117.3047,2.7413-.5635,2.96591-.3965.22749.1641-.76571,2.6368-.587,2.8145.17579.1777,2.212-1.5899,2.43269-1.2852.2256.3047.0136,2.7696.2675,2.7998.2539.0264,1.1631-1.6611,1.4707-1.6709a28.41051,28.41051,0,0,1,3.1582,1.3829c.6758,7.373,1.46391,13.6308,1.2315,14.2802-.544,1.5049-9.14359.378-9.29,4.5244-.0655,1.8106,8.93941,2.9258,19.1992,3.3321.0097.5049.0127,1.0898-.00979,1.7402a62.187,62.187,0,0,1-.66111,7.3027c.0605.125.2207.1114.5322.1231l4.3887.0058c.2226-.0136.3623-.0332.4316-.1289.3897-.5781-2.6465-2.3877-2.6982-2.5742-.0811-.3086.0312-2.8984-.0039-4.7246a11.69428,11.69428,0,0,0-.1621-1.6797c2.3291.0723,4.7021.1094,7.0224.1133.0205.5625.02741,1.2461.0029,2.0166a60.84746,60.84746,0,0,1-.6611,7.3027c.0625.1231.2188.1104.5293.1231l4.3945.0029c.21781-.0156.3623-.0312.42781-.1308.39159-.5782-2.64751-2.3848-2.69531-2.5743-.0801-.3046.0341-2.8925-.002-4.7207a13.00141,13.00141,0,0,0-.2246-2.0293c2.0625-.0175,4.0713-.0605,5.96-.1328.0273.6055.042,1.3692.0107,2.252a61.62773,61.62773,0,0,1-.6621,7.3008c.0605.123.2178.1152.5322.125l4.3887.0029c.2187-.0156.3623-.0313.4287-.1299.3926-.5762-2.6426-2.3848-2.69429-2.5742-.08211-.3047.03219-2.8926-.003-4.7246a13.86107,13.86107,0,0,0-.27831-2.3301c6.0821-.3076,10.5342-.9482,10.8672-1.9258,1.6719-4.9258,2.1104-11.8222,1.9404-18.7402a27.55279,27.55279,0,0,1,3.1924-1.1807c.3086.0303,1.11131,1.7588,1.374,1.7569.2569-.0176.1875-2.4922.4268-2.7813.2432-.291,2.1719,1.5957,2.3574,1.4277.1885-.166-.6611-2.6972-.4228-2.8476.2363-.1484,2.9365.8789,2.9384.5732C94.91411,59.835,92.53231,56.97065,92.127,57.01565Zm-16.2129-18.6973c1.8174.0137,3.2715.8535,3.2549,3.3662a3.24076,3.24076,0,0,1-3.2998,3.1494,3.25812,3.25812,0,1,1,.0449-6.5156Zm-29.81539,4.3418c.01559-2.5254,1.664-4.0606,3.68449-4.0488,2.0206.0156,3.6377,1.0634,3.6153,4.207a3.81616,3.81616,0,0,1-3.6709,3.9433C47.70611,46.74805,46.08011,45.18845,46.09872,42.66015Zm30.62789,12.2861c.1357.6768.4434,1.8916-.1025,2.4697a1.53117,1.53117,0,0,1-2.1817-.1699,2.98193,2.98193,0,0,1-.3418-1.1738c-.042-.2852-.0791-.5732-.1025-.8574-.0225-.3086-.4815-.1719-.7568-.1699-1.4004.0234-2.8028.0322-4.2022.0507.1475,1.1621.2715,2.8926-1.2959,2.9375-1.584.0459-1.52049-1.7324-1.4141-2.8906q-2.6205.05415-5.2343.1797c.29591,1.1894.6318,2.9375-1.086,2.9687-1.4423.0274-1.5898-1.7304-1.6269-2.8291-1.5244.0831-3.0537.1748-4.5781.25.1386,1.1416.3046,2.7725-1.2334,2.837-1.5459.0586-1.5372-1.5821-1.5039-2.7383-.3399.0068-4.3711.1133-3.5323-1.0586.5283-.7344,1.9463-.9024,2.7461-1.0567a60.22817,60.22817,0,0,1,7.9463-.8398q5.332-.32085,10.6807-.3721a66.425,66.425,0,0,1,8.1523.2754c.6123.0694,3.1299.1944,3.16211,1.1875C80.22951,54.96675,77.28031,54.91405,76.72661,54.94625Z"/>
  </g>
</svg>
