<svg id="ab97ae8e-b813-4aec-9b26-15bd3b97b275" data-name="Layer 1" xmlns="http://www.w3.org/2000/svg" width="128" height="128" viewBox="0 0 128 128">
  <defs>
    <style>
      .b953a032-1ed9-4dcf-9a31-48569869be76 {
        fill: #1d1d1b;
      }
    </style>
  </defs>
  <title>078</title>
  <path class="b953a032-1ed9-4dcf-9a31-48569869be76" d="M82.52792,52.99113c-.6739-1.2285-3.7969-1.9326-7.98249-2.21a26.61625,26.61625,0,0,0-1.28021-5.5088c.6904-.1259,1.3808-.2461,2.0517-.4306a1.62034,1.62034,0,0,0,.9619-1.6631,1.178,1.178,0,0,0-1.456-1.0166c-.8252.2197-1.6211.5264-2.4239.8135a34.22869,34.22869,0,0,0-2.4531-4.6094,1.8946,1.8946,0,0,0-2.60639-.7412,1.95585,1.95585,0,0,0-.45411,2.6094c.3125.5214.6015,1.0185.876,1.5-.5264.0507-1.0577.1142-1.5782.2148a1.614,1.614,0,0,0-1.0898,1.585,1.1799,1.1799,0,0,0,1.3799,1.1181c.8525-.1543,1.6875-.4092,2.5254-.6367.34181.6602.63281,1.293.8994,1.9111-.7354.4688-1.5039.8887-2.1992,1.4024a1.6146,1.6146,0,0,0-.3165,1.8965,1.18279,1.18279,0,0,0,1.7305.4267c.5762-.4131,1.1123-.876,1.6553-1.3476a16.99285,16.99285,0,0,1,.5752,2.3486,93.85376,93.85376,0,0,0-19.3486,1.7363c-.15629-.6191-.253-1.1865-.3282-1.6826.6885.1856,1.37891.3779,2.0762.4951a1.18575,1.18575,0,0,0,1.374-1.1357,1.63059,1.63059,0,0,0-1.1045-1.5733c-.8584-.1552-1.7343-.2031-2.5947-.3017-.0322-.6758-.041-1.3789-.0244-2.1143.8584-.1631,1.7207-.2949,2.5576-.5244a1.1733,1.1733,0,0,0,.75-1.6084,1.60456,1.60456,0,0,0-1.6641-.9502c-.5107.1299-1.0156.3028-1.5146.4834.0371-.5469.083-1.124.1348-1.7275a1.95154,1.95154,0,0,0-1.5401-2.1494,1.88948,1.88948,0,0,0-2.0254,1.7988,34.00371,34.00371,0,0,0-.209,5.2178c-.8447.0927-1.7001.1562-2.538.3222a1.16727,1.16727,0,0,0-.8672,1.5401,1.62022,1.62022,0,0,0,1.5888,1.0849c.6827-.125,1.3604-.3173,2.0293-.5039a30.1032,30.1032,0,0,0,.8047,4.1241,16.51865,16.51865,0,0,0-2.4902.957c-3.4678,1.7334-5.61329,15.7861.0019,19.2754,1.9043,1.1806,6.3272,1.9287,11.4776,2.1855a10.34771,10.34771,0,0,0,.3779,3.4483c-2.1416,1.3681-3.9961,3.3964-4.1279,5.0361-.1436,1.7041-1.25,5.7227-.6465,5.7217.6045.001,1.1143-4.1026,1.4268-5.6016.3496-1.6514,2.6904-3.3603,3.7334-4.0537a8.27621,8.27621,0,0,0,2.5048,3.4014,4.96206,4.96206,0,0,0-1.7529,2.8349c-.1113,1.3692-.6601,4.2266-.1719,4.2276.48051-.001.5489-2.9248.7959-4.1299a5.09076,5.09076,0,0,1,1.8819-2.4297,6.08344,6.08344,0,0,0,3.6709.8115,10.8022,10.8022,0,0,0,3.9609-1.081c.9258.4394,2.9375,1.5215,3.3916,2.7793.4229,1.1562.9785,4.1181,1.46,4.0752.4795-.0401-.5459-2.9239-.8526-4.2598-.24509-1.1065-1.53509-2.292-3.0713-3.1387a7.98476,7.98476,0,0,0,2.7764-3.208c1.0254.4658,3.8164,1.8799,4.4277,3.5459.5245,1.4414,1.6123,5.8213,2.208,5.7734.5967-.0537-1.0703-4.3291-1.4531-6.0009-.3623-1.5987-2.4492-3.3252-4.7539-4.3809a12.00285,12.00285,0,0,0,.582-4.1885c4.37211-.7402,7.78911-1.9443,8.8799-3.6464C86.62552,65.67963,84.65192,56.87593,82.52792,52.99113Zm-33.98149,6.4111a2.03425,2.03425,0,1,1,2.03319,2.1016A1.89132,1.89132,0,0,1,48.54643,59.40223Zm16.12789,10.0742c-8.4365.8204-14.7588,1.5245-14.8652.4346-.1055-1.0908,6.2314-1.6055,14.6738-2.4267,8.4356-.8184,14.7578-1.5245,14.8653-.4336C79.45272,68.14053,73.11092,68.65613,64.67432,69.47643Zm12.3926-8.6035a2.41008,2.41008,0,1,1,2.3311-2.4131A2.18127,2.18127,0,0,1,77.06692,60.87293Z"/>
</svg>
