<svg id="f2f25aae-02e5-4ea1-816b-e3c6186305e0" data-name="Layer 1" xmlns="http://www.w3.org/2000/svg" width="128" height="128" viewBox="0 0 128 128">
  <defs>
    <style>
      .ad0f608b-0d80-4f26-bc4b-afdd623371fb {
        fill: #1d1d1b;
      }
    </style>
  </defs>
  <title>079</title>
  <path class="ad0f608b-0d80-4f26-bc4b-afdd623371fb" d="M85.20808,44.384c-.5234-5.5293-5.3984-10.0986-6.8066-9.7627-1.4072.3369,2.2578,6.6601-3.0039,10.1523a12.1033,12.1033,0,0,0-3.6904,3.3692,26.94916,26.94916,0,0,0-6.3145-.6924,25.86043,25.86043,0,0,0-7.8193,1.1035c-.5928-.8281-1.9864-1.835-5.1231-2.7422-6.06639-1.7597-4.4551-8.8886-5.9033-8.791-1.4404.1016-4.7217,5.9199-3.5693,11.3525a11.04649,11.04649,0,0,0,5.4375,7.5899,17.82547,17.82547,0,0,0-1.8164,8.1826c-.002,8.2402,4.37111,14.1533,12.625,16.0479-1.3067,3.1621-3.29889,10.2539-2.2715,11.3574,1.1533,1.2256,17.5664,2.7637,19.0215,1.1494,1.1757-1.3008-2.4961-8.9443-3.6817-12.6924,7.7705-2.0674,11.88481-7.8701,11.8887-15.8603a16.83114,16.83114,0,0,0-3.0254-10.1387C83.26868,53.1018,85.65738,49.1135,85.20808,44.384ZM55.64558,68.2463c-4.6923-2.3174-3.0478-6.8545-2.3222-6.9863.9091-.168,8.5527,3.8037,8.93751,4.1318C62.65148,65.715,60.34489,70.5647,55.64558,68.2463Zm19.5411-.3428c-4.4649,2.7451-7.211-1.8711-6.8594-2.2304.3574-.3604,7.59861-5.0274,8.51361-4.9473C77.58118,60.7961,79.64468,65.1613,75.18668,67.9035Z"/>
</svg>
