<svg id="ee17da11-3aa2-4a76-b3e9-07fcae1e70f3" data-name="Layer 1" xmlns="http://www.w3.org/2000/svg" width="128" height="128" viewBox="0 0 128 128">
  <defs>
    <style>
      .b6d28e0f-8a16-470e-86bd-69e871710d72 {
        fill: #1d1d1b;
      }
    </style>
  </defs>
  <title>080</title>
  <g>
    <path class="b6d28e0f-8a16-470e-86bd-69e871710d72" d="M65.60063,61.31125c.0068-3.9854-6.5518-4.1817-6.5425-.0079C59.05863,64.49965,65.60743,65.27605,65.60063,61.31125Z"/>
    <path class="b6d28e0f-8a16-470e-86bd-69e871710d72" d="M64.12643,44.09735c-14.0429-1.419-28.5688,34.6553-25.2548,38.1162,2.6044,2.7236,47.6796,2.0039,50.3886-.5791C91.98193,79.03675,78.16893,45.51535,64.12643,44.09735ZM61.96634,54.824c5.61329.0039,8.63329,2.3466,8.64449,6.1054-.0024,3.7598-3.0381,6.1094-8.6509,6.1026-5.6108.0097-8.6308-2.334-8.6289-6.1065C53.31934,57.16665,56.35543,54.821,61.96634,54.824Zm13.38379,21.2441c-.0244,1.2178-.3316,2.0771-1.628,2.1299-1.3095.0664-1.7319-.7803-1.92479-2.0117-.81441.0117-1.687.0175-2.60351.0136-.1113,1.2002-.5088,2.0196-1.7851,2.0039-1.2735-.0009-1.649-.8134-1.752-2.0039-.4292-.0019-.874-.0068-1.3301.0049-.5449-.0049-1.0742-.0117-1.59029-.0058-.03171,1.1386-.34621,1.9238-1.58451,1.9941-1.3081.0801-1.7441-.752-1.9663-1.9932-1.1587-.0009-2.248-.0127-3.2524-.0302-.0835,1.1972-.4507,2.0253-1.73779,2.0361-1.35991.0088-1.71631-.8955-1.81691-2.2022-2.1675-.1884-3.4253-.5556-3.4277-1.2392-.0059-.6973,1.2587-1.0537,3.3999-1.2373.0864-1.3018.4165-2.2031,1.76171-2.209,1.30119-.0147,1.68019.8232,1.79879,2.0381.9434-.0137,1.9575-.0342,3.0454-.0371.0171-1.1407.333-1.9248,1.5713-1.9942,1.3081-.0791,1.7417.752,1.9644,1.9942.603.0107,1.20411.0078,1.8339.0058.4581,0,.917.002,1.3599.0049.126-1.2031.50831-2.0205,1.7979-2.0205,1.2753.0166,1.6362.8291,1.7368,2.0078.8325.0117,1.6338.0137,2.3789.0225.0454-1.1553.3574-1.9649,1.6113-2.0244,1.3535-.0577,1.7656.8261,1.9502,2.125,2.82521.1679,4.5396.5224,4.541,1.3242C79.70213,75.55145,78.06593,75.89905,75.35013,76.06805Z"/>
  </g>
</svg>
