<svg id="ad8e2a50-b708-45a7-9d5a-68419ee7f2f7" data-name="Layer 1" xmlns="http://www.w3.org/2000/svg" width="128" height="128" viewBox="0 0 128 128">
  <defs>
    <style>
      .bf02cc0b-9d7a-4c0b-88fc-cc462072e7d0 {
        fill: #1d1d1b;
      }
    </style>
  </defs>
  <title>081</title>
  <path class="bf02cc0b-9d7a-4c0b-88fc-cc462072e7d0" d="M87.143,59.48989c-.9863-1.8213-4.375.1465-5.5371.8985a20.40608,20.40608,0,0,0-.1689-2.3643c-.2554-1.0224.4497-1.4697.9614-2.3642.5078-.8956-1.918-3.5147-2.6865-3.9639-.7686-.4463-.8316.7676-2.1114.0644a13.69044,13.69044,0,0,0-2.9414-.4677,21.14535,21.14535,0,0,1-.9292-3.4248c.0869-.3828,1.9356-.6758,2.8174-.9698,1.1514-.3828-.0928-1.749-.3857-1.8281-.4312-.1211-3.8941.9844-4.1602,1.624-.1914.458.4932,3.0254.8945,4.4473-1.4003-.1074-3.0346-.1963-4.7876-.2549a18.21752,18.21752,0,0,1-.6958-2.6709c.0567-.3144,1.4053-.5166,2.044-.7412.8345-.292-.106-1.4473-.3213-1.5225-.3203-.1083-2.8345.7286-3.0161,1.251a15.86643,15.86643,0,0,0,.7373,3.6475c-7.2959-.1651-16.0742.2861-18.7944,2.5703-1.0079.8486-1.5411,3.8574-1.6636,7.4443-.792-.7675-4.0757-3.7539-5.4527-2.0361-.5209.6494.5,5.0986.8838,5.4922.2578.2695,2.4024.7988,2.0894-.6807-.2402-1.1318-1.0659-3.3174-.7295-3.6426.2349-.2255,2.0815,1.3252,3.1831,2.2901-.0244,6.1719,1.063,13.3652,2.9658,14.2803a19.31231,19.31231,0,0,0,5.2779.7539l-.0044.0644c-.0796,1.3526.0752,3.2725-.0616,3.5-.083.1387-3.2207,1.5274-2.5874,1.9551a1.6172,1.6172,0,0,0,.6983.0977l5.3218-.0489c.5112-.0078.7685.001.8706-.0927.0473-.0469-.44-3.5948-.7579-5.335,2.0967.0517,4.3877.0596,6.6778.0273-.0664,1.3457.0786,3.1748-.0552,3.3946-.083.1425-3.2202,1.5283-2.5918,1.956a1.65527,1.65527,0,0,0,.6983.0977l5.3256-.0489c.5108-.0097.7681.001.8672-.0888.0508-.0469-.4492-3.6748-.7671-5.3906,2.4497-.0821,4.7784-.211,6.7344-.3848-.0093.1094-.021.2266-.0273.3613-.0801,1.3526.0786,3.2725-.0581,3.4981-.0865.1406-3.2237,1.5283-2.5909,1.956a1.60814,1.60814,0,0,0,.6978.0987l5.3223-.0499c.5107-.0078.7714.001.8706-.0888.0537-.0508-.5777-4.5957-.8741-5.9219.0122-.0791.0245-.1631.0381-.2559a4.87879,4.87879,0,0,0,2.0533-.6308c1.2397-1.1924,1.3574-9.4277,1.229-14.3438,1.2519-.7353,2.9121-1.6455,3.082-1.4121.2695.3828-.9317,2.3819-1.3672,3.4541-.5737,1.3985,1.6284,1.2647,1.9346,1.045C85.74015,64.41379,87.53845,60.21939,87.143,59.48989Zm-24.73-7.2627c.5816.003.896.4014.8965,1.0157.0015.6172-.313,1.0146-.8945,1.0146-.583.002-.8965-.4004-.898-1.0146C61.52,52.62859,61.831,52.22819,62.413,52.22719Zm-2.7671.1329c.5049-.002.7779.3476.7769.8828.0029.5371-.271.8886-.7793.8857-.5078.0029-.7812-.3457-.7812-.8857C58.86365,52.70769,59.13755,52.35809,59.64585,52.36009Zm9.1807,17.1582c-.3364.4814-10.3584,3.1181-10.8369,2.5898-.4829-.5273,5.6973-8.582,5.4849-9.0156.0278-.4805-8.7935-5.5069-8.5557-6.1797.2358-.6699,10.499-2.1289,10.9922-1.8193a1.57486,1.57486,0,0,1,.3364,1.7861c-.2798.3252-7.7422.3965-7.7495.8691-.0117.4737,7.041,4.3711,7.1143,4.9131.1455.5254-4.8418,6.8574-4.65,7.29.191.4307,7.0948-2.3994,7.48-2.208A1.58438,1.58438,0,0,1,68.82655,69.51829Z"/>
</svg>
