<svg id="afe2cfe8-ac6f-44f5-ad81-fbbc3fcdcb3a" data-name="Layer 1" xmlns="http://www.w3.org/2000/svg" width="128" height="128" viewBox="0 0 128 128">
  <defs>
    <style>
      .a58b2321-e98f-4440-ad6c-350f07a145e5 {
        fill: #1d1d1b;
      }
    </style>
  </defs>
  <title>001</title>
  <path class="a58b2321-e98f-4440-ad6c-350f07a145e5" d="M77.65745,58.66415c-.45954-.21992-1.66779.20455-2.55589.7058-.0203-1.57332-.04724-3.12818-.08813-4.59486,1.05966-1.66642,3.08534-1.84925,3.78159-2.09843.79132-.28537-.52475-1.75965-1.13609-2.04941-.49752-.2379-1.86777.277-2.766.82959-.13963-3.02071-.35753-5.26483-.68557-5.85242a1.81606,1.81606,0,0,0-.33955-.435,3.63693,3.63693,0,0,0,.40649-2.62977c-.33-1.554-1.76256-2.59357-2.1192-2.42119-.3564.17245.82229,1.78084-.43058,3.06849a5.43531,5.43531,0,0,0-.5555.65572,21.14375,21.14375,0,0,0-4.0904-.647.9465.9465,0,0,0-.05275-.08112c-.82781-1.24279.38192-2.38178.11649-2.57625-.26544-.1979-1.598.43871-2.1071,1.65913a3.11971,3.11971,0,0,0-.23588,1.02085c-1.54727.28134-15.24124,8.35989-15.744,10.62549-.56184,2.52782,1.43749,7.13253,3.01953,7.60109a1.68813,1.68813,0,0,0,1.05788-.19179.10847.10847,0,0,0-.00149.06142c.07827.31581,1.07794.75767,1.21644.59893a1.34173,1.34173,0,0,0-.21677-1.17383c.5184-.30222,1.08862-.67453,1.6739-1.0596.279.28306.993.56558,1.11063.43343a1.46312,1.46312,0,0,0-.12693-1.08221c.47-.30394.93765-.59685,1.3804-.85445.26365.28828,1.008.58908,1.12885.45313a1.48305,1.48305,0,0,0-.08082-.99356,2.173,2.173,0,0,1,1.72808-.23267c1.75763.90667-2.81029,3.921-1.3175,4.88931,1.4925.96459,1.84659-2.546,4.65575-1.23205C67.09308,62.379,61.422,86.74,64.2819,87.60523c3.42631,1.03408,5.18282-.98317,6.2372-.98346,1.055,0,5.66668,2.079,6.49972.79078,2.19664-3.39943-1.95987-9.01858-1.93406-11.76918.004-.58071.02866-2.54491.04374-5.21094a7.80637,7.80637,0,0,1,3.07513-1.28913c.7925-.28164-.5282-1.75585-1.13989-2.04941a3.02843,3.02843,0,0,0-1.92682.39177c.00434-1.52585.00434-3.16616-.00783-4.84149,1.08079-1.51047,2.99573-1.68808,3.66795-1.9315C79.58492,60.42813,78.26855,58.95415,77.65745,58.66415ZM61.16589,51.25342c-.58155-2.49626,2.2612-3.93659,2.93811-1.04C64.77764,53.111,61.4455,52.45591,61.16589,51.25342Zm4.02667-1.3178c-.4685-2.01464,1.75217-1.98769,2.15433-.25065C67.54277,50.52494,65.662,51.95376,65.19256,49.93562Z"/>
</svg>
