<svg id="b3eeb88d-a718-458a-b940-8cb91430e864" data-name="Layer 1" xmlns="http://www.w3.org/2000/svg" width="128" height="128" viewBox="0 0 128 128">
  <defs>
    <style>
      .a566f1cb-b9c1-4291-8da2-04f5f9ef52f4 {
        fill: #1d1d1b;
      }
    </style>
  </defs>
  <title>083</title>
  <path class="a566f1cb-b9c1-4291-8da2-04f5f9ef52f4" d="M82.83909,65.63305c-.0073-4.667-1.5454-8.5449-4.5581-11.2686a18.03821,18.03821,0,0,0,2.8066-9.6015c.0064-5.9317-3.7099-10.1612-4.9087-9.5733-1.2173.5899,1.3467,6.8936-3.3569,11.4981a19.2184,19.2184,0,0,0-3.065,3.7119,28.70375,28.70375,0,0,0-5.291-.4678,26.1914,26.1914,0,0,0-7.6084,1.0176,17.709,17.709,0,0,0-3.3921-4.0528c-4.7954-4.5224-2.3574-10.8886-3.582-11.4375-1.2236-.5664-4.8486,3.7247-4.7192,9.6563.1015,4.7637,2.2339,9.1533,4.0591,10.7324a15.23832,15.23832,0,0,0-3.1416,9.7735c.0063,7.7382,4.2563,13.2939,12.3027,15.0566-.0991,3.7236-.439,10.5889.7554,11.4922,1.4687,1.1152,11.664,1.1055,13.3325-1.6611,1.2085-2.0342.1631-7.4239-.4912-10.1797C79.09689,78.22385,82.841,72.88595,82.83909,65.63305Zm-29.1084.7295c-.0025-8.6211,10.4165-11.1934,10.4228-1.1573C64.15449,75.21015,53.71459,70.53245,53.73069,66.36255Zm14.2055-1.2373c.0093-6.9825,7.2671-5.1934,7.2671.8134C75.20329,68.844,67.94309,72.10275,67.93619,65.12525Z"/>
</svg>
