<svg id="e5cb71f1-6713-4552-a619-8394311fabf9" data-name="Layer 1" xmlns="http://www.w3.org/2000/svg" width="128" height="128" viewBox="0 0 128 128">
  <defs>
    <style>
      .a250035c-9e59-4e0c-bc32-83c74e4c2ed9 {
        fill: #1d1d1b;
      }
    </style>
  </defs>
  <title>084</title>
  <path class="a250035c-9e59-4e0c-bc32-83c74e4c2ed9" d="M62.78139,45.44468c-13.1069-.0009-22.9453,14.9913-16.1055,25.337,1.0156,1.5312,3.2505,2.6464,6.1514,3.4062-.9492,2.3662-2.2407,6.5518.395,6.9111,2.5132.3409,3.4566-3.5878,3.8057-6.1113a50.9461,50.9461,0,0,0,5.1245.4053c-.5288,2.3838-1.293,7.2822,1.5259,7.1601,2.6972-.1171,2.7876-4.6787,2.6303-7.1601,1.8716-.0557,3.7124-.2012,5.46-.419.5898,2.1319,2.3769,7.5342,4.9365,5.9561,2.02-1.2412.625-4.4912-.6548-6.6875,3.5269-.7979,6.1148-1.9814,6.771-3.46C85.62169,64.46038,80.78919,45.44078,62.78139,45.44468Zm-6.1685,23.751c-2.9814-.001-4.582-1.2373-4.5766-3.1328-.0005-1.8867,1.6001-3.1211,4.5805-3.1211,2.9737-.0049,4.5752,1.2315,4.5772,3.126C61.195,67.96128,59.59489,69.19568,56.61289,69.19568Zm15.9009-.4013c-2.5967.0019-3.9966-1.0772-3.9917-2.7286-.0034-1.6504,1.3945-2.7265,3.9907-2.7295,2.5982.0049,3.9976,1.084,3.9995,2.7334C76.50749,67.71328,75.111,68.79238,72.51379,68.79438Z"/>
</svg>
