<svg id="ea2215ed-d8ea-4e4d-b24e-7e66ed71b067" data-name="Layer 1" xmlns="http://www.w3.org/2000/svg" width="128" height="128" viewBox="0 0 128 128">
  <defs>
    <style>
      .bdaf308d-478e-4da9-bc20-a9de7c43aad3 {
        fill: #1d1d1b;
      }
    </style>
  </defs>
  <title>085</title>
  <path class="bdaf308d-478e-4da9-bc20-a9de7c43aad3" d="M70.60551,42.26778c1.6997-2.2579,4.8623-7.0069,2.5835-8.2549-2.2349-1.2227-4.688,3.5752-5.814,6.1533a17.56246,17.56246,0,0,0-11.1968.3398c-1.5727-2.4453-4.4458-6.2421-6.3603-4.8046-1.8301,1.3779.9209,4.8359,2.9663,7.0029-2.0171,3.2998-9.99073,29.5254-4.4258,35.8652a10.16312,10.16312,0,0,0,5.062,2.7549,15.86373,15.86373,0,0,0,.1773,7.0283,1.08056,1.08056,0,0,1-.6021,1.2422,10.94512,10.94512,0,0,0-4.289,3.4619.53277.53277,0,0,0,.4321.8897,50.76762,50.76762,0,0,0,9.3301.0088,1.00051,1.00051,0,0,0,.8979-1.0411,6.3797,6.3797,0,0,0-1.1069-3.0283,12.39371,12.39371,0,0,1-1.0532-1.5205,15.89962,15.89962,0,0,1-1.649-6.5752,57.25477,57.25477,0,0,0,15.8135-.0967,15.79718,15.79718,0,0,1-1.0391,6.8067,13.96273,13.96273,0,0,1-.9121,1.6123,6.345,6.345,0,0,0-.8374,3.1133,1.00034,1.00034,0,0,0,.9834.955,51.53558,51.53558,0,0,0,9.3003-.8437.53065.53065,0,0,0,.3526-.919,10.94612,10.94612,0,0,0-4.586-3.0683,1.08723,1.08723,0,0,1-.709-1.1875,15.89506,15.89506,0,0,0-.3823-6.7832,28.50118,28.50118,0,0,0,6.103-1.4248C84.83741,77.35758,78.82961,50.32338,70.60551,42.26778ZM53.186,55.72578c-1.2231-.7227.5684-4.2364,4.2945-4.2364,3.7265,0,5.3882,3.2569,4.3579,4.2383-1.0298.9756-1.7754-1.7441-4.3565-1.7441C54.89311,53.98358,54.41071,56.44738,53.186,55.72578Zm9.7354,12.4121c-5.5684,0-6.5586-6.4903-6.04-6.6533.5112-.169,11.5576-.1661,12.0776-.004C69.479,61.64468,68.48981,68.13788,62.92141,68.13788Zm10.5903-12.4131c-1.2256.7207-1.7046-1.7393-4.2929-1.7383-2.5816-.001-3.3301,2.7188-4.3589,1.7373-1.0283-.9775.6308-4.2324,4.3574-4.2305C72.94291,51.49328,74.73681,54.99918,73.51171,55.72478Z"/>
</svg>
