<svg id="a074ee5f-0c6b-4928-8ebd-b443e638e62e" data-name="Layer 1" xmlns="http://www.w3.org/2000/svg" width="128" height="128" viewBox="0 0 128 128">
  <defs>
    <style>
      .ade1c1bb-068b-4077-8385-aaeea68f099a {
        fill: #1d1d1b;
      }
    </style>
  </defs>
  <title>086</title>
  <path class="ade1c1bb-068b-4077-8385-aaeea68f099a" d="M83.24241,64.65714c-3.313-13.6738-7.4204-20.2363-20.8916-20.2334-12.31.001-17.5747,8.8223-19.1084,22.8135-1.5356,13.9834-.1514,15.584.8389,15.6465,1.0029.0723,1.3965-7.4668,6.9614-8.5791,5.5762-1.124,4.7446,9.2314,5.9351,9.2715,1.1889.041,2.8545-9.8291,6.7339-10.3301,3.9086,0,6.8422,9.5674,8.0068,9.376,1.1748-.1944-.9707-10.3516,4.689-9.9561,5.6704.3828,7.0293,7.8047,8.0146,7.6104C85.39521,80.08494,86.5657,78.331,83.24241,64.65714Zm-24.9048-1.4062c-1.7422-.001-2.6757-1.2676-2.6757-3.2227,0-1.9453.9389-3.2148,2.6801-3.2236,1.729.0029,2.6743,1.2783,2.6743,3.2236C61.00661,61.98624,60.07931,63.25284,58.33761,63.25094Zm10.2613.0078c-1.7417-.001-2.6763-1.2783-2.6763-3.2236-.001-1.9571.9268-3.2227,2.668-3.2217,1.7417.001,2.6748,1.2666,2.6757,3.2236C71.26631,61.98334,70.32841,63.25094,68.59891,63.25874Z"/>
</svg>
