<svg id="ba392385-5438-42ff-972d-5a5c80c8d124" data-name="Layer 1" xmlns="http://www.w3.org/2000/svg" width="128" height="128" viewBox="0 0 128 128">
  <defs>
    <style>
      .fc68b37c-a9f6-4c54-87db-947bd99ca6c5 {
        fill: #1d1d1b;
      }
    </style>
  </defs>
  <title>087</title>
  <g>
    <path class="fc68b37c-a9f6-4c54-87db-947bd99ca6c5" d="M72.17218,57.365a2.44482,2.44482,0,0,0-2.1753,2.6836,2.49389,2.49389,0,0,0,4.94481-.6201A2.444,2.444,0,0,0,72.17218,57.365Z"/>
    <path class="fc68b37c-a9f6-4c54-87db-947bd99ca6c5" d="M62.56078,44.06515c-16.2719.8916-19.3686,19.2822-14.2822,23.9893,1.7803,1.6455,4.2598,1.9892,8.6919,2.497.0649.7842.3935,4.5215.4209,5.7041a40.49961,40.49961,0,0,1-.74069,7.0899c-.09131.3633-.09481.6103.28019.6074l7.5396.0361c.3657-.0039.458-.3037.3057-.6416a2.81732,2.81732,0,0,0-1.0406-1.2392,5.41836,5.41836,0,0,0-2.5786-.6592s.1704-4.2695.042-5.3613c-.103-.835-.7417-3.6729-1.1099-5.2705a71.60672,71.60672,0,0,0,9.6739-.0596c.0981,1.085.3794,4.3965.40771,5.4951a41.189,41.189,0,0,1-.73,7.1006c-.09081.3643-.10551.6025.26949.5977l7.5386.038c.377.0039.46-.2939.3184-.6328a2.85066,2.85066,0,0,0-1.0493-1.248,5.43448,5.43448,0,0,0-2.5826-.6592s.17241-4.2734.042-5.3633c-.09859-.9004-.8423-4.1513-1.1884-5.6308a18.1476,18.1476,0,0,0,5.8217-1.5049C83.32448,66.26045,86.66969,42.73705,62.56078,44.06515Zm-2.581,17.3682c-.4468,1.3818,1.122,3.7978.0273,4.542-1.0303.8086-2.7837-1.5098-4.2207-1.5957-1.4414-.0323-3.34469,2.122-4.2974,1.2256-1.0239-.8399.6929-3.0889.3521-4.4932-.3818-1.3975-3.2363-2.4795-2.67239-3.4766.55279-1.0556,3.39359-.4306,4.56689-1.2343,1.1617-.8262,1.5054-3.7344,2.5157-3.7217,1.00341.0293,1.1103,2.9648,2.2016,3.872,1.1065.8848,3.96.4698,4.4356,1.5938C63.389,59.21455,60.46948,60.06125,59.97978,61.43335Zm16.8471-1.0254c-.2563,1.5049,1.7207,3.75.7017,4.7119-.9375,1.0166-3.1045-1.1152-4.6211-.9766-1.5093.1963-3.1875,2.7715-4.334,1.9942-1.2095-.7031.2666-3.3682-.3066-4.792-.61719-1.4102-3.7578-2.0879-3.3101-3.2539.4185-1.2197,3.46-.9912,4.5606-2.0069,1.0854-1.0361.9804-4.1406,2.0376-4.2431,1.0634-.0899,1.6411,2.9521,2.92671,3.7383,1.29539.7607,4.24659-.1065,4.90769.9638C80.05888,57.55345,77.12528,58.90405,76.82688,60.408Z"/>
    <path class="fc68b37c-a9f6-4c54-87db-947bd99ca6c5" d="M56.03248,57.93525a2.30877,2.30877,0,0,0-2.477,2.1289,2.3588,2.3588,0,0,0,4.7065.2579A2.30909,2.30909,0,0,0,56.03248,57.93525Z"/>
  </g>
</svg>
