<svg id="b67bf954-b80e-4978-8e53-0c40dd2b8ef0" data-name="Layer 1" xmlns="http://www.w3.org/2000/svg" width="128" height="128" viewBox="0 0 128 128">
  <defs>
    <style>
      .a85a3d1a-81b6-4f9f-88f7-a80cb7a7f71e {
        fill: #1d1d1b;
      }
    </style>
  </defs>
  <title>088</title>
  <g>
    <path class="a85a3d1a-81b6-4f9f-88f7-a80cb7a7f71e" d="M77.30915,50.43915c-5.8623-7.4297-22.9121-9.8135-30.0825-.003-3.7085,5.0791-1.7568,26.7598,1.3711,30.8643,3.1274,4.0947,26.7539,3.5147,31.44971-.9785C84.733,75.83075,83.17005,57.85805,77.30915,50.43915Zm-14.6689,17.0586c-8.9253-.0362-12.3404-2.1211-12.3423-6.0127.0019-4.3086,3.4092-4.7901,12.3501-4.8291,8.9277-.0401,12.8218.4433,12.8198,4.4326C75.46985,65.64025,71.57915,67.54265,62.64025,67.49775Z"/>
    <path class="a85a3d1a-81b6-4f9f-88f7-a80cb7a7f71e" d="M67.026,59.08365a2.21179,2.21179,0,1,0,2.2603,2.2422A2.05923,2.05923,0,0,0,67.026,59.08365Z"/>
    <path class="a85a3d1a-81b6-4f9f-88f7-a80cb7a7f71e" d="M58.11775,58.66085a2.64215,2.64215,0,1,0,2.5508,2.6377A2.38584,2.38584,0,0,0,58.11775,58.66085Z"/>
  </g>
</svg>
