<svg id="a96385a5-0cf7-4819-ab05-bd9170006104" data-name="Layer 1" xmlns="http://www.w3.org/2000/svg" width="128" height="128" viewBox="0 0 128 128">
  <defs>
    <style>
      .b71db968-941e-4521-9f90-d8820b924d15 {
        fill: #1d1d1b;
      }
    </style>
  </defs>
  <title>089</title>
  <g>
    <path class="b71db968-941e-4521-9f90-d8820b924d15" d="M61.18555,50.79128c.0103,5.3037,7.8691,5.2988,7.8726-.0068C69.04835,45.48368,61.18945,45.48658,61.18555,50.79128Z"/>
    <path class="b71db968-941e-4521-9f90-d8820b924d15" d="M79.03765,70.62138a3.13115,3.13115,0,0,0-.7344-.5576,43.86926,43.86926,0,0,0,3.8579-17.9209c-.0107-11.3233-6.3535-18.7403-18.1655-18.7334-11.8111-.0059-18.15189,7.4101-18.1568,18.7353.0074,6.7803,4.522,15.4932,9.6016,21.4199a3.92143,3.92143,0,0,0-2.1694,1.6006c-1.4795,2.5303-1.82429,6.1201,1.4726,8.6465-1.2534-2.9795,1.0034-6.5664,2.3472-8.3555,2.3198,2.3067,4.6382,3.9903,6.605,4.5752-.6739,1.7754-1.6226,3.5967-1.0567,5.461.4522,1.5947,1.9234,2.5869,2.9102,3.9599.81541,1.1524-1.6099,5.0596-1.9507,5.0977.5322.3711,3.1523-1.9287,3.2964-2.1074a3.47188,3.47188,0,0,0,.0381-4.5948,8.27492,8.27492,0,0,1,.0312-6.1464c.0235-.0772.0362-.1084.0488-.1534.0127-.0312.0108-.0459.0235-.0771a2.93845,2.93845,0,0,0,.0342-1.336c4.1792-.6367,7.4248-3.5087,9.8188-7.414a20.68616,20.68616,0,0,0,1.3413,1.9111c1.69681,1.8379,1.1426,7.5879.9214,7.5078,1.1323.4532,2.3643-2.8291,2.40041-5.0449a9.31827,9.31827,0,0,0-2.42331-6.3809C79.09325,70.68878,79.07176,70.64578,79.03765,70.62138Zm-16.1851,3.2099c.57321-2.1035,4.1206-1.917,3.4844.8164C65.90335,76.51688,62.26276,75.94068,62.85255,73.83128ZM71.69,58.82838a1.40721,1.40721,0,0,1-.6978-1.2852,11.03186,11.03186,0,0,1-13.95839.7901,1.5292,1.5292,0,0,1-.37851,1.626c-2.3691,1.7402-5.0332-2.9571-3.2578-4.4229a1.20685,1.20685,0,0,1,1.1387-.2295,9.46289,9.46289,0,0,1-.936-4.2051,9.15311,9.15311,0,0,1,1.68161-5.455c-.96341.1943-1.88041.0586-2.19921-.6182-1.228-2.6631,3.8877-4.335,4.98-2.3066a.829.829,0,0,1,.1381.3691,11.28786,11.28786,0,0,1,5.4634-1.3398,14.68964,14.68964,0,0,1,3.1841.3173c.3677-4.0029,7.8731-.3505,4.43261,2.2666,1.49469,1.5098,2.39889,3.7627,2.39209,7.0069a8.44119,8.44119,0,0,1-.331,2.3603,1.48108,1.48108,0,0,1,.6381.1231C77.22365,54.97,74.36625,60.04418,71.69,58.82838Z"/>
  </g>
</svg>
