<svg id="a3c7ee0a-2567-4cc0-a768-5c25f4c5d682" data-name="Layer 1" xmlns="http://www.w3.org/2000/svg" width="128" height="128" viewBox="0 0 128 128">
  <defs>
    <style>
      .ff590ca5-d387-4215-98d5-69687a1af8c4 {
        fill: #1d1d1b;
      }
    </style>
  </defs>
  <title>090</title>
  <g>
    <path class="ff590ca5-d387-4215-98d5-69687a1af8c4" d="M96.521,61.982c-3.01169-4.2334-9.09569.1914-13.1172,3.7031.2539-2.584.4648-5.3359.4961-8.0703a6.62084,6.62084,0,0,0,1.7715-4.3652c.16791-1.5586-1.0078-.792-1.0059-1.7959.002-1.0049,1.0059-2.1778,1.0059-3.4326,0-1.2569-1.2559-.751-1.7657-1.8409-.5058-1.0918.9278-.8418.4239-2.4316-.502-1.5908-1.4258-.25-1.9239-1.002-.5058-.7578.336-2.5957-.5859-3.4326-.9238-.8398-1.9277-.0869-2.2637-.5869-.334-.5049,0-1.7607-.75-2.2597-.75579-.504-1.8457.5-2.2636.4179-.418-.0869.83981-1.0928-.418-1.8506-1.2559-.7666-1.8418.5078-3.3477,0-1.5078-.5136-2.0097-2.2548-3.68749-1.9931-1.67141.2666-1.59131.9951-3.09521.9951-1.50779,0-1.00679-1.1738-2.1797-.9717-1.1709.2022-1.5049,1.1367-2.4287,1.1377-.9199,0-1.5879-1.5088-2.5947-1.0498-1.0059.4551-2.0908,2.1406-3.26369,2.5586s-.58491-1.2559-2.09571-.6768c-1.5078.5723-1.0049,2.0987-1.6748,2.3243-.667.2236-.2519-1.2295-1.5049,0-1.2568,1.2285-.6738,2.791-1.4267,3.3769-.75389.5859-1.08689-.8379-1.50389,0-.42091.835.33489,2.2598-.003,2.9287-.33391.6699-1.50581-1.0849-2.34181,0-.8408,1.0908.2491,3.9375-.3418,4.8604-.5888.9258-1.2529-1.4268-2.1728,0-.9199,1.4297,1.0918,3.0107.6689,3.5976-.4179.5869-1.0859-.9209-1.1718,1.127-.0625,1.5527,1.6552,2.7705,2.8935,3.8271q-.17715,2.1372-.2139,4.3448a26.05061,26.05061,0,0,0,.5508,5.7597c-4.5654-2.8105-11.7959-6.5928-14.1255-1.708-2.8027,5.8897,3.4673,2.0176,3.7535.9219-.0508.2754-.9668,5.1699,2.583,1.0908,0,0-.1719,3.4805,2.167.9121,0,0,4.6523.6455,6.2002,1.0996a29.335,29.335,0,0,0,3.6982,7.9219,6.06009,6.06009,0,0,0-.9111.251,5.22857,5.22857,0,0,1-4.1328.0176c-.4639-.2461-1.3907-1.5098-2.2012-1.4981-3.7979.0576.8467,4.6172,3.5791,4.5742.0361.001.0664.001.0869,0,.04,0,.0752-.0039.10161-.0009a.66161.66161,0,0,1-.07231-.002c1.331-.0459,3.9375-.5469,4.7588-1.6768,2.9238,3.7344,6.6221,6.3399,10.4053,6.9336-1.3565,2.17-2.4776,5.1944-.9502,7.7637,1.4697,2.4824,4.6992.5703,3.1162-.8008-2.13279-1.8515-.375-5.2353.8134-6.8447a22.155,22.155,0,0,0,5.733-1.3086,7.08108,7.08108,0,0,0,.5214.6143,5.2474,5.2474,0,0,1,1.7207,3.7529c-.02929.5283-.8027,1.8935-.455,2.625,1.6152,3.4199,3.8379-2.6211,2.7011-5.1133l.0313.0615c-.01169-.0273-.0254-.0615-.0469-.1025l-.0254-.0527c-.0469-.0996-.0586-.1163-.06639-.1338a10.56313,10.56313,0,0,0-2.02341-2.7071,20.13815,20.13815,0,0,0,7.4277-6.7002,6.13653,6.13653,0,0,0,3.5918,1.629c.0371,0,.0664,0,.08591-.001.04109,0,.07619-.002.10159-.001a.57025.57025,0,0,1-.0703-.001c1.47271-.0527,4.4941-.6601,4.9551-2.0527.5879-1.8106-1.334-1.3848-2.31839-1.0381a5.22222,5.22222,0,0,1-4.12691.0156,7.23446,7.23446,0,0,1-.9102-.7871,23.99188,23.99188,0,0,0,2.1504-6.4726c1.6738-.75,5.6191-2.0205,5.6191-2.0205,2.7461,2.1191,1.97661-1.2803,1.97661-1.2803,4.18159,3.3828,2.48049-1.2022,2.35939-1.5147C93.47409,64.57282,100.2983,67.28772,96.521,61.982Zm-26.2364-9.0645c.51571-1.8691,3.6543-1.6962,3.0918.7227C72.98969,55.29652,69.77289,54.78382,70.28459,52.91752Zm-10.75529-.3476c.48729,2.4434-3.69441,2.8076-4.03811.6406C54.9883,50.06212,59.03809,50.12072,59.5293,52.56992Zm5.25779,12.7002c-6.8555.0019-12-.2598-12.001-4.211.0029-3.955,5.1455-3.6025,11.9971-3.6025,6.8569,0,12.0014-.3496,12.0014,3.6016C76.78659,65.00932,71.64009,65.275,64.78709,65.27012Z"/>
    <path class="ff590ca5-d387-4215-98d5-69687a1af8c4" d="M83.16939,78.70082c-.1973.0029-.4062.0078,0,0Z"/>
    <path class="ff590ca5-d387-4215-98d5-69687a1af8c4" d="M45.79979,80.76422c-.1973.002-.4053.0078,0,0Z"/>
    <path class="ff590ca5-d387-4215-98d5-69687a1af8c4" d="M58.30759,59.66562c-1.3535.1269-2.2109.458-2.2139,1.2656.001.7959.85161,1.3262,2.1944,1.6699a5.73642,5.73642,0,0,0,.2089-1.4834,5.64136,5.64136,0,0,0-.0986-1.082C58.375,59.91462,58.34179,59.79062,58.30759,59.66562Z"/>
    <path class="ff590ca5-d387-4215-98d5-69687a1af8c4" d="M62.10349,59.647c-1.0645-.0332-2.0625-.0537-2.9277-.0254a3.59832,3.59832,0,0,0-.1016.4141,5.19964,5.19964,0,0,0-.1006,1.0791,5.3684,5.3684,0,0,0,.2666,1.6836,25.199,25.199,0,0,0,2.6719.29,5.05935,5.05935,0,0,0,.3887-1.9707,4.88162,4.88162,0,0,0-.0977-1.082A3.79722,3.79722,0,0,0,62.10349,59.647Z"/>
    <path class="ff590ca5-d387-4215-98d5-69687a1af8c4" d="M70.62249,59.608c-.9961-.0098-2.1406.0273-3.34619.0644a3.1034,3.1034,0,0,0-.09181.3633,5.334,5.334,0,0,0-.0996,1.084,4.94885,4.94885,0,0,0,.4092,2.0117,30.31891,30.31891,0,0,0,3.2105-.2793,5.60446,5.60446,0,0,0,.2109-1.4941,5.67024,5.67024,0,0,0-.0977-1.0811A4.31939,4.31939,0,0,0,70.62249,59.608Z"/>
    <path class="ff590ca5-d387-4215-98d5-69687a1af8c4" d="M66.42089,59.68812c-.4209.0087-.85259.0166-1.2783.0166-.7364,0-1.4639-.0186-2.1729-.0362-.0322.1221-.0693.2451-.0918.3672a5.14619,5.14619,0,0,0-.09959,1.084,4.91632,4.91632,0,0,0,.415,2.0254c.63679.0166,1.28809.0283,1.94829.0293.3506-.001.6953-.0039,1.0459-.0108a4.93242,4.93242,0,0,0,.4209-2.0459,5.627,5.627,0,0,0-.0987-1.082C66.4863,59.91852,66.45409,59.80332,66.42089,59.68812Z"/>
    <path class="ff590ca5-d387-4215-98d5-69687a1af8c4" d="M71.66939,59.648a4.06635,4.06635,0,0,0-.1816.6289,5.50926,5.50926,0,0,0-.0977,1.085,5.82731,5.82731,0,0,0,.1719,1.3369c1.582-.3379,2.623-.8877,2.623-1.7734C74.18109,60.066,73.187,59.74762,71.66939,59.648Z"/>
  </g>
</svg>
