<svg id="a0919bb0-0e69-48cb-b9df-94dd56bb1a60" data-name="Layer 1" xmlns="http://www.w3.org/2000/svg" width="128" height="128" viewBox="0 0 128 128">
  <defs>
    <style>
      .a2c235dc-cb50-420b-890d-ad0cb74389b5 {
        fill: #1d1d1b;
      }
    </style>
  </defs>
  <title>091</title>
  <g>
    <path class="a2c235dc-cb50-420b-890d-ad0cb74389b5" d="M82.59888,34.01844c-4.0694-4.0615-31.8467-2.5176-38.0801,2.6035-2.9824,2.4629-2.9053,22.6865,1.458,25.583,4.36431,2.9082,32.8369-1.4541,36.61431-2.6914C86.36738,58.26354,86.66528,38.08384,82.59888,34.01844Zm-5.3535,20.5107c-.3438-1.0966-.8204-2.1757-1.3594-2.4043-1.0098-.4004-4.8457.9014-5.252,1.7803a5.40535,5.40535,0,0,0-.0508,3.0361c-1.2783.2706-2.6806.5098-4.2578.7061-1.5771.21-2.9922.3281-4.2939.3887-.0088-1.2754-.1377-2.7061-.64939-3.1377-.84571-.7315-4.90821-.7754-5.53321-.0742a4.7179,4.7179,0,0,0-.877,2.6132c-6.374-1.83-5.7031-7.416-5.9209-13.3681-.0107-.4649,1.5674-1.0186,4.0029-1.584a6.19,6.19,0,0,0,1.3145,3.3037c.7168.625,4.7451.2305,5.5039-.5684.5547-.5976.38481-2.6308.1797-4.0166,2.6777-.4111,5.5478-.7724,8.2402-1.0586.1758,1.2471.5645,2.9825,1.3858,3.7139.7177.6367,4.74511.2305,5.5029-.5674.5098-.5342.41021-2.2871.2217-3.6396,2.5439-.0635,4.22751.0967,4.2929.5664C80.55588,45.78114,82.72678,51.10044,77.24538,54.52914Z"/>
    <path class="a2c235dc-cb50-420b-890d-ad0cb74389b5" d="M56.218,68.31044a12.68034,12.68034,0,0,0-1.043,2.7871,20.77055,20.77055,0,0,0-.5595,5.9902,13.30117,13.30117,0,0,0,1.64161,5.7979,10.61988,10.61988,0,0,0,3.373,3.875c.28519.1836.501-.0069.31249-.2842a13.20467,13.20467,0,0,1-1.8877-4.3145,13.6748,13.6748,0,0,1-.1504-4.9814,20.92637,20.92637,0,0,1,1.334-4.835c.30961-.7851.5947-1.5683.84861-2.3837a14.338,14.338,0,0,0,.584-2.5088l-2.61621-1.5606A8.76617,8.76617,0,0,0,56.218,68.31044Z"/>
    <path class="a2c235dc-cb50-420b-890d-ad0cb74389b5" d="M67.99338,83.58774l-.2217-.4521-.1904-.419c-.1231-.2734-.2461-.5576-.3565-.833a11.02527,11.02527,0,0,1-.7412-3.2705,8.9407,8.9407,0,0,1,.4727-3.1523c.3437-1.1006.8164-2.3213,1.1387-3.7276a11.47539,11.47539,0,0,0,.248-4.4902l-4.0898-.0391c-.2422,1.1719-.4883,2.1758-.8106,3.3438a33.66428,33.66428,0,0,0-.9472,3.8965,13.19657,13.19657,0,0,0,.0019,4.7129,13.054,13.054,0,0,0,1.6934,4.2295c.1797.3144.373.6259.5771.914l.2979.4434.2832.3994a9.55042,9.55042,0,0,1,.874,1.4668,6.67926,6.67926,0,0,1,.6904,3.2764,9.25382,9.25382,0,0,1-3.1435,5.9404c-.26369.2451.0117.584.3252.4306a11.24408,11.24408,0,0,0,2.53511-2.3183,8.56326,8.56326,0,0,0,2.18359-3.7109,8.70164,8.70164,0,0,0-.0322-4.5186A12.91951,12.91951,0,0,0,67.99338,83.58774Z"/>
    <path class="a2c235dc-cb50-420b-890d-ad0cb74389b5" d="M75.78048,68.40714a17.1569,17.1569,0,0,0-1.3896-3.0205l-3.0674,1.3154c.417,1.875.9629,3.831,1.4219,5.7246a44.50776,44.50776,0,0,1,1.164,5.7891,21.9482,21.9482,0,0,1,.1748,2.9277,17.91213,17.91213,0,0,1-.1924,2.9434,14.23975,14.23975,0,0,1-1.8964,4.8847c-.1661.3047.124.6553.3896.4248a12.89772,12.89772,0,0,0,3.335-4.7929,19.43206,19.43206,0,0,0,.9589-3.1846,24.60063,24.60063,0,0,0,.4063-3.2881,27.7116,27.7116,0,0,0-.4434-6.5732A24.41382,24.41382,0,0,0,75.78048,68.40714Z"/>
  </g>
</svg>
