<svg id="bdd9351f-d6fc-4387-a295-f4b7f62d7641" data-name="Layer 1" xmlns="http://www.w3.org/2000/svg" width="128" height="128" viewBox="0 0 128 128">
  <defs>
    <style>
      .bbbf0e7a-5294-4bc1-b076-c039a214253d {
        fill: #1d1d1b;
      }
    </style>
  </defs>
  <title>092</title>
  <g>
    <path class="bbbf0e7a-5294-4bc1-b076-c039a214253d" d="M64.20922,54.42477c-13.0156-.0078-19.998,6.0293-19.999,15.2558,0,9.2354,6.9873,15.2735,20.0019,15.2686,13.002-.001,19.9971-6.0293,19.9971-15.2666C84.20922,60.44627,77.21212,54.42277,64.20922,54.42477Zm4.749,6.0371a2.23664,2.23664,0,0,1,2.3291,2.5498,2.336,2.336,0,1,1-2.3291-2.5498Zm-10.1865.0215c1.07331.0107,1.6484.8398,1.6455,2.1152,0,1.2861-.5801,2.1152-1.6513,2.1162-1.0723,0-1.6456-.8301-1.6456-2.1162C57.12232,61.32317,57.68872,60.48527,58.77172,60.48337Zm5.2842,16.5967c-9.33889.6523-11.5234-6.8125-10.668-7.0674.8545-.252,19.3809-1.542,20.2686-1.4043C74.54222,68.73427,73.39572,76.43847,64.05592,77.08007Z"/>
    <path class="bbbf0e7a-5294-4bc1-b076-c039a214253d" d="M49.23362,48.47747c-2.5371-2.4111-6.9824,2.3818-9.1181,2.0215-7.0079-1.1865-7.2637-6.7188-7.8692-6.8848-.6172-.1572-6.8506,12.6983,5.5762,15.6182C46.95042,61.37687,51.73072,50.82907,49.23362,48.47747ZM34.717,55.93647c-4.38571-2.5049-.56741-6.6748-.35251-6.5391.2021.128-.3184,2.2569,2.209,3.4883.7607.3838,2.9814-.9326,3.6806.2666C40.92312,54.332,37.93482,57.78417,34.717,55.93647Zm11.17089-3.1699a1.41623,1.41623,0,1,1,1.6895-1.0254A1.28268,1.28268,0,0,1,45.88792,52.76657Z"/>
    <path class="bbbf0e7a-5294-4bc1-b076-c039a214253d" d="M96.20142,43.05167c-.626.1094-1.2461,5.6192-8.31739,6.3321-2.15431.2148-6.26951-4.8623-8.96971-2.6289-2.6445,2.1806,1.4062,13.0244,10.6738,11.497C102.176,56.17967,96.82352,42.92967,96.20142,43.05167Zm-14.2363,8.2012a1.414,1.414,0,1,1,1.0908-1.6484A1.28915,1.28915,0,0,1,81.96512,51.25287Zm10.9365,3.9258c-3.332,1.6181-6.0889-2.0322-5.3291-3.1563.76951-1.1484,2.89551.3077,3.68551-.0117,2.60449-1.0732,2.22559-3.2314,2.43749-3.3389C93.91822,48.55077,97.44072,52.96767,92.90162,55.17867Z"/>
  </g>
</svg>
