<svg id="bfe56a46-1ea5-49d6-b110-4c5ca75ab53e" data-name="Layer 1" xmlns="http://www.w3.org/2000/svg" width="128" height="128" viewBox="0 0 128 128">
  <defs>
    <style>
      .a21c7386-f2bb-49f4-ae2d-a04581dc36f9 {
        fill: #1d1d1b;
      }
    </style>
  </defs>
  <title>093</title>
  <path class="a21c7386-f2bb-49f4-ae2d-a04581dc36f9" d="M87.40274,65.0329c-3.65431-6.6816-13.12791-2.1601-15.59961-.8222-.4893-3.7959-.3037-11.6035-1.5596-12.6162a4.61723,4.61723,0,0,0-1.8994-.627,30.2503,30.2503,0,0,0-.6377-3.998c-.6103-2.2793-5.165-3.1924-6.9248-.9864-.7412.9258-1.1543,2.878-1.2822,5a5.2954,5.2954,0,0,0-2.251.7227c-1.2519,1.0449-.915,8.9609-1.3545,12.7266-2.4023-1.0293-12.5195-4.8438-15.5634,2.2666-1.5743,3.6826.6894,5.8632.6894,5.8632a3.86,3.86,0,0,1,.4131-2.1494,2.92568,2.92568,0,0,0,1.7402,1.4336,4.39517,4.39517,0,0,1,.0674-2.0576,4.4736,4.4736,0,0,0,1.9854,1.4121c-.1065-.1426-2.1094-2.9492,3.081-5.6533,3.1221-1.6299,6.084.2637,6.9229.8877-1.2959.8818-3.4883.2109-4.5996,1.8476-1.14459,1.6817-7.5938,13.8789-7.5791,14.4961.0087.6172,9.0156.7686,9.0576-.1562.0478-.9287-4.2158-10.0371,1.3467-12.1074,5.5615-2.0723,8.4619-1.8125,9.0615.8271.5644,2.4658-4.0049,10.7979-3.7461,11.3477.2549.5488,10.2363.4629,10.4863-.0879.2461-.5567-4.4639-8.8076-3.9473-11.2852.5577-2.6484,3.4541-2.958,9.0489-.9834,5.5957,1.9737,1.4941,11.1573,1.5547,12.083.0615.9248,9.0625.6162,9.0625-.0019,0-.6192-6.6582-12.6992-7.834-14.3643-1.1514-1.6269-3.3565-.8926-4.6641-1.792.6631-.6162,3.502-2.9756,6.8809-1.6084,5.5654,2.2578,3.5996,5.3369,3.5996,5.3369a4.4145,4.4145,0,0,0,1.8447-1.5986,4.405,4.405,0,0,1,.2647,2.0391,2.90793,2.90793,0,0,0,1.5927-1.5899,3.84555,3.84555,0,0,1,.61821,2.0957S89.32563,68.5495,87.40274,65.0329ZM42.76993,68.8298c-.5156-.1377-1.3603-1.1074-1.2217-1.3144.4824-.6944,1.9492-.6006,2.1114-.1075C43.82174,67.8923,43.28853,68.9646,42.76993,68.8298Zm21.2549-19.0273c1.3994.0019,2.1484.5459,2.1494,1.3838-.0029.8339-.749,1.3789-2.1514,1.3828-1.3984-.001-2.1474-.5498-2.1484-1.3828C61.87243,50.3533,62.62343,49.8054,64.02483,49.8025Zm-2.1436,5.8135c.2793-.1241,4.0957-.3155,4.3116-.0333a2.20454,2.20454,0,0,1,.0117,1.625,13.24144,13.24144,0,0,1-4.3067.0333C61.65663,57.0193,61.60293,55.74,61.88123,55.616Zm7.06451,8.3652c-1.10651.8008-8.44531,2.4082-10.23341.248-1.9024-2.2978-2.0313-8.6904.0019-10.4179a2.78446,2.78446,0,0,1,.7608-.4248c.09471,2.4248.5439,4.6699,1.30471,5.4824,1.68259,1.7851,5.33489.9228,6.92479-.002.8398-.4883.9609-3.1084.8076-5.8213a1.22562,1.22562,0,0,1,.43461.334C69.99453,54.7986,70.058,63.1794,68.94574,63.9812ZM85.182,67.3884c-.5029.1856-1.1387-.832-1.02729-1.332.11719-.5049,1.56539-.7373,2.11519-.0938C86.43013,66.157,85.683,67.2029,85.182,67.3884Z"/>
</svg>
