<svg id="fd526e32-5d63-4797-adef-fe63131f0192" data-name="Layer 1" xmlns="http://www.w3.org/2000/svg" width="128" height="128" viewBox="0 0 128 128">
  <defs>
    <style>
      .a2b0d136-97de-4b1f-a312-0d50874294ab {
        fill: #1d1d1b;
      }
    </style>
  </defs>
  <title>094</title>
  <g>
    <path class="a2b0d136-97de-4b1f-a312-0d50874294ab" d="M79.10208,49.12442c.5684-1.334,1.5362-1.835,1.3526-1.9893-.5323-.4531-7.4268,2.3936-7.71,2.8145a20.15,20.15,0,0,0-7.6855-1.3233,17.8018,17.8018,0,0,0-9.586,2.3057c-.8056-.4805-7.4726-2.3106-7.9336-1.8184-.1621.1739.8653.5557,1.5879,1.8125.60351,1.0479.2539,4.8897,2.1153,5.8418a11.63717,11.63717,0,0,0-.2911,2.627c-.0058,5.0879,3.0059,8.7969,8.69631,10.1806-.207.9786-.498,2.4776-.622,3.6905a28.20179,28.20179,0,0,0-.07911,3.8711c0,.664-2.0157.0547-1.9463.8222.0703.7696,1.73041.1602,1.8086,1.2207.08,1.0606-1.78519.4063-1.7989,1.3262-.0058.418,1.0762.4277,2.1514.3965a5.74993,5.74993,0,0,0,2.0918-.2383c.3184-.3457-.543-3.6777-.5039-7.293.0146-1.33.0908-2.623.1572-3.538a24.48632,24.48632,0,0,0,4.1533.3349,23.33333,23.33333,0,0,0,5.0723-.5176c.0703.92.1562,2.3008.1709,3.7207.0391,3.6153-.82229,6.9473-.5039,7.293a5.756,5.756,0,0,0,2.0928.2383c1.0742.0312,2.1562.0215,2.1504-.3965-.0127-.9199-1.878-.2656-1.7989-1.3262s1.73931-.4511,1.8096-1.2207c.0684-.7675-1.94629-.1582-1.94629-.8222a28.2568,28.2568,0,0,0-.08011-3.8711c-.1338-1.3203-.4668-2.9737-.6718-3.9336,5.1132-1.541,7.8115-5.1211,7.8115-9.9375a10.46127,10.46127,0,0,0-1.01759-4.6504C79.28078,53.26792,78.67828,50.12342,79.10208,49.12442Zm-20.7246,6.872a1.53745,1.53745,0,0,1,1.9317-1.6406.86843.86843,0,0,0-.49319.8555c-.001.8125,1.52929,1.0859,1.79979.2666a1.80227,1.80227,0,0,1,.07621.5205C61.691,58.04232,58.37258,57.599,58.37748,55.99642Zm6.5586,9.1055c-2.498-.0058-3.8369-1.4199-3.8369-3.5918s1.3369-3.5898,3.833-3.5918c2.4971,0,3.8369,1.4209,3.8369,3.5918C68.77008,63.682,67.42538,65.1,64.93608,65.10192Zm2.9844-9.1016a1.54142,1.54142,0,0,1,1.93651-1.6406.85738.85738,0,0,0-.498.8555c.00579.8125,1.52829,1.0801,1.79879.2617a1.55867,1.55867,0,0,1,.082.5195C71.23978,58.04042,67.92238,57.60292,67.92048,56.00032Z"/>
    <path class="a2b0d136-97de-4b1f-a312-0d50874294ab" d="M63.11378,60.348c-.4052-.0078-.6269.4981-.63179,1.2773-.00391.7793.20509,1.2842.61039,1.2852.4062.002.6279-.498.6328-1.2773C63.72908,60.85582,63.52008,60.35,63.11378,60.348Z"/>
    <path class="a2b0d136-97de-4b1f-a312-0d50874294ab" d="M66.50148,60.25032c-.4062-.0039-.6328.5684-.6328,1.4512-.0058.8819.2051,1.4571.6104,1.46.4062.0068.626-.5694.6328-1.4522S66.90578,60.25232,66.50148,60.25032Z"/>
  </g>
</svg>
