<svg id="aca1591f-50d2-4bb4-855a-d19bfe92d9a0" data-name="Layer 1" xmlns="http://www.w3.org/2000/svg" width="128" height="128" viewBox="0 0 128 128">
  <defs>
    <style>
      .a70a9c71-028e-46c8-b4bd-7160a1870abb {
        fill: #1d1d1b;
      }
    </style>
  </defs>
  <title>095</title>
  <g>
    <path class="a70a9c71-028e-46c8-b4bd-7160a1870abb" d="M56.58864,45.80537c-.00188,2.4522,4.33012,2.4551,4.33012.001C60.91876,43.35127,56.58864,43.35227,56.58864,45.80537Z"/>
    <path class="a70a9c71-028e-46c8-b4bd-7160a1870abb" d="M62.70194,54.80637a1.22525,1.22525,0,0,0,2.4473.0039A1.22525,1.22525,0,0,0,62.70194,54.80637Z"/>
    <path class="a70a9c71-028e-46c8-b4bd-7160a1870abb" d="M68.60814,41.407c.0039-1.2158-2.0898-1.2168-2.0918,0C66.51634,42.62377,68.612,42.62087,68.60814,41.407Z"/>
    <path class="a70a9c71-028e-46c8-b4bd-7160a1870abb" d="M69.42064,56.36207c0,.9053,1.5782.9033,1.57912-.0039C70.99976,55.45287,69.42064,55.449,69.42064,56.36207Z"/>
    <path class="a70a9c71-028e-46c8-b4bd-7160a1870abb" d="M70.58576,47.57787a1.42026,1.42026,0,0,0,2.12008,1.8896A1.42026,1.42026,0,0,0,70.58576,47.57787Z"/>
    <path class="a70a9c71-028e-46c8-b4bd-7160a1870abb" d="M87.54954,30.68827c-.496-.3008-1.0136-.5557-1.5361-.8096.4561-.3926.9365-.791,1.4502-1.2139a2.12993,2.12993,0,0,0,.502-2.8408,2.05917,2.05917,0,0,0-2.9493-.2031,37.25638,37.25638,0,0,0-4.2275,3.8203c-.7139-.5928-1.4209-1.2051-2.1826-1.7295a1.28328,1.28328,0,0,0-1.8731.499,1.77319,1.77319,0,0,0,.377,2.0674c.6172.4375,1.2832.8154,1.9394,1.1982a32.6967,32.6967,0,0,0-2.6113,3.7979c-2.4502-2.3457-6.3193-4.1016-12.2812-4.2549-5.5762.3731-9.4961,2.4199-12.1016,5.0264a31.23974,31.23974,0,0,0-2.9766-4.1338c.6465-.4072,1.29692-.7988,1.9073-1.2549a1.77257,1.77257,0,0,0,.3095-2.0762,1.27915,1.27915,0,0,0-1.8808-.4463c-.75.5489-1.4336,1.1836-2.1358,1.7969a36.58279,36.58279,0,0,0-4.333-3.6992,2.06021,2.06021,0,0,0-2.9394.2861,2.1242,2.1242,0,0,0,.58011,2.8262c.52339.4072,1.01359.7939,1.48629,1.1758-.5156.2646-1.0254.5361-1.5156.8525a1.75825,1.75825,0,0,0-.4688,2.0391,1.28388,1.28388,0,0,0,1.8457.5849c.8067-.497,1.54879-1.0937,2.31149-1.6601.6026.5342,1.1553,1.0654,1.6748,1.5889-.5576.7636-1.1718,1.498-1.6796,2.2968a1.77248,1.77248,0,0,0,.4414,2.0489,1.28437,1.28437,0,0,0,1.9238-.253c.4238-.6494.7832-1.3379,1.1484-2.0293a17.19886,17.19886,0,0,1,1.9883,3.0176,13.261,13.261,0,0,0-2.0117,7.9912c1.1504,9.3906,12.5351,23.0996,13.7949,25.5196.5117.9804-1.2998,2.8652-2.02438,5.499-7.37992-.0059-10.72752,11.6416-10.89552,14.7168-.06348,1.2773.9863,7.0967.6846,7.2334a6.99418,6.99418,0,0,0-2.74808,2.2226.337.337,0,0,0,.27248.5655,32.21085,32.21085,0,0,0,5.9853.0058.64027.64027,0,0,0,.57722-.664,4.12637,4.12637,0,0,0-.71292-1.9405c-.1953-.2676-1.29008-1.9717-1.4375-2.2666-.5938-1.207-3.5235-11.9424,7.9199-17.0342a6.91531,6.91531,0,0,0,1.0176,3.7207c-1.4766,2.9502-2.12208,7.5967-2.2774,10.5137-.0703,1.2764.545,4.7403.2461,4.877a7.07047,7.07047,0,0,0-2.7539,2.2226.3399.3399,0,0,0,.2774.5674,32.41349,32.41349,0,0,0,5.9843.0039.636.636,0,0,0,.5723-.664,4.063,4.063,0,0,0-.707-1.9415c-.1963-.2666-1.292-1.9707-1.4385-2.2666-.5605-1.1416.5615-8.1933,1.8887-11.666a7.31634,7.31634,0,0,0,3.7275.7998,9.94254,9.94254,0,0,0,1.9707-.2177c1.6328,3.4209,3.3565,9.9238,2.92772,11.0761-.11622.3096-1.02632,2.1241-1.19432,2.4063a4.07041,4.07041,0,0,0-.501,2.0029.63113.63113,0,0,0,.6377.6016,32.29974,32.29974,0,0,0,5.9502-.626.3396.3396,0,0,0,.2207-.5918,7.04,7.04,0,0,0-2.9707-1.9238c-.3105-.1055-.0644-3.6123-.26458-4.875a34.026,34.026,0,0,0-2.63192-8.9239,5.75115,5.75115,0,0,0,2.6163-3.9785c8.8994,4.5254,7.3564,13.8321,6.9287,14.9912-.1162.3077-1.0264,2.1211-1.1953,2.4043a4.047,4.047,0,0,0-.4981,2.0059.62794.62794,0,0,0,.6348.5986,32.61207,32.61207,0,0,0,5.9511-.625.33946.33946,0,0,0,.2198-.5918,7.04428,7.04428,0,0,0-2.9698-1.9257c-.3115-.1045.127-6.004-.0722-7.2676-.4073-2.5723-3.7198-11.0098-9.1778-13.0791-.7714-2.8809-3.7011-5.0606-3.2207-6.1231,1.1289-2.4677,11.3799-19.1045,11.2842-27.8349a13.54582,13.54582,0,0,0-1.5928-6.2403,17.12406,17.12406,0,0,1,1.7559-2.7705c.38182.6807.7617,1.3594,1.2022,1.9971a1.28857,1.28857,0,0,0,1.9335.1914,1.75461,1.75461,0,0,0,.3799-2.0537c-.5312-.7901-1.166-1.5059-1.7402-2.2529.499-.5362,1.0391-1.085,1.6269-1.6358.77452.5459,1.5372,1.1162,2.3594,1.5947a1.284,1.284,0,0,0,1.8262-.6425A1.76093,1.76093,0,0,0,87.54954,30.68827Zm-20.375,8.4658c1.4766,0,2.6661.6328,2.6661,2.541a2.56922,2.56922,0,0,1-2.668,2.416,2.48584,2.48584,0,1,1,.0019-4.957Zm-14.7617,7.1045c0-3.0967,2.4776-4.9971,5.5352-4.9981,3.0625.001,5.5156,1.2744,5.5185,5.1289-.0009,3.1377-3.0341,4.8682-5.5156,4.8692C54.88844,51.25557,52.41284,49.35907,52.41284,46.25857Zm11.0557,11.9951a3.15883,3.15883,0,0,1,.001-6.3174c1.7334,0,3.1211.8037,3.1191,3.2432A3.10467,3.10467,0,0,1,63.46854,58.25367Zm6.4473.1211a1.85511,1.85511,0,1,1,0-3.6963c1.1132,0,2.0087.4697,2.0058,1.8935A1.92116,1.92116,0,0,1,69.91584,58.37477Zm5.0634-7.3379a3.55677,3.55677,0,0,1-5.2246.4072c-1.5-1.3398-2.0625-3.1308-.123-5.3076a3.66326,3.66326,0,0,1,5.1543-.3447A3.5583,3.5583,0,0,1,74.97924,51.03687Z"/>
  </g>
</svg>
