<svg id="ad6ea297-bb40-4fbd-b19d-622c121cf281" data-name="Layer 1" xmlns="http://www.w3.org/2000/svg" width="128" height="128" viewBox="0 0 128 128">
  <defs>
    <style>
      .a956753f-b2c2-4e21-85cf-1a0f5fe56c50 {
        fill: #1d1d1b;
      }
    </style>
  </defs>
  <title>096</title>
  <g>
    <path class="a956753f-b2c2-4e21-85cf-1a0f5fe56c50" d="M69.906,34.03063s-2.3926,1.1973-2.9483,2.4942c0,0-1.37888-2.3711-2.3535-3.9512a16.69843,16.69843,0,0,0-1.4179,2.8437,24.38253,24.38253,0,0,0-2.0801-2.0859s-.6778,5.5693-.6778,6.7041a67.5443,67.5443,0,0,0,9.4747.8858A27.61735,27.61735,0,0,0,69.906,34.03063Z"/>
    <path class="a956753f-b2c2-4e21-85cf-1a0f5fe56c50" d="M97.80541,79.88413c-.0029-.5439,3.6377-3.4511,2.7266-5.455-.2989-.3077-1.1475,1.2138-1.6993,1.2158-.54388,0,.9698-2.4307-1.5713-5.2178-.5507-.1797.3633,2.5147,0,2.5479-.3652.0273-1.3632-3.3702-3.1855-3.8184-.3643-.0947,1.00292,1.8457.334,2.1201a5.36909,5.36909,0,0,1-1.001-.6875l.0088-4.2881c.0264-.0097.0645-.0146.0918-.0244,2.02732-.5,4.3242-3.0898.32232-7.5947-3.43272-3.8584-9.16312-3.7949-10.80572-3.6826-.043-2.669-.3232-4.7686-.8945-5.7344-2.4229-4.1211-23.459-10.6758-32.3311-4.1191-4.0088,2.9599-5.2871,8.1386-5.26168,13.5263-1.294.4141-5.10552,1.5479-6.82722,1.1934-2.1084-.4326-2.9101-5.0645-2.3505-5.79.5693-.7256,2.1855-1.0684,1.9443-2.5899-.1065-.6387-1.2129-1.1279-1.6191-1.2891-.4004-.1611.4902-5.2587-1.2071-5.1777-1.6992.0801-.73238,3.3203-1.2187,4.124a1.94365,1.94365,0,0,1-2.8301.083c-.80858-.8056.2441-4.208-1.3731-4.2021-3.3173-.001-1.0478,13.5762.003,16.8467,1.0478,3.2636,3.958,4.2529,6.3847,4.497,2.0743.2022,7.0694-2.1377,9.3643-3.3437a53.19837,53.19837,0,0,0,3.9756,14.9824c.3877.6543,3.042,1.3789,6.6172,1.9883-1.1114,1.8623-2.878,5.2812-3.0811,8.5293-.3135,5.1133-.2705,6.4424.044,6.6992.3242.2637,7.3164.167,7.6289-.2598.3144-.4189-2.1905-3.874-1.3457-7.9814a17.82653,17.82653,0,0,1,2.916-6.1475c1.4707.1485,2.9795.2823,4.4541.3741a17.29865,17.29865,0,0,1,2.6211,5.7988c.8193,4.1182-1.709,7.5557-1.39058,7.9785.31148.4229,7.30168.5723,7.61808.3115.3242-.2666.37792-1.5947.08992-6.6992a19.05269,19.05269,0,0,0-2.31062-7.2627,12.51341,12.51341,0,0,0,5.1221-.9043c2.8896-1.7519,5.1494-15.0957,5.2607-23.9238,7.9571-.7598,5.6426,9.3857,9.4522,9.8506l-.2217,3.4746a4.00268,4.00268,0,0,0-2.7012-.6787c-.3867.0888,2.6114,1.333,1.8799,2.2422-.1943.247-4.1543-.5137-5.0351,1.5156-.0928.2217,1.8535.001,1.9462.3027.085.3028-4.18448,1.8213-3.9423,4.4297.0361.4004,1.3603-1.2109,2.0332-.9141.2461.1143-.6426,4.0079.6962,5.3409.1729.1738.3936-1.9746.8438-1.8194.459.1494,1.8242,3.876,3.5215,3.8633.3613,0-.7315-2.1699-.2471-2.2314.3584-.0381,3.2139,2.5234,6.0068,2.2304.4356-.042-1.8808-2.0439-1.64158-2.3496.24708-.2998,3.09278-.1806,4.42678-1.7607C100.47241,79.51993,97.80541,80.42913,97.80541,79.88413ZM65.97921,48.389c1.0528-3.0039,6.18362-2.3662,4.9854,1.5283C70.14721,52.59613,64.91771,51.392,65.97921,48.389Zm-7.8037-.3008c-.2773-3.1552,3.7246-2.8173,4.0449-.3632S58.37961,50.25823,58.17551,48.08823Zm35.6621,28.9473c-.3252,1.4024-3.0429.9707-2.6142-.6123C91.66183,74.85,94.31131,74.99743,93.83761,77.03553Z"/>
  </g>
</svg>
