<svg id="b9ec002d-5968-4952-9bfd-69c69c8ddfeb" data-name="Layer 1" xmlns="http://www.w3.org/2000/svg" width="128" height="128" viewBox="0 0 128 128">
  <defs>
    <style>
      .bfc71def-e333-4f41-bf6f-51082ebf3c51 {
        fill: #1d1d1b;
      }
    </style>
  </defs>
  <title>097</title>
  <g>
    <path class="bfc71def-e333-4f41-bf6f-51082ebf3c51" d="M58.07889,59.098c-.6631,3.3477,5.6211,4.5869,6.2871,1.2432C65.02419,56.99735,58.73809,55.75425,58.07889,59.098Z"/>
    <path class="bfc71def-e333-4f41-bf6f-51082ebf3c51" d="M81.12479,80.45535a8.04416,8.04416,0,0,0-3.3252-2.248.78772.78772,0,0,1-.5117-.8692,12.30367,12.30367,0,0,0-1.5987-8.1503,13.38226,13.38226,0,0,0,3.1123-9.083c-.0029-8.3487-9.6299-13.8096-15.7998-13.8106-5.3818.0039-15.8017,5.4629-15.8008,13.8125a13.09231,13.09231,0,0,0,3.7989,9.8047,12.21381,12.21381,0,0,0-.5889,7.5547.78991.78991,0,0,1-.4385.9072,7.98232,7.98232,0,0,0-3.12109,2.5195.38805.38805,0,0,0,.31449.6475,36.837,36.837,0,0,0,6.789.002.71949.71949,0,0,0,.6534-.754,4.59331,4.59331,0,0,0-.8057-2.2011,8.998,8.998,0,0,1-.7646-1.1094,10.84583,10.84583,0,0,1-1.0303-6.7041c2.5176,1.9287,6.0058,3.0478,10.3916,3.1357a11.33233,11.33233,0,0,0,.33011,3.5567.78836.78836,0,0,1-.43851.9072,7.98233,7.98233,0,0,0-3.1211,2.5195.38478.38478,0,0,0,.3144.6446,37.08944,37.08944,0,0,0,6.7901.0068.72615.72615,0,0,0,.6533-.7559,4.60633,4.60633,0,0,0-.8057-2.2011,8.9962,8.9962,0,0,1-.7656-1.1084,11.88533,11.88533,0,0,1-1.1103-3.5899c4.6093-.2031,8.1709-1.5742,10.6181-3.8496a10.57044,10.57044,0,0,1-.1904,7.5352,9.84609,9.84609,0,0,1-.6729,1.1699,4.57834,4.57834,0,0,0-.6152,2.2627.71529.71529,0,0,0,.71.6943,36.91992,36.91992,0,0,0,6.7676-.5761A.38675.38675,0,0,0,81.12479,80.45535Zm-10.5723-19.5332c-.8369,4.2256-4.9473,6.1006-9.3896,5.2266-4.4375-.8779-7.6602-3.3193-6.6231-8.5791.8457-4.2764,5.7149-5.7686,9.3174-5.0537C68.29959,53.39385,71.38939,56.69655,70.55249,60.92215Z"/>
  </g>
</svg>
