<svg id="bfa3c789-5fe2-4b86-90e9-4605600beccd" data-name="Layer 1" xmlns="http://www.w3.org/2000/svg" width="128" height="128" viewBox="0 0 128 128">
  <defs>
    <style>
      .e15ec706-8b7f-45f0-bc4a-446e09a7182c {
        fill: #1d1d1b;
      }
    </style>
  </defs>
  <title>098</title>
  <path class="e15ec706-8b7f-45f0-bc4a-446e09a7182c" d="M96.65836,60.3711a4.6918,4.6918,0,0,0-3.9834.3701c-.374.1357-2.7441-2.2529-5.3525-4.0479a12.61468,12.61468,0,0,0-2.6914-1.417c-2.3057-6.2939-9.335-10.1767-20.5625-10.1757-11.4688,0-18.5606,4.0615-20.7061,10.5966a12.35684,12.35684,0,0,0-2.8379,1.5606c-2.5644,1.8613-4.876,4.2988-5.2451,4.1699a4.73428,4.73428,0,0,0-3.99319-.2715,2.44848,2.44848,0,0,0-1.664,2.5948c.21089,1.0644,1.12789,1.7763,1.63569,1.7314.8399-.0918-.6299-1.7285,1.0762-2.3408,1.6533-.5879,2.1396.4931,2.5537,1.1201a1.92519,1.92519,0,0,1-.207,2.8975c-2.0391,1.3691-2.1162-1.2334-2.7608-.5205a2.46411,2.46411,0,0,0,.53321,2.7705,2.82026,2.82026,0,0,0,3.54789.33c2.2529-1.4492,1.251-5.2353,1.2383-5.6318-.001-.4072,1.92281-1.9785,4.5996-3.665a9.19887,9.19887,0,0,1,.8291-.4688c-.002.0752-.002.1621-.00389.2461-.002,6.1016,3.333,10.7979,9.68059,13.2324-1.1787,4.5557,2.336,9.4502,4.7793,9.4473,2.3272,0,2.4346-5.1299,1.7246-7.8711a42.15842,42.15842,0,0,0,5.2237.3164,36.828,36.828,0,0,0,8.5195-.9053c-.751,2.6162-.5996,8.295,1.834,8.2266,2.625-.0615,6.3262-5.793,4.1699-10.542A13.18661,13.18661,0,0,0,85.466,60.2178c-.0019-.2178-.0058-.4346-.0176-.6504.2198.1064.4327.2265.6348.3466,2.7236,1.6114,4.6846,3.1465,4.6875,3.544.001.3965-.9023,4.2139,1.3818,5.6084a2.82519,2.82519,0,0,0,3.5372-.416,2.46366,2.46366,0,0,0,.4609-2.7842c-.6524-.6943-.6699,1.9082-2.7461.585a1.92713,1.92713,0,0,1-.2754-2.8926c.4033-.6309.8584-1.7227,2.5244-1.1768,1.71781.5694.2871,2.2402,1.13281,2.3076.51659.0381,1.41309-.6933,1.59959-1.7636A2.43929,2.43929,0,0,0,96.65836,60.3711Zm-39.0322-5.293c4.3076.001,6.2304,3.7637,5.0429,4.8975-1.1826,1.1416-2.0527-2.0078-5.0429-2.0118-2.9883-.0029-3.543,2.8487-4.9668,2.0118C51.24627,59.1357,53.31756,55.0781,57.62616,55.0781Zm11.4267,14.2432a60.31053,60.31053,0,0,1-9.9472.0117,1.28833,1.28833,0,0,1-.4405-1.5225,5.178,5.178,0,0,1,5.4063-3.7607c4.54981.0019,5.3447,3.6133,5.4141,3.7666A1.27878,1.27878,0,0,1,69.05286,69.3213Zm2.1612-11.3535c-2.9971,0-3.8575,3.1484-5.041,2.0097-1.1934-1.1357.7314-4.8945,5.0371-4.9033,4.3095,0,6.3808,4.0684,4.9629,4.9043S74.20227,57.9629,71.21406,57.9678Z"/>
</svg>
