<svg id="ab9e291e-f258-49d9-b44b-92e26d22bc09" data-name="Layer 1" xmlns="http://www.w3.org/2000/svg" width="128" height="128" viewBox="0 0 128 128">
  <defs>
    <style>
      .ab1f6af7-f662-4ac7-9eb3-927fc8b0663b {
        fill: #1d1d1b;
      }
    </style>
  </defs>
  <title>099</title>
  <g>
    <path class="ab1f6af7-f662-4ac7-9eb3-927fc8b0663b" d="M64.25837,64.59447c-4.1572-.002-7.2783-.7891-7.2763.7773.0039,1.5645,3.1181,2.0752,7.2822,2.0772,4.15719.0039,7.27149-.5127,7.26859-2.0791C71.53866,63.80347,68.42146,64.58857,64.25837,64.59447Z"/>
    <path class="ab1f6af7-f662-4ac7-9eb3-927fc8b0663b" d="M89.06016,43.34837c-6.1055-.335-.2012,13.3252-8.49809,15.5332-2.09571-11.4658-8.86621-25.3682-20.7285-23.8779-9.6972,1.209-12.959,13.1904-12.9072,23.8105-7.4639-2.6338-2.0664-15.6719-8.0225-15.3105-2.4531.1465-5.7138,3.0156-2.1357,10.0449,2.5225,4.9648,7.4658,6.7685,10.2061,7.4004.3339,7.0937,2.1152,13.1748,4.3437,14.3642a16.80012,16.80012,0,0,0,4.6953,1.4463,14.39691,14.39691,0,0,0-3.0644,9.5176c.5976,7.2832,4.6679,7.5293,6.7422,6.209,4.875-3.084-5.1856-9.3213-1.4971-15.4141a46.35792,46.35792,0,0,0,11.71779-.1494c3.9306,6.1094-6.251,12.4697-1.3301,15.541,2.0879,1.294,6.1582,1.0293,6.706-6.2539a14.5147,14.5147,0,0,0-3.247-9.664c3.6279-.7715,6.6445-2.1211,8.0195-4.1573,1.2627-1.873,1.5508-6.3027.8203-11.4961,2.6875-.5996,7.8242-2.3945,10.3848-7.5087C94.80236,46.33077,91.51916,43.47927,89.06016,43.34837Zm-21.2383,5.9121c2.5254,0,3.8779,1.3604,3.8789,3.4356.0029,2.082-1.3574,3.4394-3.876,3.4394-2.52629,0-3.88469-1.3574-3.88769-3.4394C63.944,50.61887,65.29647,49.26047,67.82186,49.26047ZM61.77017,40.741a2.8452,2.8452,0,0,1,3.1455,3.0693,2.85045,2.85045,0,0,1-3.1485,3.0703,2.84378,2.84378,0,0,1-3.1465-3.0713A2.85027,2.85027,0,0,1,61.77017,40.741Zm-4.96,9.0781c2.5254,0,3.8779,1.3594,3.8799,3.4355.0029,2.0821-1.3584,3.4424-3.876,3.4405-2.5254,0-3.8848-1.3584-3.8887-3.4405C52.93227,51.17847,54.28477,49.82007,56.81017,49.81907Zm7.1309,21.0889c-6.2217.0058-10.8829-.335-10.8858-5.3682.0039-5.04,4.669-4.5977,10.8838-4.5928,6.22069,0,10.88669-.4453,10.88179,4.586C74.82386,70.573,70.15586,70.91087,63.94107,70.908Z"/>
  </g>
</svg>
