<svg id="b8caec37-1be7-43b8-bad9-ff9a7f4541bc" data-name="Layer 1" xmlns="http://www.w3.org/2000/svg" width="128" height="128" viewBox="0 0 128 128">
  <defs>
    <style>
      .bad06fa3-7266-4d9d-8f66-863ec2b41eba {
        fill: #1d1d1b;
      }
    </style>
  </defs>
  <title>100</title>
  <path class="bad06fa3-7266-4d9d-8f66-863ec2b41eba" d="M87.43481,45.19092c-3.59961-2.5547-48.20761.0557-50.64161,4.1807-1.5098,2.5566-1.6255,19.6289,1,23.6943.6831,1.0635,4.4477,1.4541,9.6797,1.4101-.0142,1.2666-.0342,2.9415-.0577,3.2481a46.71269,46.71269,0,0,1-1.2426,5.5703c-.1001.3018-.1084.5059.2876.5244l7.2109-.0215c.4028.0186.4985-.2207.3442-.5224a4.37573,4.37573,0,0,0-1.6303-1.375,2.77972,2.77972,0,0,0-1.3706-.5274s-.1602-3.1406-.2315-3.5625c-.0434-.2773-.3716-2.0468-.62109-3.3945,2.90769-.0928,6.13579-.2861,9.46439-.5547-.0088,1.2617-.0303,3.501-.0611,3.8584a45.68656,45.68656,0,0,1-1.2421,5.5772c-.1001.3027-.1089.5058.2876.5244l7.21821-.0215c.395.0195.49759-.2344.33589-.5225a4.36436,4.36436,0,0,0-1.62889-1.375,2.74774,2.74774,0,0,0-1.36471-.5293s-.1602-3.1406-.23829-3.5625c-.05661-.3379-.51661-2.8525-.76371-4.1709,3.3062-.2978,6.6631-.6543,9.858-1.04.0166,1.5391.0234,3.4756.0068,3.8389a42.749,42.749,0,0,1-1.2075,6.6474c-.126.3692-.148.624.25241.6514l7.22409.0029c.3936.0293.5122-.2783.376-.6416a4.52668,4.52668,0,0,0-1.53809-1.6953c-.92041-.6875-1.33351-.6514-1.33351-.6514s-.3257-3.7763-.4077-4.2949c-.05079-.3467-.4116-2.5371-.689-4.1924,3.5367-.4629,6.7901-.9521,9.4527-1.4287.01851,1.3389.0449,4.7793.0176,5.2822a42.83431,42.83431,0,0,1-1.20609,6.7012c-.11861.3574-.14061.6113.25289.6406l7.2305-.0117c.3945.0313.5117-.2754.3701-.6377a4.62836,4.62836,0,0,0-1.5342-1.6982c-.9218-.6836-1.3418-.6338-1.3418-.6338s-.3222-3.8232-.3984-4.3447c-.0723-.4815-.74709-4.5352-.9492-5.7481a16.58352,16.58352,0,0,0,4.4355-1.2695C94.05981,66.91162,91.0334,47.74562,87.43481,45.19092ZM52.1897,65.95462c-.2764.6699-4.9976,2.125-5.7876,1.4912-.7886-.6319-1.6978-10.4834-1.5479-11.1563.2959-1.3076,5.6924-2.1191,6.2241-1.7461C51.6169,54.92142,52.47381,65.29052,52.1897,65.95462Zm12.8818-.7676c-.2783.7139-5.0088,2.1982-5.7984,1.5019-.79-.6943-1.6621-11.3144-1.5117-12.038.29841-1.4024,5.6983-2.1856,6.23441-1.7715C64.5314,53.29152,65.3571,64.477,65.0715,65.187Zm13.5122-1.4717c-.314.7412-5.563,2.3174-6.4316,1.6025-.8697-.7275-1.7837-11.791-1.6119-12.5468.3365-1.4629,6.335-2.3096,6.9224-1.8858C78.052,51.31492,78.903,62.96822,78.5837,63.71532Zm4.0093,2.8613a1.70128,1.70128,0,1,1,1.6992,1.7227A1.57312,1.57312,0,0,1,82.593,66.57662Z"/>
</svg>
