<svg id="bed39fae-c717-4aca-b42b-1cf02578531d" data-name="Layer 1" xmlns="http://www.w3.org/2000/svg" width="128" height="128" viewBox="0 0 128 128">
  <defs>
    <style>
      .aeb990ec-b325-457f-9e44-860333895d97 {
        fill: #1d1d1b;
      }
    </style>
  </defs>
  <title>101</title>
  <path class="aeb990ec-b325-457f-9e44-860333895d97" d="M98.3563,53.50335c-2.585-2.6573-4.1006-3.6416-4.8565-3.8164-.7451-.1788-.5864.9052-3.3266,3.5087a21.0572,21.0572,0,0,1-5.0166,3.3165c-1.2158-3.7217-3.0493-6.2784-2.9981-7.462.0879-1.9619-.6059.3116-17.3779,1.1924-15.8794.8301-16.1899-1.9023-17.9575-.498-.8814.6972-2.2637,4.3213-2.9907,8.5019a22.44966,22.44966,0,0,1-6.2803-3.4209c-2.8999-2.4306-2.8018-3.5156-3.5386-3.2949-.7417.2246-2.1973,1.3027-4.6128,4.1123-2.4145,2.8086-2.2861,4.209-2.0049,4.2979.2769.083,4.5313-3.6661,4.7437-3.5157.2178.1436,1.0342,6.3438,1.4199,6.2286.3897-.1202,1.708-5.4795,1.9634-5.1748.25.3037,2.0674,6.1582,2.6235,6.0332.5562-.127-.437-4.5352-.1738-4.5733a14.34386,14.34386,0,0,0,5.5942,1.1104,26.07885,26.07885,0,0,0-.1538,5.0879c.501,6.3066,4.7735,12.623,4.3828,14.3486-.2129.9521,2.604-1.2276,17.9014-1.3945,15.2974-.1622,13.3018.7216,15.1289.7802,1.8316.0547,4.8452-7.1406,5.3316-14.9336a19.02475,19.02475,0,0,0-.4083-5.2431,17.72749,17.72749,0,0,0,4.2569-1.3682c.2651.0215-.4517,4.4815.1133,4.5703.5595.0938,2.0092-5.8623,2.247-6.1797.232-.3222,1.8794,4.9483,2.2779,5.043.393.0928.8227-6.1494,1.0278-6.3086.2041-.1572,4.6802,3.3145,4.957,3.2168C100.9002,57.56585,100.9422,56.15375,98.3563,53.50335ZM71.703,60.34415a2.88576,2.88576,0,1,1-2.8833-2.9766A2.68935,2.68935,0,0,1,71.703,60.34415Zm-10.2544-7.6973c.3799-.3027,5.5234-.5429,5.6801-.1279.1563.4141-2.602,4.1445-2.8501,4.1348C64.0345,56.63905,61.1698,52.86655,61.4486,52.64685Zm-2.6382,5.0987a2.59986,2.59986,0,1,1-2.5186,2.5957A2.35111,2.35111,0,0,1,58.8104,57.74555Zm-7.5816,18.2363c-.4951-.0576-4.2475-9.4404-3.5952-10.294.6524-.8593,10.5952,1.4639,11.0899,2.252C59.0892,68.519,51.7201,76.04335,51.2288,75.98185ZM69.18,73.43205c-.4341.1377-9.8603.7265-10.313.6435-.4487-.0869.0401-4.5088,4.7935-4.8076C68.4139,68.97405,69.6141,73.29235,69.18,73.43205Zm8.0874,1.6386c-.4946.044-7.6279-7.7011-7.2466-8.2695.5205-.7715,10.5269-2.789,11.1582-1.9111C81.804,65.76215,77.7664,75.02575,77.2674,75.07065Z"/>
</svg>
