<svg id="b411cfdf-72f4-458e-8fc2-ade79e779001" data-name="Layer 1" xmlns="http://www.w3.org/2000/svg" width="128" height="128" viewBox="0 0 128 128">
  <defs>
    <style>
      .bfdc2a5b-40cb-4ffd-b119-f37d96bbcf29 {
        fill: #1d1d1b;
      }
    </style>
  </defs>
  <title>102</title>
  <g>
    <path class="bfdc2a5b-40cb-4ffd-b119-f37d96bbcf29" d="M52.7688,50.46323c-.0015,5.1953,7.0703,5.4219,7.0727.2256C59.843,45.48863,52.7649,45.26993,52.7688,50.46323Z"/>
    <path class="bfdc2a5b-40cb-4ffd-b119-f37d96bbcf29" d="M92.2683,43.20353c.1255-1.3916-1.0889-3.4991-2.2388-3.5508-1.1435-.0567-.0991,3.9326-1.4155,3.9512-1.3164.0253.2988-4.6612-2.2661-4.125-2.5723.539-.3745,4.415-1.3511,4.29-.978-.1328-.5718-3.5586-2.7138-3.4941-2.1348.0654.666,5.1171-.2598,5.6513-.9248.5313-4.0781-.54-4.3286,1.3076-.251,1.8457,4.542,1.0811,5.3374,1.7745.7866.6943,1.0937,4.5654-.249,5.2402-.813.4101-5.1299.1738-8.3814-.0742-.6069-7.8926-2.2012-15.5508-4.4311-17.5645-4.7554-4.2978-26.5367-3.3808-31.5933,1.5313-5.065,4.9121-1.9932,33.7392,1.8379,37.1162,1.3047,1.1406,4.915,1.7402,9.2939,1.9013-.3799,2.0752-.9966,5.4942-1.0722,6.5157-.0987,1.3896.4648,7.164.4648,7.164a6.85093,6.85093,0,0,0-3.2729.8184,3.58416,3.58416,0,0,0-1.335,1.5762c-.1963.4296-.0781.8076.396.8056l9.56.0039c.4737-.0019.4678-.3095.3545-.7705a76.29123,76.29123,0,0,1-1.331-9.5937c-.0254-1.2432.1113-4.7715.1821-6.4795,2.5215-.044,5.1343-.1992,7.5967-.461.1191,1.3409.5024,5.5977.5449,6.9961a77.6347,77.6347,0,0,1-.8672,9.6543c-.0888.4629-.0835.7705.3887.75l9.5581-.4609c.4634-.0273.5615-.4092.3486-.8272a3.60336,3.60336,0,0,0-1.4077-1.5068,6.79877,6.79877,0,0,0-3.31-.664s.2856-5.792.1201-7.1778c-.1426-1.1689-1.1402-5.4277-1.5845-7.2558,3.4424-.5489,6.2124-1.3116,7.4243-2.2198,1.7407-1.3027,2.4737-6.9629,2.416-13.5312,5.795.2226,14.9795.1211,16.2676-1.7578,1.8452-2.71.7842-4.8711.9849-7.4873C92.1379,48.63323,92.1482,44.59023,92.2683,43.20353ZM55.7185,62.016c-6.6357-.0039-12.0244-4.0264-12.0254-10.5879.0059-6.5606,5.3833-10.5889,12.0254-10.586,6.6367.002,11.9707,2.6963,11.9648,10.8633C67.6872,58.348,61.1042,62.01013,55.7185,62.016Z"/>
  </g>
</svg>
