<svg id="bd523d2d-0020-4aea-bf60-91e856cd68a5" data-name="Layer 1" xmlns="http://www.w3.org/2000/svg" width="128" height="128" viewBox="0 0 128 128">
  <defs>
    <style>
      .ab245ab1-b40c-46f7-9226-f0444ce32aad {
        fill: #1d1d1b;
      }
    </style>
  </defs>
  <title>103</title>
  <g>
    <path class="ab245ab1-b40c-46f7-9226-f0444ce32aad" d="M57.56976,59.76792c.002.5801,1.1255.7198,1.1245,0A.56233.56233,0,0,0,57.56976,59.76792Z"/>
    <path class="ab245ab1-b40c-46f7-9226-f0444ce32aad" d="M71.40576,59.847c.0004.5752,1.124.7149,1.1235-.0009A.56183.56183,0,0,0,71.40576,59.847Z"/>
    <path class="ab245ab1-b40c-46f7-9226-f0444ce32aad" d="M83.58926,41.59312c-.6401.2657-4.9619,4.4463-7.456,7.2774-1.6387-8.5518-5.1816-15.1065-12.1831-15.1035-5.127,0-8.9336,7.1045-11.4561,16.1005-2.4262-2.7177-7.5605-7.4345-8.2592-7.705-1.064-.4053-5.0743,5.6298-4.7852,6.2812.2739.6055,3.3921-3.583,4.0874-2.956.2808.2519-.5425,3.5966.1636,3.8662.5034.1943,1.2026-2.1953,1.9814-2.5401.4966-.2246,4.3911,3.2598,6.3565,4.7491-3.5401,13.7627-4.2251,31.0312-2.1983,34.4062.7769,1.2988,2.439,2.2598,4.5586,2.9336-.0273-.001-1.9863,4.6514.71,4.9404,2.2353.2432,2.018-2.7998,1.9658-4.2705,1.0264.1983,2.1035.3467,3.2041.4512-.4897,1.7353-.8477,3.6094,1.1001,3.8203,1.9683.2119,1.9746-1.8301,1.9751-3.6348q.93525.022,1.8555.0059c-.295,1.6768-.4468,4.04,1.6425,4.0176,2.0943-.0225,1.5689-2.4688,1.3379-4.1572,1.1675-.0967,2.2603-.2422,3.2212-.42-.2954,1.7422-.3471,3.8575,1.6651,3.836,2.3745-.0264,1.4614-3.5264,1.2617-4.7071a1.94736,1.94736,0,0,0,1.0264-.8896c.3056-.7988,3.4892-21.4629,1.1098-37.0176,2.002-1.6738,5.3369-4.791,5.8047-4.5996.791.3262,1.5596,2.6924,2.0547,2.4844.6992-.291-.2212-3.6094.0537-3.8711.6758-.6445,3.9141,3.4502,4.1655,2.8349C88.82316,47.06872,84.64206,41.15372,83.58926,41.59312Zm-11.624,19.7793a1.55863,1.55863,0,1,1,1.5484-1.5595A1.41453,1.41453,0,0,1,71.96526,61.37242Zm-13.8974-.1465a1.49123,1.49123,0,1,1,1.4824-1.4921A1.35348,1.35348,0,0,1,58.06786,61.22592Zm11.2734,16.7959c-.127-1.2988-1.2803-3.7939-1.6074-3.6181-.4629.2441-1.2793,4.1816-1.2334,5.4179a34.621,34.621,0,0,1-5.083.0137c.0864-1.4492-.772-5.374-1.1475-5.4277-.438-.0615-1.5649,2.6181-1.7012,3.751-3.5927-3.0039-3.3071-9.8291-.6464-13.3438.0302,1.3809.9917,5.2422,1.5429,5.3389.4644.082,1.4268-4.1924,1.4087-5.8067,1.5972-.0839,4.5415-.0908,6.1402-.0175.0097,1.4316.9296,5.6347,1.5459,5.8232.6884.2119,1.414-3.8057,1.413-5.3789C72.66886,67.11562,72.79826,74.89,69.34126,78.02182Z"/>
  </g>
</svg>
