<svg id="baf46a0e-2726-4a9a-9d59-967c19ff9a89" data-name="Layer 1" xmlns="http://www.w3.org/2000/svg" width="128" height="128" viewBox="0 0 128 128">
  <defs>
    <style>
      .ff333ada-1739-42b3-9d2e-e62b00741ab3 {
        fill: #1d1d1b;
      }
    </style>
  </defs>
  <title>104</title>
  <g>
    <path class="ff333ada-1739-42b3-9d2e-e62b00741ab3" d="M51.37081,74.34068c-2.9775.0947-7.8237,2.5869-6.2085,4.4785,1.6157,1.8906,10.9483,2.0567,12.7139.3692C61.32,75.88658,52.53981,74.30938,51.37081,74.34068Z"/>
    <path class="ff333ada-1739-42b3-9d2e-e62b00741ab3" d="M75.51681,72.05068c1.4556-1.0694-1.7515-25.1485-13.9907-25.0606-13.4986.0986-10.1006,25.0606-8.8345,26.127,1.2598,1.0693,2.6216-.4834,6.6006,1.8447,3.9853,2.332-.1929,6.4111,4.5659,6.0225,4.7598-.3887,2.8169-6.1202,5.3462-7.7696C71.72731,71.56138,74.06031,73.118,75.51681,72.05068ZM65.42741,53.495c1.8326-.1523,2.9043.751,3.0347,2.2627.1245,1.5117-.7778,2.582-2.6157,2.7383-1.833.1572-2.9038-.7451-3.0352-2.2627C62.68671,54.72158,63.58911,53.65518,65.42741,53.495ZM54.841,57.32118c-.1308-1.5137.7715-2.585,2.6109-2.7373,1.8379-.1592,2.9043.75,3.0351,2.2607.1236,1.5117-.7778,2.584-2.6108,2.7383C56.03681,59.73618,54.96551,58.83288,54.841,57.32118Zm9.0938,12.165c-4.5235.3848-7.937.4248-8.25-3.2422-.3076-3.6601,3.1128-3.6269,7.6372-4.0058,4.5244-.3848,7.8862-.9971,8.2002,2.6679C71.82981,68.57208,68.45871,69.10238,63.93481,69.48618Z"/>
    <path class="ff333ada-1739-42b3-9d2e-e62b00741ab3" d="M63.78191,64.87188c-3.0297.253-5.3457-.1259-5.25,1.0127.0953,1.1426,2.3955,1.3204,5.4253,1.0635,3.024-.2578,5.2598-.8164,5.1641-1.9599C69.02611,63.85048,66.80591,64.61508,63.78191,64.87188Z"/>
    <path class="ff333ada-1739-42b3-9d2e-e62b00741ab3" d="M76.51971,74.53988c-1.1714.0039-9.8999,1.8604-6.3437,5.0537,1.8096,1.625,11.1323,1.166,12.6865-.7802C84.41771,76.87288,79.49481,74.536,76.51971,74.53988Z"/>
  </g>
</svg>
