<svg xmlns="http://www.w3.org/2000/svg" width="943.41895" height="500" viewBox="0 0 943.41895 500">
  <defs>
    <style>
      .b9518934-9cd7-4fc3-b956-8f9a7743a465 {
        fill: #319fbd;
        opacity: 0.1;
      }

      .a083aca7-6ce1-49cf-a0ec-0d73860d5271 {
        fill: #fff;
      }
    </style>
  </defs>
  <title>STAR_DRIVE-logo_starburst-white</title>
  <g id="e6bc8f2a-0add-44bd-9f45-8a0efd1359ce" data-name="Starburst">
    <path class="b9518934-9cd7-4fc3-b956-8f9a7743a465" d="M180.09375,113.40625l-45.5-85.09375-4.79688,2.59375L175.29687,116A51.42813,51.42813,0,0,1,180.09375,113.40625Zm-13,7.5L113.39062,40.60937l-4.5,3,53.59376,80.29688c1.5-1,3-2,4.59374-3h.01563Zm-12.29688,8.79687L93.5,55l-4.20313,3.5,61.29688,74.59375a48.63442,48.63442,0,0,1,4.20313-3.40625h0ZM143.5,139.59375,75.20313,71.29688l-3.90625,3.90625L139.59375,143.5A35.465,35.465,0,0,1,143.5,139.59375Zm50.29687-32.39062L156.79687,18l-5.09375,2.09375,36.90624,89.20312c1.79687-.79687,3.5-1.5,5.20313-2.09374h-.01562Zm29-8.20313-18.5-92.79688-.40625-1.90625-5.40624,1.09375,18.79687,94.70312a52.651,52.651,0,0,1,5.5-1.09375h.01561Zm-14.70312,3.40625L180,10l-5.20313,1.59375,28,92.40625a52.46571,52.46571,0,0,1,5.29687-1.59375h0ZM222.79687,1.5l9.5,96.09375c1.79687-.20312,3.59374-.40625,5.40624-.5L228.20312,1ZM103.90625,202.79688l-92.40625-28L10,180l92.40625,28C102.8125,206.29688,103.40625,204.59375,103.90625,202.79688ZM96.5,250c0-.90624.09375-1.79687.09375-2.70313H0v5.5H96.59375c0-1-.09375-1.90625-.09375-2.79687Zm1.09375-17.79687L1.5,222.70313,1,228.10937l96.09375,9.5a51.14445,51.14445,0,0,1,.5-5.40624Zm35.5-81.60939L58.5,89.29686,55,93.5l74.59375,61.29688c1.20312-1.5,2.29688-2.90625,3.5-4.20313Zm-23.79687,38.10938L20.09375,151.79688,18,156.89063l89.20313,36.90624a52.19692,52.19692,0,0,1,2.09374-5.09375ZM123.90625,162.5,43.60937,108.79686l-3,4.59376,80.20313,53.59374c1.09375-1.5,2.09375-3,3.09375-4.5h0Zm-8,12.79688-85.09375-45.5-2.59375,4.79688,85.09376,45.5c.90625-1.70313,1.79687-3.29688,2.59374-4.79688ZM100,217.40624,5.29688,198.60937l-1.09375,5.40624L99,222.71875c.29688-1.79688.59375-3.59375,1-5.29688Zm286.59376-37.31249,85.09374-45.5-2.59376-4.79688L384,175.20313c.90626,1.59375,1.79687,3.20312,2.59376,4.90625h0Zm-7.5-13L459.39061,113.5l-3-4.59375L376.09375,162.5c1,1.5,2,3,3,4.59375h0Zm-8.79687-12.29688L445,93.5l-3.5-4.20313-74.59375,61.29688a48.63817,48.63817,0,0,1,3.40625,4.20313h-.01561Zm22.5,39,89.20312-37-2.09376-5.09375-89.20312,36.90624c.79689,1.79687,1.5,3.5,2.09376,5.20313h0Zm4.79687,14.29688L490,180l-1.59374-5.20313-92.40624,28c.59375,1.79687,1.09374,3.5,1.59374,5.29687h0ZM403,237.70313l96.09374-9.5-.5-5.40624-96.09375,9.5C402.59376,234,402.79686,235.89063,403,237.70313Zm-2-15,94.70311-18.79688L494.60936,198.5l-94.59377,18.90625c.40624,1.79687.70313,3.5,1,5.29687Zm-40.59374-79.29687,68.29688-68.29688-3.90625-3.90625L356.5,139.5c1.40625,1.29687,2.70313,2.59375,3.90625,3.90625Zm-63.3125-39.5,28-92.40625L320,10l-28,92.40625c1.70311.40625,3.40625,1,5.09375,1.5Zm4.31251-98.60938L296,4.20312,277.20314,99c1.79687.29688,3.59375.70313,5.40626,1Zm48,127.79687,60-73.09375,1.29688-1.5L406.5,55l-61.29688,74.59374c1.5,1.20312,2.90626,2.29688,4.20311,3.5ZM262.29689,97c1.79687.09375,3.59374.29688,5.40626.5l9.5-96.09375-5.40626-.5Zm-15-.5c.90624,0,1.79687-.09375,2.70313-.09375s1.79687.09375,2.70313.09375V0h-5.5ZM337.5,123.90625l53.59375-80.29688-4.5-3L333,120.90625l4.5,3Zm-12.70312-8,45.5-85.09375L365.5,28.21875,320,113.31251c1.5.90625,3.20313,1.79687,4.79687,2.59374Zm-13.5-6.70313,36.90624-89.09375-5.09375-2.09375-36.90624,89.20312c1.70311.59375,3.40625,1.29688,5.09375,2h0ZM222.79687,498.5l5.40625.5,9.5-96.09374c-1.79687-.09376-3.59374-.29686-5.40624-.5Zm144.10939-149L441.5,410.79688l3.5-4.20311-74.59375-61.29688C369.20315,346.70314,368.10941,348.09378,366.90626,349.5ZM333,379.09374l53.59376,80.29687,4.5-3L337.5,376.09375Q335.25,377.59372,333,379.09374ZM277.20311,401,296,495.7031l5.40626-1.09374-18.79686-94.59377c-1.70311.40624-3.59374.70313-5.40626,1ZM97,262.29689l-96.09375,9.5.5,5.40626,96.09375-9.5C97.29688,266,97.20313,264.1094,97,262.29689ZM291.90624,397.59374,320,490l5.20313-1.59374-28-92.40624C295.40625,396.59375,293.70311,397.09374,291.90624,397.59374Zm28-11,45.5,85.09374,4.79687-2.59376L324.70313,384c-1.5.90626-3.20313,1.79687-4.79687,2.59376Zm-13.70313,6.31249,37,89.09374,5-2.09376-36.90624-89.20312c-1.70311.79689-3.40626,1.5-5.09375,2.20314Zm50.29687-32.5,68.29688,68.29688,3.90625-3.90625L360.40625,356.5A46.07331,46.07331,0,0,1,356.5,360.40625ZM376.09375,337.5l80.29687,53.59375,3-4.5L379.09374,333q-1.5,2.25-3,4.5Zm26.3125-69.70314,96.09374,9.5.5-5.40626-96.09374-9.5c-.09376,1.70312-.29686,3.59375-.5,5.40626Zm1-20.5c0,.90624.09376,1.79687.09376,2.70313a26.0418,26.0418,0,0,1-.09376,2.70313H500v-5.5ZM400,282.59376l94.7031,18.79686,1.09375-5.40626L401,277.1875C400.70313,278.98437,400.40624,280.78124,400,282.59376Zm-15.90625,42.20313,85.09374,45.5L471.78125,365.5,386.68752,320c-.90626,1.5-1.79687,3.20313-2.59376,4.79687Zm6.70311-13.5L480,348.20312l2.09376-5-89.20312-37c-.70312,1.70311-1.40625,3.40625-2.09376,5.09375Zm5.29689-14.09376,92.40624,28L490,320l-92.40624-28c-.5,1.70311-1,3.40625-1.5,5.20312Zm-50.89063,73.09375L406.40625,445l4.20311-3.5-61.29688-74.59375a36.1222,36.1222,0,0,1-4.09373,3.40625h0ZM139.59375,356.59376,71.29688,424.89064l3.90625,3.90625L143.5,360.5C142.09375,359.20313,140.79687,357.90625,139.59375,356.59376Zm-9.89063-11.39063L55,406.5l3.5,4.20311,74.59375-61.29688a48.63713,48.63713,0,0,1-3.40625-4.20311h.01563Zm-16.29687-25.29687-85.09375,45.5,2.59375,4.79687L116,324.70313c-.90625-1.5-1.79687-3.20313-2.59375-4.79687Zm7.5,13L40.60937,386.60938l3,4.5,80.29688-53.59376c-1-1.5-2-3-3-4.59376h0ZM99,277.20311,4.29688,296.10938l1.09375,5.40626,94.59375-18.79686c-.40625-1.90625-.70313-3.70312-1-5.5Zm3.40625,14.70313L10,320l1.59375,5.20313,92.40625-28a52.46589,52.46589,0,0,1-1.59375-5.29688Zm4.79688,14.29689L18,343.10937l2.09375,5,89.20312-36.90624a42.7,42.7,0,0,1-2.09374-5ZM162.5,376.09375l-53.59375,80.29687,4.5,3L167,379.18749c-1.5-1.09374-3-2.09376-4.5-3.09374Zm36.09376,118.60936L204,495.79686l18.79687-94.70314c-1.79687-.29686-3.59374-.70312-5.40624-1L198.59375,494.6875Zm4.3125-98.60935-28,92.40624L180,490.09374l28-92.40625c-1.70312-.59375-3.40625-1.09374-5.09375-1.59373Zm44.39062,7.3125V500h5.5V403.40626c-.90626,0-1.79687.09376-2.70313.09376s-1.90625-.09376-2.79688-.09376h0Zm-58.5-12.60939-37,89.20312,5.09375,2.09376,36.90624-89.20312c-1.70313-.70312-3.40625-1.40625-5-2.09376Zm-38.20314-23.89061L89.29686,441.5,93.5,445l61.29688-74.59375c-1.5-1.20312-2.90625-2.29686-4.20313-3.5ZM262.29689,403l9.5,96.09374,5.40626-.5-9.5-96.09375C266,402.59376,264.1094,402.79686,262.29689,403Zm-87.09376-18.90624-45.5,85.09374L134.5,471.78125,180,386.68752c-1.59376-.90626-3.20313-1.79687-4.79688-2.59376Z"/>
  </g>
  <g id="ade0c96a-42c5-469c-917f-6e58c01d4c1c" data-name="Layer 1">
    <g>
      <path class="a083aca7-6ce1-49cf-a0ec-0d73860d5271" d="M266.044,292.08105l.32031-1.47167h4.86328l-1.53516-11.64747H254.84521a12.637,12.637,0,0,0-1.60009,6.01563c0,3.90332,1.856,5.56738,6.27148,5.63184l-.31933,1.47167h-16.5752l.31982-1.47167c2.11182-.32032,5.37549-3.83985,9.08741-9.66309L269.94824,249.396h14.59082l5.63184,41.21338h2.36719l-.31934,1.47167Zm.76855-34.49316-11.13525,19.90234H269.5Z"/>
      <path class="a083aca7-6ce1-49cf-a0ec-0d73860d5271" d="M346.42578,250.86816c-4.0957,0-7.61523,4.416-9.15137,11.32715l-4.03125,19.00684c-1.60058,7.42285-8.57519,12.15918-18.04687,12.15918a36.18666,36.18666,0,0,1-10.623-1.72852c-4.67187-1.59961-7.10351-4.15918-7.10351-7.42285a14.94509,14.94509,0,0,1,.44824-3.3916l6.335-29.9502h-4.99121l.31933-1.47216H327.419l-.31934,1.47216h-4.47949L315.38867,285.042a13.47932,13.47932,0,0,0-.44824,3.07129c0,1.85547,1.2793,2.81543,3.77539,2.81543a15.35621,15.35621,0,0,0,8.76758-3.19922,11.16074,11.16074,0,0,0,4.15918-7.168l3.52051-16.44629a25.06113,25.06113,0,0,0,.832-6.33593c0-4.99121-1.47266-6.78321-5.82422-6.91114l.32031-1.47216h16.25488Z"/>
      <path class="a083aca7-6ce1-49cf-a0ec-0d73860d5271" d="M347.709,292.08105l.32032-1.47167h5.69531l8.44727-39.74122c-7.29493,2.6875-11.9668,6.91114-14.78321,13.375H345.917l3.13574-14.84716h45.05274l-3.19922,14.84716h-1.47266a5.5884,5.5884,0,0,0,.06446-.89648,13.543,13.543,0,0,0-9.02344-12.47852l-8.38281,39.74122h5.69531l-.32031,1.47167Z"/>
      <path class="a083aca7-6ce1-49cf-a0ec-0d73860d5271" d="M387.709,292.08105l.32032-1.47167h4.99121l8.44726-39.74122h-4.99121l.31934-1.47216h28.542l-.31934,1.47216h-4.99218l-8.38282,39.74122h4.99122l-.32032,1.47167Z"/>
      <path class="a083aca7-6ce1-49cf-a0ec-0d73860d5271" d="M459.57715,262.89941a14.09342,14.09342,0,0,0,.25586-2.68847c0-3.32715-1.21582-5.56739-4.16016-7.8711a14.01112,14.01112,0,0,0-7.999-2.55957c-3.64746,0-6.52735,2.55957-6.52735,5.75977a3.38575,3.38575,0,0,0,1.0879,2.36719c.8955.832,1.21582,1.02441,5.11914,3.456,9.27929,5.69531,11.71093,8.44727,11.71093,13.43945a17.428,17.428,0,0,1-7.167,13.82227,28.5254,28.5254,0,0,1-15.4873,4.73633c-4.03125,0-6.71875-1.02442-10.23926-4.03223l-6.52735,3.83985,3.71192-17.34278h1.59961a22.22957,22.22957,0,0,0-.51172,4.28809c0,3.19922,1.47168,6.01562,4.416,8.63867a11.50276,11.50276,0,0,0,7.29492,2.68848c4.67187,0,8.25586-2.624,8.25586-6.01563A4.29585,4.29585,0,0,0,442.874,282.418c-1.15136-1.08789-1.28027-1.15235-6.59179-4.28809-6.07911-3.584-9.08692-7.61523-9.08692-12.22265,0-4.22364,2.24024-8.96,5.82324-12.35157a21.0858,21.0858,0,0,1,14.01563-5.43945,15.36542,15.36542,0,0,1,10.55859,3.584l6.71973-3.584-3.13574,14.7832Z"/>
      <path class="a083aca7-6ce1-49cf-a0ec-0d73860d5271" d="M495.22559,292.08105l.31933-1.47167H500.793l7.4873-35.19727-22.01465,36.66894h-4.15917l-6.65528-36.66894-4.86426,22.6543a37.3032,37.3032,0,0,0-.7041,5.88769c0,4.543,1.66407,6.59082,5.376,6.59082h.7041l-.32031,1.53613H459.19629l.31933-1.47167c3.9043.1914,7.61622-4.60743,9.0879-11.51954l5.43945-25.66211-.832-2.55957h-4.15918l.31933-1.47216h24.0625l4.09571,21.24658L510.32812,249.396H532.919l-.32032,1.47216h-4.99121l-8.44726,39.74122h4.99121l-.32032,1.47167Z"/>
      <path class="a083aca7-6ce1-49cf-a0ec-0d73860d5271" d="M596.21582,284.91406a16.17645,16.17645,0,0,1-2.75195,4.99121c-1.91992,2.04785-4.543,3.07129-8.127,3.07129a16.59532,16.59532,0,0,1-7.04-1.34375,7.2186,7.2186,0,0,1-3.39161-6.52734,72.19832,72.19832,0,0,1,1.792-10.62305,10.16746,10.16746,0,0,0,.19238-1.85547,2.19238,2.19238,0,0,0-1.792-2.17675,12.2507,12.2507,0,0,0-2.624-.12793c-.44824,0-.89551,0-1.66406.06445l-4.28711,20.22266h4.22363l-.32031,1.47167h-27.582l.32031-1.47167h4.99121l8.44727-39.74122h-4.99121l.31933-1.47216H587.001c8.38281,0,11.45507,1.98388,11.45507,7.42334a13.11282,13.11282,0,0,1-4.03222,9.47168,14.8768,14.8768,0,0,1-5.75977,3.32812,24.429,24.429,0,0,1,2.94434,1.34375,5.59393,5.59393,0,0,1,2.55957,4.86328c0,1.53613-.06348,1.98438-1.59961,7.67969a13.89194,13.89194,0,0,0-.51172,2.6875.82426.82426,0,0,0,.83106.89648c.7041,0,1.28027-.76855,1.98437-2.56054Zm-25.08594-16.06347c5.375.12793,6.71973-.63965,7.74317-4.54395l1.91992-9.02246a9.22629,9.22629,0,0,0,.25586-1.92041c0-1.98389-.832-2.49561-3.96778-2.49561h-2.17578Z"/>
      <path class="a083aca7-6ce1-49cf-a0ec-0d73860d5271" d="M596.668,292.08105l.32031-1.47167h4.99121l8.44727-39.74122h-4.99121l.31933-1.47216h41.02149l-2.87989,13.439h-1.4082a15.29434,15.29434,0,0,0,.19238-1.9834,10.06613,10.06613,0,0,0-4.99121-8.44775c-2.24023-1.21582-4.03222-1.53565-8.96-1.53565l-3.90332,18.49414h1.34375c4.79981-.06347,8.5752-4.03125,9.59961-9.98242h1.34375l-4.54394,21.2461h-1.34375a14.94914,14.94914,0,0,0,.44824-3.13575c0-3.90429-2.36817-6.59179-5.8877-6.59179h-1.28027l-4.15918,19.71094a22.26789,22.26789,0,0,0,20.73437-14.27149h1.34375l-3.32812,15.74316Z"/>
      <path class="a083aca7-6ce1-49cf-a0ec-0d73860d5271" d="M684.665,262.89941a14.09261,14.09261,0,0,0,.25586-2.68847c0-3.32715-1.21582-5.56739-4.16016-7.8711a14.01112,14.01112,0,0,0-7.999-2.55957c-3.64746,0-6.52734,2.55957-6.52734,5.75977a3.38574,3.38574,0,0,0,1.08789,2.36719c.8955.832,1.21582,1.02441,5.11914,3.456,9.27929,5.69531,11.71093,8.44727,11.71093,13.43945a17.428,17.428,0,0,1-7.167,13.82227,28.5254,28.5254,0,0,1-15.4873,4.73633c-4.03125,0-6.71875-1.02442-10.23926-4.03223l-6.52734,3.83985,3.71191-17.34278H650.043a22.22957,22.22957,0,0,0-.51172,4.28809c0,3.19922,1.47168,6.01562,4.416,8.63867a11.50276,11.50276,0,0,0,7.29492,2.68848c4.67187,0,8.25586-2.624,8.25586-6.01563a4.29585,4.29585,0,0,0-1.53614-3.00781c-1.15136-1.08789-1.28027-1.15235-6.59179-4.28809-6.0791-3.584-9.08692-7.61523-9.08692-12.22265,0-4.22364,2.24024-8.96,5.82325-12.35157a21.08575,21.08575,0,0,1,14.01562-5.43945,15.36542,15.36542,0,0,1,10.55859,3.584l6.71973-3.584-3.13574,14.7832Z"/>
      <path class="a083aca7-6ce1-49cf-a0ec-0d73860d5271" d="M684.92188,292.08105l.32031-1.47167h4.99121l8.44726-39.74122h-4.99121l.31934-1.47216h41.02148l-2.87988,13.439h-1.4082a15.29434,15.29434,0,0,0,.19238-1.9834,10.06616,10.06616,0,0,0-4.99121-8.44775c-2.24024-1.21582-4.03223-1.53565-8.96-1.53565l-3.90332,18.49414h1.34375c4.7998-.06347,8.57519-4.03125,9.59961-9.98242h1.34375l-4.54395,21.2461h-1.34375a14.94914,14.94914,0,0,0,.44824-3.13575c0-3.90429-2.36816-6.59179-5.88769-6.59179h-1.28027l-4.15918,19.71094A22.26789,22.26789,0,0,0,729.335,276.33789h1.34375l-3.32812,15.74316Z"/>
      <path class="a083aca7-6ce1-49cf-a0ec-0d73860d5271" d="M754.10547,292.08105l.32031-1.47167h4.86328l-1.53613-11.64747H742.90625a12.6357,12.6357,0,0,0-1.59961,6.01563c0,3.90332,1.85547,5.56738,6.27148,5.63184l-.32031,1.47167H730.68262l.32031-1.47167c2.1123-.32032,5.376-3.83985,9.08691-9.66309L758.00879,249.396h14.59082l5.63184,41.21338h2.36816l-.32031,1.47167Zm.76758-34.49316-11.13477,19.90234h13.82324Z"/>
      <path class="a083aca7-6ce1-49cf-a0ec-0d73860d5271" d="M835.38184,284.91406a16.17622,16.17622,0,0,1-2.752,4.99121c-1.91992,2.04785-4.543,3.07129-8.12695,3.07129a16.59533,16.59533,0,0,1-7.04-1.34375,7.21862,7.21862,0,0,1-3.3916-6.52734,72.1977,72.1977,0,0,1,1.792-10.62305,10.16746,10.16746,0,0,0,.19238-1.85547,2.19238,2.19238,0,0,0-1.792-2.17675,12.25053,12.25053,0,0,0-2.624-.12793c-.44824,0-.89551,0-1.66406.06445l-4.28711,20.22266h4.22363l-.32031,1.47167h-27.582l.32031-1.47167h4.99121l8.44726-39.74122h-4.99121l.31934-1.47216H826.167c8.38281,0,11.45508,1.98388,11.45508,7.42334a13.11283,13.11283,0,0,1-4.03223,9.47168,14.87682,14.87682,0,0,1-5.75976,3.32812,24.42784,24.42784,0,0,1,2.94433,1.34375,5.59393,5.59393,0,0,1,2.55957,4.86328c0,1.53613-.06347,1.98438-1.5996,7.67969a13.89114,13.89114,0,0,0-.51172,2.6875.82425.82425,0,0,0,.83105.89648c.7041,0,1.28027-.76855,1.98438-2.56054ZM810.2959,268.85059c5.375.12793,6.71972-.63965,7.74316-4.54395l1.91992-9.02246a9.2256,9.2256,0,0,0,.25586-1.92041c0-1.98389-.832-2.49561-3.96777-2.49561h-2.17578Z"/>
      <path class="a083aca7-6ce1-49cf-a0ec-0d73860d5271" d="M878.2627,284.59375c-6.335,6.207-11.9668,8.76758-19.19825,8.76758-11.07129,0-18.30273-6.84766-18.30273-17.2793A29.4744,29.4744,0,0,1,850.169,255.0918a26.93629,26.93629,0,0,1,18.30273-6.97559c4.416,0,6.91211.896,10.04785,3.584l7.23145-3.584-3.71192,17.59863h-1.47168a18.19775,18.19775,0,0,0,.31934-3.45605c0-6.46289-5.31152-12.22266-11.2627-12.22266a4.63284,4.63284,0,0,0-3.96777,1.91992c-.64063.832-1.02441,1.91993-1.59961,4.4795l-5.95215,28.1582a14.57786,14.57786,0,0,0-.44824,3.00781q0,3.83936,4.03223,3.83985c5.05566,0,10.04687-2.56055,15.29492-7.87207Z"/>
      <path class="a083aca7-6ce1-49cf-a0ec-0d73860d5271" d="M907.76953,292.08105l.32031-1.47167h3.19922l4.28809-20.03126h-7.48731l-4.22363,20.03126h3.19922l-.31934,1.47167H880.1875l.32031-1.47167H885.499l8.44727-39.74122h-4.99121l.31933-1.47216H915.833l-.32031,1.47216H912.249l-3.83984,18.23829h7.4873l3.83985-18.23829h-3.19922l.31934-1.47216H943.415l-.32031,1.47216h-4.99121l-8.44727,39.74122h4.99121l-.32031,1.47167Z"/>
      <path class="a083aca7-6ce1-49cf-a0ec-0d73860d5271" d="M297.27441,361.71289a16.19248,16.19248,0,0,1-2.75195,4.99219c-1.91992,2.04785-4.54394,3.07129-8.12793,3.07129a16.59371,16.59371,0,0,1-7.03906-1.34375,7.21862,7.21862,0,0,1-3.3916-6.52735,72.05393,72.05393,0,0,1,1.792-10.623,10.16158,10.16158,0,0,0,.19141-1.85645,2.19213,2.19213,0,0,0-1.792-2.17578,12.23994,12.23994,0,0,0-2.624-.12793c-.44727,0-.89551,0-1.66309.06445l-4.28808,20.22266h4.22363l-.31933,1.47168H243.90186l.31982-1.47168h4.9917l8.44775-39.74121h-4.9917l.31983-1.47168h35.06933c8.38379,0,11.45508,1.9834,11.45508,7.42285a13.11191,13.11191,0,0,1-4.03125,9.47168,14.877,14.877,0,0,1-5.75976,3.32813,24.31127,24.31127,0,0,1,2.94336,1.34375,5.59255,5.59255,0,0,1,2.56054,4.86328c0,1.53613-.06445,1.98437-1.60058,7.67968a13.96967,13.96967,0,0,0-.51172,2.6875.825.825,0,0,0,.832.89649c.7041,0,1.28027-.76856,1.9834-2.56055Zm-25.08691-16.0625c5.376.12793,6.71973-.63965,7.74414-4.54394l1.91992-9.02247a9.29812,9.29812,0,0,0,.25586-1.91992c0-1.98437-.832-2.49609-3.96777-2.49609h-2.17578Z"/>
      <path class="a083aca7-6ce1-49cf-a0ec-0d73860d5271" d="M297.72656,368.88086l.32032-1.47168h4.99121l8.44726-39.74121h-4.99121l.31934-1.47168H347.835l-2.87988,13.43848h-1.4082a15.2963,15.2963,0,0,0,.19238-1.9834,10.06472,10.06472,0,0,0-4.99121-8.44727c-2.24024-1.21582-4.03223-1.53613-8.96-1.53613l-3.90332,18.49414h1.34375c4.7998-.06348,8.57519-4.03125,9.5996-9.98242h1.34376l-4.54395,21.24609h-1.34375a14.94906,14.94906,0,0,0,.44824-3.13574c0-3.9043-2.36816-6.5918-5.88769-6.5918h-1.28028l-4.15918,19.71094a22.26789,22.26789,0,0,0,20.73438-14.27148h1.34375l-3.32813,15.74316Z"/>
      <path class="a083aca7-6ce1-49cf-a0ec-0d73860d5271" d="M393.40137,351.1543l-4.22364,19.77441-3.83984-4.99121a29.08388,29.08388,0,0,1-15.93457,4.22363c-12.03125,0-19.71094-6.71972-19.71094-17.15136,0-8.959,5.56739-18.94239,13.1836-23.87012a30.39974,30.39974,0,0,1,15.87011-4.22363c4.79981,0,7.48731.832,11.19922,3.584l7.10352-3.584-3.51953,16.63867h-1.40821a14.56779,14.56779,0,0,0,.32032-3.00781,11.88084,11.88084,0,0,0-3.13575-7.55079,11.34305,11.34305,0,0,0-8.8955-4.16015c-3.96778,0-5.43946,1.4082-6.46387,6.0791l-6.52734,30.6543a14.17762,14.17762,0,0,0-.25586,1.98339v.38477a2.26124,2.26124,0,0,0,2.55957,2.30371c2.43261,0,4.0957-1.85644,4.86425-5.31152L377.082,351.1543h-3.26367l.32031-1.47168h22.59082l-.32031,1.47168Z"/>
      <path class="a083aca7-6ce1-49cf-a0ec-0d73860d5271" d="M395.709,368.88086l.32032-1.47168h4.99121l8.44726-39.74121h-4.99121l.31934-1.47168h28.542l-.31934,1.47168h-4.99218l-8.38282,39.74121h4.99122l-.32032,1.47168Z"/>
      <path class="a083aca7-6ce1-49cf-a0ec-0d73860d5271" d="M467.57715,339.69922a14.09352,14.09352,0,0,0,.25586-2.68848c0-3.32715-1.21582-5.56738-4.16016-7.87109a14.00749,14.00749,0,0,0-7.999-2.55957c-3.64746,0-6.52735,2.55957-6.52735,5.75976a3.38572,3.38572,0,0,0,1.0879,2.36719c.8955.832,1.21582,1.02442,5.11914,3.45606,9.27929,5.69531,11.71093,8.44726,11.71093,13.43945a17.428,17.428,0,0,1-7.167,13.82226,28.52532,28.52532,0,0,1-15.4873,4.73633c-4.03125,0-6.71875-1.02441-10.23926-4.03222l-6.52735,3.83984,3.71192-17.34277h1.59961a22.22957,22.22957,0,0,0-.51172,4.28808c0,3.19922,1.47168,6.01563,4.416,8.63867a11.50271,11.50271,0,0,0,7.29492,2.68848c4.67187,0,8.25586-2.624,8.25586-6.01562a4.29585,4.29585,0,0,0-1.53614-3.00782c-1.15136-1.08789-1.28027-1.15234-6.59179-4.28808-6.07911-3.584-9.08692-7.61524-9.08692-12.22266,0-4.22363,2.24024-8.96,5.82324-12.35156a21.0858,21.0858,0,0,1,14.01563-5.43945,15.363,15.363,0,0,1,10.55859,3.584l6.71973-3.584-3.13574,14.7832Z"/>
      <path class="a083aca7-6ce1-49cf-a0ec-0d73860d5271" d="M474.29883,368.88086l.32031-1.47168h5.69531l8.44727-39.74121c-7.29492,2.6875-11.9668,6.91113-14.7832,13.375h-1.47168l3.13574-14.84668h45.05273L517.49609,341.043h-1.47265a5.58942,5.58942,0,0,0,.06445-.89649,13.54244,13.54244,0,0,0-9.02344-12.47851l-8.38281,39.74121H504.377l-.32031,1.47168Z"/>
      <path class="a083aca7-6ce1-49cf-a0ec-0d73860d5271" d="M567.6709,361.71289a16.17216,16.17216,0,0,1-2.75195,4.99219c-1.91993,2.04785-4.543,3.07129-8.127,3.07129a16.5954,16.5954,0,0,1-7.04-1.34375,7.21862,7.21862,0,0,1-3.3916-6.52735,72.19744,72.19744,0,0,1,1.792-10.623,10.16915,10.16915,0,0,0,.19239-1.85645,2.19213,2.19213,0,0,0-1.792-2.17578,12.25053,12.25053,0,0,0-2.624-.12793c-.44824,0-.89551,0-1.66406.06445l-4.28711,20.22266h4.22363l-.32031,1.47168h-27.582l.32031-1.47168h4.99121l8.44727-39.74121h-4.99121l.31933-1.47168h35.07031c8.38282,0,11.45508,1.9834,11.45508,7.42285a13.11282,13.11282,0,0,1-4.03222,9.47168,14.87708,14.87708,0,0,1-5.75977,3.32813,24.42574,24.42574,0,0,1,2.94434,1.34375,5.59392,5.59392,0,0,1,2.55957,4.86328c0,1.53613-.06348,1.98437-1.59961,7.67968a13.89114,13.89114,0,0,0-.51172,2.6875.82426.82426,0,0,0,.83105.89649c.70411,0,1.28028-.76856,1.98438-2.56055ZM542.585,345.65039c5.375.12793,6.71973-.63965,7.74316-4.54394l1.91993-9.02247a9.23027,9.23027,0,0,0,.25586-1.91992c0-1.98437-.832-2.49609-3.96778-2.49609h-2.17578Z"/>
      <path class="a083aca7-6ce1-49cf-a0ec-0d73860d5271" d="M622.583,327.668c-3.13574,1.21582-6.39942,4.0957-10.30371,9.21484l-8.51075,11.00781-4.16015,19.51856h5.75976l-.32031,1.47168H575.6748l.31934-1.47168h5.31152l3.2002-15.167L576.37793,327.668h-2.6875l.32031-1.47168H602.168l-.31934,1.47168h-4.60742l6.01465,18.30273,6.46387-8.38379c1.91992-2.49511,2.94433-4.67187,2.94433-6.27148a3.35776,3.35776,0,0,0-1.4082-3.00781c-.63965-.38379-1.28027-.51172-3.2002-.63965l.32032-1.47168h14.52734Z"/>
    </g>
  </g>
</svg>
