<svg id="fcb17543-c5e8-4110-8c19-9f59a7befc4f" data-name="Layer 1" xmlns="http://www.w3.org/2000/svg" width="943.41895" height="500" viewBox="0 0 943.41895 500">
  <defs>
    <style>
      .a54ffce8-2ca3-4dab-baf7-b09338da58c5 {
        opacity: 0.1;
      }

      .b932586d-4352-4984-bafd-3761adfee05e {
        fill: #319fbd;
      }

      .ea77adf7-2355-4bdc-bc49-0f6e5f9af9a0 {
        fill: #fff;
      }
    </style>
  </defs>
  <title>STAR_DRIVE-logo_starburst-white</title>
  <g class="a54ffce8-2ca3-4dab-baf7-b09338da58c5">
    <path class="b932586d-4352-4984-bafd-3761adfee05e" d="M75.00949,248.5H0v3H75.00949C75.00528,251.00024,75,250.50076,75,250S75.00528,248.99976,75.00949,248.5Z"/>
    <path class="b932586d-4352-4984-bafd-3761adfee05e" d="M424.99048,251.5H500v-3H424.99048c.00427.49976.00952.99924.00952,1.5S424.99475,251.00024,424.99048,251.5Z"/>
    <path class="b932586d-4352-4984-bafd-3761adfee05e" d="M248.5,424.99051V500h3V424.99051c-.49976.00421-.99924.00949-1.5.00949S248.99976,424.99472,248.5,424.99051Z"/>
    <path class="b932586d-4352-4984-bafd-3761adfee05e" d="M251.5,75.00949V0h-3V75.00949c.49976-.00421.99924-.00949,1.5-.00949S251.00024,75.00528,251.5,75.00949Z"/>
    <path class="b932586d-4352-4984-bafd-3761adfee05e" d="M125.20221,372.67694,72.16284,425.71631l2.1211,2.12109L127.3233,374.798Q126.25374,373.74652,125.20221,372.67694Z"/>
    <path class="b932586d-4352-4984-bafd-3761adfee05e" d="M374.798,127.3233,427.8374,74.28394l-2.12109-2.1211-53.03937,53.03937Q373.74655,126.2537,374.798,127.3233Z"/>
    <path class="b932586d-4352-4984-bafd-3761adfee05e" d="M372.67682,374.79791l53.03949,53.03949,2.12109-2.12109-53.03949-53.03949Q373.74643,373.74638,372.67682,374.79791Z"/>
    <path class="b932586d-4352-4984-bafd-3761adfee05e" d="M127.32318,125.20209,74.28394,72.16284l-2.1211,2.1211,53.03925,53.03924Q126.25358,126.25362,127.32318,125.20209Z"/>
    <path class="b932586d-4352-4984-bafd-3761adfee05e" d="M18.45605,344.28516l1.14795,2.77148,69.25666-28.687q-.586-1.37947-1.148-2.77149Z"/>
    <path class="b932586d-4352-4984-bafd-3761adfee05e" d="M481.544,155.71484l-1.14844-2.77148-69.25623,28.68689q.58613,1.37952,1.14807,2.77161Z"/>
    <path class="b932586d-4352-4984-bafd-3761adfee05e" d="M480.39551,347.05664l1.14844-2.77148-69.2566-28.687q-.563,1.39152-1.14807,2.77161Z"/>
    <path class="b932586d-4352-4984-bafd-3761adfee05e" d="M19.604,152.94336l-1.14795,2.77148,69.25657,28.68705q.563-1.39143,1.148-2.77149Z"/>
    <path class="b932586d-4352-4984-bafd-3761adfee05e" d="M347.05664,19.604l-2.77148-1.14795-28.687,69.25657q1.39143.563,2.77149,1.148Z"/>
    <path class="b932586d-4352-4984-bafd-3761adfee05e" d="M152.94336,480.39551l2.77148,1.14844,28.687-69.2566q-1.39152-.563-2.77161-1.14807Z"/>
    <path class="b932586d-4352-4984-bafd-3761adfee05e" d="M155.71484,18.45605,152.94336,19.604l28.687,69.25666q1.37947-.586,2.77149-1.148Z"/>
    <path class="b932586d-4352-4984-bafd-3761adfee05e" d="M344.28516,481.544l2.77148-1.14844-28.68689-69.25623q-1.37952.58608-2.77161,1.14807Z"/>
    <path class="b932586d-4352-4984-bafd-3761adfee05e" d="M495.48877,202.69873l-.585-2.94238L421.371,214.38287q.30331,1.467.58173,2.94306Z"/>
    <path class="b932586d-4352-4984-bafd-3761adfee05e" d="M4.511,297.30127l.58545,2.94238L78.629,285.61716q-.30336-1.46709-.58173-2.94312Z"/>
    <path class="b932586d-4352-4984-bafd-3761adfee05e" d="M202.69873,4.511l-2.94238.58545L214.38284,78.629q1.46709-.30336,2.94312-.5817Z"/>
    <path class="b932586d-4352-4984-bafd-3761adfee05e" d="M297.30127,495.48877l2.94238-.585L285.61713,421.371q-1.467.30336-2.94306.5817Z"/>
    <path class="b932586d-4352-4984-bafd-3761adfee05e" d="M390.13965,42.96606l-2.49414-1.66674-41.66083,62.34973q1.254.82411,2.49152,1.67074Z"/>
    <path class="b932586d-4352-4984-bafd-3761adfee05e" d="M109.86011,457.03369l2.49438,1.667,41.6608-62.34973q-1.25409-.82416-2.49173-1.6709Z"/>
    <path class="b932586d-4352-4984-bafd-3761adfee05e" d="M457.03369,390.13965l1.667-2.49414L396.351,345.98468q-.82416,1.254-1.67077,2.49161Z"/>
    <path class="b932586d-4352-4984-bafd-3761adfee05e" d="M42.96606,109.86011l-1.66674,2.49438,62.34973,41.6608q.82411-1.254,1.67084-2.49164Z"/>
    <path class="b932586d-4352-4984-bafd-3761adfee05e" d="M458.70068,112.35449l-1.667-2.49438-62.35364,41.66345q.845,1.23894,1.6709,2.49173Z"/>
    <path class="b932586d-4352-4984-bafd-3761adfee05e" d="M41.29932,387.64551l1.66674,2.49414,62.35373-41.66345q-.84489-1.23885-1.67074-2.49155Z"/>
    <path class="b932586d-4352-4984-bafd-3761adfee05e" d="M5.09644,199.7561,4.511,202.69849,78.0473,217.32578q.27873-1.47588.58173-2.94312Z"/>
    <path class="b932586d-4352-4984-bafd-3761adfee05e" d="M494.90381,300.24365l.585-2.94238-73.536-14.62723q-.27877,1.47588-.58173,2.943Z"/>
    <path class="b932586d-4352-4984-bafd-3761adfee05e" d="M300.24365,5.09644,297.30127,4.511,282.674,78.04727q1.47593.27873,2.94306.5817Z"/>
    <path class="b932586d-4352-4984-bafd-3761adfee05e" d="M199.7561,494.90381l2.94239.585,14.62725-73.53607q-1.47586-.27873-2.943-.58173Z"/>
    <path class="b932586d-4352-4984-bafd-3761adfee05e" d="M112.35449,41.29932l-2.49438,1.66674,41.66354,62.35383q1.23894-.8449,2.49164-1.67084Z"/>
    <path class="b932586d-4352-4984-bafd-3761adfee05e" d="M387.64551,458.70068l2.49414-1.667-41.66333-62.35354q-1.239.84489-2.49164,1.6708Z"/>
    <path class="b932586d-4352-4984-bafd-3761adfee05e" d="M498.94336,226.98853l-.29395-2.98536L424.0152,231.354c.10516.993.205,1.98752.29345,2.98539Z"/>
    <path class="b932586d-4352-4984-bafd-3761adfee05e" d="M1.05688,273.01172l.29395,2.98535,74.634-7.3508c-.10519-.993-.205-1.98755-.29348-2.98541Z"/>
    <path class="b932586d-4352-4984-bafd-3761adfee05e" d="M273.01172,498.94336l2.98535-.29395-7.35083-74.63424c-.993.10519-1.98755.205-2.98538.29348Z"/>
    <path class="b932586d-4352-4984-bafd-3761adfee05e" d="M226.98853,1.05688l-2.98536.29395,7.3508,74.634c.993-.10516,1.98752-.205,2.98539-.29345Z"/>
    <path class="b932586d-4352-4984-bafd-3761adfee05e" d="M409.75781,57.699l-2.31933-1.90332-47.58045,57.977q1.16739.94259,2.3169,1.90616Z"/>
    <path class="b932586d-4352-4984-bafd-3761adfee05e" d="M90.24219,442.30078,92.561,444.2041l47.58056-57.977q-1.1673-.94254-2.31671-1.906Z"/>
    <path class="b932586d-4352-4984-bafd-3761adfee05e" d="M57.699,90.24219,55.79565,92.561l57.97721,47.58068q.94253-1.16724,1.906-2.31674Z"/>
    <path class="b932586d-4352-4984-bafd-3761adfee05e" d="M442.30078,409.75781l1.90332-2.31933-57.97681-47.58033q-.94261,1.16739-1.90618,2.31693Z"/>
    <path class="b932586d-4352-4984-bafd-3761adfee05e" d="M471.1875,133.47388l-1.41406-2.646-66.12281,35.34338q.71934,1.31553,1.41675,2.64451Z"/>
    <path class="b932586d-4352-4984-bafd-3761adfee05e" d="M28.81274,366.52637l1.41407,2.64551L96.34933,333.8287q-.71919-1.31538-1.41656-2.64422Z"/>
    <path class="b932586d-4352-4984-bafd-3761adfee05e" d="M11.2002,175.99341l-.87085,2.8706,71.73581,21.7609q.42288-1.44063.86825-2.87146Z"/>
    <path class="b932586d-4352-4984-bafd-3761adfee05e" d="M488.79932,324.00684l.87109-2.8711L417.93488,299.375q-.4229,1.44081-.86835,2.87186Z"/>
    <path class="b932586d-4352-4984-bafd-3761adfee05e" d="M324.00684,11.2002l-2.8711-.87085-21.7608,71.73574q1.44076.42294,2.87176.86838Z"/>
    <path class="b932586d-4352-4984-bafd-3761adfee05e" d="M175.99341,488.79932l2.8706.87109,21.76084-71.73557q-1.44063-.42292-2.87152-.86828Z"/>
    <path class="b932586d-4352-4984-bafd-3761adfee05e" d="M366.52637,471.1875l2.64551-1.41406-35.34327-66.12271q-1.31543.71914-2.64428,1.41656Z"/>
    <path class="b932586d-4352-4984-bafd-3761adfee05e" d="M133.47388,28.81274l-2.646,1.41407L166.17114,96.3494q1.31553-.71925,2.64453-1.41672Z"/>
    <path class="b932586d-4352-4984-bafd-3761adfee05e" d="M10.32935,321.13574l.87085,2.8711,71.73327-21.76007q-.44687-1.43039-.86838-2.8718Z"/>
    <path class="b932586d-4352-4984-bafd-3761adfee05e" d="M489.67041,178.86426l-.87109-2.87061-71.73267,21.75986q.44678,1.43023.86829,2.87152Z"/>
    <path class="b932586d-4352-4984-bafd-3761adfee05e" d="M178.86426,10.32935l-2.87061.87085,21.76,71.73315q1.43024-.44678,2.87146-.86826Z"/>
    <path class="b932586d-4352-4984-bafd-3761adfee05e" d="M321.13574,489.67041l2.8711-.87109-21.76-71.73282q-1.43043.44687-2.87189.86838Z"/>
    <path class="b932586d-4352-4984-bafd-3761adfee05e" d="M130.82788,469.77344l2.646,1.41406,35.34189-66.12012q-1.32907-.69726-2.64451-1.41671Z"/>
    <path class="b932586d-4352-4984-bafd-3761adfee05e" d="M369.17188,30.22681l-2.64551-1.41407-35.34192,66.12q1.329.69717,2.64429,1.41659Z"/>
    <path class="b932586d-4352-4984-bafd-3761adfee05e" d="M469.77344,369.17188l1.41406-2.64551-66.12024-35.342q-.69708,1.32892-1.4165,2.64425Z"/>
    <path class="b932586d-4352-4984-bafd-3761adfee05e" d="M30.22681,130.82788l-1.41407,2.646,66.11994,35.34179q.69726-1.32906,1.41672-2.64453Z"/>
    <path class="b932586d-4352-4984-bafd-3761adfee05e" d="M444.2041,92.561l-1.90332-2.31885L384.321,137.82489q.962,1.15068,1.906,2.31671Z"/>
    <path class="b932586d-4352-4984-bafd-3761adfee05e" d="M55.79565,407.43848l1.90332,2.31933L115.6788,362.175q-.96209-1.15077-1.90616-2.31693Z"/>
    <path class="b932586d-4352-4984-bafd-3761adfee05e" d="M498.64941,275.99707l.29395-2.98535-74.63471-7.351c-.0885.99786-.18829,1.99246-.29351,2.98544Z"/>
    <path class="b932586d-4352-4984-bafd-3761adfee05e" d="M1.35083,224.00269l-.29395,2.98559,74.63447,7.35089c.0885-.998.18832-1.99255.29351-2.98559Z"/>
    <path class="b932586d-4352-4984-bafd-3761adfee05e" d="M224.00269,498.64941l2.98559.29395,7.35092-74.63471c-.99792-.0885-1.99258-.18832-2.98562-.29351Z"/>
    <path class="b932586d-4352-4984-bafd-3761adfee05e" d="M275.99707,1.35083l-2.98535-.29395L265.6608,75.69135c.99786.0885,1.99246.18832,2.98544.29348Z"/>
    <path class="b932586d-4352-4984-bafd-3761adfee05e" d="M407.43848,444.2041l2.31933-1.90332-47.58276-57.9797q-1.15073.96207-2.3169,1.90618Z"/>
    <path class="b932586d-4352-4984-bafd-3761adfee05e" d="M92.561,55.79565,90.24219,57.699,137.825,115.67883q1.15063-.962,2.31674-1.906Z"/>
  </g>
  <g>
    <path class="ea77adf7-2355-4bdc-bc49-0f6e5f9af9a0" d="M266.044,292.08105l.32031-1.47167h4.86328l-1.53516-11.64747H254.84521a12.637,12.637,0,0,0-1.60009,6.01563c0,3.90332,1.856,5.56738,6.27148,5.63184l-.31933,1.47167h-16.5752l.31982-1.47167c2.11182-.32032,5.37549-3.83985,9.08741-9.66309L269.94824,249.396h14.59082l5.63184,41.21338h2.36719l-.31934,1.47167Zm.76855-34.49316-11.13525,19.90234H269.5Z"/>
    <path class="ea77adf7-2355-4bdc-bc49-0f6e5f9af9a0" d="M346.42578,250.86816c-4.0957,0-7.61523,4.416-9.15137,11.32715l-4.03125,19.00684c-1.60058,7.42285-8.57519,12.15918-18.04687,12.15918a36.18666,36.18666,0,0,1-10.623-1.72852c-4.67187-1.59961-7.10351-4.15918-7.10351-7.42285a14.94509,14.94509,0,0,1,.44824-3.3916l6.335-29.9502h-4.99121l.31933-1.47216H327.419l-.31934,1.47216h-4.47949L315.38867,285.042a13.47932,13.47932,0,0,0-.44824,3.07129c0,1.85547,1.2793,2.81543,3.77539,2.81543a15.35621,15.35621,0,0,0,8.76758-3.19922,11.16074,11.16074,0,0,0,4.15918-7.168l3.52051-16.44629a25.06113,25.06113,0,0,0,.832-6.33593c0-4.99121-1.47266-6.78321-5.82422-6.91114l.32031-1.47216h16.25488Z"/>
    <path class="ea77adf7-2355-4bdc-bc49-0f6e5f9af9a0" d="M347.709,292.08105l.32032-1.47167h5.69531l8.44727-39.74122c-7.29493,2.6875-11.9668,6.91114-14.78321,13.375H345.917l3.13574-14.84716h45.05274l-3.19922,14.84716h-1.47266a5.5884,5.5884,0,0,0,.06446-.89648,13.543,13.543,0,0,0-9.02344-12.47852l-8.38281,39.74122h5.69531l-.32031,1.47167Z"/>
    <path class="ea77adf7-2355-4bdc-bc49-0f6e5f9af9a0" d="M387.709,292.08105l.32032-1.47167h4.99121l8.44726-39.74122h-4.99121l.31934-1.47216h28.542l-.31934,1.47216h-4.99218l-8.38282,39.74122h4.99122l-.32032,1.47167Z"/>
    <path class="ea77adf7-2355-4bdc-bc49-0f6e5f9af9a0" d="M459.57715,262.89941a14.09342,14.09342,0,0,0,.25586-2.68847c0-3.32715-1.21582-5.56739-4.16016-7.8711a14.01112,14.01112,0,0,0-7.999-2.55957c-3.64746,0-6.52735,2.55957-6.52735,5.75977a3.38575,3.38575,0,0,0,1.0879,2.36719c.8955.832,1.21582,1.02441,5.11914,3.456,9.27929,5.69531,11.71093,8.44727,11.71093,13.43945a17.428,17.428,0,0,1-7.167,13.82227,28.5254,28.5254,0,0,1-15.4873,4.73633c-4.03125,0-6.71875-1.02442-10.23926-4.03223l-6.52735,3.83985,3.71192-17.34278h1.59961a22.22957,22.22957,0,0,0-.51172,4.28809c0,3.19922,1.47168,6.01562,4.416,8.63867a11.50276,11.50276,0,0,0,7.29492,2.68848c4.67187,0,8.25586-2.624,8.25586-6.01563A4.29585,4.29585,0,0,0,442.874,282.418c-1.15136-1.08789-1.28027-1.15235-6.59179-4.28809-6.07911-3.584-9.08692-7.61523-9.08692-12.22265,0-4.22364,2.24024-8.96,5.82324-12.35157a21.0858,21.0858,0,0,1,14.01563-5.43945,15.36542,15.36542,0,0,1,10.55859,3.584l6.71973-3.584-3.13574,14.7832Z"/>
    <path class="ea77adf7-2355-4bdc-bc49-0f6e5f9af9a0" d="M495.22559,292.08105l.31933-1.47167H500.793l7.4873-35.19727-22.01465,36.66894h-4.15917l-6.65528-36.66894-4.86426,22.6543a37.3032,37.3032,0,0,0-.7041,5.88769c0,4.543,1.66407,6.59082,5.376,6.59082h.7041l-.32031,1.53613H459.19629l.31933-1.47167c3.9043.1914,7.61622-4.60743,9.0879-11.51954l5.43945-25.66211-.832-2.55957h-4.15918l.31933-1.47216h24.0625l4.09571,21.24658L510.32812,249.396H532.919l-.32032,1.47216h-4.99121l-8.44726,39.74122h4.99121l-.32032,1.47167Z"/>
    <path class="ea77adf7-2355-4bdc-bc49-0f6e5f9af9a0" d="M596.21582,284.91406a16.17645,16.17645,0,0,1-2.75195,4.99121c-1.91992,2.04785-4.543,3.07129-8.127,3.07129a16.59532,16.59532,0,0,1-7.04-1.34375,7.2186,7.2186,0,0,1-3.39161-6.52734,72.19832,72.19832,0,0,1,1.792-10.62305,10.16746,10.16746,0,0,0,.19238-1.85547,2.19238,2.19238,0,0,0-1.792-2.17675,12.2507,12.2507,0,0,0-2.624-.12793c-.44824,0-.89551,0-1.66406.06445l-4.28711,20.22266h4.22363l-.32031,1.47167h-27.582l.32031-1.47167h4.99121l8.44727-39.74122h-4.99121l.31933-1.47216H587.001c8.38281,0,11.45507,1.98388,11.45507,7.42334a13.11282,13.11282,0,0,1-4.03222,9.47168,14.8768,14.8768,0,0,1-5.75977,3.32812,24.429,24.429,0,0,1,2.94434,1.34375,5.59393,5.59393,0,0,1,2.55957,4.86328c0,1.53613-.06348,1.98438-1.59961,7.67969a13.89194,13.89194,0,0,0-.51172,2.6875.82426.82426,0,0,0,.83106.89648c.7041,0,1.28027-.76855,1.98437-2.56054Zm-25.08594-16.06347c5.375.12793,6.71973-.63965,7.74317-4.54395l1.91992-9.02246a9.22629,9.22629,0,0,0,.25586-1.92041c0-1.98389-.832-2.49561-3.96778-2.49561h-2.17578Z"/>
    <path class="ea77adf7-2355-4bdc-bc49-0f6e5f9af9a0" d="M596.668,292.08105l.32031-1.47167h4.99121l8.44727-39.74122h-4.99121l.31933-1.47216h41.02149l-2.87989,13.439h-1.4082a15.29434,15.29434,0,0,0,.19238-1.9834,10.06613,10.06613,0,0,0-4.99121-8.44775c-2.24023-1.21582-4.03222-1.53565-8.96-1.53565l-3.90332,18.49414h1.34375c4.79981-.06347,8.5752-4.03125,9.59961-9.98242h1.34375l-4.54394,21.2461h-1.34375a14.94914,14.94914,0,0,0,.44824-3.13575c0-3.90429-2.36817-6.59179-5.8877-6.59179h-1.28027l-4.15918,19.71094a22.26789,22.26789,0,0,0,20.73437-14.27149h1.34375l-3.32812,15.74316Z"/>
    <path class="ea77adf7-2355-4bdc-bc49-0f6e5f9af9a0" d="M684.665,262.89941a14.09261,14.09261,0,0,0,.25586-2.68847c0-3.32715-1.21582-5.56739-4.16016-7.8711a14.01112,14.01112,0,0,0-7.999-2.55957c-3.64746,0-6.52734,2.55957-6.52734,5.75977a3.38574,3.38574,0,0,0,1.08789,2.36719c.8955.832,1.21582,1.02441,5.11914,3.456,9.27929,5.69531,11.71093,8.44727,11.71093,13.43945a17.428,17.428,0,0,1-7.167,13.82227,28.5254,28.5254,0,0,1-15.4873,4.73633c-4.03125,0-6.71875-1.02442-10.23926-4.03223l-6.52734,3.83985,3.71191-17.34278H650.043a22.22957,22.22957,0,0,0-.51172,4.28809c0,3.19922,1.47168,6.01562,4.416,8.63867a11.50276,11.50276,0,0,0,7.29492,2.68848c4.67187,0,8.25586-2.624,8.25586-6.01563a4.29585,4.29585,0,0,0-1.53614-3.00781c-1.15136-1.08789-1.28027-1.15235-6.59179-4.28809-6.0791-3.584-9.08692-7.61523-9.08692-12.22265,0-4.22364,2.24024-8.96,5.82325-12.35157a21.08575,21.08575,0,0,1,14.01562-5.43945,15.36542,15.36542,0,0,1,10.55859,3.584l6.71973-3.584-3.13574,14.7832Z"/>
    <path class="ea77adf7-2355-4bdc-bc49-0f6e5f9af9a0" d="M684.92188,292.08105l.32031-1.47167h4.99121l8.44726-39.74122h-4.99121l.31934-1.47216h41.02148l-2.87988,13.439h-1.4082a15.29434,15.29434,0,0,0,.19238-1.9834,10.06616,10.06616,0,0,0-4.99121-8.44775c-2.24024-1.21582-4.03223-1.53565-8.96-1.53565l-3.90332,18.49414h1.34375c4.7998-.06347,8.57519-4.03125,9.59961-9.98242h1.34375l-4.54395,21.2461h-1.34375a14.94914,14.94914,0,0,0,.44824-3.13575c0-3.90429-2.36816-6.59179-5.88769-6.59179h-1.28027l-4.15918,19.71094A22.26789,22.26789,0,0,0,729.335,276.33789h1.34375l-3.32812,15.74316Z"/>
    <path class="ea77adf7-2355-4bdc-bc49-0f6e5f9af9a0" d="M754.10547,292.08105l.32031-1.47167h4.86328l-1.53613-11.64747H742.90625a12.6357,12.6357,0,0,0-1.59961,6.01563c0,3.90332,1.85547,5.56738,6.27148,5.63184l-.32031,1.47167H730.68262l.32031-1.47167c2.1123-.32032,5.376-3.83985,9.08691-9.66309L758.00879,249.396h14.59082l5.63184,41.21338h2.36816l-.32031,1.47167Zm.76758-34.49316-11.13477,19.90234h13.82324Z"/>
    <path class="ea77adf7-2355-4bdc-bc49-0f6e5f9af9a0" d="M835.38184,284.91406a16.17622,16.17622,0,0,1-2.752,4.99121c-1.91992,2.04785-4.543,3.07129-8.12695,3.07129a16.59533,16.59533,0,0,1-7.04-1.34375,7.21862,7.21862,0,0,1-3.3916-6.52734,72.1977,72.1977,0,0,1,1.792-10.62305,10.16746,10.16746,0,0,0,.19238-1.85547,2.19238,2.19238,0,0,0-1.792-2.17675,12.25053,12.25053,0,0,0-2.624-.12793c-.44824,0-.89551,0-1.66406.06445l-4.28711,20.22266h4.22363l-.32031,1.47167h-27.582l.32031-1.47167h4.99121l8.44726-39.74122h-4.99121l.31934-1.47216H826.167c8.38281,0,11.45508,1.98388,11.45508,7.42334a13.11283,13.11283,0,0,1-4.03223,9.47168,14.87682,14.87682,0,0,1-5.75976,3.32812,24.42784,24.42784,0,0,1,2.94433,1.34375,5.59393,5.59393,0,0,1,2.55957,4.86328c0,1.53613-.06347,1.98438-1.5996,7.67969a13.89114,13.89114,0,0,0-.51172,2.6875.82425.82425,0,0,0,.83105.89648c.7041,0,1.28027-.76855,1.98438-2.56054ZM810.2959,268.85059c5.375.12793,6.71972-.63965,7.74316-4.54395l1.91992-9.02246a9.2256,9.2256,0,0,0,.25586-1.92041c0-1.98389-.832-2.49561-3.96777-2.49561h-2.17578Z"/>
    <path class="ea77adf7-2355-4bdc-bc49-0f6e5f9af9a0" d="M878.2627,284.59375c-6.335,6.207-11.9668,8.76758-19.19825,8.76758-11.07129,0-18.30273-6.84766-18.30273-17.2793A29.4744,29.4744,0,0,1,850.169,255.0918a26.93629,26.93629,0,0,1,18.30273-6.97559c4.416,0,6.91211.896,10.04785,3.584l7.23145-3.584-3.71192,17.59863h-1.47168a18.19775,18.19775,0,0,0,.31934-3.45605c0-6.46289-5.31152-12.22266-11.2627-12.22266a4.63284,4.63284,0,0,0-3.96777,1.91992c-.64063.832-1.02441,1.91993-1.59961,4.4795l-5.95215,28.1582a14.57786,14.57786,0,0,0-.44824,3.00781q0,3.83936,4.03223,3.83985c5.05566,0,10.04687-2.56055,15.29492-7.87207Z"/>
    <path class="ea77adf7-2355-4bdc-bc49-0f6e5f9af9a0" d="M907.76953,292.08105l.32031-1.47167h3.19922l4.28809-20.03126h-7.48731l-4.22363,20.03126h3.19922l-.31934,1.47167H880.1875l.32031-1.47167H885.499l8.44727-39.74122h-4.99121l.31933-1.47216H915.833l-.32031,1.47216H912.249l-3.83984,18.23829h7.4873l3.83985-18.23829h-3.19922l.31934-1.47216H943.415l-.32031,1.47216h-4.99121l-8.44727,39.74122h4.99121l-.32031,1.47167Z"/>
    <path class="ea77adf7-2355-4bdc-bc49-0f6e5f9af9a0" d="M297.27441,361.71289a16.19248,16.19248,0,0,1-2.75195,4.99219c-1.91992,2.04785-4.54394,3.07129-8.12793,3.07129a16.59371,16.59371,0,0,1-7.03906-1.34375,7.21862,7.21862,0,0,1-3.3916-6.52735,72.05393,72.05393,0,0,1,1.792-10.623,10.16158,10.16158,0,0,0,.19141-1.85645,2.19213,2.19213,0,0,0-1.792-2.17578,12.23994,12.23994,0,0,0-2.624-.12793c-.44727,0-.89551,0-1.66309.06445l-4.28808,20.22266h4.22363l-.31933,1.47168H243.90186l.31982-1.47168h4.9917l8.44775-39.74121h-4.9917l.31983-1.47168h35.06933c8.38379,0,11.45508,1.9834,11.45508,7.42285a13.11191,13.11191,0,0,1-4.03125,9.47168,14.877,14.877,0,0,1-5.75976,3.32813,24.31127,24.31127,0,0,1,2.94336,1.34375,5.59255,5.59255,0,0,1,2.56054,4.86328c0,1.53613-.06445,1.98437-1.60058,7.67968a13.96967,13.96967,0,0,0-.51172,2.6875.825.825,0,0,0,.832.89649c.7041,0,1.28027-.76856,1.9834-2.56055Zm-25.08691-16.0625c5.376.12793,6.71973-.63965,7.74414-4.54394l1.91992-9.02247a9.29812,9.29812,0,0,0,.25586-1.91992c0-1.98437-.832-2.49609-3.96777-2.49609h-2.17578Z"/>
    <path class="ea77adf7-2355-4bdc-bc49-0f6e5f9af9a0" d="M297.72656,368.88086l.32032-1.47168h4.99121l8.44726-39.74121h-4.99121l.31934-1.47168H347.835l-2.87988,13.43848h-1.4082a15.2963,15.2963,0,0,0,.19238-1.9834,10.06472,10.06472,0,0,0-4.99121-8.44727c-2.24024-1.21582-4.03223-1.53613-8.96-1.53613l-3.90332,18.49414h1.34375c4.7998-.06348,8.57519-4.03125,9.5996-9.98242h1.34376l-4.54395,21.24609h-1.34375a14.94906,14.94906,0,0,0,.44824-3.13574c0-3.9043-2.36816-6.5918-5.88769-6.5918h-1.28028l-4.15918,19.71094a22.26789,22.26789,0,0,0,20.73438-14.27148h1.34375l-3.32813,15.74316Z"/>
    <path class="ea77adf7-2355-4bdc-bc49-0f6e5f9af9a0" d="M393.40137,351.1543l-4.22364,19.77441-3.83984-4.99121a29.08388,29.08388,0,0,1-15.93457,4.22363c-12.03125,0-19.71094-6.71972-19.71094-17.15136,0-8.959,5.56739-18.94239,13.1836-23.87012a30.39974,30.39974,0,0,1,15.87011-4.22363c4.79981,0,7.48731.832,11.19922,3.584l7.10352-3.584-3.51953,16.63867h-1.40821a14.56779,14.56779,0,0,0,.32032-3.00781,11.88084,11.88084,0,0,0-3.13575-7.55079,11.34305,11.34305,0,0,0-8.8955-4.16015c-3.96778,0-5.43946,1.4082-6.46387,6.0791l-6.52734,30.6543a14.17762,14.17762,0,0,0-.25586,1.98339v.38477a2.26124,2.26124,0,0,0,2.55957,2.30371c2.43261,0,4.0957-1.85644,4.86425-5.31152L377.082,351.1543h-3.26367l.32031-1.47168h22.59082l-.32031,1.47168Z"/>
    <path class="ea77adf7-2355-4bdc-bc49-0f6e5f9af9a0" d="M395.709,368.88086l.32032-1.47168h4.99121l8.44726-39.74121h-4.99121l.31934-1.47168h28.542l-.31934,1.47168h-4.99218l-8.38282,39.74121h4.99122l-.32032,1.47168Z"/>
    <path class="ea77adf7-2355-4bdc-bc49-0f6e5f9af9a0" d="M467.57715,339.69922a14.09352,14.09352,0,0,0,.25586-2.68848c0-3.32715-1.21582-5.56738-4.16016-7.87109a14.00749,14.00749,0,0,0-7.999-2.55957c-3.64746,0-6.52735,2.55957-6.52735,5.75976a3.38572,3.38572,0,0,0,1.0879,2.36719c.8955.832,1.21582,1.02442,5.11914,3.45606,9.27929,5.69531,11.71093,8.44726,11.71093,13.43945a17.428,17.428,0,0,1-7.167,13.82226,28.52532,28.52532,0,0,1-15.4873,4.73633c-4.03125,0-6.71875-1.02441-10.23926-4.03222l-6.52735,3.83984,3.71192-17.34277h1.59961a22.22957,22.22957,0,0,0-.51172,4.28808c0,3.19922,1.47168,6.01563,4.416,8.63867a11.50271,11.50271,0,0,0,7.29492,2.68848c4.67187,0,8.25586-2.624,8.25586-6.01562a4.29585,4.29585,0,0,0-1.53614-3.00782c-1.15136-1.08789-1.28027-1.15234-6.59179-4.28808-6.07911-3.584-9.08692-7.61524-9.08692-12.22266,0-4.22363,2.24024-8.96,5.82324-12.35156a21.0858,21.0858,0,0,1,14.01563-5.43945,15.363,15.363,0,0,1,10.55859,3.584l6.71973-3.584-3.13574,14.7832Z"/>
    <path class="ea77adf7-2355-4bdc-bc49-0f6e5f9af9a0" d="M474.29883,368.88086l.32031-1.47168h5.69531l8.44727-39.74121c-7.29492,2.6875-11.9668,6.91113-14.7832,13.375h-1.47168l3.13574-14.84668h45.05273L517.49609,341.043h-1.47265a5.58942,5.58942,0,0,0,.06445-.89649,13.54244,13.54244,0,0,0-9.02344-12.47851l-8.38281,39.74121H504.377l-.32031,1.47168Z"/>
    <path class="ea77adf7-2355-4bdc-bc49-0f6e5f9af9a0" d="M567.6709,361.71289a16.17216,16.17216,0,0,1-2.75195,4.99219c-1.91993,2.04785-4.543,3.07129-8.127,3.07129a16.5954,16.5954,0,0,1-7.04-1.34375,7.21862,7.21862,0,0,1-3.3916-6.52735,72.19744,72.19744,0,0,1,1.792-10.623,10.16915,10.16915,0,0,0,.19239-1.85645,2.19213,2.19213,0,0,0-1.792-2.17578,12.25053,12.25053,0,0,0-2.624-.12793c-.44824,0-.89551,0-1.66406.06445l-4.28711,20.22266h4.22363l-.32031,1.47168h-27.582l.32031-1.47168h4.99121l8.44727-39.74121h-4.99121l.31933-1.47168h35.07031c8.38282,0,11.45508,1.9834,11.45508,7.42285a13.11282,13.11282,0,0,1-4.03222,9.47168,14.87708,14.87708,0,0,1-5.75977,3.32813,24.42574,24.42574,0,0,1,2.94434,1.34375,5.59392,5.59392,0,0,1,2.55957,4.86328c0,1.53613-.06348,1.98437-1.59961,7.67968a13.89114,13.89114,0,0,0-.51172,2.6875.82426.82426,0,0,0,.83105.89649c.70411,0,1.28028-.76856,1.98438-2.56055ZM542.585,345.65039c5.375.12793,6.71973-.63965,7.74316-4.54394l1.91993-9.02247a9.23027,9.23027,0,0,0,.25586-1.91992c0-1.98437-.832-2.49609-3.96778-2.49609h-2.17578Z"/>
    <path class="ea77adf7-2355-4bdc-bc49-0f6e5f9af9a0" d="M622.583,327.668c-3.13574,1.21582-6.39942,4.0957-10.30371,9.21484l-8.51075,11.00781-4.16015,19.51856h5.75976l-.32031,1.47168H575.6748l.31934-1.47168h5.31152l3.2002-15.167L576.37793,327.668h-2.6875l.32031-1.47168H602.168l-.31934,1.47168h-4.60742l6.01465,18.30273,6.46387-8.38379c1.91992-2.49511,2.94433-4.67187,2.94433-6.27148a3.35776,3.35776,0,0,0-1.4082-3.00781c-.63965-.38379-1.28027-.51172-3.2002-.63965l.32032-1.47168h14.52734Z"/>
  </g>
</svg>
