<svg xmlns="http://www.w3.org/2000/svg" width="700.7959" height="148.5752" viewBox="0 0 700.7959 148.5752">
  <defs>
    <style>
      .b50da1ab-81b1-4ed7-b589-1f0eeec1702c {
        fill: #002f69;
      }
    </style>
  </defs>
  <title>STAR_DRIVE-logo-blue</title>
  <g id="e52ef870-0a21-469f-af70-b027d534522d" data-name="Layer 1">
    <g>
      <path class="b50da1ab-81b1-4ed7-b589-1f0eeec1702c" d="M23.4209,53.34375l.32031-1.47168h4.86328L27.06934,40.22461H12.22266a12.62682,12.62682,0,0,0-1.60059,6.01562c0,3.90332,1.85645,5.56739,6.27148,5.63184l-.31933,1.47168H-.001l.31934-1.47168c2.1123-.32031,5.376-3.83984,9.08789-9.66309l17.919-31.55029H41.916l5.63183,41.21338H49.915l-.31934,1.47168Zm.76855-34.49316L13.05469,38.75293H26.877Z"/>
      <path class="b50da1ab-81b1-4ed7-b589-1f0eeec1702c" d="M103.80273,12.13086c-4.0957,0-7.61523,4.416-9.15136,11.32715L90.62012,42.46484C89.01953,49.8877,82.04492,54.624,72.57324,54.624a36.18692,36.18692,0,0,1-10.623-1.72851c-4.67188-1.59961-7.10352-4.15918-7.10352-7.42285a14.9451,14.9451,0,0,1,.44824-3.39161l6.335-29.95019H56.63867l.31934-1.47217H84.7959l-.31934,1.47217H79.99707L72.76562,46.30469a13.47932,13.47932,0,0,0-.44824,3.07129c0,1.85547,1.2793,2.81543,3.77539,2.81543a15.35621,15.35621,0,0,0,8.76758-3.19922,11.16072,11.16072,0,0,0,4.15918-7.168L92.54,25.37793a25.06115,25.06115,0,0,0,.832-6.33594c0-4.99121-1.47266-6.7832-5.82422-6.91113l.32031-1.47217h16.25489Z"/>
      <path class="b50da1ab-81b1-4ed7-b589-1f0eeec1702c" d="M105.08594,53.34375l.32031-1.47168h5.69531l8.44727-39.74121c-7.29492,2.6875-11.9668,6.91113-14.78321,13.375H103.294l3.13574-14.84717h45.05273L148.2832,25.50586h-1.47265a5.58938,5.58938,0,0,0,.06445-.89648,13.54294,13.54294,0,0,0-9.02344-12.47852l-8.38281,39.74121h5.69531l-.32031,1.47168Z"/>
      <path class="b50da1ab-81b1-4ed7-b589-1f0eeec1702c" d="M145.08594,53.34375l.32031-1.47168h4.99121l8.44727-39.74121h-4.99121l.31933-1.47217h28.542l-.31933,1.47217h-4.99219l-8.38281,39.74121h4.99121l-.32031,1.47168Z"/>
      <path class="b50da1ab-81b1-4ed7-b589-1f0eeec1702c" d="M216.9541,24.16211a14.09271,14.09271,0,0,0,.25586-2.68848c0-3.32715-1.21582-5.56738-4.16016-7.87109a14.011,14.011,0,0,0-7.999-2.55957c-3.64746,0-6.52734,2.55957-6.52734,5.75976a3.38575,3.38575,0,0,0,1.08789,2.36719c.89551.832,1.21582,1.02442,5.11914,3.45606,9.2793,5.69531,11.71094,8.44726,11.71094,13.43945a17.428,17.428,0,0,1-7.167,13.82227,28.52536,28.52536,0,0,1-15.4873,4.73632c-4.03125,0-6.71875-1.02441-10.23926-4.03222l-6.52734,3.83984,3.71191-17.34277H182.332a22.23036,22.23036,0,0,0-.51172,4.28808c0,3.19922,1.47168,6.01563,4.416,8.63867a11.50271,11.50271,0,0,0,7.29492,2.68848c4.67187,0,8.25586-2.624,8.25586-6.01562a4.29588,4.29588,0,0,0-1.53613-3.00782c-1.15137-1.08789-1.28028-1.15234-6.5918-4.28808-6.0791-3.584-9.08691-7.61524-9.08691-12.22266,0-4.22363,2.24023-8.96,5.82324-12.35156a21.08579,21.08579,0,0,1,14.01562-5.43945,15.36543,15.36543,0,0,1,10.5586,3.584l6.71972-3.584-3.13574,14.7832Z"/>
      <path class="b50da1ab-81b1-4ed7-b589-1f0eeec1702c" d="M252.60254,53.34375l.31934-1.47168h5.248l7.48731-35.19727L243.64258,53.34375H239.4834L232.82812,16.6748l-4.86425,22.6543a37.30317,37.30317,0,0,0-.7041,5.8877c0,4.543,1.66406,6.59082,5.376,6.59082h.7041l-.32031,1.53613H216.57324l.31934-1.47168c3.9043.19141,7.61621-4.60742,9.08789-11.51953l5.43945-25.66211-.832-2.55957h-4.15918l.31934-1.47217h24.0625l4.0957,21.24658,12.79883-21.24658H290.2959l-.32031,1.47217h-4.99121l-8.44727,39.74121h4.99121l-.32031,1.47168Z"/>
      <path class="b50da1ab-81b1-4ed7-b589-1f0eeec1702c" d="M353.59277,46.17676a16.1767,16.1767,0,0,1-2.75195,4.99121c-1.91992,2.04785-4.543,3.07129-8.127,3.07129a16.59533,16.59533,0,0,1-7.04-1.34375,7.21862,7.21862,0,0,1-3.3916-6.52735,72.19744,72.19744,0,0,1,1.792-10.623,10.16755,10.16755,0,0,0,.19238-1.85547,2.19239,2.19239,0,0,0-1.792-2.17676,12.25058,12.25058,0,0,0-2.624-.12793c-.44825,0-.89551,0-1.66407.06445l-4.28711,20.22266h4.22364l-.32032,1.47168h-27.582l.32032-1.47168h4.99121l8.44726-39.74121h-4.99121l.31934-1.47217h35.07031c8.38281,0,11.45508,1.98389,11.45508,7.42334a13.11282,13.11282,0,0,1-4.03223,9.47168,14.877,14.877,0,0,1-5.75976,3.32813,24.42457,24.42457,0,0,1,2.94433,1.34375,5.59393,5.59393,0,0,1,2.55957,4.86328c0,1.53613-.06347,1.98437-1.59961,7.67968a13.89207,13.89207,0,0,0-.51172,2.6875.82427.82427,0,0,0,.83106.89649c.7041,0,1.28027-.76856,1.98437-2.56055ZM328.50684,30.11328c5.375.12793,6.71972-.63965,7.74316-4.54394l1.91992-9.02246a9.22637,9.22637,0,0,0,.25586-1.92042c0-1.98388-.832-2.4956-3.96777-2.4956h-2.17578Z"/>
      <path class="b50da1ab-81b1-4ed7-b589-1f0eeec1702c" d="M354.04492,53.34375l.32031-1.47168h4.99122l8.44726-39.74121H362.8125l.31934-1.47217h41.02148l-2.87988,13.439h-1.40821a15.29477,15.29477,0,0,0,.19239-1.9834,10.06616,10.06616,0,0,0-4.99121-8.44776c-2.24024-1.21582-4.03223-1.53564-8.96-1.53564L382.20312,30.625h1.34376c4.7998-.06348,8.57519-4.03125,9.5996-9.98242h1.34375l-4.54394,21.24609h-1.34375a14.94906,14.94906,0,0,0,.44824-3.13574c0-3.9043-2.36816-6.5918-5.88769-6.5918h-1.28028l-4.15918,19.71094A22.26789,22.26789,0,0,0,398.458,37.60059h1.34375l-3.32813,15.74316Z"/>
      <path class="b50da1ab-81b1-4ed7-b589-1f0eeec1702c" d="M442.042,24.16211a14.09271,14.09271,0,0,0,.25586-2.68848c0-3.32715-1.21582-5.56738-4.16015-7.87109a14.0111,14.0111,0,0,0-7.999-2.55957c-3.64746,0-6.52734,2.55957-6.52734,5.75976a3.38575,3.38575,0,0,0,1.08789,2.36719c.89551.832,1.21582,1.02442,5.11914,3.45606,9.2793,5.69531,11.71094,8.44726,11.71094,13.43945a17.428,17.428,0,0,1-7.167,13.82227A28.52536,28.52536,0,0,1,418.875,54.624c-4.03125,0-6.71875-1.02441-10.23926-4.03222l-6.52734,3.83984,3.71191-17.34277h1.59961a22.23036,22.23036,0,0,0-.51172,4.28808c0,3.19922,1.47168,6.01563,4.416,8.63867a11.50271,11.50271,0,0,0,7.29492,2.68848c4.67188,0,8.25586-2.624,8.25586-6.01562a4.29588,4.29588,0,0,0-1.53613-3.00782c-1.15137-1.08789-1.28028-1.15234-6.5918-4.28808-6.0791-3.584-9.08691-7.61524-9.08691-12.22266,0-4.22363,2.24023-8.96,5.82324-12.35156A21.08579,21.08579,0,0,1,429.499,9.37891a15.36543,15.36543,0,0,1,10.5586,3.584l6.71972-3.584-3.13574,14.7832Z"/>
      <path class="b50da1ab-81b1-4ed7-b589-1f0eeec1702c" d="M442.29883,53.34375l.32031-1.47168h4.99121l8.44727-39.74121h-4.99121l.31933-1.47217h41.02149l-2.87989,13.439h-1.4082a15.29434,15.29434,0,0,0,.19238-1.9834,10.06616,10.06616,0,0,0-4.99121-8.44776c-2.24023-1.21582-4.03222-1.53564-8.96-1.53564L470.457,30.625h1.34375c4.79981-.06348,8.5752-4.03125,9.59961-9.98242h1.34375L478.2002,41.88867h-1.34375a14.94906,14.94906,0,0,0,.44824-3.13574c0-3.9043-2.36817-6.5918-5.8877-6.5918h-1.28027l-4.15918,19.71094a22.26788,22.26788,0,0,0,20.73437-14.27148h1.34375l-3.32812,15.74316Z"/>
      <path class="b50da1ab-81b1-4ed7-b589-1f0eeec1702c" d="M511.48242,53.34375l.32031-1.47168H516.666l-1.53614-11.64746H500.2832a12.63564,12.63564,0,0,0-1.59961,6.01562c0,3.90332,1.85547,5.56739,6.27149,5.63184l-.32031,1.47168h-16.5752l.32031-1.47168c2.11231-.32031,5.376-3.83984,9.08692-9.66309l17.91894-31.55029h14.59082l5.63184,41.21338h2.36816l-.32031,1.47168ZM512.25,18.85059,501.11523,38.75293h13.82325Z"/>
      <path class="b50da1ab-81b1-4ed7-b589-1f0eeec1702c" d="M592.75879,46.17676a16.1767,16.1767,0,0,1-2.75195,4.99121c-1.91993,2.04785-4.543,3.07129-8.127,3.07129a16.5954,16.5954,0,0,1-7.04-1.34375,7.21862,7.21862,0,0,1-3.3916-6.52735,72.19744,72.19744,0,0,1,1.792-10.623,10.16763,10.16763,0,0,0,.19239-1.85547,2.19239,2.19239,0,0,0-1.792-2.17676,12.25053,12.25053,0,0,0-2.624-.12793c-.44824,0-.89551,0-1.66406.06445l-4.28711,20.22266h4.22363l-.32031,1.47168h-27.582l.32031-1.47168h4.99121l8.44727-39.74121H548.1543l.31933-1.47217H583.544c8.38281,0,11.45507,1.98389,11.45507,7.42334a13.11281,13.11281,0,0,1-4.03222,9.47168,14.87708,14.87708,0,0,1-5.75977,3.32813,24.42574,24.42574,0,0,1,2.94434,1.34375,5.59393,5.59393,0,0,1,2.55957,4.86328c0,1.53613-.06348,1.98437-1.59961,7.67968a13.89207,13.89207,0,0,0-.51172,2.6875.82427.82427,0,0,0,.83105.89649c.70411,0,1.28028-.76856,1.98438-2.56055ZM567.67285,30.11328c5.375.12793,6.71973-.63965,7.74317-4.54394l1.91992-9.02246a9.22637,9.22637,0,0,0,.25586-1.92042c0-1.98388-.832-2.4956-3.96778-2.4956h-2.17578Z"/>
      <path class="b50da1ab-81b1-4ed7-b589-1f0eeec1702c" d="M635.63965,45.85645c-6.335,6.207-11.9668,8.76757-19.19824,8.76757-11.07129,0-18.30274-6.84765-18.30274-17.27929a29.47446,29.47446,0,0,1,9.40723-20.99024,26.93635,26.93635,0,0,1,18.30273-6.97558c4.416,0,6.91211.896,10.04785,3.584l7.23145-3.584L639.416,26.97754h-1.47168a18.19767,18.19767,0,0,0,.31933-3.45606c0-6.46289-5.31152-12.22265-11.26269-12.22265a4.63282,4.63282,0,0,0-3.96778,1.91992c-.64062.832-1.02441,1.91992-1.59961,4.47949l-5.95214,28.15821a14.57726,14.57726,0,0,0-.44825,3.00781q0,3.83935,4.03223,3.83984c5.05566,0,10.04687-2.56055,15.29492-7.87207Z"/>
      <path class="b50da1ab-81b1-4ed7-b589-1f0eeec1702c" d="M665.14648,53.34375l.32032-1.47168H668.666l4.28808-20.03125h-7.4873l-4.22364,20.03125h3.19922l-.31933,1.47168h-26.5586l.32032-1.47168H642.876l8.44726-39.74121H646.332l.31934-1.47217H673.21l-.32031,1.47217H669.626l-3.83985,18.23828h7.48731l3.83984-18.23828h-3.19922l.31934-1.47217H700.792l-.32031,1.47217h-4.99121L687.0332,51.87207h4.99121l-.32031,1.47168Z"/>
      <path class="b50da1ab-81b1-4ed7-b589-1f0eeec1702c" d="M54.65137,122.97559a16.19225,16.19225,0,0,1-2.752,4.99218c-1.91992,2.04785-4.54394,3.07129-8.12793,3.07129a16.59371,16.59371,0,0,1-7.03906-1.34375,7.21862,7.21862,0,0,1-3.3916-6.52734,72.05565,72.05565,0,0,1,1.792-10.623,10.16139,10.16139,0,0,0,.19141-1.85644,2.19211,2.19211,0,0,0-1.792-2.17578,12.24006,12.24006,0,0,0-2.624-.12793c-.44726,0-.8955,0-1.66308.06445L24.957,128.67188h4.22363l-.31933,1.47167H1.2793l.31933-1.47167H6.58984l8.44825-39.74122H10.04688l.31933-1.47168H45.43555c8.38379,0,11.45507,1.9834,11.45507,7.42286a13.1119,13.1119,0,0,1-4.03124,9.47168,14.877,14.877,0,0,1-5.75977,3.32812,24.31452,24.31452,0,0,1,2.94336,1.34375,5.59257,5.59257,0,0,1,2.56055,4.86328c0,1.53613-.06446,1.98438-1.60059,7.67969a13.96967,13.96967,0,0,0-.51172,2.6875.825.825,0,0,0,.832.89648c.7041,0,1.28028-.76855,1.9834-2.56054Zm-25.08692-16.0625c5.376.12793,6.71973-.63965,7.74414-4.54395l1.91993-9.02246a9.29891,9.29891,0,0,0,.25586-1.91992c0-1.98438-.832-2.4961-3.96778-2.4961H33.34082Z"/>
      <path class="b50da1ab-81b1-4ed7-b589-1f0eeec1702c" d="M55.10352,130.14355l.32031-1.47167H60.415L68.8623,88.93066H63.87109l.31934-1.47168h41.02148L102.332,100.89746h-1.4082a15.29434,15.29434,0,0,0,.19238-1.9834A10.06472,10.06472,0,0,0,96.125,90.4668c-2.24023-1.21582-4.03223-1.53614-8.96-1.53614L83.26172,107.4248h1.34375c4.7998-.06347,8.57519-4.03125,9.59961-9.98242h1.34375l-4.54395,21.2461H89.66113a14.94863,14.94863,0,0,0,.44825-3.13575c0-3.90429-2.36817-6.59179-5.8877-6.59179H82.94141l-4.15918,19.71094A22.26789,22.26789,0,0,0,99.5166,114.40039h1.34375l-3.32812,15.74316Z"/>
      <path class="b50da1ab-81b1-4ed7-b589-1f0eeec1702c" d="M150.77832,112.417l-4.22363,19.77442-3.83985-4.99121a29.084,29.084,0,0,1-15.93457,4.22363c-12.03125,0-19.71093-6.71973-19.71093-17.15137,0-8.959,5.56738-18.94238,13.18359-23.87012a30.39975,30.39975,0,0,1,15.87012-4.22363c4.7998,0,7.4873.832,11.19922,3.584l7.10351-3.584-3.51953,16.63867h-1.4082a14.56767,14.56767,0,0,0,.32031-3.00781,11.88083,11.88083,0,0,0-3.13574-7.55078,11.3431,11.3431,0,0,0-8.89551-4.16016c-3.96777,0-5.43945,1.40821-6.46387,6.0791L124.7959,124.832a14.17774,14.17774,0,0,0-.25586,1.9834v.38477a2.26125,2.26125,0,0,0,2.55957,2.30371c2.43262,0,4.0957-1.85645,4.86426-5.31153L134.459,112.417h-3.26367l.32031-1.47168h22.59083l-.32032,1.47168Z"/>
      <path class="b50da1ab-81b1-4ed7-b589-1f0eeec1702c" d="M153.08594,130.14355l.32031-1.47167h4.99121l8.44727-39.74122h-4.99121l.31933-1.47168h28.542l-.31933,1.47168h-4.99219l-8.38281,39.74122h4.99121l-.32031,1.47167Z"/>
      <path class="b50da1ab-81b1-4ed7-b589-1f0eeec1702c" d="M224.9541,100.96191a14.09261,14.09261,0,0,0,.25586-2.68847c0-3.32715-1.21582-5.56739-4.16016-7.8711a14.00749,14.00749,0,0,0-7.999-2.55957c-3.64746,0-6.52734,2.55957-6.52734,5.75977a3.38578,3.38578,0,0,0,1.08789,2.36719c.89551.832,1.21582,1.02441,5.11914,3.45605,9.2793,5.69531,11.71094,8.44727,11.71094,13.43945a17.428,17.428,0,0,1-7.167,13.82227,28.52537,28.52537,0,0,1-15.4873,4.73633c-4.03125,0-6.71875-1.02442-10.23926-4.03223l-6.52734,3.83985,3.71191-17.34278H190.332a22.23036,22.23036,0,0,0-.51172,4.28809c0,3.19922,1.47168,6.01562,4.416,8.63867a11.50276,11.50276,0,0,0,7.29492,2.68848c4.67187,0,8.25586-2.624,8.25586-6.01563a4.29587,4.29587,0,0,0-1.53613-3.00781c-1.15137-1.08789-1.28028-1.15235-6.5918-4.28809-6.0791-3.584-9.08691-7.61523-9.08691-12.22265,0-4.22364,2.24023-8.96,5.82324-12.35157a21.08579,21.08579,0,0,1,14.01562-5.43945,15.36306,15.36306,0,0,1,10.5586,3.584l6.71972-3.584-3.13574,14.7832Z"/>
      <path class="b50da1ab-81b1-4ed7-b589-1f0eeec1702c" d="M231.67578,130.14355l.32031-1.47167h5.69532l8.44726-39.74122c-7.29492,2.6875-11.96679,6.91114-14.7832,13.375h-1.47168L233.01953,87.459h45.05274l-3.19922,14.84668h-1.47266a5.58925,5.58925,0,0,0,.06445-.89648,13.54246,13.54246,0,0,0-9.02343-12.47852l-8.38282,39.74122h5.69532l-.32032,1.47167Z"/>
      <path class="b50da1ab-81b1-4ed7-b589-1f0eeec1702c" d="M325.04785,122.97559a16.172,16.172,0,0,1-2.75195,4.99218c-1.91992,2.04785-4.543,3.07129-8.127,3.07129a16.59533,16.59533,0,0,1-7.04-1.34375,7.2186,7.2186,0,0,1-3.39161-6.52734,72.19832,72.19832,0,0,1,1.792-10.623,10.16889,10.16889,0,0,0,.19238-1.85644,2.19211,2.19211,0,0,0-1.792-2.17578,12.2507,12.2507,0,0,0-2.624-.12793c-.44824,0-.8955,0-1.66406.06445l-4.28711,20.22266h4.22363l-.32031,1.47167h-27.582l.32031-1.47167h4.99121l8.44727-39.74122h-4.99121l.31934-1.47168H315.833c8.38281,0,11.45508,1.9834,11.45508,7.42286a13.11283,13.11283,0,0,1-4.03223,9.47168,14.8768,14.8768,0,0,1-5.75977,3.32812,24.42746,24.42746,0,0,1,2.94434,1.34375A5.59393,5.59393,0,0,1,323,113.88867c0,1.53613-.06348,1.98438-1.59961,7.67969a13.89194,13.89194,0,0,0-.51172,2.6875.82426.82426,0,0,0,.83106.89648c.7041,0,1.28027-.76855,1.98437-2.56054Zm-25.08594-16.0625c5.375.12793,6.71973-.63965,7.74317-4.54395l1.91992-9.02246a9.23035,9.23035,0,0,0,.25586-1.91992c0-1.98438-.832-2.4961-3.96777-2.4961H303.7373Z"/>
      <path class="b50da1ab-81b1-4ed7-b589-1f0eeec1702c" d="M379.96,88.93066c-3.13574,1.21582-6.39941,4.09571-10.30371,9.21485l-8.51074,11.00781-4.16016,19.51856h5.75977l-.32032,1.47167h-29.373l.31933-1.47167h5.31153l3.20019-15.167-8.12793-24.57422h-2.6875l.32032-1.47168h28.15722l-.31933,1.47168h-4.60743l6.01465,18.30274,6.46387-8.38379c1.91992-2.49512,2.94434-4.67188,2.94434-6.27149a3.35778,3.35778,0,0,0-1.40821-3.00781c-.63965-.38379-1.28027-.51172-3.20019-.63965l.32031-1.47168h14.52734Z"/>
    </g>
  </g>
</svg>
