<svg xmlns="http://www.w3.org/2000/svg" id="icon-chevron-circle-right" viewBox="0 0 24 28" width="100%" height="100%">
  <title>chevron-circle-right</title>
  <style>
    path {
      fill: #e57200;
    }
  </style>
  <path d="M11.203 21.797l7.094-7.094c0.391-0.391 0.391-1.016 0-1.406l-7.094-7.094c-0.391-0.391-1.016-0.391-1.406 0l-1.594 1.594c-0.391 0.391-0.391 1.016 0 1.406l4.797 4.797-4.797 4.797c-0.391 0.391-0.391 1.016 0 1.406l1.594 1.594c0.391 0.391 1.016 0.391 1.406 0zM24 14c0 6.625-5.375 12-12 12s-12-5.375-12-12 5.375-12 12-12 12 5.375 12 12z"></path>
</svg>