<svg width="700" height="700" viewBox="-200 -200 944 944" fill="none" xmlns="http://www.w3.org/2000/svg" class="oculus">
    <path d="M738.638 289.031H295.308L736.518 245.606L736.216 242.767L295.005 286.23L729.856 199.72L729.288 196.956L294.475 283.428L718.726 154.743L717.893 152.017L293.642 280.74L703.243 111.052L702.145 108.44L292.582 278.09L683.558 69.1038L682.195 66.605L291.22 275.591L659.822 29.2753L658.27 26.928L289.667 273.244L632.339 -8.05445L630.56 -10.2503L287.888 271.01L601.335 -42.469L599.329 -44.4756L285.844 269.003L567.075 -73.7033L564.88 -75.4827L283.648 267.262L529.939 -101.417L527.592 -103.007L281.301 265.634L490.266 -125.382L487.767 -126.707L278.803 264.309L448.435 -145.296L445.823 -146.394L276.153 263.211L404.863 -161.046L402.137 -161.879L273.427 262.416L359.928 -172.442L357.165 -173.01L270.664 261.848L314.122 -179.408L311.283 -179.673L267.825 261.545V-181.793H264.985V261.583L221.527 -179.673L218.725 -179.408L262.184 261.81L175.683 -173.01L172.882 -172.442L259.383 262.416L130.711 -161.879L127.985 -161.046L256.695 263.249L87.0248 -146.394L84.3749 -145.296L254.045 264.309L45.0426 -126.707L42.5441 -125.382L251.547 265.634L5.25608 -103.007L2.87115 -101.417L249.162 267.224L-32.0698 -75.4827L-34.2655 -73.7033L246.966 269.003L-66.4808 -44.4756L-68.4872 -42.469L244.96 271.048L-97.7119 -10.2503L-99.529 -8.05445L243.18 273.244L-125.422 26.928L-127.012 29.2753L241.59 275.591L-149.385 66.605L-150.71 69.1038L240.265 278.09L-169.335 108.44L-170.395 111.052L239.168 280.74L-185.083 152.017L-185.878 154.743L238.335 283.428L-196.44 196.956L-197.008 199.72L237.805 286.23L-203.406 242.767L-203.671 245.606L237.502 289.031H-205.791V291.871H237.54L-203.671 335.334L-203.406 338.173L237.805 294.71L-197.008 381.22L-196.44 383.984L238.373 297.512L-185.878 426.197L-185.083 428.923L239.168 300.238L-170.395 469.887L-169.335 472.5L240.265 302.85L-150.71 511.836L-149.385 514.335L241.59 305.349L-127.012 551.665L-125.422 554.05L243.18 307.696L-99.529 588.994L-97.7119 591.19L244.96 309.93L-68.4872 623.409L-66.4808 625.415L246.966 311.899L-34.2655 654.643L-32.0698 656.423L249.162 313.716L2.87115 682.356L5.25608 683.947L251.547 315.306L42.5441 706.322L45.0426 707.647L254.045 316.631L84.3749 726.236L87.0248 727.334L256.695 317.691L127.985 741.986L130.711 742.819L259.383 318.524L172.882 753.381L175.683 753.949L262.184 319.13L218.725 760.31L221.527 760.613L264.985 319.357V762.733H267.825V319.395L311.283 760.613L314.122 760.31L270.664 319.092L357.165 753.949L359.928 753.381L273.427 318.524L402.137 742.819L404.863 741.986L276.153 317.729L445.823 727.334L448.435 726.236L278.803 316.631L487.767 707.647L490.266 706.322L281.301 315.306L527.592 683.947L529.939 682.356L283.648 313.678L564.88 656.423L567.075 654.643L285.844 311.899L599.329 625.415L601.335 623.409L287.888 309.93L630.56 591.19L632.339 588.994L289.667 307.696L658.27 554.05L659.822 551.665L291.22 305.349L682.195 514.335L683.558 511.836L292.582 302.85L702.145 472.5L703.243 469.887L293.642 300.238L717.893 428.923L718.726 426.197L294.475 297.512L729.288 383.984L729.856 381.22L295.043 294.71L736.216 338.173L736.518 335.334L295.308 291.871H738.638V289.031Z"
          fill="#fafae1"></path>
</svg>
