<svg xmlns="http://www.w3.org/2000/svg" viewBox="0 0 32 32" width="100%" height="100%">
  <style>
    path { fill: #319fbd; }
  </style>
  <title>starburst</title>
  <path d="M11.526 7.258l-2.912-5.446-0.307 0.166 2.912 5.446c0.096-0.058 0.198-0.115 0.307-0.166zM10.694 7.738l-3.437-5.139-0.288 0.192 3.43 5.139c0.096-0.064 0.192-0.128 0.294-0.192v0zM9.907 8.301l-3.923-4.781-0.269 0.224 3.923 4.774c0.083-0.077 0.173-0.147 0.269-0.218v0zM9.184 8.934l-4.371-4.371-0.25 0.25 4.371 4.371c0.077-0.090 0.16-0.173 0.25-0.25v0zM12.403 6.861l-2.368-5.709-0.326 0.134 2.362 5.709c0.115-0.051 0.224-0.096 0.333-0.134v0zM14.259 6.336l-1.184-5.939-0.026-0.122-0.346 0.070 1.203 6.061c0.122-0.032 0.23-0.051 0.352-0.070v0zM13.318 6.554l-1.798-5.914-0.333 0.102 1.792 5.914c0.115-0.038 0.224-0.077 0.339-0.102v0zM14.259 0.096l0.608 6.15c0.115-0.013 0.23-0.026 0.346-0.032l-0.608-6.15-0.346 0.032zM6.65 12.979l-5.914-1.792-0.096 0.333 5.914 1.792c0.026-0.109 0.064-0.218 0.096-0.333zM6.176 16c0-0.058 0.006-0.115 0.006-0.173h-6.182v0.352h6.182c0-0.064-0.006-0.122-0.006-0.179zM6.246 14.861l-6.15-0.608-0.032 0.346 6.15 0.608c0.006-0.109 0.013-0.23 0.032-0.346v0zM8.518 9.638l-4.774-3.923-0.224 0.269 4.774 3.923c0.077-0.096 0.147-0.186 0.224-0.269v0zM6.995 12.077l-5.709-2.362-0.134 0.326 5.709 2.362c0.038-0.109 0.083-0.218 0.134-0.326v0zM7.93 10.4l-5.139-3.437-0.192 0.294 5.133 3.43c0.070-0.096 0.134-0.192 0.198-0.288v0zM7.418 11.219l-5.446-2.912-0.166 0.307 5.446 2.912c0.058-0.109 0.115-0.211 0.166-0.307v0zM6.4 13.914l-6.061-1.203-0.070 0.346 6.067 1.197c0.019-0.115 0.038-0.23 0.064-0.339zM24.742 11.526l5.446-2.912-0.166-0.307-5.446 2.906c0.058 0.102 0.115 0.205 0.166 0.314v0zM24.262 10.694l5.139-3.43-0.192-0.294-5.139 3.43c0.064 0.096 0.128 0.192 0.192 0.294v0zM23.699 9.907l4.781-3.923-0.224-0.269-4.774 3.923c0.077 0.083 0.147 0.173 0.218 0.269v0zM25.139 12.403l5.709-2.368-0.134-0.326-5.709 2.362c0.051 0.115 0.096 0.224 0.134 0.333v0zM25.446 13.318l5.914-1.798-0.102-0.333-5.914 1.792c0.038 0.115 0.070 0.224 0.102 0.339v0zM25.792 15.213l6.15-0.608-0.032-0.346-6.15 0.608c0.006 0.109 0.019 0.23 0.032 0.346zM25.664 14.253l6.061-1.203-0.070-0.346-6.054 1.21c0.026 0.115 0.045 0.224 0.064 0.339zM23.066 9.178l4.371-4.371-0.25-0.25-4.371 4.371c0.090 0.083 0.173 0.166 0.25 0.25v0zM19.014 6.65l1.792-5.914-0.326-0.096-1.792 5.914c0.109 0.026 0.218 0.064 0.326 0.096v0zM19.29 0.339l-0.346-0.070-1.203 6.067c0.115 0.019 0.23 0.045 0.346 0.064l1.203-6.061zM22.362 8.518l3.84-4.678 0.083-0.096-0.269-0.224-3.923 4.774c0.096 0.077 0.186 0.147 0.269 0.224v0zM16.787 6.208c0.115 0.006 0.23 0.019 0.346 0.032l0.608-6.15-0.346-0.032-0.608 6.15zM15.827 6.176c0.058 0 0.115-0.006 0.173-0.006s0.115 0.006 0.173 0.006v-6.176h-0.352l0.006 6.176zM21.6 7.93l3.43-5.139-0.288-0.192-3.43 5.139c0.096 0.064 0.192 0.128 0.288 0.192v0zM20.787 7.418l2.912-5.446-0.307-0.166-2.912 5.446c0.096 0.058 0.205 0.115 0.307 0.166v0zM19.923 6.989l2.362-5.702-0.326-0.134-2.362 5.709c0.109 0.038 0.218 0.083 0.326 0.128v0zM14.259 31.904l0.346 0.032 0.608-6.15c-0.115-0.006-0.23-0.019-0.346-0.032l-0.608 6.15zM23.482 22.368l4.774 3.923 0.224-0.269-4.774-3.923c-0.077 0.090-0.147 0.179-0.224 0.269zM21.312 24.262l3.43 5.139 0.288-0.192-3.43-5.139c-0.096 0.064-0.192 0.128-0.288 0.192zM17.741 25.664l1.203 6.061 0.346-0.070-1.203-6.054c-0.109 0.026-0.23 0.045-0.346 0.064zM6.208 16.787l-6.15 0.608 0.032 0.346 6.15-0.608c-0.013-0.109-0.019-0.23-0.032-0.346zM18.682 25.446l1.798 5.914 0.333-0.102-1.792-5.914c-0.115 0.038-0.224 0.070-0.339 0.102zM20.474 24.742l2.912 5.446 0.307-0.166-2.912-5.446c-0.096 0.058-0.205 0.115-0.307 0.166v0zM19.597 25.146l2.368 5.702 0.32-0.134-2.362-5.709c-0.109 0.051-0.218 0.096-0.326 0.141v0zM22.816 23.066l4.371 4.371 0.25-0.25-4.371-4.371c-0.083 0.090-0.16 0.173-0.25 0.25v0zM24.070 21.6l5.139 3.43 0.192-0.288-5.139-3.43c-0.064 0.096-0.128 0.192-0.192 0.288v0zM25.754 17.139l6.15 0.608 0.032-0.346-6.15-0.608c-0.006 0.109-0.019 0.23-0.032 0.346v0zM25.818 15.827c0 0.058 0.006 0.115 0.006 0.173s0 0.115-0.006 0.173h6.182v-0.352l-6.182 0.006zM25.6 18.086l6.061 1.203 0.070-0.346-6.067-1.203c-0.019 0.115-0.038 0.23-0.064 0.346zM24.582 20.787l5.446 2.912 0.166-0.307-5.446-2.912c-0.058 0.096-0.115 0.205-0.166 0.307v0zM25.011 19.923l5.709 2.362 0.134-0.32-5.709-2.368c-0.045 0.109-0.090 0.218-0.134 0.326v0zM25.35 19.021l5.914 1.792 0.096-0.333-5.914-1.792c-0.032 0.109-0.064 0.218-0.096 0.333v0zM22.093 23.699l3.917 4.781 0.269-0.224-3.923-4.774c-0.077 0.077-0.166 0.147-0.262 0.218v0zM8.934 22.822l-4.371 4.371 0.25 0.25 4.371-4.371c-0.090-0.083-0.173-0.166-0.25-0.25zM8.301 22.093l-4.781 3.923 0.224 0.269 4.774-3.923c-0.077-0.083-0.147-0.173-0.218-0.269v0zM7.258 20.474l-5.446 2.912 0.166 0.307 5.446-2.912c-0.058-0.096-0.115-0.205-0.166-0.307v0zM7.738 21.306l-5.139 3.437 0.192 0.288 5.139-3.43c-0.064-0.096-0.128-0.192-0.192-0.294v0zM6.336 17.741l-6.061 1.21 0.070 0.346 6.054-1.203c-0.026-0.122-0.045-0.237-0.064-0.352zM6.554 18.682l-5.914 1.798 0.102 0.333 5.914-1.792c-0.038-0.115-0.077-0.224-0.102-0.339v0zM6.861 19.597l-5.709 2.362 0.134 0.32 5.709-2.362c-0.051-0.102-0.096-0.211-0.134-0.32v0zM10.4 24.070l-3.43 5.139 0.288 0.192 3.43-5.133c-0.096-0.070-0.192-0.134-0.288-0.198v0zM12.71 31.661l0.346 0.070 1.203-6.061c-0.115-0.019-0.23-0.045-0.346-0.064l-1.203 6.054zM12.986 25.35l-1.792 5.914 0.326 0.102 1.792-5.914c-0.109-0.038-0.218-0.070-0.326-0.102v0zM15.827 25.818v6.182h0.352v-6.182c-0.058 0-0.115 0.006-0.173 0.006s-0.122-0.006-0.179-0.006v0zM12.083 25.011l-2.368 5.709 0.326 0.134 2.362-5.709c-0.109-0.045-0.218-0.090-0.32-0.134v0zM9.638 23.482l-3.923 4.774 0.269 0.224 3.923-4.774c-0.096-0.077-0.186-0.147-0.269-0.224v0zM16.787 25.792l0.608 6.15 0.346-0.032-0.608-6.15c-0.109 0.006-0.23 0.019-0.346 0.032zM11.213 24.582l-2.912 5.446 0.307 0.166 2.912-5.446c-0.102-0.058-0.205-0.115-0.307-0.166v0z"></path>
</svg>